<svg width="500" height="235" viewBox="0 0 500 235" fill="none" xmlns="http://www.w3.org/2000/svg">
<path d="M48.0325 96.0651C74.5603 96.0651 96.0651 74.5602 96.0651 48.0325C96.0651 21.5049 74.5603 0 48.0325 0C21.5048 0 0 21.5049 0 48.0325C0 74.5602 21.5048 96.0651 48.0325 96.0651Z" fill="#707172"/>
<path d="M227.624 173.226C227.624 173.226 202.883 153.936 180.749 132.524C145.255 98.1869 125.965 97.6083 102.817 103.781C85.6484 109.761 74.8447 132.524 74.8447 132.524L165.894 229.903L310.865 229.557L460.022 230.479L485.389 234.569C485.389 234.569 495.82 183.472 499.414 165.307C503.008 147.142 489.232 150.76 480.941 162.911C476.99 168.703 468.512 182.447 462.035 196.081L227.624 173.226Z" fill="#707172"/>
</svg>
