<?xml version="1.0" encoding="UTF-8" standalone="no"?>
<svg
   width="500"
   height="500"
   viewBox="0 0 500 500"
   fill="none"
   version="1.1"
   id="svg852"
   sodipodi:docname="back-down.svg"
   inkscape:version="1.1.1 (3bf5ae0d25, 2021-09-20)"
   xmlns:inkscape="http://www.inkscape.org/namespaces/inkscape"
   xmlns:sodipodi="http://sodipodi.sourceforge.net/DTD/sodipodi-0.dtd"
   xmlns="http://www.w3.org/2000/svg"
   xmlns:svg="http://www.w3.org/2000/svg">
  <defs
     id="defs856" />
  <sodipodi:namedview
     id="namedview854"
     pagecolor="#ffffff"
     bordercolor="#111111"
     borderopacity="1"
     inkscape:pageshadow="0"
     inkscape:pageopacity="0"
     inkscape:pagecheckerboard="1"
     showgrid="false"
     inkscape:zoom="2.328"
     inkscape:cx="250"
     inkscape:cy="98.582474"
     inkscape:window-width="1920"
     inkscape:window-height="1017"
     inkscape:window-x="1072"
     inkscape:window-y="979"
     inkscape:window-maximized="1"
     inkscape:current-layer="svg852" />
  <path
     id="path975"
     style="fill:#000000;stroke-width:0.429553"
     d="m 495.33821,152.01472 c -2.69324,-0.42226 -6.37274,1.26049 -10.31836,5.16016 -4.20732,4.15831 -11.33913,15.64523 -19.29882,31.08203 -2.55143,4.94816 -4.45746,8.17188 -4.76563,8.0625 -0.28246,-0.10027 -5.9259,-1.14715 -12.54102,-2.32813 -6.61511,-1.18098 -22.27148,-3.99342 -34.79296,-6.25 -24.72678,-4.45618 -41.6355,-7.50213 -56.05664,-10.0957 -5.07946,-0.91352 -28.66269,-5.16679 -52.40625,-9.45313 -36.42597,-6.57584 -43.63866,-7.76433 -46.17579,-7.60742 -5.651,0.34949 -18.94689,4.94239 -41.88281,14.46875 -6.73325,2.79663 -14.9483,6.19089 -18.25586,7.54297 -28.31311,11.57401 -51.76011,24.06398 -66.36523,35.35156 -4.94934,3.82511 -11.81364,10.81014 -14.2168,14.46875 -2.60837,3.97101 -4.81357,9.26118 -6.27344,15.04492 -1.08706,4.30675 -1.18945,5.39842 -1.18945,12.66016 0,7.22916 0.10442,8.36413 1.16797,12.57422 2.72803,10.79902 8.3311,20.85379 16.36719,29.375 l 3.37304,3.57617 2.64063,-1.45703 c 2.91655,-1.60871 132.10704,-70.01534 135.08789,-71.5293 l 1.86328,-0.94531 94.17578,-0.41016 94.17383,-0.41015 12.83398,1.93945 c 7.0581,1.06709 12.95483,1.79586 13.10547,1.61914 0.15064,-0.17672 1.08759,-4.57389 2.08008,-9.77148 0.99247,-5.1976 4.11593,-21.48985 6.94141,-36.20508 2.82549,-14.71523 5.13576,-27.76221 5.13476,-28.99414 -0.005,-4.51904 -1.71301,-7.04649 -4.40625,-7.46875 z M 53.976894,239.23738 c -3.22267,0.0321 -6.42635,0.35785 -9.54492,0.98437 -23.473402,4.71583 -40.691625,23.11972 -43.87305004,46.89453 -0.637145,4.76139 -0.232717,13.30987 0.85742204,18.10742 5.222454,22.9833 23.778554,39.72963 47.298828,42.68555 3.10756,0.39055 13.21197,-0.0924 16.53906,-0.79102 10.78508,-2.26474 20.26366,-7.36776 27.93164,-15.03515 7.570636,-7.57006 12.586006,-16.96924 14.851556,-27.83203 1.29562,-6.21207 1.28924,-15.14775 -0.0156,-21.36328 -3.22161,-15.34572 -12.626186,-28.38224 -26.226556,-36.35157 -8.30197,-4.86465 -18.15035,-7.39502 -27.81836,-7.29882 z" />
</svg>
