<?xml version="1.0" encoding="UTF-8" standalone="no"?>
<svg
   width="500"
   height="293"
   viewBox="0 0 500 293"
   fill="none"
   version="1.1"
   id="svg880"
   sodipodi:docname="Brightness-Down.svg"
   inkscape:version="1.1.1 (3bf5ae0d25, 2021-09-20)"
   xmlns:inkscape="http://www.inkscape.org/namespaces/inkscape"
   xmlns:sodipodi="http://sodipodi.sourceforge.net/DTD/sodipodi-0.dtd"
   xmlns="http://www.w3.org/2000/svg"
   xmlns:svg="http://www.w3.org/2000/svg">
  <defs
     id="defs884" />
  <sodipodi:namedview
     id="namedview882"
     pagecolor="#ffffff"
     bordercolor="#111111"
     borderopacity="1"
     inkscape:pageshadow="0"
     inkscape:pageopacity="0"
     inkscape:pagecheckerboard="1"
     showgrid="false"
     inkscape:zoom="2.444"
     inkscape:cx="250.20458"
     inkscape:cy="146.68576"
     inkscape:window-width="1920"
     inkscape:window-height="1017"
     inkscape:window-x="1072"
     inkscape:window-y="979"
     inkscape:window-maximized="1"
     inkscape:current-layer="svg880" />
  <path
     id="path1018"
     style="fill:#000000;stroke-width:0.409165"
     d="m 354.36816,0.49177441 c -2.06095,-0.07296 -4.16095,0.185122 -5.78125,0.79296899 -3.22417,1.209527 -6.12409,3.92756 -7.78125,7.292968 l -1.3418,2.7246096 -0.11523,24.253906 c -0.0631,13.338745 -0.18082,24.251953 -0.26172,24.251953 -0.0809,0 -1.96272,0.370884 -4.18164,0.824219 -10.94378,2.235867 -20.86426,6.210162 -30.36719,12.167969 L 300.2998,75.458571 284.69433,59.878493 C 266.59099,41.806267 266.85009,41.997967 260.49511,42.024977 c -3.2317,0.01373 -3.97445,0.161731 -6.07031,1.208985 -3.08526,1.541637 -6.07712,4.801125 -7.23437,7.880859 -1.5644,4.16322 -1.03462,9.503036 1.2832,12.914062 0.48687,0.716515 7.68685,8.13024 15.99805,16.47461 l 15.11132,15.171878 -2.91015,4.466789 c -5.61487,8.62491 -9.67268,17.83238 -12.08789,27.42188 -0.78611,3.1212 -1.42969,6.00097 -1.42969,6.39844 0,0.68065 -1.15853,0.72372 -19.94727,0.73632 -21.15253,0.0142 -24.37986,0.20365 -27.26757,1.60157 -4.4099,2.1348 -7.73039,6.75022 -8.26758,11.49218 -0.5495,4.85065 2.07835,10.58888 6.11328,13.34961 3.77124,2.58031 3.89903,2.59375 27.5332,2.59375 H 262.708 l 0.25196,1.53321 c 0.51665,3.15077 2.76193,11.81326 3.9414,15.20703 1.72422,4.96122 6.77724,15.11943 9.68555,19.4707 l 2.46094,3.68164 -15.46485,15.54883 c -14.50544,14.58357 -15.52048,15.69845 -16.35742,17.97656 -1.17758,3.20542 -1.20099,7.43691 -0.0586,10.48633 1.78304,4.75948 6.76973,8.60228 11.9375,9.19922 2.64732,0.30579 6.61687,-0.55462 8.92773,-1.93555 0.80605,-0.48169 8.21696,-7.5925 16.46875,-15.80078 l 15.00196,-14.92383 4.22851,2.65625 c 5.74343,3.60811 8.13115,4.88522 13.08985,7.00196 5.76859,2.46246 12.52848,4.5999 17.91211,5.66211 l 4.49218,0.88476 0.1211,20.69727 c 0.11229,19.18759 0.17571,20.81671 0.88281,22.33398 1.97097,4.22925 5.08161,7.08575 9.20312,8.45117 6.65764,2.20564 14.4457,-1.34914 17.51758,-7.99609 l 1.15625,-2.5 0.20313,-20.61914 0.20507,-20.6211 4.29688,-0.95898 c 11.22153,-2.50563 21.39355,-6.89641 31.28906,-13.50781 l 3.26172,-2.17969 15.76563,15.69336 c 14.51911,14.45368 15.94698,15.76 18.08203,16.54688 3.51803,1.29657 5.92696,1.48831 8.96094,0.71484 4.94504,-1.26067 8.41787,-4.37602 10.22851,-9.17578 0.7029,-1.86398 0.83801,-2.94034 0.69727,-5.58203 -0.29793,-5.59179 -0.40765,-5.73242 -17.97852,-23.35743 l -15.53516,-15.58398 2.5,-3.85156 c 5.43127,-8.36406 10.39522,-20.64614 12.33985,-30.53711 l 0.90234,-4.58985 22.94727,-0.11523 c 22.59074,-0.1134 22.97678,-0.12997 24.87695,-1.00781 2.54671,-1.17654 5.89027,-4.34983 7.09961,-6.73633 1.90901,-3.76725 1.99037,-8.87723 0.20117,-12.68359 -2.0848,-4.43521 -6.17631,-7.36553 -11.32226,-8.10938 -1.56997,-0.22694 -11.9745,-0.41102 -23.48243,-0.41602 l -20.6621,-0.008 -0.74805,-3.77148 c -2.0709,-10.43998 -7.99525,-23.96361 -14.70117,-33.558599 -0.43562,-0.62329 1.43463,-2.6477 15.32812,-16.572261 18.42657,-18.46779 18.12714,-18.059009 18.11914,-24.658203 -0.004,-3.47716 -0.13007,-4.136445 -1.19922,-6.25586 -1.45479,-2.88385 -4.01033,-5.317798 -7.11132,-6.771484 -1.9436,-0.911121 -2.88977,-1.087891 -5.80079,-1.087891 -6.13555,0 -5.95958,-0.132123 -24.3457,18.199219 l -15.95703,15.910156 -3.68359,-2.457031 C 394.72534,68.219531 382.32027,63.012399 372.72363,61.00154 l -4.38281,-0.917969 -0.11719,-24.177734 -0.11719,-24.175782 -0.95703,-2.3710936 C 365.982,6.4661674 362.80224,3.0896624 359.92285,1.6851334 358.4524,0.96786641 356.42911,0.56473641 354.36816,0.49177441 Z M 352.95019,88.817941 c 4.41662,2.2e-4 8.83829,0.355 12.29102,1.0625 8.04679,1.64888 16.91598,5.51709 23.6289,10.306649 4.4733,3.19162 10.97465,9.73207 14.15821,14.24414 4.60973,6.53337 8.53968,15.4976 10.09375,23.01953 7.38805,35.75936 -17.48965,69.78758 -53.90039,73.72656 -11.56772,1.25142 -22.92247,-0.83715 -33.61133,-6.18164 -35.99349,-17.99692 -45.23971,-65.11098 -18.73633,-95.47461 8.49647,-9.733989 21.01084,-17.002589 33.81836,-19.642579 3.43072,-0.70716 7.84119,-1.06076 12.25781,-1.06055 z M 3.7724536,100.31404 l -1.4414,1.26562 c -1.65859001,1.45626 -2.43464001,3.70362 -1.90430001,5.50977 0.19459,0.66272 16.08531041,28.4537 35.31250041,61.75977 34.39898,59.58718 34.98652,60.57262 36.75586,61.47851 0.98897,0.50634 1.98904,0.91897 2.22266,0.91797 1.22992,-0.007 3.45305,-0.92709 4.19336,-1.73633 1.36636,-1.49361 70.203346,-121.02193 70.640616,-122.66015 0.32989,-1.23594 0.24605,-1.81186 -0.47851,-3.3086 -1.71826,-3.549449 5.72993,-3.22656 -74.285156,-3.22656 z" />
</svg>
