<?xml version="1.0" encoding="UTF-8" standalone="no"?>
<svg
   width="500"
   height="378"
   viewBox="0 0 500 378"
   fill="none"
   version="1.1"
   id="svg1011"
   sodipodi:docname="camera-ccw.svg"
   inkscape:version="1.1.1 (3bf5ae0d25, 2021-09-20)"
   xmlns:inkscape="http://www.inkscape.org/namespaces/inkscape"
   xmlns:sodipodi="http://sodipodi.sourceforge.net/DTD/sodipodi-0.dtd"
   xmlns="http://www.w3.org/2000/svg"
   xmlns:svg="http://www.w3.org/2000/svg">
  <defs
     id="defs1015" />
  <sodipodi:namedview
     id="namedview1013"
     pagecolor="#ffffff"
     bordercolor="#111111"
     borderopacity="1"
     inkscape:pageshadow="0"
     inkscape:pageopacity="0"
     inkscape:pagecheckerboard="1"
     showgrid="false"
     inkscape:zoom="1.9021164"
     inkscape:cx="249.9847"
     inkscape:cy="189"
     inkscape:window-width="1920"
     inkscape:window-height="1017"
     inkscape:window-x="1072"
     inkscape:window-y="979"
     inkscape:window-maximized="1"
     inkscape:current-layer="svg1011" />
  <path
     id="path1111"
     style="fill:#000000;stroke-width:0.52573"
     d="m 153.07914,0.30090754 -9.0625,8.02148396 C 139.03296,12.735086 126.12011,24.031613 115.31937,33.425908 l -19.638673,17.082031 -27.15235,0.28125 -27.15234,0.283203 -4.61914,1.429688 c -9.12011,2.821736 -15.97531,7.04655 -22.46875,13.845703 C 7.8362274,73.103431 3.5909874,80.945701 1.3506174,90.246216 0.46685744,93.915006 0.40017744,100.93001 0.23147744,209.80286 c -0.12063,77.85272 7.8e-4,117.5519 0.37109,121.44532 0.30259,3.18132 1.03031996,7.51697 1.61718996,9.63476 5.48624,19.79776 23.1372196,34.50317 43.6249996,36.34375 6.8396,0.61443 400.813123,0.63709 407.703133,0.0234 7.26842,-0.64735 12.37189,-2.0339 18.40234,-5.00195 12.79927,-6.2995 22.45276,-18.21072 26.41406,-32.58985 l 1.44922,-5.25586 V 214.27162 94.142706 l -1.17578,-4.61328 C 494.00924,71.37504 481.33512,58.049283 463.42289,52.500127 L 458.8057,51.068486 431.78812,50.888798 404.76859,50.709111 375.96781,25.504033 347.16898,0.30090754 h -97.04492 z m 173.77148,51.52148446 22.95508,18.369141 22.95508,18.367183 21.99414,0.18165 c 21.3873,0.17568 22.09316,0.21399 25.67187,1.40625 12.98215,4.325 21.48464,12.319124 26.17969,24.617184 l 1.16016,3.03711 0.14648,87.53321 c 0.16536,98.09071 0.41907,91.27971 -3.69336,99.49609 -1.62335,3.24335 -3.19572,5.34934 -6.40039,8.57422 -6.38249,6.42272 -12.74524,9.8028 -21.77539,11.56836 -5.4848,1.07237 -326.983193,1.04405 -332.365233,-0.0293 -14.87287,-2.96612 -27.03105,-13.88595 -30.48047,-27.37305 -1.02057,-3.99042 -1.04493,-6.01112 -1.04493,-90.39648 0,-84.185 0.0259,-86.41358 1.03711,-90.36719 1.68425,-6.58534 4.2792,-10.96013 9.70899,-16.37109 5.15284,-5.134974 9.75864,-7.948464 16.85547,-10.296884 3.57025,-1.18144 4.33762,-1.22304 25.703123,-1.39843 l 22.02344,-0.18165 22.92578,-18.347652 22.92774,-18.349609 76.75781,-0.01953 z m -78.86719,29.355469 c -2.12442,-0.25837 -6.16586,3.048835 -21.28711,15.630855 -10.26488,8.541174 -19.07797,16.016884 -19.58398,16.611334 -1.50429,1.76721 -1.15486,3.68073 1.05273,5.7793 1.08432,1.03077 9.97686,8.52984 19.76172,16.66601 12.66064,10.52742 18.16331,14.79297 19.08203,14.79297 0.71003,0 1.87034,-0.57933 2.58008,-1.28906 l 1.29102,-1.29101 v -12.11524 -12.11719 h 3.74804 c 10.28487,0 24.50297,3.97938 34.52149,9.66016 17.10873,9.70114 30.5297,25.83152 36.57812,43.96484 2.84299,8.52336 3.69879,14.22045 3.70899,24.70899 0.0105,10.74356 -0.64722,15.31504 -3.4668,24.11719 -9.04932,28.25012 -32.7358,48.72922 -62.20898,53.7832 -8.12529,1.39331 -21.4715,1.12224 -28.91602,-0.58789 -20.96197,-4.8153 -37.98334,-16.35602 -49.28516,-33.41406 -8.96909,-13.53721 -13.19813,-27.54078 -13.17773,-43.63477 0.0144,-11.36144 1.62666,-19.58266 6.00781,-30.63672 1.68972,-4.26333 1.89677,-6.79489 0.73828,-9.03515 -2.42758,-4.69443 -9.21449,-5.55993 -12.54687,-1.59961 -1.7116,2.03412 -5.11879,10.91485 -6.86523,17.89062 -4.40201,17.58274 -3.85377,35.12573 1.63671,52.29492 8.34454,26.09409 28.25031,47.66477 53.60547,58.08985 9.4942,3.90365 17.79245,5.8364 30.13867,7.01953 10.01879,0.9601 24.41406,-0.93416 35.75,-4.70508 36.1814,-12.03583 61.83909,-45.28376 64.06055,-83.00977 1.38626,-23.54224 -5.03834,-45.0962 -18.88281,-63.34961 -16.64174,-21.94149 -41.56758,-35.24914 -69.49219,-37.09765 l -5.65234,-0.37305 V 95.748176 c 0,-11.53469 -0.0574,-12.24665 -1.07227,-13.33594 -0.62162,-0.667229 -1.11608,-1.148252 -1.82422,-1.234375 z m 2.63282,71.902349 c -7.57866,0.0236 -8.86851,0.16652 -13.03125,1.43555 -17.53775,5.34651 -30.17444,18.27198 -34.7754,35.57226 -1.22031,4.58857 -1.66603,15.22417 -0.8496,20.28516 1.75414,10.87385 6.89832,20.35474 15.40039,28.3789 6.86019,6.47457 15.37303,10.74935 25.07421,12.59375 5.40714,1.02801 15.26168,0.67102 20.80079,-0.7539 5.64173,-1.45132 14.07181,-5.68381 18.79297,-9.43555 10.15719,-8.07155 16.68216,-19.93735 18.3164,-33.3125 2.68207,-21.95092 -10.95482,-44.27634 -31.69726,-51.89453 -6.78154,-2.49069 -9.32688,-2.89624 -18.03125,-2.86914 z m 1.96093,18.13867 c 1.89379,0.067 3.72554,0.31213 5.42188,0.74805 11.65301,2.99452 20.7112,12.03632 23.42383,23.3789 0.88505,3.70131 0.88745,10.48401 0.004,14.19532 -2.72379,11.44111 -12.50969,20.95629 -24.07226,23.40625 -12.39962,2.62732 -25.07633,-2.55136 -32.15625,-13.13672 -3.39852,-5.08122 -4.83355,-9.33426 -5.19141,-15.38282 -0.3685,-6.22821 0.42297,-10.28798 3.0918,-15.8496 2.55253,-5.31924 7.42236,-10.48528 12.62109,-13.39258 4.92446,-2.75391 11.17605,-4.16764 16.85742,-3.9668 z" />
</svg>
