<?xml version="1.0" encoding="UTF-8" standalone="no"?>
<svg
   width="500"
   height="378"
   viewBox="0 0 500 378"
   fill="none"
   version="1.1"
   id="svg1655"
   sodipodi:docname="camera-cw.svg"
   inkscape:version="1.1.1 (3bf5ae0d25, 2021-09-20)"
   xmlns:inkscape="http://www.inkscape.org/namespaces/inkscape"
   xmlns:sodipodi="http://sodipodi.sourceforge.net/DTD/sodipodi-0.dtd"
   xmlns="http://www.w3.org/2000/svg"
   xmlns:svg="http://www.w3.org/2000/svg">
  <defs
     id="defs1659" />
  <sodipodi:namedview
     id="namedview1657"
     pagecolor="#ffffff"
     bordercolor="#111111"
     borderopacity="1"
     inkscape:pageshadow="0"
     inkscape:pageopacity="0"
     inkscape:pagecheckerboard="1"
     showgrid="false"
     inkscape:zoom="1.9021164"
     inkscape:cx="249.9847"
     inkscape:cy="189"
     inkscape:window-width="1920"
     inkscape:window-height="1017"
     inkscape:window-x="1072"
     inkscape:window-y="979"
     inkscape:window-maximized="1"
     inkscape:current-layer="svg1655" />
  <path
     id="path1755"
     style="fill:#000000;stroke-width:0.52573"
     d="m 153.07914,0.30090804 -9.0625,8.02148496 c -4.98368,4.412694 -17.89653,15.709221 -28.69727,25.103516 l -19.638673,17.082031 -27.15234,0.28125 -27.15235,0.283203 -4.61914,1.429688 c -9.12011,2.821736 -15.97531,7.04655 -22.46875,13.845703 C 7.8362274,73.103435 3.5909974,80.945705 1.3506174,90.246225 0.46685736,93.915005 0.40017736,100.93001 0.23147736,209.80286 c -0.12063,77.85272 7.8e-4,117.5519 0.3711,121.44532 0.30258,3.18132 1.03032004,7.51697 1.61719004,9.63476 5.48624,19.79776 23.1372196,34.50317 43.6249896,36.34375 6.8396,0.61443 400.813123,0.63709 407.703133,0.0234 7.26842,-0.64735 12.37189,-2.0339 18.40234,-5.00195 12.79927,-6.2995 22.45276,-18.21072 26.41406,-32.58985 l 1.44922,-5.25586 V 214.27162 94.142705 l -1.17578,-4.61328 C 494.00924,71.375045 481.33512,58.049284 463.42289,52.500128 L 458.8057,51.068487 431.78812,50.888799 404.76859,50.709112 375.96781,25.504034 347.16898,0.30090804 h -97.04492 z m 173.77148,51.52148496 22.95508,18.369142 22.95508,18.36719 21.99414,0.18164 c 21.3873,0.17568 22.09316,0.214 25.67187,1.40625 12.98215,4.325 21.48464,12.319125 26.17969,24.617185 l 1.16016,3.03711 0.14648,87.53321 c 0.16536,98.09071 0.41907,91.27971 -3.69336,99.49609 -1.62335,3.24335 -3.19572,5.34934 -6.40039,8.57422 -6.38249,6.42272 -12.74524,9.8028 -21.77539,11.56836 -5.4848,1.07237 -326.983183,1.04405 -332.365233,-0.0293 -14.87287,-2.96612 -27.03105,-13.88595 -30.48047,-27.37305 -1.02057,-3.99042 -1.04492,-6.01112 -1.04492,-90.39648 0,-84.185 0.0259,-86.41358 1.03711,-90.36719 1.68424,-6.58534 4.27919,-10.96013 9.70898,-16.37109 5.15285,-5.134975 9.75864,-7.948465 16.85547,-10.296885 3.57025,-1.18143 4.33763,-1.22304 25.703123,-1.39843 l 22.02344,-0.18164 22.92578,-18.34766 22.92774,-18.349609 76.75781,-0.01953 z m -71.99414,29.439452 c -1.07079,0 -2.08608,0.41356 -2.71289,1.10547 -0.91372,1.00862 -1.01433,2.1751 -1.1582,13.29687 l -0.15821,12.189465 -7.20312,0.64062 c -13.20079,1.1721 -23.55437,4.07887 -35.06641,9.84766 -26.66067,13.35992 -45.06599,38.19259 -50.50781,68.14258 -1.87235,10.3048 -1.52234,24.85727 0.86523,35.9375 6.45621,29.96205 27.70467,55.37376 56.04297,67.02539 9.4942,3.90365 17.79245,5.8364 30.13867,7.01953 10.01879,0.9601 24.41406,-0.93416 35.75,-4.70508 29.40117,-9.78037 52.66272,-34.15101 60.91602,-63.82031 4.33933,-15.5992 4.43341,-34.20918 0.25391,-49.94532 -2.18953,-8.24375 -5.23678,-15.48107 -7.27149,-17.26757 -4.4708,-3.92542 -10.71078,-2.13038 -12.41992,3.57421 -0.61975,2.06856 -0.57227,2.57215 0.53516,5.48829 5.45969,14.37673 6.54076,19.70546 6.56836,32.38867 0.0234,10.74501 -0.62526,15.2709 -3.45899,24.11719 -9.04932,28.25012 -32.7358,48.72922 -62.20898,53.7832 -5.3306,0.91408 -7.69443,1.03548 -15.2461,0.78906 -9.43443,-0.30785 -14.4432,-1.15917 -22.60742,-3.84961 -27.02583,-8.90609 -47.56057,-32.88928 -52.60351,-61.43359 -1.24111,-7.02505 -1.24739,-19.19671 -0.0137,-26.28516 1.93751,-11.1322 7.23988,-23.79414 13.8125,-32.97851 6.14639,-8.58876 15.39436,-16.84607 25.0918,-22.4043 10.74429,-6.15823 24.2706,-10.06431 34.87305,-10.07031 l 3.8125,-0.002 v 11.32032 c 0,12.95931 0.34131,14.61154 3.15039,15.22851 2.12636,0.46703 1.05476,1.26443 23.25976,-17.2539 12.07662,-10.07156 18.245,-15.55323 18.39649,-16.34571 0.12536,-0.65578 0.0451,-1.68911 -0.17969,-2.29687 -0.22482,-0.60776 -9.07815,-8.33426 -19.67383,-17.169925 -16.58709,-13.83184 -19.50347,-16.06641 -20.97656,-16.06641 z m -4.24023,71.818365 c -7.57866,0.0236 -8.86851,0.16652 -13.03125,1.43555 -17.53775,5.34651 -30.17444,18.27198 -34.7754,35.57226 -1.22031,4.58857 -1.66603,15.22417 -0.8496,20.28516 1.75414,10.87385 6.89832,20.35474 15.40039,28.3789 6.86019,6.47457 15.37303,10.74935 25.07421,12.59375 5.40714,1.02801 15.26168,0.67102 20.80079,-0.7539 5.64173,-1.45132 14.07181,-5.68381 18.79297,-9.43555 10.15719,-8.07155 16.68216,-19.93735 18.3164,-33.3125 2.68207,-21.95092 -10.95482,-44.27634 -31.69726,-51.89453 -6.78154,-2.49069 -9.32688,-2.89624 -18.03125,-2.86914 z m 1.96093,18.13867 c 1.89379,0.0669 3.72554,0.31213 5.42188,0.74805 11.65301,2.99452 20.7112,12.03632 23.42383,23.3789 0.88505,3.70131 0.88745,10.48401 0.004,14.19532 -2.72379,11.44111 -12.50969,20.95629 -24.07226,23.40625 -12.39962,2.62732 -25.07633,-2.55136 -32.15625,-13.13672 -3.39852,-5.08122 -4.83355,-9.33426 -5.19141,-15.38282 -0.3685,-6.22821 0.42297,-10.28798 3.0918,-15.8496 2.55253,-5.31924 7.42236,-10.48528 12.62109,-13.39258 4.92446,-2.75391 11.17605,-4.16764 16.85742,-3.9668 z" />
</svg>
