<?xml version="1.0" encoding="UTF-8" standalone="no"?>
<svg
   width="500"
   height="701"
   viewBox="0 0 500 701"
   fill="none"
   version="1.1"
   id="svg3800"
   sodipodi:docname="Color-Temp.svg"
   inkscape:version="1.1.1 (3bf5ae0d25, 2021-09-20)"
   xmlns:inkscape="http://www.inkscape.org/namespaces/inkscape"
   xmlns:sodipodi="http://sodipodi.sourceforge.net/DTD/sodipodi-0.dtd"
   xmlns="http://www.w3.org/2000/svg"
   xmlns:svg="http://www.w3.org/2000/svg">
  <defs
     id="defs3804" />
  <sodipodi:namedview
     id="namedview3802"
     pagecolor="#ffffff"
     bordercolor="#111111"
     borderopacity="1"
     inkscape:pageshadow="0"
     inkscape:pageopacity="0"
     inkscape:pagecheckerboard="1"
     showgrid="false"
     inkscape:zoom="0.92560278"
     inkscape:cx="281.43822"
     inkscape:cy="357.06462"
     inkscape:window-width="1920"
     inkscape:window-height="1017"
     inkscape:window-x="1072"
     inkscape:window-y="979"
     inkscape:window-maximized="1"
     inkscape:current-layer="svg3800" />
  <path
     id="path3900"
     style="fill:#000000;stroke-width:0.974965"
     d="M 255.50924,1.1930458 C 227.41806,0.77400184 198.80303,4.3061228 173.59908,11.630546 105.62616,31.383893 50.507059,75.773608 21.643999,134.00555 c -24.4682201,49.36526 -27.6421501,106.7496 -8.75,158.17773 4.41844,12.02786 13.52868,30.14801 20.92383,41.61719 33.76064,52.35955 44.66639,66.801 81.431641,107.83008 22.33685,24.92735 26.76698,30.34027 34.22852,41.82617 6.86778,10.57192 10.9088,20.64984 12.94531,32.2832 0.83441,4.7665 2.12477,12.01761 2.86914,16.11329 2.41625,13.29478 11.53306,28.15767 23.30274,37.99218 l 5.71093,4.77149 h 55.74805 55.75 l 5.5957,-4.63086 c 7.18287,-5.94369 13.50004,-13.6955 17.67969,-21.69336 4.22977,-8.09376 6.16264,-14.73709 7.5,-25.7793 2.49939,-20.63679 10.91334,-37.85914 28.58008,-58.5 3.2388,-3.78405 11.94748,-13.61897 19.35156,-21.85547 25.15706,-27.98545 42.9947,-49.95908 57.49609,-70.82226 11.81303,-16.99541 32.1955,-50.06688 37.20508,-60.36914 13.66798,-28.10836 20.08594,-56.33326 20.08594,-88.32813 0,-25.83087 -4.77361,-50.88795 -14.11328,-74.08203 C 456.37849,77.018388 387.72119,22.896734 304.65768,6.2496868 289.02945,3.1175798 272.36394,1.4444718 255.50924,1.1930458 Z m 1.78711,32.5722662 c 34.50085,0.870272 67.11199,8.761798 97.2207,23.544926 23.37217,11.47553 38.16602,21.80493 55.93164,39.05078 26.51604,25.740252 43.09109,53.960002 51.625,87.892582 8.53174,33.92401 5.93549,71.61296 -7.1875,104.31054 -5.25584,13.0956 -11.59943,24.39903 -26.06445,46.4375 -20.78132,31.66177 -33.00073,47.21896 -63.81641,81.25586 -19.77729,21.84462 -26.43735,30.57597 -31.92578,41.85157 -4.06863,8.35871 -5.18526,12.50844 -8.26367,30.71093 -1.70381,10.07461 -7.91293,21.65098 -16.07813,29.97657 l -6.93554,7.07226 h -51.71875 -51.71875 l -6.81055,-7.06836 c -10.65611,-11.06198 -15.89183,-22.42927 -17.4043,-37.78125 -0.77569,-7.8736 -4.44648,-19.08183 -8.82031,-26.93164 -4.81307,-8.63813 -14.58602,-20.83162 -32.9707,-41.13867 -28.32726,-31.28925 -40.685431,-47.00318 -59.568361,-75.73633 -14.28995,-21.74426 -17.19323,-26.64646 -22.89258,-38.67187 -6.4558,-13.6215 -10.32198,-25.04253 -13.44531,-39.7129 -2.38608,-11.20743 -2.61524,-14.17017 -2.61524,-33.73632 0,-19.54923 0.22923,-22.53399 2.60547,-33.69336 10.82516,-50.83745 42.2546,-94.093552 89.902351,-123.736332 11.147,-6.93482 32.8343,-17.07079 45.63086,-21.326173 24.71966,-8.220305 44.05409,-11.654951 70.41992,-12.511719 5.00402,-0.162608 9.97169,-0.182919 14.90039,-0.05859 z m -5.99219,33.902346 c -38.45085,-0.32628 -76.77477,10.447 -108.95508,31.98633 C 79.924099,141.43705 55.561869,214.02799 82.122519,279.10907 c 4.70163,11.52029 9.68733,20.1998 23.855471,41.52929 13.61468,20.49629 23.52813,33.23825 41.52344,53.37305 32.91359,36.8267 37.50856,44.08655 40.46484,63.93945 0.74462,5.00052 2.3274,11.47106 3.51758,14.37891 7.31708,17.87708 26.68304,31.50109 48.96093,34.4414 17.63828,2.32795 35.76742,-2.09236 49.87891,-12.1621 11.99939,-8.5626 18.72917,-19.87748 21.24609,-35.72461 3.31519,-20.87326 8.44518,-29.23407 37.56055,-61.21094 20.20063,-22.18598 33.05519,-38.88688 49.37891,-64.15039 21.63465,-33.48296 28.15142,-52.07438 29.28515,-83.55664 0.47529,-13.19802 0.244,-17.44921 -1.49609,-27.61914 -5.3592,-31.32169 -19.19003,-57.43054 -42.96094,-81.09375 -14.84533,-14.77807 -26.24168,-23.028212 -44.91601,-32.521492 -27.228,-13.84163 -57.21097,-20.81068 -87.11719,-21.06445 z m -55.36133,545.947262 0.31445,26.08008 0.31446,26.08008 3.14844,6.64453 c 6.73277,14.21486 22.411,24.42424 41.36914,26.93555 12.80222,1.69586 29.13574,-1.15359 40.09375,-6.99414 7.14845,-3.81009 15.52957,-11.97311 18.68359,-18.19727 3.54419,-6.99412 4.42364,-14.69746 4.43164,-38.85547 l 0.008,-21.69336 h -54.18164 z" />
</svg>
