<svg width="16" height="16" viewBox="0 0 16 16" fill="none" xmlns="http://www.w3.org/2000/svg">
<path d="M5 14H11V16H5V14Z" fill="#C4C4C4"/>
<path d="M8 0C4.68629 0 2 2.68629 2 6C2 8.22085 3.2066 10.1599 5 11.1973V13H11V11.1973C12.7934 10.1599 14 8.22085 14 6C14 2.68629 11.3137 0 8 0ZM6 10.584C4.2341 9.8124 3 8.05032 3 6C3 3.23858 5.23858 1 8 1C10.7614 1 13 3.23858 13 6C13 8.05032 11.7659 9.8124 10 10.584V12H6V10.584Z" fill="#C4C4C4"/>
<path d="M4 6C4 3.79086 5.79086 2 8 2C10.2091 2 12 3.79086 12 6C12 7.86384 10.7252 9.42994 9 9.87398V11H7V9.87398C5.27477 9.42994 4 7.86384 4 6Z" fill="#C4C4C4"/>
</svg>
