<?xml version="1.0" encoding="UTF-8" standalone="no"?>
<svg
   width="500"
   height="496"
   viewBox="0 0 500 496"
   fill="none"
   version="1.1"
   id="svg547"
   sodipodi:docname="Equipment-Control.svg"
   inkscape:version="1.1.1 (3bf5ae0d25, 2021-09-20)"
   xmlns:inkscape="http://www.inkscape.org/namespaces/inkscape"
   xmlns:sodipodi="http://sodipodi.sourceforge.net/DTD/sodipodi-0.dtd"
   xmlns="http://www.w3.org/2000/svg"
   xmlns:svg="http://www.w3.org/2000/svg">
  <defs
     id="defs551">
    <linearGradient
       id="linearGradient1690"
       inkscape:swatch="solid">
      <stop
         style="stop-color:#000000;stop-opacity:1;"
         offset="0"
         id="stop1688" />
    </linearGradient>
  </defs>
  <sodipodi:namedview
     id="namedview549"
     pagecolor="#505050"
     bordercolor="#eeeeee"
     borderopacity="1"
     inkscape:pageshadow="0"
     inkscape:pageopacity="0"
     inkscape:pagecheckerboard="0"
     showgrid="false"
     inkscape:zoom="0.5"
     inkscape:cx="529"
     inkscape:cy="353"
     inkscape:window-width="1920"
     inkscape:window-height="1017"
     inkscape:window-x="1072"
     inkscape:window-y="979"
     inkscape:window-maximized="1"
     inkscape:current-layer="svg547" />
  <g
     inkscape:groupmode="layer"
     id="layer1"
     inkscape:label="Layer 1"
     style="display:inline" />
  <path
     id="path789-7-5"
     style="fill:#000000;fill-opacity:1;stroke:none;stroke-width:9.79271;stroke-miterlimit:4;stroke-dasharray:none;stroke-opacity:1"
     d="M 250 0 A 42 42 0 0 0 208 42 A 42 42 0 0 0 226 76.365234 L 226 107 L 0 107 L 0 496 L 500 496 L 500 107 L 274 107 L 274 76.365234 A 42 42 0 0 0 292 42 A 42 42 0 0 0 250 0 z M 91.427734 197.14258 L 131.42773 197.14258 L 131.42773 234.34766 C 125.38599 231.37522 118.5987 229.69862 111.42773 229.69922 C 104.25659 229.6993 97.469394 231.37642 91.427734 234.34961 L 91.427734 197.14258 z M 209.13086 197.14258 L 249.13086 197.14258 L 249.13086 280.18164 C 243.0893 277.20842 236.30188 275.53125 229.13086 275.53125 C 221.95984 275.53125 215.17242 277.20842 209.13086 280.18164 L 209.13086 197.14258 z M 371.83398 197.14258 A 45 45 0 0 1 416.83398 242.14258 A 45 45 0 0 1 371.83398 287.14258 A 45 45 0 0 1 326.83398 242.14258 A 45 45 0 0 1 371.83398 197.14258 z M 111.42773 239.19922 A 35.923544 35.923544 0 0 1 116.74414 239.5957 C 116.86854 239.614 116.98931 239.6406 117.11328 239.66016 A 35.923544 35.923544 0 0 1 121.68555 240.69922 C 121.98207 240.78681 122.27122 240.88552 122.56445 240.98047 A 35.923544 35.923544 0 0 1 126.3457 242.45312 C 126.757 242.64013 127.15974 242.83528 127.5625 243.03711 A 35.923544 35.923544 0 0 1 130.70312 244.82031 C 130.9373 244.96885 131.19729 245.07866 131.42773 245.23242 L 131.42773 245.2832 A 35.923544 35.923544 0 0 1 147.35352 275.125 A 35.923544 35.923544 0 0 1 131.42773 304.91211 L 131.42773 305.1543 C 125.71317 308.96756 118.83982 311.19008 111.42773 311.18945 C 104.01552 311.18937 97.141944 308.96632 91.427734 305.15234 L 91.427734 304.91211 A 35.923544 35.923544 0 0 1 75.503906 275.125 A 35.923544 35.923544 0 0 1 91.427734 245.33594 L 91.427734 245.23633 C 91.601553 245.12032 91.798662 245.03883 91.974609 244.92578 A 35.923544 35.923544 0 0 1 92.263672 244.76172 C 93.599887 243.92048 94.981781 243.14918 96.429688 242.48633 A 35.923544 35.923544 0 0 1 97.203125 242.18555 C 98.505601 241.62531 99.82378 241.09922 101.20117 240.69336 A 35.923544 35.923544 0 0 1 102.81836 240.32422 C 103.93675 240.05002 105.04575 239.75528 106.20312 239.58789 A 35.923544 35.923544 0 0 1 111.42773 239.19922 z M 229.13086 285.03125 A 35.923544 35.923544 0 0 1 234.44531 285.42773 C 234.57226 285.44641 234.69576 285.47219 234.82227 285.49219 A 35.923544 35.923544 0 0 1 239.42383 286.54102 C 239.69784 286.62232 239.96512 286.71319 240.23633 286.80078 A 35.923544 35.923544 0 0 1 244.08594 288.30078 C 244.47302 288.47738 244.85096 288.66377 245.23047 288.85352 A 35.923544 35.923544 0 0 1 248.46094 290.6875 C 248.67711 290.8252 248.91787 290.9262 249.13086 291.06836 L 249.13086 291.11523 A 35.923544 35.923544 0 0 1 265.05664 320.95703 A 35.923544 35.923544 0 0 1 249.13086 350.74414 L 249.13086 350.98438 C 243.41687 354.79781 236.54267 357.02148 229.13086 357.02148 C 221.71905 357.02148 214.84485 354.79781 209.13086 350.98438 L 209.13086 350.74414 A 35.923544 35.923544 0 0 1 193.20703 320.95703 A 35.923544 35.923544 0 0 1 209.13086 291.16797 L 209.13086 291.06836 C 209.30468 290.95235 209.50179 290.87086 209.67773 290.75781 A 35.923544 35.923544 0 0 1 209.9668 290.59375 C 211.303 289.7525 212.6849 288.98122 214.13281 288.31836 A 35.923544 35.923544 0 0 1 214.90625 288.01758 C 216.20873 287.45733 217.52689 286.93125 218.9043 286.52539 A 35.923544 35.923544 0 0 1 220.52148 286.15625 C 221.63988 285.88205 222.74886 285.58731 223.90625 285.41992 A 35.923544 35.923544 0 0 1 229.13086 285.03125 z M 91.427734 316.03906 C 97.469258 319.0121 104.25683 320.68937 111.42773 320.68945 C 118.59845 320.69003 125.38613 319.01331 131.42773 316.04102 L 131.42773 427.14258 L 91.427734 427.14258 L 91.427734 316.03906 z M 371.83398 337.14258 A 45 45 0 0 1 416.83398 382.14258 A 45 45 0 0 1 371.83398 427.14258 A 45 45 0 0 1 326.83398 382.14258 A 45 45 0 0 1 371.83398 337.14258 z M 209.13086 361.87109 C 215.17242 364.84408 221.95984 366.52148 229.13086 366.52148 C 236.30188 366.52148 243.0893 364.84408 249.13086 361.87109 L 249.13086 427.14258 L 209.13086 427.14258 L 209.13086 361.87109 z " />
</svg>
