<?xml version="1.0" encoding="UTF-8" standalone="no"?>
<svg
   width="500"
   height="500"
   viewBox="0 0 500 500"
   fill="none"
   version="1.1"
   id="svg1866"
   sodipodi:docname="flex.svg"
   inkscape:version="1.1.1 (3bf5ae0d25, 2021-09-20)"
   xmlns:inkscape="http://www.inkscape.org/namespaces/inkscape"
   xmlns:sodipodi="http://sodipodi.sourceforge.net/DTD/sodipodi-0.dtd"
   xmlns="http://www.w3.org/2000/svg"
   xmlns:svg="http://www.w3.org/2000/svg">
  <defs
     id="defs1870" />
  <sodipodi:namedview
     id="namedview1868"
     pagecolor="#ffffff"
     bordercolor="#111111"
     borderopacity="1"
     inkscape:pageshadow="0"
     inkscape:pageopacity="0"
     inkscape:pagecheckerboard="1"
     showgrid="false"
     inkscape:zoom="2.444"
     inkscape:cx="250"
     inkscape:cy="239.56628"
     inkscape:window-width="1920"
     inkscape:window-height="1017"
     inkscape:window-x="1072"
     inkscape:window-y="979"
     inkscape:window-maximized="1"
     inkscape:current-layer="svg1866" />
  <path
     id="path1966"
     style="fill:#000000;stroke-width:0.409165"
     d="m 300.47809,148.23859 c -0.50606,-0.40983 -7.80535,1.84292 -40.0293,12.35547 -40.59102,13.24218 -46.68212,15.32977 -59.95899,20.5586 -20.42472,8.04385 -35.16177,15.41704 -48.91015,24.4707 -9.08419,5.98217 -12.62336,9.45431 -16.11719,15.81055 -3.19054,5.80448 -4.71963,11.94239 -5.0332,20.20117 -0.46379,12.21479 2.32555,25.67711 8.59961,41.51172 3.2817,8.28245 8.90003,19.48349 9.68554,19.31054 0.3212,-0.0707 36.66675,-21.124 80.76758,-46.78515 44.10083,-25.66116 80.41857,-46.74673 80.70703,-46.85743 0.28847,-0.11069 31.97543,22.65237 70.41407,50.58594 l 69.88671,50.78906 5.70899,6.08008 5.70898,6.08008 2.61719,-3.33594 c 17.11824,-21.81737 31.03645,-42.47232 34.06445,-50.54883 3.34101,-8.91135 -0.66033,-11.28666 -12.46289,-7.39648 -5.15551,1.69928 -14.47417,6.4255 -18.7539,9.51172 -1.9664,1.41801 -5.21826,3.99098 -7.22852,5.71875 l -3.65625,3.14258 -77.69531,-65.35156 c -42.73276,-35.94299 -77.97405,-65.5759 -78.31445,-65.85157 z M 55.7359,239.79133 c -14.886999,0.18647 -29.459117,6.37845 -40.076172,17.53515 -10.4626751,10.99448 -15.9732561,25.64175 -15.3339841,40.75782 0.123724,2.92553 0.527328,6.79343 0.898438,8.59375 4.740734,22.99822 22.5530951,40.32838 45.8300781,44.59179 5.280056,0.96709 16.847195,0.57354 22.123045,-0.75195 19.581005,-4.9195 34.333125,-18.50095 40.476565,-37.26367 2.16293,-6.60583 2.80007,-11.43318 2.55664,-19.40039 -0.17849,-5.84178 -0.38484,-7.48889 -1.44141,-11.52149 -5.3091,-20.26323 -20.19641,-35.34067 -40.175775,-40.6875 -4.89756,-1.31067 -9.89509,-1.91567 -14.857425,-1.85351 z" />
</svg>
