<?xml version="1.0" encoding="UTF-8" standalone="no"?>
<svg
   width="1000"
   height="1000"
   viewBox="0 0 1000 1000"
   fill="none"
   version="1.1"
   id="svg3524"
   sodipodi:docname="generate.svg"
   inkscape:version="1.1.1 (3bf5ae0d25, 2021-09-20)"
   xmlns:inkscape="http://www.inkscape.org/namespaces/inkscape"
   xmlns:sodipodi="http://sodipodi.sourceforge.net/DTD/sodipodi-0.dtd"
   xmlns="http://www.w3.org/2000/svg"
   xmlns:svg="http://www.w3.org/2000/svg">
  <defs
     id="defs3528" />
  <sodipodi:namedview
     id="namedview3526"
     pagecolor="#ffffff"
     bordercolor="#111111"
     borderopacity="1"
     inkscape:pageshadow="0"
     inkscape:pageopacity="0"
     inkscape:pagecheckerboard="1"
     showgrid="false"
     inkscape:zoom="0.32"
     inkscape:cx="290.625"
     inkscape:cy="876.5625"
     inkscape:window-width="1920"
     inkscape:window-height="1017"
     inkscape:window-x="1072"
     inkscape:window-y="979"
     inkscape:window-maximized="1"
     inkscape:current-layer="svg3524" />
  <path
     id="path3514"
     d="m 52,0.22949 c -28.7188,0 -52,23.2812 -52,52 v 36 c 0,28.719 23.2812,52 52,52 h 596 c 28.719,0 52,-23.281 52,-52 v -36 c 0,-28.7188 -23.281,-52 -52,-52 z m 279.46094,237 c -28.719,0 -52,23.281 -52,52 v 245.80469 l -47.03516,-47.03516 c -20.307,-20.308 -53.23106,-20.308 -73.53906,0 l -5.65625,5.65625 c -20.307,20.308 -20.307,53.23206 0,73.53906 l 117.38086,117.38086 79.19531,79.19532 79.19531,-79.19532 117.38086,-117.3789 c 20.308,-20.308 20.308,-53.23302 0,-73.54102 l -5.65625,-5.65625 c -20.308,-20.308 -53.23301,-20.308 -73.54101,0 l -47.72461,47.72461 V 289.22949 c 0,-28.719 -23.281,-52 -52,-52 z M 52,859.77051 c -28.7188,0 -52,23.281 -52,52 v 36 c 0,28.719 23.2812,52 52,52 h 896 c 28.719,0 52,-23.281 52,-52 v -36 c 0,-28.719 -23.281,-52 -52,-52 z"
     style="fill:#000000" />
</svg>
