<?xml version="1.0" encoding="UTF-8" standalone="no"?>
<svg
   width="580"
   height="580"
   viewBox="0 0 580 580"
   fill="none"
   version="1.1"
   id="svg1379"
   sodipodi:docname="indicator.svg"
   inkscape:version="1.1.1 (3bf5ae0d25, 2021-09-20)"
   xmlns:inkscape="http://www.inkscape.org/namespaces/inkscape"
   xmlns:sodipodi="http://sodipodi.sourceforge.net/DTD/sodipodi-0.dtd"
   xmlns="http://www.w3.org/2000/svg"
   xmlns:svg="http://www.w3.org/2000/svg">
  <defs
     id="defs1383" />
  <sodipodi:namedview
     id="namedview1381"
     pagecolor="#ffffff"
     bordercolor="#111111"
     borderopacity="1"
     inkscape:pageshadow="0"
     inkscape:pageopacity="0"
     inkscape:pagecheckerboard="1"
     showgrid="false"
     inkscape:zoom="1.2396552"
     inkscape:cx="141.97497"
     inkscape:cy="338.40056"
     inkscape:window-width="1920"
     inkscape:window-height="1017"
     inkscape:window-x="1072"
     inkscape:window-y="979"
     inkscape:window-maximized="1"
     inkscape:current-layer="svg1379" />
  <path
     id="path1377"
     d="M 290.00003,-2.5e-6 C 129.83703,-2.5e-6 3e-5,129.837 3e-5,290 c 0,160.163 129.837,290 290,290 C 450.163,580 579.99997,450.163 579.99997,290 579.99997,129.837 450.163,-2.5000001e-6 290.00003,-2.5e-6 Z m 0,43.5000045 C 426.138,43.500002 536.5,153.862 536.5,290 c 0,136.138 -110.362,246.5 -246.49997,246.5 -136.138,0 -246.5,-110.362 -246.5,-246.5 0,-136.138 110.362,-246.499998 246.5,-246.499998 z"
     style="fill:#000000" />
  <path
     style="fill:#000000;stroke-width:0.806676"
     d="m 270.2911,488.7149 c -15.47508,-2.22202 -20.87156,-3.21907 -29.84701,-5.51445 C 184.10448,468.79212 136.6646,430.06982 110.93074,377.48654 101.66569,358.55478 96.193582,341.38116 92.681312,320.21255 c -2.10879,-12.70976 -2.10879,-47.79094 0,-60.5007 3.51407,-21.17941 8.987908,-38.35401 18.254208,-57.27399 25.92952,-52.94301 73.80373,-91.81736 130.56038,-106.016359 18.11182,-4.53109 25.19509,-5.30492 48.55876,-5.30492 23.29864,0 30.42361,0.77233 48.40056,5.24647 25.59785,6.370849 50.43029,18.286129 72.16533,34.626899 9.95147,7.48169 25.99186,22.95218 33.91235,32.70749 18.35122,22.60238 32.14059,50.03693 39.06779,77.72713 4.52543,18.08954 5.29959,25.17988 5.29959,48.53763 0,23.36367 -0.77383,30.44694 -5.30492,48.55876 -11.94825,47.75989 -42.0204,90.21276 -83.42943,117.77735 -17.51375,11.65831 -40.22096,21.7973 -60.34305,26.94377 -17.03496,4.35689 -24.58206,5.25648 -46.54152,5.5476 -11.31363,0.14998 -21.65925,0.11634 -22.99026,-0.0748 z m 137.4364,-70.48722 c 3.27152,-2.88607 9.39554,-9.24045 13.60894,-14.12083 22.13983,-25.64464 36.21598,-56.38744 41.03719,-89.62661 1.90137,-13.10876 1.9181,-36.30568 0.0351,-48.71832 -5.85026,-38.56523 -22.54801,-71.98971 -49.35607,-98.79777 -26.80928,-26.80928 -60.25765,-43.51806 -98.79776,-49.35338 -12.51861,-1.89542 -35.697,-1.88599 -48.71832,0.0198 -34.64766,5.0711 -65.57888,19.57776 -92.32569,43.30053 -6.55735,5.81596 -18.98275,19.28712 -18.36223,19.90764 0.18038,0.18038 3.53334,-2.04222 7.45102,-4.9391 28.40868,-21.00643 64.65246,-32.73925 101.13463,-32.73925 39.39301,0 77.3435,13.1996 108.43429,37.71465 7.34463,5.79123 21.49146,19.94069 27.29327,27.29837 39.48352,50.07167 48.76241,117.48129 24.16171,175.53084 -4.85981,11.46756 -12.34927,24.73938 -19.15355,33.94134 -7.39515,10.00106 -7.16267,10.0391 3.55743,0.58206 z"
     id="path2630" />
</svg>
