<?xml version="1.0" encoding="UTF-8" standalone="no"?>
<svg
   width="500"
   height="149"
   viewBox="0 0 500 149"
   fill="none"
   version="1.1"
   id="svg1759"
   sodipodi:docname="Kidndy-Down.svg"
   inkscape:version="1.1.1 (3bf5ae0d25, 2021-09-20)"
   xmlns:inkscape="http://www.inkscape.org/namespaces/inkscape"
   xmlns:sodipodi="http://sodipodi.sourceforge.net/DTD/sodipodi-0.dtd"
   xmlns="http://www.w3.org/2000/svg"
   xmlns:svg="http://www.w3.org/2000/svg">
  <defs
     id="defs1763" />
  <sodipodi:namedview
     id="namedview1761"
     pagecolor="#505050"
     bordercolor="#eeeeee"
     borderopacity="1"
     inkscape:pageshadow="0"
     inkscape:pageopacity="0"
     inkscape:pagecheckerboard="0"
     showgrid="false"
     inkscape:zoom="1.222"
     inkscape:cx="169.8036"
     inkscape:cy="83.878887"
     inkscape:window-width="1920"
     inkscape:window-height="1017"
     inkscape:window-x="1072"
     inkscape:window-y="979"
     inkscape:window-maximized="1"
     inkscape:current-layer="svg1759" />
  <path
     id="path1749"
     d="M 54.486328 0 C 24.394228 -4.7369516e-15 0 24.389763 0 54.476562 C -4.7369516e-15 84.563462 24.394228 108.95312 54.486328 108.95312 C 84.578528 108.95312 108.97266 84.563462 108.97266 54.476562 C 108.97266 24.389763 84.578528 3.3848202e-16 54.486328 0 z M 0 128.76367 L 0 148.57422 L 114.89648 148.57422 L 114.89648 128.76367 L 0 128.76367 z M 134.70703 128.76367 L 134.70703 148.57422 L 500 148.57422 L 500 128.76367 L 134.70703 128.76367 z "
     style="fill:#000000" />
  <path
     id="path1751"
     d="M 193.7168 21.525391 C 168.43769 21.337088 145.41117 24.206663 133.93164 33.388672 C 100.53664 60.099972 116.70703 101.22266 116.70703 101.22266 L 200.73242 101.22266 L 200.72266 101.31641 L 286.33203 101.31641 L 460.10352 100.67773 L 485.90625 104.56836 C 485.90625 104.56836 495.98903 52.666697 499.45703 34.216797 C 502.92503 15.766797 488.97183 19.572056 480.67383 31.972656 C 476.71883 37.884256 468.24669 51.901109 461.80469 65.787109 L 298.45703 33.476562 L 298.44531 33.388672 C 298.44531 33.388672 241.97692 21.884878 193.7168 21.525391 z "
     style="fill:#000000" />
</svg>
