<?xml version="1.0" encoding="UTF-8" standalone="no"?>
<svg
   width="500"
   height="235"
   viewBox="0 0 500 235"
   fill="none"
   version="1.1"
   id="svg2671"
   sodipodi:docname="Kindey-Up.svg"
   inkscape:version="1.1.1 (3bf5ae0d25, 2021-09-20)"
   xmlns:inkscape="http://www.inkscape.org/namespaces/inkscape"
   xmlns:sodipodi="http://sodipodi.sourceforge.net/DTD/sodipodi-0.dtd"
   xmlns="http://www.w3.org/2000/svg"
   xmlns:svg="http://www.w3.org/2000/svg">
  <defs
     id="defs2675" />
  <sodipodi:namedview
     id="namedview2673"
     pagecolor="#505050"
     bordercolor="#eeeeee"
     borderopacity="1"
     inkscape:pageshadow="0"
     inkscape:pageopacity="0"
     inkscape:pagecheckerboard="0"
     showgrid="false"
     inkscape:zoom="2.444"
     inkscape:cx="250.20458"
     inkscape:cy="117.63502"
     inkscape:window-width="1920"
     inkscape:window-height="1017"
     inkscape:window-x="1072"
     inkscape:window-y="979"
     inkscape:window-maximized="1"
     inkscape:current-layer="svg2671" />
  <path
     id="path2661"
     d="M 299.94336 0 L 220.90234 25.800781 C 189.16234 37.063081 165.62531 47.640272 146.57031 61.201172 C 108.46131 88.322772 148.31641 155.58789 148.31641 155.58789 L 310.53516 61.201172 L 449.62891 162.17773 L 461.91406 175.07812 C 461.91406 175.07812 489.83933 140.47723 497.98633 122.86523 C 506.13333 105.25223 487.42847 112.48333 479.73047 115.86133 C 470.31147 119.99533 463.34955 125.319 456.56055 131.75 L 299.94336 0 z M 56.044922 92.056641 C 30.959909 92.165249 8.1557391 109.1463 1.7285156 134.58789 C -5.8889344 164.74089 12.383016 195.35952 42.541016 202.97852 C 72.699016 210.59752 103.32245 192.33073 110.93945 162.17773 C 118.55745 132.02573 100.28495 101.40436 70.126953 93.785156 C 65.41475 92.594719 60.690295 92.036528 56.044922 92.056641 z M 236.13281 174.59766 L 236.13281 194.40625 L 281.69531 194.40625 L 281.69531 214.2168 L 134.70703 214.2168 L 134.70703 234.02734 L 500 234.02734 L 500 214.2168 L 353.01172 214.2168 L 353.01172 194.40625 C 368.00172 194.34025 398.09822 194.24825 398.57422 194.40625 L 398.57422 174.59766 L 236.13281 174.59766 z M 0 214.2168 L 0 234.02734 L 114.89648 234.02734 L 114.89648 214.2168 L 0 214.2168 z "
     style="fill:#000000" />
</svg>
