<?xml version="1.0" encoding="UTF-8" standalone="no"?>
<svg
   width="794"
   height="445"
   viewBox="0 0 794 445"
   fill="none"
   version="1.1"
   id="svg317"
   sodipodi:docname="Leg-R-Up.svg"
   inkscape:version="1.1.1 (3bf5ae0d25, 2021-09-20)"
   xmlns:inkscape="http://www.inkscape.org/namespaces/inkscape"
   xmlns:sodipodi="http://sodipodi.sourceforge.net/DTD/sodipodi-0.dtd"
   xmlns="http://www.w3.org/2000/svg"
   xmlns:svg="http://www.w3.org/2000/svg">
  <defs
     id="defs321" />
  <sodipodi:namedview
     id="namedview319"
     pagecolor="#505050"
     bordercolor="#eeeeee"
     borderopacity="1"
     inkscape:pageshadow="0"
     inkscape:pageopacity="0"
     inkscape:pagecheckerboard="0"
     showgrid="false"
     inkscape:zoom="1.5390428"
     inkscape:cx="396.67512"
     inkscape:cy="222.54092"
     inkscape:window-width="1920"
     inkscape:window-height="1017"
     inkscape:window-x="1072"
     inkscape:window-y="979"
     inkscape:window-maximized="1"
     inkscape:current-layer="svg317" />
  <path
     id="circle307"
     d="M 551.44141 0 C 543.79028 0.01744397 540.71875 13.165988 544.5 27.259766 C 547.122 37.032566 554.18858 59.233072 563.01758 79.138672 L 405.16406 200.75 C 357.35442 192.39581 229.0006 173.45929 190.5 204.25977 C 143 242.25977 166.00195 300.75977 166.00195 300.75977 L 434.5 300.25977 L 434.49609 300.22266 L 436.65039 300.22461 L 436.6543 300.22852 L 436.6582 300.22461 L 618.43359 300.45312 L 655.10742 306.17188 C 655.10742 306.17188 669.81495 232.40659 674.87695 206.18359 C 679.93995 179.96159 660.06478 185.27638 648.17578 202.85938 C 642.50778 211.24138 630.35961 231.12208 621.09961 250.83008 L 500.79492 226.41211 L 598.77148 113.6543 L 627.11133 89.685547 C 627.11133 89.685547 581 30.259866 564.5 9.2597656 C 559.34375 2.6972344 554.91919 -0.0079290771 551.44141 0 z M 77.5 156.75977 A 77.5 77.5 0 0 0 0 234.25977 A 77.5 77.5 0 0 0 77.5 311.75977 A 77.5 77.5 0 0 0 155 234.25977 A 77.5 77.5 0 0 0 77.5 156.75977 z M 716.8125 198.625 L 716.8125 301 L 730.38281 301 L 730.38281 259.58594 L 754.42969 259.58594 L 776.64844 301 L 791.13281 301 L 791.13281 300.15625 L 767.08594 256.70312 C 773.22694 254.35913 778.00769 250.81994 781.42969 246.08594 C 784.89769 241.35194 786.63281 235.79688 786.63281 229.42188 C 786.63281 219.39087 783.51625 211.75 777.28125 206.5 C 771.09425 201.25 762.23413 198.625 750.70312 198.625 L 716.8125 198.625 z M 730.38281 209.73438 L 751.05469 209.73438 C 758.17969 209.78138 763.61719 211.49219 767.36719 214.86719 C 771.16419 218.24219 773.0625 223.09387 773.0625 229.42188 C 773.0625 235.23387 771.06994 239.87475 767.08594 243.34375 C 763.14794 246.81175 757.828 248.54688 751.125 248.54688 L 730.38281 248.54688 L 730.38281 209.73438 z "
     style="fill:#000000" />
</svg>
