<svg width="500" height="266" viewBox="0 0 500 266" fill="none" xmlns="http://www.w3.org/2000/svg">
<path fill-rule="evenodd" clip-rule="evenodd" d="M311.158 237.571C324.297 218.868 330.866 190.282 330.866 151.811V109.197C330.511 72.0289 323.764 44.5668 310.625 26.8111C297.486 8.93703 277.008 0 249.19 0C221.136 0 200.54 9.23295 187.401 27.6989C174.261 46.1648 167.692 74.3963 167.692 112.393V156.25C168.165 192.59 175.031 219.934 188.288 238.281C201.546 256.51 221.965 265.625 249.545 265.625C277.481 265.625 298.018 256.274 311.158 237.571ZM286.3 46.1648C294.112 58.8305 298.018 79.072 298.018 106.889V160.689C297.663 187.678 293.52 207.446 285.59 219.993C277.777 232.54 265.762 238.814 249.545 238.814C233.092 238.814 220.781 232.185 212.614 218.928C204.564 205.552 200.54 184.896 200.54 156.96V104.403C200.777 78.125 204.742 58.6529 212.436 45.9872C220.13 33.3215 232.382 26.9886 249.19 26.9886C266.117 26.9886 278.487 33.3807 286.3 46.1648Z" fill="#707172"/>
<path d="M73.6364 181.647L147.273 139.133L73.6364 96.6193V126.406H0V151.861H73.6364V181.647Z" fill="#707172"/>
<path d="M426.364 181.647L352.727 139.133L426.364 96.6193V126.406H500V151.861H426.364V181.647Z" fill="#707172"/>
</svg>
