<svg width="500" height="272" viewBox="0 0 500 272" fill="none" xmlns="http://www.w3.org/2000/svg">
<path d="M192.157 135.294C192.157 188.357 149.141 231.373 96.0784 231.373C43.0158 231.373 0 188.357 0 135.294C0 82.2316 43.0158 39.2158 96.0784 39.2158C149.141 39.2158 192.157 82.2316 192.157 135.294ZM29.2424 135.294C29.2424 172.207 59.1659 202.13 96.0784 202.13C132.991 202.13 162.914 172.207 162.914 135.294C162.914 98.3817 132.991 68.4582 96.0784 68.4582C59.1659 68.4582 29.2424 98.3817 29.2424 135.294Z" fill="#707172"/>
<path d="M500 135.294C500 188.357 456.984 231.373 403.922 231.373C350.859 231.373 307.843 188.357 307.843 135.294C307.843 82.2316 350.859 39.2158 403.922 39.2158C456.984 39.2158 500 82.2316 500 135.294ZM337.086 135.294C337.086 172.207 367.009 202.13 403.922 202.13C440.834 202.13 470.758 172.207 470.758 135.294C470.758 98.3817 440.834 68.4582 403.922 68.4582C367.009 68.4582 337.086 98.3817 337.086 135.294Z" fill="#707172"/>
<circle cx="96.078" cy="135.294" r="13.7255" fill="#707172"/>
<circle cx="403.922" cy="13.7255" r="13.7255" fill="#707172"/>
<rect x="314.357" width="24.5098" height="298.882" transform="rotate(29.9599 314.357 0)" fill="#707172"/>
</svg>
