<?xml version="1.0" encoding="UTF-8" standalone="no"?>
<svg
   version="1.0"
   width="701pt"
   height="701pt"
   viewBox="0 0 701 701"
   preserveAspectRatio="xMidYMid meet"
   id="svg846"
   sodipodi:docname="pacs.svg"
   inkscape:version="1.1.1 (3bf5ae0d25, 2021-09-20)"
   xmlns:inkscape="http://www.inkscape.org/namespaces/inkscape"
   xmlns:sodipodi="http://sodipodi.sourceforge.net/DTD/sodipodi-0.dtd"
   xmlns="http://www.w3.org/2000/svg"
   xmlns:svg="http://www.w3.org/2000/svg">
  <defs
     id="defs850" />
  <sodipodi:namedview
     id="namedview848"
     pagecolor="#ffffff"
     bordercolor="#111111"
     borderopacity="1"
     inkscape:pageshadow="0"
     inkscape:pageopacity="0"
     inkscape:pagecheckerboard="1"
     inkscape:document-units="pt"
     showgrid="false"
     inkscape:zoom="0.82061341"
     inkscape:cx="377.76619"
     inkscape:cy="467.33333"
     inkscape:window-width="1920"
     inkscape:window-height="1017"
     inkscape:window-x="1072"
     inkscape:window-y="979"
     inkscape:window-maximized="1"
     inkscape:current-layer="g844"
     width="701pt" />
  <metadata
     id="metadata838">
Created by potrace 1.12, written by Peter Selinger 2001-2015
</metadata>
  <g
     transform="matrix(0.1,0,0,-0.1,0,701)"
     fill="#000000"
     stroke="none"
     id="g844">
    <path
       id="path840"
       style="stroke-width:0.999997"
       d="M 4.997575,7009.9976 V 3504.9928 0.002425 H 3504.9927 7005.0024 V 3504.9928 7009.9976 H 3504.9927 Z m 3289.995125,-840 h 210 210 v -199.9952 -200.0096 h 327.0117 c 192,0 351.9971,4.0009 386.9971,11.0009 154,27 326.9941,87.0029 443.9941,153.0029 40,23 82.999,45.9981 93.999,52.9981 19,9.9999 28.0059,0.01 126.0059,-144.9903 57,-87 107.998,-162.0029 112.9981,-168.0029 27.9999,-34 -377.0069,-226.999 -542.0069,-258.9991 -11,-1.9999 -21.997,-6.0087 -26.9971,-9.0087 -9,-5 -190.9922,-36.9971 -241.9922,-41.9971 -19,-1 -180.0117,-6.0049 -357.0117,-10.0048 l -322.998,-6.9874 v -205.0049 -205.0048 l 363.0029,6.0058 c 367,5 422.0068,9.9971 632.0068,56.9971 207,46 484.0001,158.9961 660,270.9961 36,22 69,36.999 75,33.999 6,-4 58.9971,-78.9922 116.9971,-166.9922 l 105.9961,-159.0087 -22.998,-16.9923 c -68.0001,-49.9999 -272.0001,-159.0078 -390,-208.0077 -74.0001,-31 -142,-58.9884 -150,-62.9884 -8.0001,-3.9999 -42,-16.0048 -75,-25.0048 -33,-10.0001 -70.0059,-22.001 -81.0059,-26.001 -19,-8 -56.9941,-17.0059 -203.9941,-51.0058 -25,-6 -63.0049,-12.9961 -85.0049,-15.9961 -21,-2.0001 -41.9922,-5.9942 -46.9922,-8.9942 -24,-15 -359.0049,-33.9991 -610.0049,-33.9991 h -288.0029 v -205.0048 -205.0048 h 305.0097 c 167,0 350.9922,4.0048 406.9922,10.0048 177,17 291.003,32 348.003,45 30,7 82.0048,18.0049 115.0048,25.0048 110,23.0001 331.002,90.9913 412.002,125.9913 17,8 33.9873,14.0039 36.9873,14.0039 31,0 365.0078,170.001 493.0078,251.001 34,21 65.002,38.9942 67.002,38.9942 6,0 221.0009,-322.9923 221.0009,-331.9923 0,-4 -27,-23.9961 -60,-45.9961 -228,-147 -485.0048,-269 -760.0048,-359.9999 -127,-43.0001 -336.0039,-100.0108 -389.004,-106.0108 -16.9999,-3 -50.9961,-8.9893 -75.996,-13.9892 -50.0001,-12 -139.9952,-26.0079 -274.9952,-43.0079 -49,-7 -260.0068,-13.996 -467.0068,-15.9961 l -378.0029,-5.0097 v -408.999 -408.999 h 101.0009 101.001 l 74.004,78.999 c 187.9999,200 434.999,314.0078 708.999,328.0077 212,11.0001 462.9951,-64.0009 634.9951,-191.0009 168,-123 307.0049,-309 370.0049,-495 32,-96 60,-254.001 60,-341.001 0,-197 -77.004,-432.0019 -194.004,-592.0019 -82.9999,-113 -456.9892,-528.9991 -568.9892,-633.9991 -82,-76.99998 -204.0117,-147.00003 -312.0117,-180.00003 -81,-24.99997 -332.9902,-25.99215 -414.9903,-1.99215 -187.9999,54.99998 -350.0038,172.99708 -449.0038,326.99708 -27,42 -92.9971,164.9991 -146.9971,273.999 l -99.0088,196.9923 h -75 -75 l -98.9941,-196.9923 c -54,-108.9999 -119.9971,-231.999 -146.9971,-273.999 -79.0001,-123 -188.999,-216.0078 -333.9991,-283.00785 -109.9999,-51 -158.0097,-60 -320.0097,-60 -168,0 -217.9903,11.001 -339.9903,71.001 -142,71.00002 -202.0058,130.00195 -636.0058,622.00195 -135,152 -202.001,259.0049 -251.001,400.0049 -30,89 -57.9932,245.9961 -57.9932,330.9961 0,87 27.9962,244.9971 60.9962,341.9971 78,235 265.9989,454.0009 483.999,566.001 117.9999,60 148.9951,70.997 304.9951,101.9971 121,24.9999 232.998,24.9999 352.998,0 242,-49.0001 408.0107,-139.9903 571.0108,-309.9903 l 75.9961,-80.0097 h 100.0048 99.9903 v 408.999 408.999 l -382.002,5.0097 c -258.9999,4 -418.9931,9.9951 -492.9931,19.9952 -182,25 -257.0049,36.997 -265.0049,41.9971 -4,1.9999 -24.9883,7.0087 -47.9883,9.0087 -83,11 -317.0019,76.9932 -472.002,132.9932 -219,80 -384.9999,155.9961 -555,255.996 -158.99997,93 -195.00192,119.0118 -187.0019,132.0117 18.99998,30 205.9922,310.9884 211.9922,317.9883 4,5.0001 45,-13.997 90,-41.997 45,-28 83.0049,-50.9913 85.0049,-50.9913 2,0 32.002,-17.0019 67.0019,-37.0019 136.0001,-80 502.9932,-230.0029 627.9932,-258.0029 8,-2 51.0098,-11.9981 95.0097,-22.9981 282,-70 494.9883,-92.0067 917.9883,-92.0067 h 307.002 v 205.0048 205.0048 h -281.997 c -285,1.0001 -509.003,15.9894 -663.003,43.9894 -113,21 -258.9922,54.0097 -286.9922,65.0097 -13,5 -49.9981,16.9971 -82.9981,26.9971 -33,9 -66.9999,21.0049 -75,25.0048 -7.9999,4 -75.9999,31.9884 -150,62.9884 -117.9999,48.9999 -321.9999,158.0078 -390,208.0077 l -22.998,16.9923 108.999,163.0077 c 60,89 113.9893,163.0001 118.9893,165 6,2 35.0097,-13.0029 65.0097,-33.0029 68.0001,-44 239.9903,-131.0019 339.9903,-172.0019 61,-25 198.0049,-72.9922 220.0049,-76.9923 3,-0.9999 48.0049,-11.0019 100.0048,-22.0019 242.0001,-54 249.9884,-55 632.9883,-60 l 367.002,-6.0058 v 205.0048 205.005 l -316.9922,6.9873 c -175,3.9999 -338.999,9.0009 -363.999,11.001 -58,6 -218.003,33.0087 -228.0029,39.0087 -4.0001,3 -19.9991,6.9903 -33.9991,9.9903 -112.9999,20 -388.0088,137.0029 -504.0088,213.0029 l -50.9912,35.0098 110.9912,166.9921 c 78,117 116.002,166.0078 127.002,163.0078 7,-3 42.999,-24 78.999,-45 79,-48 311.001,-146.0009 311.001,-131.0009 0,2 12.0117,-1.002 27.0117,-7.002 80,-30 192.9912,-39.0087 515.9913,-39.0087 h 326.997 v 200.0096 z M 2245.8423,2907.6441 c -26.0313,-0.015 -47.8496,-1.1474 -60.8496,-3.6475 -134,-25.9999 -279.9932,-114.0058 -357.9932,-216.0058 -100,-131 -136.996,-241.9883 -135.9961,-407.9883 1,-207 42.999,-294.0098 273.999,-560.0097 55.0001,-63 130.9884,-151.0001 167.9883,-195 201,-234 256.002,-270 412.002,-270 88,0 101.0117,3.0029 162.0117,33.0029 84,40.9999 142.9961,104.999 195.9961,213.999 103,210 217.0029,449.001 243.0029,506.001 l 27.9932,62.0068 h 330.9961 331.0107 l 47.9883,-102.0117 c 48,-103 217.0088,-452.9874 249.0088,-516.9873 28,-57 116.0039,-138.999 179.0039,-168.999 50,-23.0001 69.9883,-27.0117 152.9883,-27.0117 88,0 101.0117,3.0029 162.0117,33.0029 69,34 115.9941,80.998 323.9942,322.998 45,51 110.0048,127.003 145.0048,168.0029 93,108 130.9903,160.001 159.9903,221.001 58,120 64.0029,145.9952 63.0029,289.9952 0,123.9999 -2.9932,141.0048 -27.9932,205.0048 -63.9999,159 -145.0107,257.9961 -271.0107,330.9961 -114,67 -161.9951,78.9991 -304.9951,78.9991 -134,0 -144.9932,-2.9883 -267.9932,-62.9883 -93,-45 -210.0048,-164.004 -265.0049,-269.004 l -37.998,-73.0077 h -637.9981 -638.0127 l -36.9873,69.0087 c -87.9999,159 -186.0107,244.9961 -361.0107,315.9961 -30,12.75 -146.0567,22.6937 -224.1504,22.6465 z m -160.8399,-417.6416 h 204.9903 205.0049 v -205.0049 -205.0048 h -205.0049 -204.9903 v 205.0048 z m 2430,0 h 204.9903 205.0049 v -205.0049 -205.0048 h -205.0049 -204.9903 v 205.0048 z" />
  </g>
</svg>
