<?xml version="1.0" encoding="UTF-8" standalone="no"?>
<svg
   version="1.0"
   width="700.000000pt"
   height="701.000000pt"
   viewBox="0 0 700.000000 701.000000"
   preserveAspectRatio="xMidYMid meet"
   id="svg846"
   sodipodi:docname="PACS.svg"
   inkscape:version="1.1.1 (3bf5ae0d25, 2021-09-20)"
   xmlns:inkscape="http://www.inkscape.org/namespaces/inkscape"
   xmlns:sodipodi="http://sodipodi.sourceforge.net/DTD/sodipodi-0.dtd"
   xmlns="http://www.w3.org/2000/svg"
   xmlns:svg="http://www.w3.org/2000/svg">
  <defs
     id="defs850" />
  <sodipodi:namedview
     id="namedview848"
     pagecolor="#ffffff"
     bordercolor="#111111"
     borderopacity="1"
     inkscape:pageshadow="0"
     inkscape:pageopacity="0"
     inkscape:pagecheckerboard="1"
     inkscape:document-units="pt"
     showgrid="false"
     inkscape:zoom="0.82061341"
     inkscape:cx="466.11473"
     inkscape:cy="467.33333"
     inkscape:window-width="1920"
     inkscape:window-height="1017"
     inkscape:window-x="1072"
     inkscape:window-y="979"
     inkscape:window-maximized="1"
     inkscape:current-layer="g844" />
  <metadata
     id="metadata838">
Created by potrace 1.12, written by Peter Selinger 2001-2015
</metadata>
  <g
     transform="translate(0.000000,701.000000) scale(0.100000,-0.100000)"
     fill="#000000"
     stroke="none"
     id="g844">
    <path
       id="path840"
       style="stroke-width:0.133333"
       d="M 0 0 L 0 467.33398 L 0 934.66602 L 466.66602 934.66602 L 933.33398 934.66602 L 933.33398 467.33398 L 933.33398 0 L 466.66602 0 L 0 0 z M 438.66602 112 L 466.66602 112 L 494.66602 112 L 494.66602 138.66602 L 494.66602 165.33398 L 538.26758 165.33398 C 563.86758 165.33398 585.20052 164.80052 589.86719 163.86719 C 610.40052 160.26719 633.46641 152.2668 649.06641 143.4668 C 654.39974 140.40013 660.13294 137.33372 661.59961 136.40039 C 664.13294 135.06706 665.33372 136.39909 678.40039 155.73242 C 686.00039 167.33242 692.80013 177.33281 693.4668 178.13281 C 697.20013 182.66615 643.19922 208.39935 621.19922 212.66602 C 619.73255 212.93268 618.26628 213.46719 617.59961 213.86719 C 616.39961 214.53385 592.13398 218.80013 585.33398 219.4668 C 582.80065 219.60013 561.33242 220.26745 537.73242 220.80078 L 494.66602 221.73242 L 494.66602 249.06641 L 494.66602 276.40039 L 543.06641 275.59961 C 591.99974 274.93294 599.33398 274.26667 627.33398 268 C 654.93398 261.86667 691.86732 246.80052 715.33398 231.86719 C 720.13398 228.93385 724.53398 226.93398 725.33398 227.33398 C 726.13398 227.86732 733.20026 237.86628 740.93359 249.59961 L 755.06641 270.80078 L 752 273.06641 C 742.93333 279.73307 715.73333 294.26745 700 300.80078 C 690.13333 304.93411 681.06667 308.66589 680 309.19922 C 678.93333 309.73255 674.4 311.3332 670 312.5332 C 665.6 313.86654 660.66589 315.46667 659.19922 316 C 656.66589 317.06667 651.6 318.26745 632 322.80078 C 628.66667 323.60078 623.59935 324.53359 620.66602 324.93359 C 617.86602 325.20026 615.06706 325.73281 614.40039 326.13281 C 611.20039 328.13281 566.53307 330.66602 533.06641 330.66602 L 494.66602 330.66602 L 494.66602 358 L 494.66602 385.33398 L 535.33398 385.33398 C 557.60065 385.33398 582.13294 384.8 589.59961 384 C 613.19961 381.73333 628.4 379.73333 636 378 C 640 377.06667 646.93398 375.59935 651.33398 374.66602 C 666.00065 371.59935 695.46758 362.53385 706.26758 357.86719 C 708.53424 356.80052 710.79922 356 711.19922 356 C 715.33255 356 759.86693 333.3332 776.93359 322.5332 C 781.46693 319.7332 785.60052 317.33398 785.86719 317.33398 C 786.66719 317.33398 815.33398 360.39961 815.33398 361.59961 C 815.33398 362.13294 811.73398 364.79909 807.33398 367.73242 C 776.93398 387.33242 742.66667 403.59909 706 415.73242 C 689.06667 421.46576 661.19948 429.06719 654.13281 429.86719 C 651.86615 430.26719 647.33333 431.06576 644 431.73242 C 637.33333 433.33242 625.33398 435.20013 607.33398 437.4668 C 600.80065 438.40013 572.66641 439.33294 545.06641 439.59961 L 494.66602 440.26758 L 494.66602 494.80078 L 494.66602 549.33398 L 508.13281 549.33398 L 521.59961 549.33398 L 531.4668 538.80078 C 556.53346 512.13411 589.46667 496.93307 626 495.06641 C 654.26667 493.59974 687.73268 503.59987 710.66602 520.5332 C 733.06602 536.9332 751.6 561.7332 760 586.5332 C 764.26667 599.3332 768 620.4 768 632 C 768 658.26667 757.73281 689.60026 742.13281 710.93359 C 731.06615 726.00026 681.20091 781.4668 666.26758 795.4668 C 655.33424 805.73346 639.06602 815.0668 624.66602 819.4668 C 613.86602 822.80013 580.26732 822.93242 569.33398 819.73242 C 544.26732 812.39909 522.6668 796.66615 509.4668 776.13281 C 505.8668 770.53281 497.06719 754.13294 489.86719 739.59961 L 476.66602 713.33398 L 466.66602 713.33398 L 456.66602 713.33398 L 443.4668 739.59961 C 436.2668 754.13294 427.46719 770.53281 423.86719 776.13281 C 413.33385 792.53281 398.66732 804.93385 379.33398 813.86719 C 364.66732 820.66719 358.26602 821.86719 336.66602 821.86719 C 314.26602 821.86719 307.60065 820.40039 291.33398 812.40039 C 272.40065 802.93372 264.39987 795.0668 206.5332 729.4668 C 188.5332 709.20013 179.59974 694.93281 173.06641 676.13281 C 169.06641 664.26615 165.33398 643.33333 165.33398 632 C 165.33398 620.4 169.0668 599.33372 173.4668 586.40039 C 183.8668 555.06706 208.93333 525.86693 238 510.93359 C 253.73333 502.93359 257.86602 501.46732 278.66602 497.33398 C 294.79935 494.00065 309.73242 494.00065 325.73242 497.33398 C 357.99909 503.86732 380.13385 515.99935 401.86719 538.66602 L 412 549.33398 L 425.33398 549.33398 L 438.66602 549.33398 L 438.66602 494.80078 L 438.66602 440.26758 L 387.73242 439.59961 C 353.19909 439.06628 331.86667 438.26693 322 436.93359 C 297.73333 433.60026 287.73268 432.00065 286.66602 431.33398 C 286.13268 431.06732 283.33424 430.39948 280.26758 430.13281 C 269.20091 428.66615 238.00065 419.86706 217.33398 412.40039 C 188.13398 401.73372 166.00065 391.60091 143.33398 378.26758 C 122.13398 365.86758 117.33372 362.39935 118.40039 360.66602 C 120.93372 356.66602 145.86602 319.20091 146.66602 318.26758 C 147.19935 317.60091 152.66602 320.13385 158.66602 323.86719 C 164.66602 327.60052 169.73333 330.66602 170 330.66602 C 170.26667 330.66602 174.26693 332.93294 178.93359 335.59961 C 197.06693 346.26628 245.99935 366.26667 262.66602 370 C 263.73268 370.26667 269.46732 371.59974 275.33398 373.06641 C 312.93398 382.39974 341.33242 385.33398 397.73242 385.33398 L 438.66602 385.33398 L 438.66602 358 L 438.66602 330.66602 L 401.06641 330.66602 C 363.06641 330.53268 333.19935 328.53411 312.66602 324.80078 C 297.59935 322.00078 278.13372 317.59948 274.40039 316.13281 C 272.66706 315.46615 267.73398 313.86654 263.33398 312.5332 C 258.93398 311.3332 254.40065 309.73255 253.33398 309.19922 C 252.26732 308.66589 243.20065 304.93411 233.33398 300.80078 C 217.60065 294.26745 190.40065 279.73307 181.33398 273.06641 L 178.26758 270.80078 L 192.80078 249.06641 C 200.80078 237.19974 207.99935 227.33307 208.66602 227.06641 C 209.46602 226.79974 213.33398 228.80013 217.33398 231.4668 C 226.40065 237.33346 249.33268 248.93372 262.66602 254.40039 C 270.79935 257.73372 289.06667 264.13268 292 264.66602 C 292.4 264.79935 298.40065 266.13294 305.33398 267.59961 C 337.60065 274.79961 338.66576 274.93294 389.73242 275.59961 L 438.66602 276.40039 L 438.66602 249.06641 L 438.66602 221.73242 L 396.40039 220.80078 C 373.06706 220.26745 351.20052 219.60065 347.86719 219.33398 C 340.13385 218.53398 318.80013 214.93281 317.4668 214.13281 C 316.93346 213.73281 314.80026 213.20078 312.93359 212.80078 C 297.86693 210.13411 261.19909 194.53372 245.73242 184.40039 L 238.93359 179.73242 L 253.73242 157.4668 C 264.13242 141.8668 269.19935 135.33242 270.66602 135.73242 C 271.59935 136.13242 276.39922 138.93242 281.19922 141.73242 C 291.73255 148.13242 322.66602 161.19922 322.66602 159.19922 C 322.66602 158.93255 324.26758 159.33281 326.26758 160.13281 C 336.93424 164.13281 351.99974 165.33398 395.06641 165.33398 L 438.66602 165.33398 L 438.66602 138.66602 L 438.66602 112 z M 298.7793 546.98047 C 295.30846 546.98257 292.39935 547.13346 290.66602 547.4668 C 272.79935 550.93346 253.33359 562.66758 242.93359 576.26758 C 229.60026 593.73424 224.66745 608.53268 224.80078 630.66602 C 224.93411 658.26602 230.53398 669.86732 261.33398 705.33398 C 268.66732 713.73398 278.79909 725.46732 283.73242 731.33398 C 310.53242 762.53398 317.86602 767.33398 338.66602 767.33398 C 350.39935 767.33398 352.13424 766.93359 360.26758 762.93359 C 371.46758 757.46693 379.33372 748.93372 386.40039 734.40039 C 400.13372 706.40039 415.33411 674.53359 418.80078 666.93359 L 422.5332 658.66602 L 466.66602 658.66602 L 510.80078 658.66602 L 517.19922 672.26758 C 523.59922 686.00091 546.13372 732.66589 550.40039 741.19922 C 554.13372 748.79922 565.86758 759.73242 574.26758 763.73242 C 580.93424 766.79909 583.59935 767.33398 594.66602 767.33398 C 606.39935 767.33398 608.13424 766.93359 616.26758 762.93359 C 625.46758 758.40026 631.73346 752.13385 659.4668 719.86719 C 665.4668 713.06719 674.13411 702.93346 678.80078 697.4668 C 691.20078 683.0668 696.26615 676.13333 700.13281 668 C 707.86615 652 708.66654 648.53398 708.5332 629.33398 C 708.5332 612.80065 708.13411 610.53333 704.80078 602 C 696.26745 580.8 685.46602 567.60052 668.66602 557.86719 C 653.46602 548.93385 647.06667 547.33398 628 547.33398 C 610.13333 547.33398 608.66758 547.73242 592.26758 555.73242 C 579.86758 561.73242 564.26693 577.59961 556.93359 591.59961 L 551.86719 601.33398 L 466.80078 601.33398 L 381.73242 601.33398 L 376.80078 592.13281 C 365.06745 570.93281 351.99935 559.46667 328.66602 550 C 324.66601 548.3 309.19179 546.97418 298.7793 546.98047 z M 277.33398 602.66602 L 304.66602 602.66602 L 332 602.66602 L 332 630 L 332 657.33398 L 304.66602 657.33398 L 277.33398 657.33398 L 277.33398 630 L 277.33398 602.66602 z M 601.33398 602.66602 L 628.66602 602.66602 L 656 602.66602 L 656 630 L 656 657.33398 L 628.66602 657.33398 L 601.33398 657.33398 L 601.33398 630 L 601.33398 602.66602 z "
       transform="matrix(7.5,0,0,-7.5,0,7010)" />
  </g>
</svg>
