<?xml version="1.0" encoding="UTF-8" standalone="no"?>
<svg
   width="400"
   height="400"
   viewBox="0 0 400 400"
   fill="none"
   version="1.1"
   id="svg1259"
   sodipodi:docname="pip-2.svg"
   inkscape:version="1.1.1 (3bf5ae0d25, 2021-09-20)"
   xmlns:inkscape="http://www.inkscape.org/namespaces/inkscape"
   xmlns:sodipodi="http://sodipodi.sourceforge.net/DTD/sodipodi-0.dtd"
   xmlns="http://www.w3.org/2000/svg"
   xmlns:svg="http://www.w3.org/2000/svg">
  <defs
     id="defs1263" />
  <sodipodi:namedview
     id="namedview1261"
     pagecolor="#ffffff"
     bordercolor="#111111"
     borderopacity="1"
     inkscape:pageshadow="0"
     inkscape:pageopacity="0"
     inkscape:pagecheckerboard="1"
     showgrid="false"
     inkscape:zoom="1.1983333"
     inkscape:cx="70.097357"
     inkscape:cy="107.23227"
     inkscape:window-width="1920"
     inkscape:window-height="1017"
     inkscape:window-x="1072"
     inkscape:window-y="979"
     inkscape:window-maximized="1"
     inkscape:current-layer="svg1259" />
  <path
     id="path1359"
     style="fill:#000000;stroke-width:0.417246"
     d="M 0.13867188 50.208984 L 0.13867188 200 L 0.13867188 349.79102 L 200 349.79102 L 399.85938 349.79102 L 399.85938 200 L 399.85938 50.208984 L 200 50.208984 L 0.13867188 50.208984 z M 225.86914 225.86914 L 299.92969 225.86914 L 373.99023 225.86914 L 373.99023 275.10352 L 373.99023 324.33984 L 299.92969 324.33984 L 225.86914 324.33984 L 225.86914 275.10352 L 225.86914 225.86914 z M 298.5625 248.46094 C 296.08402 248.50144 293.61757 248.88299 291.70898 249.61719 C 286.86739 251.47966 283.40988 255.93418 282.69141 261.23047 L 282.33398 263.83789 L 285.34766 263.83789 L 288.36133 263.83789 L 288.65625 261.86719 C 289.46967 256.44289 293.08865 253.4082 298.74219 253.4082 C 302.40979 253.4082 304.66861 254.47589 306.3418 257.00195 C 309.24756 261.38885 308.38456 266.52122 303.73047 272.52344 C 302.71875 273.82823 297.74422 279.49675 292.67578 285.11914 L 283.46094 295.33984 L 283.45508 297.53125 L 283.44922 299.72266 L 299.92969 299.72266 L 316.41016 299.72266 L 316.41016 297.22461 L 316.41016 294.72656 L 303.66406 294.61719 L 290.91797 294.50586 L 297.86719 286.99609 C 309.28437 274.65858 312.75844 269.70958 313.88867 264.17383 C 315.05218 258.47503 312.21247 252.59635 307.02344 249.9668 C 304.95658 248.91941 301.74915 248.40882 298.5625 248.46094 z " />
</svg>
