<?xml version="1.0" encoding="UTF-8" standalone="no"?>
<svg
   width="400"
   height="300"
   viewBox="0 0 400 300"
   fill="none"
   version="1.1"
   id="svg425"
   sodipodi:docname="PIP.svg"
   inkscape:version="1.1.1 (3bf5ae0d25, 2021-09-20)"
   xmlns:inkscape="http://www.inkscape.org/namespaces/inkscape"
   xmlns:sodipodi="http://sodipodi.sourceforge.net/DTD/sodipodi-0.dtd"
   xmlns="http://www.w3.org/2000/svg"
   xmlns:svg="http://www.w3.org/2000/svg">
  <defs
     id="defs429" />
  <sodipodi:namedview
     id="namedview427"
     pagecolor="#505050"
     bordercolor="#eeeeee"
     borderopacity="1"
     inkscape:pageshadow="0"
     inkscape:pageopacity="0"
     inkscape:pagecheckerboard="0"
     showgrid="false"
     inkscape:zoom="2.3966667"
     inkscape:cx="200.06954"
     inkscape:cy="150"
     inkscape:window-width="1920"
     inkscape:window-height="1017"
     inkscape:window-x="1072"
     inkscape:window-y="979"
     inkscape:window-maximized="1"
     inkscape:current-layer="svg425" />
  <path
     id="path419"
     d="M 0.13867188 0.20898438 L 0.13867188 150 L 0.13867188 299.79102 L 200 299.79102 L 399.86133 299.79102 L 399.86133 150 L 399.86133 0.20898438 L 200 0.20898438 L 0.13867188 0.20898438 z M 26.007812 25.660156 L 200.10352 25.763672 L 374.20117 25.869141 L 374.30664 87.935547 L 374.41211 150 L 287.41602 150 L 200.41992 150 L 200.31445 212.06445 L 200.20898 274.13086 L 113.10938 274.23633 L 26.007812 274.3418 L 26.007812 150 L 26.007812 25.660156 z M 121.21875 96.132812 L 83.953125 110.125 L 83.953125 121.9375 L 110.17969 112.30469 L 110.17969 199 L 123.25781 199 L 123.25781 96.132812 L 121.21875 96.132812 z M 225.86914 175.86914 L 300.14062 175.86914 L 374.41211 175.86914 L 374.30664 225 L 374.20117 274.13086 L 300.31445 274.23633 C 259.67704 274.29433 226.30207 274.21612 226.14844 274.0625 C 225.99482 273.90887 225.86914 251.75246 225.86914 224.82617 L 225.86914 175.86914 z M 299.00391 198.10938 C 293.91791 198.10937 289.85169 199.56175 286.80469 202.46875 C 283.78069 205.37475 282.26953 209.18353 282.26953 213.89453 L 288.77344 213.89453 C 288.77344 210.61253 289.66431 208.05947 291.44531 206.23047 C 293.25031 204.37947 295.76991 203.45313 299.00391 203.45312 C 301.69891 203.45312 303.85466 204.30853 305.47266 206.01953 C 307.08966 207.72953 307.89844 209.92175 307.89844 212.59375 C 307.89844 214.58575 307.39472 216.51953 306.38672 218.39453 C 305.40172 220.24553 303.59766 222.65972 300.97266 225.63672 L 283.25391 245.32422 L 283.25391 250 L 316.79297 250 L 316.79297 244.69141 L 291.09375 244.69141 L 304.80469 229.82031 C 311.22669 222.85931 314.4375 216.85931 314.4375 211.82031 C 314.4375 207.67231 313.05506 204.35509 310.28906 201.87109 C 307.52306 199.36309 303.76191 198.10937 299.00391 198.10938 z "
     style="fill:#000000" />
</svg>
