<?xml version="1.0" encoding="UTF-8" standalone="no"?>
<svg
   width="400"
   height="400"
   viewBox="0 0 400 400"
   fill="none"
   version="1.1"
   id="svg7500"
   sodipodi:docname="quad-2-3.svg"
   inkscape:version="1.1.1 (3bf5ae0d25, 2021-09-20)"
   xmlns:inkscape="http://www.inkscape.org/namespaces/inkscape"
   xmlns:sodipodi="http://sodipodi.sourceforge.net/DTD/sodipodi-0.dtd"
   xmlns="http://www.w3.org/2000/svg"
   xmlns:svg="http://www.w3.org/2000/svg">
  <defs
     id="defs7504" />
  <sodipodi:namedview
     id="namedview7502"
     pagecolor="#ffffff"
     bordercolor="#111111"
     borderopacity="1"
     inkscape:pageshadow="0"
     inkscape:pageopacity="0"
     inkscape:pagecheckerboard="1"
     showgrid="false"
     inkscape:zoom="1.1983333"
     inkscape:cx="333.79694"
     inkscape:cy="199.86092"
     inkscape:window-width="1920"
     inkscape:window-height="1017"
     inkscape:window-x="1072"
     inkscape:window-y="979"
     inkscape:window-maximized="1"
     inkscape:current-layer="svg7500" />
  <path
     id="path7623"
     style="fill:#000000;stroke-width:0.417246"
     d="M 0.13867188 50.208984 L 0.13867188 200 L 0.13867188 349.79102 L 200 349.79102 L 399.85938 349.79102 L 399.85938 200 L 399.85938 154.00977 L 399.85938 50.208984 L 227.17969 50.208984 L 200 50.208984 L 0.13867188 50.208984 z M 373.99023 166.61719 L 373.99023 199.99805 L 373.99023 233.37891 L 320.99023 233.37891 C 278.97185 233.37891 267.94296 233.27088 267.78516 232.85742 C 267.67566 232.57056 267.63407 217.59664 267.69336 199.58203 L 267.80078 166.82812 L 320.89648 166.72266 L 373.99023 166.61719 z M 319.33398 173.50781 C 315.41897 173.51081 314.68635 173.63674 312.44922 174.67773 C 307.98311 176.7559 304.61879 180.95991 304.03906 185.18945 L 303.78125 187.06641 L 306.96875 187.06641 L 310.15234 187.06641 L 310.16406 185.91797 C 310.17836 184.12445 311.59399 181.43906 313.13281 180.28906 C 315.15375 178.77877 317.38551 178.18691 320.31445 178.38477 C 325.54867 178.73836 328.05253 181.14622 328.41211 186.17188 C 328.90294 193.03181 325.52048 196.23223 317.76953 196.24023 L 313.91016 196.24414 L 313.91016 198.6875 L 313.91016 201.13086 L 318.10352 201.36133 C 326.29995 201.81298 329.78868 205.09977 329.24609 211.85938 C 328.78109 217.65225 325.62601 220.44531 319.54297 220.44531 C 316.5266 220.44531 314.6663 219.9017 312.7168 218.45312 C 311.17909 217.31053 309.76039 214.6258 309.74609 212.83008 L 309.73438 211.68359 L 306.60547 211.68359 C 303.61099 211.68359 303.47852 211.72469 303.47852 212.65039 C 303.47852 214.40559 304.69912 217.77634 305.97461 219.53711 C 307.56931 221.73852 310.95977 223.98896 313.91016 224.80664 C 317.21485 225.72251 323.40866 225.44645 326.50977 224.24414 C 329.84411 222.95141 332.69444 220.25656 334.15234 217.02344 C 335.74933 213.48189 335.84211 208.81954 334.37891 205.51367 C 333.29507 203.06493 330.49342 200.31958 328.25391 199.50977 C 326.56765 198.90001 326.50098 198.62073 327.88477 197.99023 C 329.65449 197.1839 332.45776 194.31415 333.53516 192.20508 C 334.38742 190.53673 334.55475 189.62833 334.52344 186.85742 C 334.47364 182.44326 333.35876 179.83905 330.33789 177.07812 C 327.27096 174.27514 324.89555 173.50281 319.33398 173.50781 z " />
</svg>
