<?xml version="1.0" encoding="UTF-8" standalone="no"?>
<svg
   width="400"
   height="300"
   viewBox="0 0 400 300"
   fill="none"
   version="1.1"
   id="svg19"
   sodipodi:docname="Quad-1-Notext.svg"
   inkscape:version="1.1.1 (3bf5ae0d25, 2021-09-20)"
   xmlns:inkscape="http://www.inkscape.org/namespaces/inkscape"
   xmlns:sodipodi="http://sodipodi.sourceforge.net/DTD/sodipodi-0.dtd"
   xmlns="http://www.w3.org/2000/svg"
   xmlns:svg="http://www.w3.org/2000/svg">
  <defs
     id="defs23" />
  <sodipodi:namedview
     id="namedview21"
     pagecolor="#505050"
     bordercolor="#eeeeee"
     borderopacity="1"
     inkscape:pageshadow="0"
     inkscape:pageopacity="0"
     inkscape:pagecheckerboard="0"
     showgrid="false"
     inkscape:zoom="2.5566667"
     inkscape:cx="200.06519"
     inkscape:cy="150"
     inkscape:window-width="1920"
     inkscape:window-height="1017"
     inkscape:window-x="1072"
     inkscape:window-y="979"
     inkscape:window-maximized="1"
     inkscape:current-layer="svg19" />
  <path
     id="path161"
     style="fill:#000000;stroke-width:0.391134"
     d="M 0.13085938 0.1953125 L 0.13085938 150 L 0.13085938 299.80469 L 200 299.80469 L 399.86914 299.80469 L 399.86914 150 L 399.86914 0.1953125 L 200 0.1953125 L 0.13085938 0.1953125 z M 25.945312 26.009766 L 106.51953 26.009766 L 187.0918 26.009766 L 187.0918 81.550781 L 187.0918 137.0918 L 106.51953 137.0918 L 25.945312 137.0918 L 25.945312 81.550781 L 25.945312 26.009766 z M 212.9082 26.009766 L 293.67578 26.009766 L 374.44531 26.009766 L 374.44531 81.550781 L 374.44531 137.0918 L 293.67578 137.0918 L 212.9082 137.0918 L 212.9082 81.550781 L 212.9082 26.009766 z M 25.945312 162.9082 L 106.51953 162.9082 L 187.0918 162.9082 L 187.0918 218.44922 L 187.0918 273.99023 L 106.51953 273.99023 L 25.945312 273.99023 L 25.945312 218.44922 L 25.945312 162.9082 z M 212.9082 162.9082 L 293.67578 162.9082 L 374.44531 162.9082 L 374.44531 218.44922 L 374.44531 273.99023 L 293.67578 273.99023 L 212.9082 273.99023 L 212.9082 218.44922 L 212.9082 162.9082 z " />
</svg>
