<?xml version="1.0" encoding="UTF-8" standalone="no"?>
<svg
   width="400"
   height="400"
   viewBox="0 0 400 400"
   fill="none"
   version="1.1"
   id="svg6007"
   sodipodi:docname="quad-1-4.svg"
   inkscape:version="1.1.1 (3bf5ae0d25, 2021-09-20)"
   xmlns:inkscape="http://www.inkscape.org/namespaces/inkscape"
   xmlns:sodipodi="http://sodipodi.sourceforge.net/DTD/sodipodi-0.dtd"
   xmlns="http://www.w3.org/2000/svg"
   xmlns:svg="http://www.w3.org/2000/svg">
  <defs
     id="defs6011" />
  <sodipodi:namedview
     id="namedview6009"
     pagecolor="#ffffff"
     bordercolor="#111111"
     borderopacity="1"
     inkscape:pageshadow="0"
     inkscape:pageopacity="0"
     inkscape:pagecheckerboard="1"
     showgrid="false"
     inkscape:zoom="1.6946993"
     inkscape:cx="120.96542"
     inkscape:cy="243.40602"
     inkscape:window-width="1920"
     inkscape:window-height="1017"
     inkscape:window-x="1072"
     inkscape:window-y="979"
     inkscape:window-maximized="1"
     inkscape:current-layer="svg6007" />
  <path
     id="path6167"
     style="fill:#000000;stroke-width:0.417246"
     d="M 0.13867188 50.208984 L 0.13867188 200 L 0.13867188 203.49414 L 0.13867188 349.79102 L 200.00195 349.79102 L 399.86133 349.79102 L 399.86133 200 L 399.86133 50.208984 L 391.69336 50.208984 L 0.13867188 50.208984 z M 212.93555 212.93555 L 293.46484 212.93555 L 373.99023 212.93555 L 373.99023 268.63672 L 373.99023 324.33984 L 293.46484 324.33984 L 212.93555 324.33984 L 212.93555 268.63672 L 212.93555 212.93555 z M 304.30273 242.97656 L 301.07422 242.97852 L 297.8457 242.98047 L 286.58008 260.39844 C 276.45639 276.05245 275.30068 278.01578 275.16992 279.79102 L 275.02344 281.76758 L 286.64258 281.87695 L 298.26172 281.98828 L 298.37891 287.93555 L 298.49414 293.88086 L 301.4043 293.88086 L 304.3125 293.88086 L 304.3125 287.83008 L 304.3125 281.78125 L 307.85938 281.78125 L 311.40625 281.78125 L 311.40625 279.50391 L 311.40625 277.22461 L 307.96289 277.10352 L 304.52148 276.98242 L 304.41211 259.98047 L 304.30273 242.97656 z M 298.16406 251.75781 C 298.33958 251.74671 298.43179 257.41743 298.37109 264.35938 L 298.26172 276.98242 L 290.19922 277.0957 C 283.46642 277.1904 282.15738 277.1117 282.27148 276.625 C 282.47658 275.75002 297.79494 251.78121 298.16406 251.75781 z " />
</svg>
