<?xml version="1.0" encoding="UTF-8" standalone="no"?>
<svg
   width="400"
   height="400"
   viewBox="0 0 400 400"
   fill="none"
   version="1.1"
   id="svg6639"
   sodipodi:docname="quad-2-1.svg"
   inkscape:version="1.1.1 (3bf5ae0d25, 2021-09-20)"
   xmlns:inkscape="http://www.inkscape.org/namespaces/inkscape"
   xmlns:sodipodi="http://sodipodi.sourceforge.net/DTD/sodipodi-0.dtd"
   xmlns="http://www.w3.org/2000/svg"
   xmlns:svg="http://www.w3.org/2000/svg">
  <defs
     id="defs6643" />
  <sodipodi:namedview
     id="namedview6641"
     pagecolor="#ffffff"
     bordercolor="#111111"
     borderopacity="1"
     inkscape:pageshadow="0"
     inkscape:pageopacity="0"
     inkscape:pagecheckerboard="1"
     showgrid="false"
     inkscape:zoom="1.1983333"
     inkscape:cx="307.92768"
     inkscape:cy="244.08901"
     inkscape:window-width="1920"
     inkscape:window-height="1017"
     inkscape:window-x="1072"
     inkscape:window-y="979"
     inkscape:window-maximized="1"
     inkscape:current-layer="svg6639" />
  <path
     id="path6739"
     style="fill:#000000;stroke-width:0.417246"
     d="M 0.140625 50.208984 L 0.140625 200 L 0.140625 349.79102 L 200 349.79102 L 399.85938 349.79102 L 399.85938 200 L 399.85938 50.208984 L 200 50.208984 L 0.140625 50.208984 z M 242.14258 75.658203 L 242.14258 200 L 242.14258 324.33984 L 134.0625 324.33984 C 47.982395 324.33984 25.942896 324.23376 25.785156 323.81836 C 25.676226 323.53151 25.634609 267.62445 25.693359 199.58203 L 25.800781 75.869141 L 133.97266 75.763672 L 242.14258 75.658203 z M 143.39648 146.17578 C 143.01383 146.17634 134.28726 149.32052 124.00195 153.16406 L 105.30078 160.15234 L 105.29102 165.88086 L 105.28516 171.60938 L 108.10156 170.56641 C 109.65059 169.9926 115.42399 167.86824 120.93164 165.8457 L 130.94531 162.16797 L 131.05078 205.49219 L 131.1582 248.81836 L 137.62305 248.81836 L 144.08984 248.81836 L 144.08984 197.49609 C 144.08984 149.94283 144.03874 146.17578 143.39648 146.17578 z " />
</svg>
