<?xml version="1.0" encoding="UTF-8" standalone="no"?>
<svg
   width="400"
   height="400"
   viewBox="0 0 400 400"
   fill="none"
   version="1.1"
   id="svg7051"
   sodipodi:docname="quad-2-2.svg"
   inkscape:version="1.1.1 (3bf5ae0d25, 2021-09-20)"
   xmlns:inkscape="http://www.inkscape.org/namespaces/inkscape"
   xmlns:sodipodi="http://sodipodi.sourceforge.net/DTD/sodipodi-0.dtd"
   xmlns="http://www.w3.org/2000/svg"
   xmlns:svg="http://www.w3.org/2000/svg">
  <defs
     id="defs7055" />
  <sodipodi:namedview
     id="namedview7053"
     pagecolor="#ffffff"
     bordercolor="#111111"
     borderopacity="1"
     inkscape:pageshadow="0"
     inkscape:pageopacity="0"
     inkscape:pagecheckerboard="1"
     showgrid="false"
     inkscape:zoom="1.1983333"
     inkscape:cx="173.57441"
     inkscape:cy="154.79833"
     inkscape:window-width="1920"
     inkscape:window-height="1017"
     inkscape:window-x="1072"
     inkscape:window-y="979"
     inkscape:window-maximized="1"
     inkscape:current-layer="svg7051" />
  <path
     id="path7151"
     style="fill:#000000;stroke-width:0.417246"
     d="M 0.140625 50.208984 L 0.140625 200 L 0.140625 349.79102 L 200 349.79102 L 399.85938 349.79102 L 399.85938 200 L 399.85938 50.208984 L 200 50.208984 L 0.140625 50.208984 z M 373.99219 75.658203 L 373.99219 108.41211 L 373.99219 141.16797 L 320.79102 141.16797 L 267.58789 141.16797 L 267.69531 108.51953 L 267.80078 75.869141 L 320.89648 75.763672 L 373.99219 75.658203 z M 320.0293 82.394531 C 319.5949 82.394665 319.15338 82.406237 318.70508 82.429688 C 315.52758 82.59589 314.34559 82.861521 312.11719 83.904297 C 307.25289 86.180564 304.117 90.447013 303.5957 95.498047 L 303.35742 97.814453 L 306.44141 97.689453 C 309.38721 97.571246 309.53212 97.519344 309.63672 96.523438 C 310.28202 90.382008 314.15491 87.095859 320.37891 87.410156 C 322.97631 87.541318 323.7274 87.758447 325.2168 88.810547 C 327.829 90.655762 328.7208 92.678833 328.7168 96.732422 C 328.7168 99.71431 328.56909 100.34069 327.33789 102.61523 C 325.78479 105.48411 322.93962 108.88471 311.94922 121.02148 L 304.3125 129.45703 L 304.3125 131.55664 L 304.3125 133.6582 L 321 133.6582 L 337.69141 133.6582 L 337.69141 131.36328 L 337.69141 129.06836 L 324.98828 129.06836 C 318.00248 129.06836 312.20482 128.92797 312.10352 128.75586 C 312.00232 128.58374 315.48013 124.59312 319.83203 119.88867 C 328.92003 110.06462 331.20418 107.14269 333.39648 102.53906 C 334.83208 99.524443 334.97061 98.922774 334.97461 95.6875 C 334.97461 92.627674 334.81742 91.809109 333.79102 89.71875 C 331.47262 84.997269 326.5458 82.392528 320.0293 82.394531 z " />
</svg>
