<?xml version="1.0" encoding="UTF-8" standalone="no"?>
<svg
   width="400"
   height="400"
   viewBox="0 0 400 400"
   fill="none"
   version="1.1"
   id="svg7933"
   sodipodi:docname="quad-2-4.svg"
   inkscape:version="1.1.1 (3bf5ae0d25, 2021-09-20)"
   xmlns:inkscape="http://www.inkscape.org/namespaces/inkscape"
   xmlns:sodipodi="http://sodipodi.sourceforge.net/DTD/sodipodi-0.dtd"
   xmlns="http://www.w3.org/2000/svg"
   xmlns:svg="http://www.w3.org/2000/svg">
  <defs
     id="defs7937" />
  <sodipodi:namedview
     id="namedview7935"
     pagecolor="#ffffff"
     bordercolor="#111111"
     borderopacity="1"
     inkscape:pageshadow="0"
     inkscape:pageopacity="0"
     inkscape:pagecheckerboard="1"
     showgrid="false"
     inkscape:zoom="1.6946993"
     inkscape:cx="88.51128"
     inkscape:cy="145.45354"
     inkscape:window-width="1920"
     inkscape:window-height="1017"
     inkscape:window-x="1072"
     inkscape:window-y="979"
     inkscape:window-maximized="1"
     inkscape:current-layer="svg7933" />
  <path
     id="path8033"
     style="fill:#000000;stroke-width:0.417246"
     d="M 0.140625 50.208984 L 0.140625 200 L 0.140625 349.79102 L 200 349.79102 L 399.85938 349.79102 L 399.85938 200 L 399.85938 50.208984 L 200 50.208984 L 0.140625 50.208984 z M 267.59375 258.83203 L 320.79297 258.83203 L 373.99023 258.83203 L 373.99023 291.58594 L 373.99023 324.33984 L 321.07031 324.33984 C 291.96391 324.33984 268.02407 324.21355 267.87109 324.06055 C 267.7181 323.90757 267.59375 309.16826 267.59375 291.30664 L 267.59375 258.83203 z M 324.88867 265.92578 L 313.47266 283.55273 C 303.91434 298.30817 302.02368 301.47081 301.88672 302.95508 L 301.72266 304.72852 L 313.44727 304.72852 L 325.17383 304.72852 L 325.17383 310.7793 L 325.17383 316.82812 L 328.29102 316.82812 L 331.41016 316.82812 L 331.52539 310.88281 L 331.64062 304.9375 L 335.08203 304.81641 L 338.52539 304.69531 L 338.52539 302.41797 L 338.52539 300.13867 L 334.97852 300.13867 L 331.43164 300.13867 L 331.43164 283.03125 L 331.43164 265.92578 L 328.16016 265.92578 L 324.88867 265.92578 z M 325.00391 274.72266 C 325.09851 274.62706 325.17383 280.30619 325.17383 287.34375 L 325.17383 300.13867 L 317.02148 300.13867 C 309.38739 300.13867 308.89631 300.09207 309.26367 299.4082 C 309.73338 298.53378 324.75698 274.97239 325.00391 274.72266 z " />
</svg>
