<?xml version="1.0" encoding="UTF-8" standalone="no"?>
<svg
   width="500"
   height="500"
   viewBox="0 0 500 500"
   fill="none"
   version="1.1"
   id="svg27"
   sodipodi:docname="reflex.svg"
   inkscape:version="1.1.1 (3bf5ae0d25, 2021-09-20)"
   xmlns:inkscape="http://www.inkscape.org/namespaces/inkscape"
   xmlns:sodipodi="http://sodipodi.sourceforge.net/DTD/sodipodi-0.dtd"
   xmlns="http://www.w3.org/2000/svg"
   xmlns:svg="http://www.w3.org/2000/svg">
  <defs
     id="defs31" />
  <sodipodi:namedview
     id="namedview29"
     pagecolor="#505050"
     bordercolor="#eeeeee"
     borderopacity="1"
     inkscape:pageshadow="0"
     inkscape:pageopacity="0"
     inkscape:pagecheckerboard="0"
     showgrid="false"
     inkscape:zoom="0.591821"
     inkscape:cx="125.03781"
     inkscape:cy="419.89047"
     inkscape:window-width="1920"
     inkscape:window-height="1017"
     inkscape:window-x="1072"
     inkscape:window-y="979"
     inkscape:window-maximized="1"
     inkscape:current-layer="svg27" />
  <path
     id="path21"
     d="M 58.533203,88.088865 C 26.205703,88.088865 0,114.29467 0,146.62207 c 0,32.3275 26.205703,58.53515 58.533203,58.53515 32.3276,0 58.535157,-26.20765 58.535157,-58.53515 0,-32.3274 -26.207557,-58.533205 -58.535157,-58.533205 z M 458.64453,162.77441 c -5.50484,0.20208 -10.19594,9.40206 -10.49219,20.60156 -0.225,8.5421 0.15949,28.21503 2.52149,46.45704 l -213.84961,110.0039 c -19.29315,-31.30109 -40.71297,-65.87627 -49.1543,-78.70117 -27.29,-41.463 -37.16889,-39.60743 -64.58789,-39.60743 -23.763599,3.047 -42.871092,20.7168 -42.871092,20.7168 l 121.953122,126.01172 0.10156,0.0332 41.49024,43.6211 74.14453,-48.01562 L 471.31445,266.40332 500,253.85253 c 0,0 -23.0358,-59.23239 -31.3418,-80.21288 -3.11475,-7.8678 -6.71076,-10.98649 -10.01367,-10.86524 z"
     style="fill:#000000" />
</svg>
