<svg width="500" height="256" viewBox="0 0 500 256" fill="none" xmlns="http://www.w3.org/2000/svg">
<path d="M109.442 75.3995C98.97 104.736 66.7206 120.021 37.4105 109.54C8.10051 99.0588 -7.17096 66.7804 3.30075 37.4441C13.7725 8.10777 46.0219 -7.1774 75.332 3.30371C104.642 13.7848 119.913 46.0632 109.442 75.3995Z" fill="#707172"/>
<path d="M301.33 120.831C301.33 120.831 182.915 49.1173 141.091 63.5308C99.2672 77.9443 100.705 123.672 100.705 123.672L182.546 152.938L182.504 153.028L265.888 182.846L435.366 242.747L459.143 255.528C459.143 255.528 487.029 208.432 496.829 191.65C506.628 174.868 491.712 173.718 479.314 182.919C473.404 187.306 460.274 198.022 449.167 209.318L301.31 120.921L301.33 120.831Z" fill="#707172"/>
</svg>
