<?xml version="1.0" encoding="UTF-8" standalone="no"?>
<svg
   width="500"
   height="500"
   viewBox="0 0 500 500"
   fill="none"
   version="1.1"
   id="svg166"
   sodipodi:docname="reverse-function.svg"
   inkscape:version="1.1.1 (3bf5ae0d25, 2021-09-20)"
   xmlns:inkscape="http://www.inkscape.org/namespaces/inkscape"
   xmlns:sodipodi="http://sodipodi.sourceforge.net/DTD/sodipodi-0.dtd"
   xmlns="http://www.w3.org/2000/svg"
   xmlns:svg="http://www.w3.org/2000/svg">
  <defs
     id="defs170" />
  <sodipodi:namedview
     id="namedview168"
     pagecolor="#505050"
     bordercolor="#eeeeee"
     borderopacity="1"
     inkscape:pageshadow="0"
     inkscape:pageopacity="0"
     inkscape:pagecheckerboard="0"
     showgrid="false"
     inkscape:zoom="1.728169"
     inkscape:cx="298.58191"
     inkscape:cy="153.63081"
     inkscape:window-width="1920"
     inkscape:window-height="1017"
     inkscape:window-x="1072"
     inkscape:window-y="979"
     inkscape:window-maximized="1"
     inkscape:current-layer="svg166" />
  <path
     id="path154"
     d="m 445.51371,120.24512 c -30.092,0 -54.48633,24.38976 -54.48633,54.47656 0,30.0868 24.39433,54.47655 54.48633,54.47655 30.092,0 54.48633,-24.38975 54.48633,-54.47655 0,-30.0868 -24.39433,-54.47656 -54.48633,-54.47656 z M 5.5234769,141.77051 c -4.09227,-0.19513 -6.7145288,3.4664 -4.98046868,12.6914 C 4.0111481,172.91181 14.09379,224.81347 14.09379,224.81347 l 25.802734,-3.89063 173.771486,0.63868 h 85.60937 l -0.01,-0.0937 h 84.02539 c 0,0 16.17039,-41.12268 -17.22461,-67.83398 -33.395,-26.7113 -164.51367,0 -164.51367,0 l -0.0117,0.0879 -163.347438,32.31049 c -6.441499,-13.886 -14.91364,-27.90285 -18.86914,-33.81445 -4.14875,-6.2003 -9.7104651,-10.25214 -13.8027351,-10.44726 z M 3.9471345e-5,249.00878 v 19.81056 H 365.29301 v -19.81056 z m 385.103520528655,0 v 19.81056 H 500.00004 V 249.00878 Z M 220.2852,288.62792 v 71.31642 h -45.5625 v 19.81054 H 337.16215 V 359.94434 H 291.6016 v -71.31642 z"
     style="fill:#000000" />
</svg>
