<?xml version="1.0" encoding="UTF-8" standalone="no"?>
<svg
   width="400"
   height="400"
   viewBox="0 0 400 400"
   fill="none"
   version="1.1"
   id="svg449"
   sodipodi:docname="single-2.svg"
   inkscape:version="1.1.1 (3bf5ae0d25, 2021-09-20)"
   xmlns:inkscape="http://www.inkscape.org/namespaces/inkscape"
   xmlns:sodipodi="http://sodipodi.sourceforge.net/DTD/sodipodi-0.dtd"
   xmlns="http://www.w3.org/2000/svg"
   xmlns:svg="http://www.w3.org/2000/svg">
  <defs
     id="defs453" />
  <sodipodi:namedview
     id="namedview451"
     pagecolor="#505050"
     bordercolor="#eeeeee"
     borderopacity="1"
     inkscape:pageshadow="0"
     inkscape:pageopacity="0"
     inkscape:pagecheckerboard="0"
     showgrid="false"
     inkscape:zoom="2.3966667"
     inkscape:cx="200.27816"
     inkscape:cy="150"
     inkscape:window-width="1920"
     inkscape:window-height="1017"
     inkscape:window-x="1072"
     inkscape:window-y="979"
     inkscape:window-maximized="1"
     inkscape:current-layer="svg449" />
  <path
     id="path445"
     d="M 0.13867094,50.208982 V 200 349.79102 H 200 399.86133 V 200 50.208982 H 200 Z M 26.007811,75.660154 200.10352,75.76367 374.20117,75.869139 V 200 324.13086 l -174.09765,0.10547 -174.095709,0.10351 V 200 Z M 200.00781,146.21875 c -10.172,0 -18.30443,2.90575 -24.39843,8.71875 -6.047,5.812 -9.07032,13.42956 -9.07032,22.85156 h 13.00782 c 0,-6.562 1.78074,-11.67212 5.34374,-15.32812 3.60901,-3.703 8.64819,-5.55469 15.11719,-5.55469 5.39,0 9.7035,1.71081 12.9375,5.13281 3.235,3.422 4.85157,7.80444 4.85157,13.14844 0,3.984 -1.00744,7.85156 -3.02344,11.60156 -1.968,3.703 -5.57813,8.53138 -10.82813,14.48438 l -35.4375,39.375 V 250 h 67.07813 V 239.38281 H 184.1875 l 27.42188,-29.74219 c 12.84399,-13.92199 19.26562,-25.92199 19.26562,-36 0,-8.297 -2.76587,-14.92943 -8.29688,-19.89843 -5.531,-5.0154 -13.05531,-7.52344 -22.57031,-7.52344 z"
     style="fill:#000000" />
</svg>
