<?xml version="1.0" encoding="UTF-8" standalone="no"?>
<svg
   width="500"
   height="500"
   viewBox="0 0 500 500"
   fill="none"
   version="1.1"
   id="svg35"
   sodipodi:docname="slide-head.svg"
   inkscape:version="1.1.1 (3bf5ae0d25, 2021-09-20)"
   xmlns:inkscape="http://www.inkscape.org/namespaces/inkscape"
   xmlns:sodipodi="http://sodipodi.sourceforge.net/DTD/sodipodi-0.dtd"
   xmlns="http://www.w3.org/2000/svg"
   xmlns:svg="http://www.w3.org/2000/svg">
  <defs
     id="defs39" />
  <sodipodi:namedview
     id="namedview37"
     pagecolor="#505050"
     bordercolor="#eeeeee"
     borderopacity="1"
     inkscape:pageshadow="0"
     inkscape:pageopacity="0"
     inkscape:pagecheckerboard="0"
     showgrid="false"
     inkscape:zoom="2.618"
     inkscape:cx="250.19099"
     inkscape:cy="130.44309"
     inkscape:window-width="1920"
     inkscape:window-height="1017"
     inkscape:window-x="1072"
     inkscape:window-y="979"
     inkscape:window-maximized="1"
     inkscape:current-layer="svg35" />
  <path
     id="path25"
     d="M 50.119141,119.84961 0,148.77148 50.119141,177.69336 V 157.42969 H 100.23828 V 140.11328 H 50.119141 Z m 4.367187,84.78516 C 24.394228,204.63477 0,229.02628 0,259.11328 c 0,30.087 24.394228,54.47656 54.486328,54.47656 30.0922,0 54.486332,-24.38956 54.486332,-54.47656 0,-30.087 -24.394132,-54.47851 -54.486332,-54.47851 z M 193.7168,226.16211 c -25.27911,-0.1883 -48.30563,2.68134 -59.78516,11.86328 -33.395,26.712 -17.22461,67.83203 -17.22461,67.83203 h 84.02539 l -0.01,0.0957 h 85.60937 l 173.77149,-0.63868 25.80273,3.89063 c 0,0 10.08278,-51.90256 13.55078,-70.35156 3.468,-18.45 -10.4852,-14.6461 -18.7832,-2.2461 -3.955,5.912 -12.42714,19.92846 -18.86914,33.81446 l -163.34766,-32.3086 -0.0117,-0.0879 c 0,0 -56.46839,-11.5038 -104.72851,-11.86328 z m 189.40429,114.36914 v 19.80859 c -14.989,0.066 -45.0865,0.159 -45.5625,0 v 19.81055 H 500 v -19.81055 h -45.5625 v -19.80859 z"
     style="fill:#000000" />
</svg>
