<svg width="17" height="16" viewBox="0 0 17 16" fill="none" xmlns="http://www.w3.org/2000/svg">
<path d="M7.5 14H13.5V16H7.5V14Z" fill="#C4C4C4"/>
<path d="M2.67071 7H1.62602C2.01496 5.48885 3.26477 4.32331 4.82148 4.05731C5.04202 4.01963 5.26872 4 5.5 4C5.63745 4 5.77328 4.00693 5.90716 4.02047C6.2534 4.05547 6.58659 4.13463 6.90103 4.25223C8.11371 4.70577 9.04737 5.73103 9.37398 7H10L8.75 8L7.5 7H8.32929C8.03749 6.17442 7.39457 5.5147 6.57996 5.20026C6.27423 5.08225 5.94431 5.01288 5.59969 5.00163C5.56659 5.00054 5.53336 5 5.5 5C5.17157 5 4.85546 5.05278 4.5597 5.15031C3.67918 5.44069 2.97899 6.12778 2.67071 7Z" fill="#C4C4C4"/>
<path d="M10.5 0C8.27754 0 6.3373 1.20835 5.30043 3.00391C5.36663 3.00131 5.43316 3 5.5 3C5.81972 3 6.13244 3.03001 6.43548 3.08736C7.34287 1.82336 8.82528 1 10.5 1C13.2614 1 15.5 3.23858 15.5 6C15.5 8.05032 14.2659 9.8124 12.5 10.584V12H8.5C8.19226 12.2312 7.857 12.4278 7.5 12.5838V13H13.5V11.1973C15.2934 10.1599 16.5 8.22085 16.5 6C16.5 2.68629 13.8137 0 10.5 0ZM10.5 8C10.5 5.93458 9.24766 4.16166 7.46089 3.39916C8.19451 2.54271 9.28388 2 10.5 2C12.7091 2 14.5 3.79086 14.5 6C14.5 7.86384 13.2252 9.42994 11.5 9.87398V11H9.5C10.1277 10.1643 10.5 9.12561 10.5 8Z" fill="#C4C4C4"/>
<path d="M5.5 12C3.63616 12 2.07006 10.7252 1.62602 9H1L2.25 8L3.5 9H2.67071C3.08254 10.1652 4.19378 11 5.5 11C5.95976 11 6.39536 10.8966 6.78481 10.7117C7.10536 10.5596 7.39464 10.3523 7.64039 10.1021C7.87417 9.86406 8.06856 9.58723 8.213 9.28214C8.25636 9.19054 8.29522 9.0964 8.32929 9H9.37398C9.30694 9.26047 9.21432 9.51067 9.09897 9.74777C8.94001 10.0745 8.73788 10.3763 8.5 10.6458C8.21404 10.9698 7.87641 11.2471 7.5 11.4649C6.91165 11.8052 6.22857 12 5.5 12Z" fill="#C4C4C4"/>
</svg>
