<?xml version="1.0" encoding="UTF-8" standalone="no"?>
<svg
   width="500"
   height="320"
   viewBox="0 0 500 320"
   fill="none"
   version="1.1"
   id="svg5280"
   sodipodi:docname="Sync.svg"
   inkscape:version="1.1.1 (3bf5ae0d25, 2021-09-20)"
   xmlns:inkscape="http://www.inkscape.org/namespaces/inkscape"
   xmlns:sodipodi="http://sodipodi.sourceforge.net/DTD/sodipodi-0.dtd"
   xmlns="http://www.w3.org/2000/svg"
   xmlns:svg="http://www.w3.org/2000/svg">
  <defs
     id="defs5284" />
  <sodipodi:namedview
     id="namedview5282"
     pagecolor="#ffffff"
     bordercolor="#111111"
     borderopacity="1"
     inkscape:pageshadow="0"
     inkscape:pageopacity="0"
     inkscape:pagecheckerboard="1"
     showgrid="false"
     inkscape:zoom="1.309"
     inkscape:cx="218.10542"
     inkscape:cy="156.22613"
     inkscape:window-width="1920"
     inkscape:window-height="1017"
     inkscape:window-x="1072"
     inkscape:window-y="979"
     inkscape:window-maximized="1"
     inkscape:current-layer="svg5280" />
  <path
     id="path5380"
     style="fill:#000000;stroke-width:0.445063"
     d="m 387.6516,1.0528932 c -6.06664,-0.08733 -12.10469,0.08904 -15.82617,0.560547 -32.90153,4.16862 -61.31768,19.7324968 -79.55078,43.5703168 -16.86045,22.04322 -23.19229,48.51882 -17.89063,74.808583 2.42262,12.01318 6.93785,22.54523 15.20313,35.45508 12.57102,19.63513 18.94151,28.01883 34.32031,45.17383 9.89436,11.03712 11.6598,13.11878 14.53516,17.13477 4.9364,6.89464 7.26639,12.73505 8.43554,21.14062 0.73901,5.31308 1.82224,8.7715 3.86719,12.3457 1.57527,2.75328 6.34683,8.03148 9.01953,9.97852 l 1.73438,1.26562 h 24.77148 24.76953 l 2.92969,-2.41601 c 6.53193,-5.38784 10.52555,-12.723 11.47852,-21.08203 0.87204,-7.64914 2.86628,-12.98834 7.34179,-19.65821 3.02776,-4.51227 5.80451,-7.82627 17.73047,-21.15625 14.68987,-16.4193 22.39003,-26.87058 36.23633,-49.17968 2.12697,-3.42698 5.59046,-10.65816 7.2168,-15.07032 11.44168,-31.04072 5.60337,-64.737413 -15.77735,-91.076163 -3.73006,-4.59504 -11.90403,-12.68571 -16.46875,-16.30078 C 445.52785,13.717318 425.87785,5.4350432 403.6477,2.0704712 c -3.83394,-0.580271 -9.92946,-0.93025 -15.9961,-1.017578 z M 385.23559,15.79508 c 8.38885,-0.01994 17.16041,0.801226 24.52343,2.396484 21.04085,4.558673 40.49231,15.617683 53.84766,30.615233 15.13773,16.99911 22.90473,38.95817 21.10937,59.683593 -1.34751,15.55559 -5.44389,26.54494 -15.84765,42.50781 -9.80872,15.0499 -15.41413,22.33217 -27.40039,35.60352 -16.57955,18.35711 -19.21755,22.56943 -20.75586,33.12891 -1.16336,7.98566 -3.14184,12.22431 -8.03906,17.22851 l -2.76758,2.82813 h -23.72657 -23.7246 l -2.74414,-2.78125 c -4.78984,-4.85645 -7.22717,-9.97824 -8.10157,-17.02344 -0.54268,-4.37249 -1.49749,-7.63087 -3.25976,-11.12695 -2.7399,-5.43556 -5.1624,-8.52559 -16.74024,-21.35352 -7.65941,-8.48642 -12.54367,-14.3245 -17.56054,-20.99414 -4.10764,-5.46086 -13.59921,-19.85695 -16.70508,-25.33594 -3.87267,-6.8317 -7.06048,-15.66336 -8.82422,-24.44531 -1.14695,-5.70969 -1.14907,-21.864993 -0.004,-27.593753 3.33626,-16.68997 10.85902,-30.87097 22.84766,-43.07031 15.66289,-15.93816 35.88363,-25.885868 59.57226,-29.308593 4.37148,-0.631626 9.26747,-0.947019 14.30079,-0.958984 z m -0.96875,15.498047 c -20.30421,0.43385 -40.34673,7.60848 -55.72657,21.10156 -12.39225,10.87201 -20.77452,25.97138 -23.07617,41.57031 -0.87326,5.91833 -0.63043,16.393073 0.50195,21.650393 1.91185,8.87618 5.07435,16.1201 11.26563,25.8125 7.94035,12.43056 14.27299,20.72061 24.16016,31.62109 12.96213,14.2906 15.18321,17.95062 16.58007,27.33789 0.8526,5.7297 2.80841,9.7709 6.47266,13.36524 4.45002,4.36513 8.5037,6.51954 15.01563,7.98242 3.70179,0.83159 11.10892,0.61744 15.06445,-0.43555 5.01931,-1.33616 9.06271,-3.66096 12.79101,-7.35546 4.26754,-4.22883 5.80304,-7.27231 6.79493,-13.47071 1.52424,-9.52518 3.72552,-13.28274 15.16211,-25.88672 11.33809,-12.49543 16.14008,-18.64041 24.10546,-30.84765 7.52828,-11.53736 10.93699,-19.18071 12.88477,-28.89258 1.18745,-5.92075 1.07018,-18.415753 -0.22852,-24.460943 -4.253,-19.79703 -17.19991,-36.94912 -35.98828,-47.67577 -14.03734,-8.0142 -29.98714,-11.75346 -45.77929,-11.41602 z M 111.4641,74.006017 c -10.72001,-0.005 -13.183693,0.26086 -21.363283,2.29687 -15.66435,3.89907 -30.91487,12.96319 -42.08789,25.015633 -3.93904,4.24908 -4.86524,5.84913 -4.86524,8.40039 0,4.57105 5.71535,8.22563 9.66797,6.18164 0.74802,-0.38681 4.03635,-3.38018 7.30664,-6.65235 4.44291,-4.44545 7.24082,-6.80689 11.07227,-9.341793 17.7199,-11.72359 38.746583,-15.15701 59.136723,-9.65625 24.63051,6.64469 44.60339,26.760543 50.87305,51.236323 l 1.01171,3.94727 h 7.19922 7.19922 l -0.63281,-2.78125 c -3.96273,-17.39552 -10.8663,-30.35788 -22.6543,-42.54101 -12.80035,-13.229433 -28.3574,-21.650233 -46.35351,-25.091803 -4.52165,-0.86472 -6.73335,-1.00977 -15.50977,-1.01367 z M 32.122297,133.48648 c -0.38287,-0.0223 -0.77126,0.003 -1.07226,0.0781 -0.74104,0.18599 -5.61142,5.69676 -15.08203,17.0625 -7.6938499,9.23343 -14.3726299,17.2735 -14.8417999,17.86719 -1.25007,1.58184 -1.10355,3.5695 0.35742,4.82617 l 1.21289,1.04297 h 29.3691399 29.36914 l 1.0918,-1.0918 c 2.32121,-2.32121 2.34559,-2.28344 -13.62695,-21.48828 -8.09568,-9.73396 -15.17653,-17.87695 -15.73633,-18.0957 -0.2799,-0.10936 -0.65815,-0.17887 -1.04102,-0.20118 z m 128.925793,12.39258 -1.0918,1.0918 c -0.60083,0.60084 -1.09375,1.59944 -1.09375,2.21875 0,0.82556 3.93184,5.84838 14.73437,18.82422 8.10363,9.73396 15.16444,17.94097 15.68946,18.23828 1.28013,0.7249 1.63761,0.70035 3.04297,-0.20898 0.96211,-0.62252 17.62589,-20.30457 28.08398,-33.17188 2.30997,-2.84212 2.55555,-4.05928 1.17188,-5.81836 l -0.92383,-1.17383 H 190.85473 Z M 33.339097,174.80875 c -3.90712,0 -7.10547,0.17781 -7.10547,0.39648 0,1.1128 2.78461,11.20111 4.0332,14.61133 2.89457,7.90576 8.17684,17.34838 13.26368,23.71289 3.39824,4.25179 10.45308,11.27273 14.52539,14.45508 13.23618,10.34354 30.12541,16.94328 46.509763,18.17383 22.6789,1.7033 45.00178,-5.52859 62.53125,-20.25781 6.45792,-5.4263 11.50604,-11.0332 12.20118,-13.55078 0.85249,-3.08746 -0.67162,-6.4568 -3.61133,-7.98633 -1.68489,-0.87665 -5.22326,-0.79297 -6.59766,0.15625 -0.61792,0.42676 -3.12257,2.85263 -5.56445,5.39062 -10.41564,10.82559 -23.06822,17.84459 -37.81836,20.98047 -6.36772,1.35378 -17.90253,1.68713 -24.54297,0.70899 -23.600243,-3.47631 -43.640923,-17.85078 -54.359383,-38.99219 -2.34324,-4.62189 -4.62032,-10.77233 -5.89257,-15.90821 l -0.46875,-1.89062 z m 328.421883,105.03516 0.13672,12.34961 c 0.13393,12.06921 0.16055,12.40154 1.22656,14.57617 1.51425,3.08902 5.90906,7.37562 9.32812,9.10156 1.55162,0.78325 4.24753,1.79845 5.99219,2.25586 3.9701,1.04087 10.96293,1.13031 14.9668,0.18945 7.05485,-1.65779 13.1092,-6.16588 15.74023,-11.71875 l 1.39453,-2.94336 0.14844,-11.90625 0.14844,-11.90429 h -24.54102 z" />
</svg>
