<?xml version="1.0" encoding="UTF-8" standalone="no"?>
<svg
   width="500"
   height="500"
   viewBox="0 0 500 500"
   fill="none"
   version="1.1"
   id="svg208"
   sodipodi:docname="table-down.svg"
   inkscape:version="1.1.1 (3bf5ae0d25, 2021-09-20)"
   xmlns:inkscape="http://www.inkscape.org/namespaces/inkscape"
   xmlns:sodipodi="http://sodipodi.sourceforge.net/DTD/sodipodi-0.dtd"
   xmlns="http://www.w3.org/2000/svg"
   xmlns:svg="http://www.w3.org/2000/svg">
  <defs
     id="defs212" />
  <sodipodi:namedview
     id="namedview210"
     pagecolor="#505050"
     bordercolor="#eeeeee"
     borderopacity="1"
     inkscape:pageshadow="0"
     inkscape:pageopacity="0"
     inkscape:pagecheckerboard="0"
     showgrid="false"
     inkscape:zoom="2.444"
     inkscape:cx="250.40917"
     inkscape:cy="84.492635"
     inkscape:window-width="1920"
     inkscape:window-height="1017"
     inkscape:window-x="1072"
     inkscape:window-y="979"
     inkscape:window-maximized="1"
     inkscape:current-layer="svg208" />
  <path
     id="path200"
     d="m 54.486367,165.80761 c -30.0921,0 -54.486328227383,24.38977 -54.486328227383,54.47657 0,30.0868 24.394228227383,54.47655 54.486328227383,54.47655 30.0922,0 54.486333,-24.38975 54.486333,-54.47655 0,-30.0868 -24.394133,-54.47657 -54.486333,-54.47657 z m 139.230473,21.5254 c -25.27911,-0.18831 -48.30563,2.68127 -59.78516,11.86328 -33.395,26.7113 -17.22461,67.83399 -17.22461,67.83399 h 84.02539 l -0.01,0.0937 h 85.60937 l 173.77149,-0.63868 25.80273,3.89063 c 0,0 10.08278,-51.90166 13.55078,-70.35156 3.468,-18.45 -10.4852,-14.64474 -18.7832,-2.24414 -3.955,5.9116 -12.42714,19.92845 -18.86914,33.81445 l -163.34766,-32.31054 -0.0117,-0.0879 c 0,0 -56.46839,-11.5038 -104.72851,-11.86328 z m 20.625,107.23827 v 19.81056 c -14.989,0.066 -45.0875,0.15799 -45.5625,0 v 19.81054 h 162.4414 v -19.81054 h -45.5625 v -19.81056 z"
     style="fill:#000000" />
</svg>
