<?xml version="1.0" encoding="UTF-8" standalone="no"?>
<svg
   width="455"
   height="455"
   viewBox="0 0 455 455"
   fill="none"
   version="1.1"
   id="svg1015"
   sodipodi:docname="tilt-l.svg"
   inkscape:version="1.1.1 (3bf5ae0d25, 2021-09-20)"
   xmlns:inkscape="http://www.inkscape.org/namespaces/inkscape"
   xmlns:sodipodi="http://sodipodi.sourceforge.net/DTD/sodipodi-0.dtd"
   xmlns="http://www.w3.org/2000/svg"
   xmlns:svg="http://www.w3.org/2000/svg">
  <defs
     id="defs1019" />
  <sodipodi:namedview
     id="namedview1017"
     pagecolor="#ffffff"
     bordercolor="#111111"
     borderopacity="1"
     inkscape:pageshadow="0"
     inkscape:pageopacity="0"
     inkscape:pagecheckerboard="1"
     showgrid="false"
     inkscape:zoom="1.5595392"
     inkscape:cx="283.41705"
     inkscape:cy="228.59317"
     inkscape:window-width="1920"
     inkscape:window-height="1017"
     inkscape:window-x="1072"
     inkscape:window-y="979"
     inkscape:window-maximized="1"
     inkscape:current-layer="svg1015" />
  <path
     id="path1115"
     style="fill:#000000;stroke-width:0.453407"
     d="m 379.36992,65.508099 c -8.69401,0.15507 -17.42693,1.90012 -25.83984,5.27539 -2.5445,1.02086 -6.1858,2.73485 -8.0918,3.80859 -11.35578,6.39729 -107.85212,62.201311 -108.3457,62.656261 -0.47656,0.43925 0.0286,0.61481 2.49219,0.86718 18.76289,1.92214 41.90739,13.98037 54.58984,28.44141 15.77464,17.98688 23.52539,38.05661 23.52539,60.92188 0,12.55754 -2.48048,24.72087 -7.48242,36.6875 -0.21433,0.5128 -0.1903,0.76125 0.0586,0.60742 0.23168,-0.14319 25.17649,-14.55518 55.43359,-32.02539 30.25709,-17.47022 56.67714,-32.94444 58.71094,-34.38672 4.8629,-3.44855 12.50519,-11.15727 16.08984,-16.23047 11.58727,-16.39896 16.02209,-36.47582 12.30859,-55.71875 -3.76192,-19.4938 -15.82258,-37.826571 -31.96875,-48.593751 -12.609,-8.4084 -26.99044,-12.56899 -41.48047,-12.31055 z M 228.85235,154.10576 c -8.46048,-0.1683 -17.08903,1.13295 -25.53907,4.07422 -26.03128,9.06089 -44.56871,31.641 -48.64648,59.25781 -0.98221,6.65208 -0.64536,18.4838 0.70703,24.84766 2.64499,12.44636 8.6533,24.3764 17.26172,34.27344 11.21695,12.89604 28.28387,21.79244 46.23828,24.10351 4.68714,0.60332 12.96774,0.53133 18.14649,-0.1582 31.31421,-4.16942 56.09492,-27.36962 62.66406,-58.66797 0.86797,-4.13539 1.0129,-6.21383 1.0039,-14.35742 -0.0114,-10.48678 -0.6491,-14.78645 -3.42773,-23.10938 -10.12202,-30.31886 -38.1922,-49.66261 -68.4082,-50.26367 z m -84.06836,36.53906 c -0.40071,-0.40071 -111.497807,64.19737 -115.224606,66.99805 -2.253257,1.69332 -6.15112,5.21136 -8.662109,7.81836 -20.92226021,21.72222 -25.9937382,54.80588 -12.5253912,81.7168 4.5206962,9.03274 8.6990652,14.93022 15.1914062,21.4414 10.957172,10.98896 25.347769,18.1699 40.984375,20.45313 3.906115,0.57044 15.42939,0.57534 19.50977,0.008 5.6183,-0.78144 13.29272,-2.88888 18.369135,-5.04297 2.72189,-1.15499 18.35093,-9.8771 37.32812,-20.83203 17.95494,-10.36481 42.84574,-24.72058 55.31445,-31.90234 12.46871,-7.18177 22.83055,-13.19497 23.02539,-13.36328 0.19484,-0.16831 -1.78165,-0.65466 -4.39257,-1.08008 -9.31359,-1.51754 -16.64386,-3.78882 -24.98047,-7.73828 -28.20479,-13.362 -47.35184,-40.2259 -51.04883,-71.62305 -0.74965,-6.36645 -0.29639,-19.57073 0.89062,-25.90039 1.08782,-5.80067 3.04355,-12.61188 5.00196,-17.41992 0.75634,-1.85686 1.30525,-3.44671 1.21875,-3.53321 z" />
</svg>
