<svg width="455" height="326" viewBox="0 0 455 326" fill="none" xmlns="http://www.w3.org/2000/svg">
<path d="M291.508 199.772C271.137 235.056 226.02 247.145 190.736 226.774C155.452 206.403 143.363 161.286 163.734 126.002C184.105 90.718 229.222 78.6288 264.506 99C299.79 119.371 311.879 164.488 291.508 199.772Z" fill="#707172"/>
<path d="M11.7295 36.8223L10.5 38.9519C-9.53164 73.6477 2.35603 118.013 37.0518 138.045L145.829 200.847C133.921 175.13 134.29 144.214 149.537 117.805C164.784 91.3962 191.374 75.6186 219.6 73.0731L110.822 10.2705C76.1265 -9.76115 31.7611 2.12652 11.7295 36.8223Z" fill="#707172"/>
<path d="M443.513 288.952L444.742 286.822C464.774 252.127 452.886 207.761 418.19 187.73L309.413 124.927C321.322 150.644 320.953 181.56 305.705 207.969C290.458 234.378 263.869 250.156 235.643 252.701L344.42 315.504C379.116 335.535 423.481 323.648 443.513 288.952Z" fill="#707172"/>
</svg>
