<svg width="455" height="326" viewBox="0 0 455 326" fill="none" xmlns="http://www.w3.org/2000/svg">
<path d="M291.279 126.002C311.65 161.286 299.561 206.403 264.277 226.774C228.993 247.145 183.876 235.056 163.504 199.772C143.133 164.488 155.222 119.371 190.506 99C225.79 78.6288 270.908 90.718 291.279 126.002Z" fill="#707172"/>
<path d="M10.2705 286.822L11.5 288.952C31.5316 323.648 75.897 335.535 110.593 315.504L219.37 252.701C191.144 250.156 164.555 234.378 149.307 207.969C134.06 181.56 133.691 150.644 145.6 124.927L36.8223 187.73C2.12652 207.761 -9.76115 252.127 10.2705 286.822Z" fill="#707172"/>
<path d="M444.513 38.9519L443.283 36.8223C423.252 2.12653 378.886 -9.76114 344.19 10.2705L235.413 73.0731C263.639 75.6187 290.229 91.3962 305.476 117.805C320.723 144.214 321.092 175.13 309.183 200.847L417.961 138.045C452.657 118.013 464.544 73.6477 444.513 38.9519Z" fill="#707172"/>
</svg>
