<?xml version="1.0" encoding="UTF-8" standalone="no"?>
<svg
   width="455"
   height="455"
   viewBox="0 0 455 455"
   fill="none"
   version="1.1"
   id="svg1612"
   sodipodi:docname="tilt-r.svg"
   inkscape:version="1.1.1 (3bf5ae0d25, 2021-09-20)"
   xmlns:inkscape="http://www.inkscape.org/namespaces/inkscape"
   xmlns:sodipodi="http://sodipodi.sourceforge.net/DTD/sodipodi-0.dtd"
   xmlns="http://www.w3.org/2000/svg"
   xmlns:svg="http://www.w3.org/2000/svg">
  <defs
     id="defs1616" />
  <sodipodi:namedview
     id="namedview1614"
     pagecolor="#ffffff"
     bordercolor="#111111"
     borderopacity="1"
     inkscape:pageshadow="0"
     inkscape:pageopacity="0"
     inkscape:pagecheckerboard="1"
     showgrid="false"
     inkscape:zoom="2.2055215"
     inkscape:cx="227.61057"
     inkscape:cy="163"
     inkscape:window-width="1920"
     inkscape:window-height="1017"
     inkscape:window-x="1072"
     inkscape:window-y="979"
     inkscape:window-maximized="1"
     inkscape:current-layer="svg1612" />
  <path
     id="path1712"
     style="fill:#000000;stroke-width:0.453407"
     d="m 74.439305,65.564573 c -11.000286,0.0276 -22.005736,2.53068 -31.923829,7.50782 -14.923494,7.48896 -26.198255,19.03522 -33.8964842,34.710927 -5.1540188,10.49501 -6.9990748,17.93334 -7.3730468,29.7461 -0.27620597,8.72457 0.297829,13.98047 2.375,21.74218 2.1959721,8.20564 6.706822,17.38507 11.929688,24.2793 4.367942,5.76572 11.890209,12.83435 17.751953,16.68164 1.371558,0.90021 26.875572,15.71943 56.675781,32.93164 29.800203,17.21221 54.334453,31.29964 54.521483,31.30664 0.47117,0.0175 0.53506,0.24141 -1.43946,-5.00586 -10.89946,-28.96519 -6.35901,-60.62702 12.34766,-86.11523 4.07362,-5.5504 13.44698,-14.82368 18.79102,-18.58984 12.5372,-8.83549 26.571,-14.59057 40.06054,-16.42774 2.21819,-0.3021 4.03216,-0.65716 4.03125,-0.78906 -0.002,-0.28503 -108.38566,-62.851907 -111.95898,-64.630857 -9.897397,-4.92736 -20.89229,-7.37529 -31.892575,-7.34766 z M 228.56821,154.12317 c -5.62186,-0.0588 -11.30252,0.53409 -16.95899,1.80273 -6.42307,1.44058 -10.25032,2.77212 -16.21484,5.64063 -17.73319,8.52837 -31.76118,24.69484 -37.76563,43.52148 -10.91174,34.21316 3.9392,70.63626 35.72657,87.6289 6.9409,3.71041 17.19701,6.9612 25.16406,7.97461 21.02758,2.6747 43.63747,-4.68207 59.08594,-19.22461 13.84992,-13.03774 21.57224,-28.99978 23.27539,-48.11132 2.03557,-22.8417 -7.90223,-46.81399 -25.54492,-61.61719 -13.56568,-11.38235 -29.90202,-17.43872 -46.76758,-17.61523 z m 81.85547,36.66796 c -0.1009,0.10091 0.54513,2.08354 1.43554,4.40625 12.7371,33.22586 4.90156,70.74693 -20.03515,95.93946 -14.32728,14.47426 -30.26667,22.34009 -53.21485,26.25976 l -2.12695,0.36328 28.42578,16.39063 c 15.63318,9.01493 40.15513,23.16637 54.49414,31.44726 14.33901,8.28088 27.61841,15.83424 29.50977,16.78711 6.18992,3.11847 15.66615,5.96763 23.08593,6.94141 0.87281,0.1146 5.46307,0.14425 10.20118,0.0645 9.71427,-0.16359 14.06929,-0.88715 22.0625,-3.66406 15.24284,-5.2955 28.28943,-15.48732 37.09375,-28.97461 3.04154,-4.65932 7.8277,-14.4213 9.26953,-18.91016 2.68773,-8.36772 3.21396,-12.09098 3.19336,-22.57617 -0.0163,-8.31054 -0.16688,-10.42713 -1.01953,-14.34961 -4.05042,-18.63338 -15.00418,-35.16703 -29.9336,-45.18359 -4.12169,-2.76534 -112.19747,-65.18534 -112.4414,-64.94141 z" />
</svg>
