<?xml version="1.0" encoding="UTF-8" standalone="no"?>
<svg
   width="500"
   height="294"
   viewBox="0 0 500 294"
   fill="none"
   version="1.1"
   id="svg27"
   sodipodi:docname="Trend.svg"
   inkscape:version="1.1.1 (3bf5ae0d25, 2021-09-20)"
   xmlns:inkscape="http://www.inkscape.org/namespaces/inkscape"
   xmlns:sodipodi="http://sodipodi.sourceforge.net/DTD/sodipodi-0.dtd"
   xmlns="http://www.w3.org/2000/svg"
   xmlns:svg="http://www.w3.org/2000/svg">
  <defs
     id="defs31" />
  <sodipodi:namedview
     id="namedview29"
     pagecolor="#505050"
     bordercolor="#eeeeee"
     borderopacity="1"
     inkscape:pageshadow="0"
     inkscape:pageopacity="0"
     inkscape:pagecheckerboard="0"
     showgrid="false"
     inkscape:zoom="2.6088435"
     inkscape:cx="250.11082"
     inkscape:cy="147"
     inkscape:window-width="1920"
     inkscape:window-height="1017"
     inkscape:window-x="1072"
     inkscape:window-y="979"
     inkscape:window-maximized="1"
     inkscape:current-layer="svg27" />
  <path
     id="path21"
     d="M 473.11914 0.015625 C 468.21112 -0.39207979 463.05328 7.260925 461.58203 17.15625 C 460.46003 24.70395 458.67959 42.184369 458.80859 58.605469 L 285.51562 102.23828 L 285.46289 102.1582 C 285.46289 102.1582 146.00105 136.42925 125.87305 177.65625 C 105.74605 218.88425 140.31836 251.33789 140.31836 251.33789 L 221.82617 212.77734 L 221.86133 212.875 L 304.90625 173.58789 L 473.18359 93.21875 L 500 85.152344 C 500 85.152344 485.94494 30.195191 480.83594 10.712891 C 478.92006 3.4070694 476.06395 0.26024787 473.11914 0.015625 z M 58.855469 176.10742 C 50.342219 176.04852 41.682709 177.85422 33.472656 181.73828 C 4.2814763 195.54828 -8.1809813 230.39531 5.6367188 259.57031 C 19.454399 288.74531 54.318466 301.20063 83.509766 287.39062 C 112.70107 273.58062 125.16566 238.73455 111.34766 209.56055 C 101.41611 188.59102 80.611552 176.25796 58.855469 176.10742 z "
     style="fill:#000000" />
</svg>
