<?xml version="1.0" encoding="UTF-8" standalone="no"?>
<svg
   width="500"
   height="500"
   viewBox="0 0 500 500"
   fill="none"
   version="1.1"
   id="svg23"
   sodipodi:docname="unlock.svg"
   inkscape:version="1.1.1 (3bf5ae0d25, 2021-09-20)"
   xmlns:inkscape="http://www.inkscape.org/namespaces/inkscape"
   xmlns:sodipodi="http://sodipodi.sourceforge.net/DTD/sodipodi-0.dtd"
   xmlns="http://www.w3.org/2000/svg"
   xmlns:svg="http://www.w3.org/2000/svg">
  <defs
     id="defs27" />
  <sodipodi:namedview
     id="namedview25"
     pagecolor="#505050"
     bordercolor="#eeeeee"
     borderopacity="1"
     inkscape:pageshadow="0"
     inkscape:pageopacity="0"
     inkscape:pagecheckerboard="0"
     showgrid="false"
     inkscape:zoom="1.534"
     inkscape:cx="138.85267"
     inkscape:cy="250"
     inkscape:window-width="1920"
     inkscape:window-height="1017"
     inkscape:window-x="1072"
     inkscape:window-y="979"
     inkscape:window-maximized="1"
     inkscape:current-layer="svg23" />
  <path
     style="fill:#000000;stroke-width:0.65189"
     d="m 123.71224,498.65354 c -3.93076,-1.39558 -8.83148,-6.05161 -10.68368,-10.15025 l -1.55529,-3.44161 V 359.57276 234.08384 l 1.81883,-3.70378 c 1.97194,-4.01556 4.80165,-6.86036 9.11846,-9.16705 l 2.75241,-1.47076 103.83987,-0.17084 103.83986,-0.17084 -0.22673,-58.17336 c -0.24753,-63.510723 -0.0825,-60.59764 -4.11872,-72.708122 -9.61168,-28.839413 -34.92796,-50.339572 -65.02161,-55.220399 -37.29962,-6.049545 -74.60248,14.840197 -89.11586,49.90521 -2.59609,6.272295 -4.95393,15.378592 -5.47721,21.153741 -0.22741,2.50978 -0.56809,5.80997 -0.75706,7.33377 l -0.34359,2.77053 h -15.93138 c -14.73835,0 -15.93133,-0.0854 -15.93083,-1.14081 3e-4,-0.62744 0.30482,-4.36766 0.67671,-8.3116 4.8885,-51.843285 41.4683,-92.549077 92.2963,-102.7067976 8.97533,-1.79367337 25.32385,-2.40267994 34.83041,-1.2974837 14.3266,1.6655554 31.22158,7.2115279 43.36369,14.2346303 29.5608,17.098237 49.51456,45.439402 56.08884,79.66535 1.08651,5.656421 1.20774,11.318331 1.39924,65.352021 l 0.20968,59.15906 h 3.44115 c 8.29195,0 14.65579,3.82497 18.14046,10.9033 l 2.16054,4.38865 v 124.52482 c 0,118.33401 -0.0585,124.69239 -1.17599,127.89543 -1.49174,4.27561 -5.25194,8.56617 -9.33459,10.65118 l -3.17912,1.62358 -124.18514,0.11411 c -108.93259,0.10011 -124.52345,-0.006 -126.93965,-0.86384 z m 164.7493,-83.99603 v -10.7562 H 276.07562 263.6897 v -43.02477 -43.02477 h 12.38592 12.38592 v -11.08214 -11.08214 h -37.80965 -37.80964 v 11.08214 11.08214 h 11.73402 11.73403 v 43.02477 43.02477 h -11.73403 -11.73402 v 10.7562 10.75619 h 37.80964 37.80965 z"
     id="path204" />
</svg>
