<?xml version="1.0" encoding="UTF-8" standalone="no"?>
<svg
   width="500"
   height="500"
   viewBox="0 0 500 500"
   fill="none"
   version="1.1"
   id="svg2288"
   sodipodi:docname="video-control.svg"
   inkscape:version="1.1.1 (3bf5ae0d25, 2021-09-20)"
   xmlns:inkscape="http://www.inkscape.org/namespaces/inkscape"
   xmlns:sodipodi="http://sodipodi.sourceforge.net/DTD/sodipodi-0.dtd"
   xmlns="http://www.w3.org/2000/svg"
   xmlns:svg="http://www.w3.org/2000/svg">
  <defs
     id="defs2292" />
  <sodipodi:namedview
     id="namedview2290"
     pagecolor="#505050"
     bordercolor="#eeeeee"
     borderopacity="1"
     inkscape:pageshadow="0"
     inkscape:pageopacity="0"
     inkscape:pagecheckerboard="0"
     showgrid="false"
     inkscape:zoom="1.2370068"
     inkscape:cx="288.59987"
     inkscape:cy="205.73856"
     inkscape:window-width="1920"
     inkscape:window-height="1017"
     inkscape:window-x="1072"
     inkscape:window-y="979"
     inkscape:window-maximized="1"
     inkscape:current-layer="svg2288"
     height="500px" />
  <path
     id="path2426"
     style="fill:#000000;stroke:#000000;stroke-width:5.3759;stroke-miterlimit:4;stroke-dasharray:none"
     d="M 2.6879504,47.396155 V 221.98688 396.57568 H 68.335917 133.98389 V 383.27785 369.9781 H 81.917989 29.852095 V 221.98688 73.995669 H 240.38001 450.906 V 204.72504 335.45636 h 13.58207 13.58207 V 191.42529 47.396155 H 240.38001 Z M 49.094011,93.237581 V 221.98881 350.74199 l 56.722169,-0.14503 56.72216,-0.14503 10.67964,-16.83643 10.67964,-16.83643 h 123.88226 123.8842 v -28.57959 c 0,-15.71877 -0.11135,-28.57958 -0.24751,-28.57958 -0.13617,0 -7.32233,2.79546 -15.97015,6.21093 l -15.72264,6.209 -5.67724,-5.55735 C 380.2972,253.02049 362.56268,243.31111 340.83205,237.34599 297.9177,225.5659 248.20828,232.07115 214.9117,253.8247 c -6.94739,4.53891 -15.29357,11.4068 -18.78364,15.45772 l -2.45769,2.8541 -12.72353,-5.04301 c -6.9979,-2.77414 -14.3148,-5.65254 -16.26019,-6.39656 -1.94539,-0.74402 -3.53861,-1.50219 -3.53861,-1.68422 0,-0.88293 15.09006,-14.92368 19.89162,-18.50906 22.84136,-17.05595 52.45007,-28.36543 86.50449,-33.04055 10.72264,-1.47205 36.23741,-2.04354 47.68808,-1.06739 45.90157,3.91301 87.15443,21.39502 112.04629,47.48311 l 4.38556,4.59826 V 175.85734 93.237581 H 240.38001 Z M 294.88426,257.41358 c 21.76573,-0.30573 43.51349,5.59388 59.08897,16.28341 5.42394,3.72247 12.92238,10.74802 12.20724,11.4357 -0.24632,0.23686 -9.12547,3.83805 -19.73306,8.00344 l -19.28639,7.57417 -2.99912,-2.68586 c -3.89326,-3.48704 -9.78993,-6.36425 -16.15384,-7.88162 -4.37259,-1.04263 -6.25505,-1.17778 -13.29976,-0.94943 -6.82839,0.22132 -8.96748,0.51395 -12.74479,1.74223 -4.86422,1.58172 -10.24632,4.59154 -13.64782,7.63218 -1.4532,1.29904 -2.4643,1.78566 -3.27563,1.574 -3.77075,-0.98372 -38.21983,-14.88278 -38.23052,-15.42485 -0.007,-0.35992 1.75689,-2.29431 3.91955,-4.29661 13.28752,-12.3022 32.93201,-20.35843 54.84264,-22.49241 3.09218,-0.30116 6.20314,-0.47067 9.31253,-0.51435 z m 137.20909,78.60547 -120.01686,0.14309 -120.0188,0.14309 -22.81726,36.2195 c -12.54962,19.92082 -27.24936,43.26931 -32.66736,51.88608 l -9.85203,15.66655 2.92371,6.23995 2.9237,6.23801 179.55445,0.0251 179.55247,0.0232 2.81933,-6.02144 c 1.5503,-3.31161 2.81735,-6.24563 2.81735,-6.52032 0,-0.2747 -14.67394,-23.79642 -32.60935,-52.27087 z m -208.40862,26.93017 c 10.61672,0.0618 18.28382,2.94434 24.66972,9.27386 4.40134,4.36248 6.1742,8.26705 6.1742,13.60142 0,5.31912 -1.77336,9.23336 -6.1742,13.63234 -4.0026,4.00091 -8.55356,6.56137 -14.52377,8.17361 -4.77147,1.28851 -13.83517,1.56745 -18.35242,0.56463 -10.24009,-2.27328 -18.04149,-7.65723 -21.62033,-14.92211 -1.04691,-2.12518 -1.29942,-3.57402 -1.29942,-7.44847 0,-4.4038 0.16426,-5.11386 1.93753,-8.38438 2.5161,-4.64054 6.58052,-8.26282 12.21111,-10.88268 6.26159,-2.91345 9.73081,-3.65039 16.97758,-3.60822 z m 177.13737,0.0136 c 7.2548,0 11.62329,0.97632 17.72206,3.95821 5.06277,2.47537 9.54439,6.79345 11.77022,11.34289 2.3075,4.71636 2.3075,10.40297 0,15.11933 -3.13804,6.41393 -10.51042,11.93835 -19.02341,14.25692 -3.79865,1.03458 -13.45569,1.50962 -17.11101,0.84115 -6.87651,-1.25756 -13.62025,-4.41088 -17.61183,-8.23549 -9.32606,-8.93593 -9.21494,-20.04649 0.29005,-28.84643 6.25296,-5.78914 13.77606,-8.43658 23.96392,-8.43658 z" />
</svg>
