<?xml version="1.0" encoding="UTF-8" standalone="no"?>
<svg
   width="500"
   height="500"
   viewBox="0 0 500 500"
   fill="none"
   version="1.1"
   id="svg1298"
   sodipodi:docname="zoom-out.svg"
   inkscape:version="1.1.1 (3bf5ae0d25, 2021-09-20)"
   xmlns:inkscape="http://www.inkscape.org/namespaces/inkscape"
   xmlns:sodipodi="http://sodipodi.sourceforge.net/DTD/sodipodi-0.dtd"
   xmlns="http://www.w3.org/2000/svg"
   xmlns:svg="http://www.w3.org/2000/svg">
  <defs
     id="defs1302" />
  <sodipodi:namedview
     id="namedview1300"
     pagecolor="#ffffff"
     bordercolor="#111111"
     borderopacity="1"
     inkscape:pageshadow="0"
     inkscape:pageopacity="0"
     inkscape:pagecheckerboard="1"
     showgrid="false"
     inkscape:zoom="1.4584178"
     inkscape:cx="249.58554"
     inkscape:cy="246.50001"
     inkscape:window-width="1920"
     inkscape:window-height="1017"
     inkscape:window-x="1072"
     inkscape:window-y="979"
     inkscape:window-maximized="1"
     inkscape:current-layer="svg1298" />
  <path
     id="path1398"
     style="fill:#000000;stroke-width:0.685675"
     d="m 179.06025,4.5112043 c -9.11322,1.22e-4 -18.22623,0.290198 -22.2832,0.86914 C 116.59943,11.113826 83.207607,27.249516 55.054407,54.534636 c -15.50452,15.02645 -25.9607,29.17941 -35.45703,47.996104 -14.3714397,28.47656 -20.7413997,59.29364 -18.77929969,90.8535 1.54644999,24.87423 7.02876999,45.50287 18.13085969,68.22461 8.40382,17.19942 18.3834,31.30524 32.19531,45.50977 20.4702,21.05206 43.92436,35.84181 71.349603,44.99023 46.99194,15.67539 99.51301,11.0111 142.23047,-12.63086 2.80222,-1.55089 5.3209,-2.73582 5.59765,-2.63281 0.27676,0.10301 38.17084,34.12801 84.20899,75.61133 85.81523,77.32499 87.97785,79.16255 95.71484,81.33593 1.50848,0.42374 4.28628,1.01422 6.17188,1.31055 11.08571,1.74218 23.39249,-2.50188 31.88476,-10.99414 7.58562,-7.58563 11.22656,-16.37067 11.22656,-27.08398 0,-10.13565 -3.24835,-18.4974 -10.0332,-25.83008 -2.89028,-3.12365 -160.22811,-145.12562 -162.56836,-146.72266 -0.36863,-0.25157 0.92127,-2.91591 2.92969,-6.04687 14.2376,-22.19516 23.81027,-49.52904 26.76562,-76.42579 0.95138,-8.65905 0.96839,-29.79665 0.0293,-38.17968 -3.325,-29.68142 -12.69628,-55.46826 -29.125,-80.144524 -7.3779,-11.08176 -14.5718,-19.61509 -25.14258,-29.82617 -27.50409,-26.5682 -61.36501,-42.81322 -101.03711,-48.4707047 -4.05896,-0.578833 -13.17388,-0.86731 -22.28711,-0.867187 z m -0.64453,48.2324217 c 29.87185,-0.10089 59.48443,10.08369 83.19922,29.51172 6.63965,5.43944 16.5173,15.78328 21.5293,22.542954 44.80307,60.42589 29.86814,145.47313 -32.77149,186.61524 -16.44694,10.80245 -34.96464,17.67288 -54.56445,20.24219 -15.1582,1.98706 -32.55776,1.01986 -47.82031,-2.65821 -42.51744,-10.24615 -78.175423,-42.9334 -92.037103,-84.36914 -9.18026,-27.44191 -9.26405,-55.9056 -0.24609,-82.99219 6.74773,-20.26767 17.50699,-37.24523 33.2793,-52.515614 14.004733,-13.55909 30.495713,-23.56273 49.066393,-29.76562 13.15688,-4.3946 26.78712,-6.56547 40.36523,-6.61133 z m -84.158193,110.470694 -4.19726,2.09765 c -10.83019,5.41191 -14.18767,18.43255 -7.32617,28.41407 2.548,3.70662 5.64764,6.12304 9.74023,7.59179 2.14002,0.76803 17.460253,0.90436 87.617173,0.78321 l 85.02344,-0.14649 2.74219,-1.47461 c 6.90799,-3.71652 10.85564,-10.13746 10.89844,-17.72461 0.0445,-7.89252 -4.20884,-14.49557 -11.5293,-17.90429 l -3.48242,-1.62305 -84.74414,-0.008 z" />
</svg>
