<svg width="200" height="200" viewBox="0 0 200 200" fill="none" xmlns="http://www.w3.org/2000/svg">
<path fill-rule="evenodd" clip-rule="evenodd" d="M62.5 70.8333C62.5 66.231 66.231 62.5 70.8333 62.5H112.5C117.102 62.5 120.833 66.231 120.833 70.8333V129.167C120.833 133.769 117.102 137.5 112.5 137.5H70.8333C66.231 137.5 62.5 133.769 62.5 129.167V70.8333ZM70.8333 70.8333H112.5V79.1667H70.8333V70.8333ZM112.5 87.5H70.8333V95.8333H112.5V87.5ZM70.8333 104.167H112.5V112.5H70.8333V104.167ZM104.167 120.833H70.8333V129.167H104.167V120.833Z" fill="#707172"/>
<path d="M129.167 70.8333H137.5V129.167H129.167V70.8333Z" fill="#707172"/>
<path d="M137.5 129.167H129.167L133.333 137.5L137.5 129.167Z" fill="#707172"/>
</svg>
