<?xml version="1.0" encoding="UTF-8" standalone="no"?>
<svg
   width="500"
   height="500"
   viewBox="0 0 500 500"
   fill="none"
   version="1.1"
   id="svg1355"
   sodipodi:docname="brightness-up.svg"
   inkscape:version="1.1.1 (3bf5ae0d25, 2021-09-20)"
   xmlns:inkscape="http://www.inkscape.org/namespaces/inkscape"
   xmlns:sodipodi="http://sodipodi.sourceforge.net/DTD/sodipodi-0.dtd"
   xmlns="http://www.w3.org/2000/svg"
   xmlns:svg="http://www.w3.org/2000/svg">
  <defs
     id="defs1359" />
  <sodipodi:namedview
     id="namedview1357"
     pagecolor="#ffffff"
     bordercolor="#111111"
     borderopacity="1"
     inkscape:pageshadow="0"
     inkscape:pageopacity="0"
     inkscape:pagecheckerboard="1"
     showgrid="false"
     inkscape:zoom="2.444"
     inkscape:cx="250"
     inkscape:cy="147.09493"
     inkscape:window-width="1920"
     inkscape:window-height="1017"
     inkscape:window-x="1072"
     inkscape:window-y="979"
     inkscape:window-maximized="1"
     inkscape:current-layer="svg1355" />
  <path
     id="path1455"
     style="fill:#000000;stroke-width:0.409165"
     d="m 352.49856,104.03564 c -0.83275,0.0688 -1.66438,0.21834 -2.48437,0.45117 -4.39108,1.24682 -7.79515,4.22552 -9.8457,8.61719 -0.71481,1.53092 -0.77107,3.21113 -0.88086,26.00781 l -0.11719,24.37109 -3.76953,0.7168 c -11.05037,2.09733 -22.14461,6.57375 -31.75586,12.81445 l -3.43555,2.23047 -16,-15.93554 c -15.06666,-15.0076 -16.14319,-15.99005 -18.45508,-16.84571 -2.01664,-0.74638 -3.07472,-0.87961 -5.93164,-0.74609 -2.9913,0.13979 -3.84017,0.35596 -6.0664,1.54492 -5.50379,2.9394 -8.34318,8.7264 -7.35938,15 0.68407,4.36224 1.42263,5.26078 17.70117,21.52344 8.45083,8.44258 15.36328,15.43313 15.36328,15.53515 0,0.10202 -1.22407,2.01034 -2.7207,4.24219 -5.61153,8.36823 -10.72728,20.47615 -12.90234,30.53516 l -0.94727,4.38086 -22.0957,0.12109 -22.09375,0.11914 -2.5,1.1543 c -3.13567,1.44915 -5.91799,4.24921 -7.39063,7.4375 -0.94006,2.03525 -1.13476,3.01484 -1.13476,5.72851 0,2.71366 0.1947,3.69327 1.13476,5.72852 1.47264,3.18829 4.25496,5.98639 7.39063,7.43554 l 2.5,1.15626 21.9668,0.11914 21.96679,0.11914 0.4668,2.33593 c 1.58806,7.93834 3.52067,14.22202 6.35547,20.67188 2.01521,4.58507 5.51421,10.89345 7.87304,14.19336 l 1.60938,2.25 -15.0332,15.13867 c -11.33387,11.41376 -15.29423,15.65951 -16.09375,17.25195 -3.7032,7.37583 -0.69634,16.2506 6.68945,19.73828 1.90318,0.89871 2.81928,1.0625 5.93359,1.0625 6.44087,0 5.63642,0.58687 23.33789,-17.03906 l 15.56446,-15.49805 4.07617,2.67188 c 9.83985,6.45009 21.22862,10.87317 34.85156,13.53516 l 0.90625,0.17578 0.11524,20.5664 0.11718,20.56641 1.3418,2.72461 c 1.60667,3.26265 4.52211,6.0554 7.57813,7.25781 3.07894,1.21143 8.67708,1.03542 11.53906,-0.36328 2.88097,-1.40798 6.05965,-4.78423 7.22656,-7.67578 0.95286,-2.36112 0.95691,-2.46402 1.07617,-22.85352 l 0.11914,-20.48242 4.17774,-0.92773 c 10.35828,-2.29777 21.48413,-6.96787 30.2832,-12.71094 2.43188,-1.58727 4.47587,-2.88477 4.54297,-2.88477 0.0671,0 7.1009,6.93294 15.62891,15.40625 17.52881,17.41639 17.51162,17.40279 23.27929,17.66016 2.60724,0.11634 3.75213,-0.0334 5.625,-0.73633 3.08765,-1.15892 6.47068,-4.25825 7.96094,-7.29297 0.99448,-2.02513 1.14258,-2.80858 1.14258,-6.01172 0,-6.45499 0.64158,-5.58412 -17.49805,-23.79882 l -15.95898,-16.02344 2.11132,-3.20703 c 5.96502,-9.06318 10.76762,-20.97507 12.95508,-32.13477 l 0.69727,-3.5625 22.76758,-0.12109 22.76953,-0.12109 2.72461,-1.3418 c 10.97578,-5.405 10.97575,-20.55196 0,-25.95703 l -2.72461,-1.3418 -22.89258,-0.20508 -22.89062,-0.20508 -0.74805,-3.47851 c -2.37006,-11.02491 -6.8569,-21.82204 -12.84961,-30.92188 -1.21999,-1.85252 -2.21875,-3.51907 -2.21875,-3.70312 0,-0.18405 7.25007,-7.61239 16.10937,-16.50781 18.30635,-18.38102 17.64649,-17.48969 17.64649,-23.94922 0,-3.11262 -0.1633,-4.02948 -1.06055,-5.93164 -1.28297,-2.71992 -3.90148,-5.41501 -6.69336,-6.88867 -1.85648,-0.97993 -2.49799,-1.08985 -6.36133,-1.08985 -6.58311,0 -6.03813,-0.40131 -24.59179,18.07617 l -15.79297,15.72852 -3.84571,-2.5 c -8.47796,-5.5097 -20.94979,-10.70104 -30.23828,-12.58789 l -3.88672,-0.78906 -0.20507,-24.3086 -0.20313,-24.30664 -1.14648,-2.45507 c -2.6675,-5.71709 -8.57304,-9.14148 -14.40235,-8.66016 z M 75.275917,164.05908 c -1.52262,-0.056 -3.09718,0.45546 -4.08789,1.46484 -1.30792,1.33257 -69.8312998,119.83175 -70.6347698,122.15039 -0.87015,2.51104 0.35309,5.41298 2.78906,6.61328 1.25012,0.61602 7.2660298,0.67264 71.4492198,0.68164 58.844563,0.008 70.299123,-0.0821 71.439453,-0.55859 1.98301,-0.82855 3.3225,-2.91496 3.3125,-5.16016 -0.007,-1.68986 -2.89845,-6.84857 -35.18164,-62.73242 -29.202103,-50.5503 -35.407413,-61.03228 -36.537103,-61.73047 -0.74037,-0.45757 -1.63526,-0.69492 -2.54883,-0.72851 z m 277.287103,28.41406 c 4.11336,-0.036 8.22174,0.2141 11.1875,0.75976 8.2525,1.51835 16.53105,4.91257 23.7539,9.74024 4.25262,2.84241 11.86068,10.10042 14.72852,14.04882 6.70566,9.23222 10.66067,19.58649 11.87891,31.10743 1.10688,10.46773 -1.28165,23.19757 -6.18946,32.98437 -8.81762,17.5835 -25.2697,29.82209 -44.51953,33.11914 -4.32809,0.7413 -14.80399,1.04245 -18.06445,0.51953 -15.25106,-2.44599 -26.05431,-7.83554 -36.14649,-18.03515 -16.32791,-16.50171 -21.91203,-41.02843 -14.3125,-62.86133 7.31925,-21.02767 24.58676,-36.05057 46.46485,-40.42773 2.98785,-0.59779 7.10539,-0.91907 11.21875,-0.95508 z" />
</svg>
