<?xml version="1.0" encoding="UTF-8" standalone="no"?>
<svg
   width="500"
   height="500"
   viewBox="0 0 500 500"
   fill="none"
   version="1.1"
   id="svg2299"
   sodipodi:docname="camera-onoff.svg"
   inkscape:version="1.1.1 (3bf5ae0d25, 2021-09-20)"
   xmlns:inkscape="http://www.inkscape.org/namespaces/inkscape"
   xmlns:sodipodi="http://sodipodi.sourceforge.net/DTD/sodipodi-0.dtd"
   xmlns="http://www.w3.org/2000/svg"
   xmlns:svg="http://www.w3.org/2000/svg">
  <defs
     id="defs2303" />
  <sodipodi:namedview
     id="namedview2301"
     pagecolor="#ffffff"
     bordercolor="#111111"
     borderopacity="1"
     inkscape:pageshadow="0"
     inkscape:pageopacity="0"
     inkscape:pagecheckerboard="1"
     showgrid="false"
     inkscape:zoom="1.9021164"
     inkscape:cx="249.72184"
     inkscape:cy="189"
     inkscape:window-width="1920"
     inkscape:window-height="1017"
     inkscape:window-x="1072"
     inkscape:window-y="979"
     inkscape:window-maximized="1"
     inkscape:current-layer="svg2299" />
  <path
     id="path2399"
     style="fill:#000000;stroke-width:0.52573"
     d="m 153.07914,61.300904 -9.0625,8.021484 c -4.98368,4.412694 -17.89653,15.709221 -28.69727,25.103516 l -19.638674,17.082036 -27.15234,0.28125 -27.15234,0.2832 -4.61914,1.42969 c -9.12012,2.82173 -15.97531,7.04655 -22.46875,13.8457 -6.4518999,6.75565 -10.6971299,14.59792 -12.9375099,23.89844 -0.88376006,3.66879 -0.95044006,10.68379 -1.11914006,119.55664 -0.12063,77.85272 7.8e-4,117.5519 0.3711,121.44532 0.30258,3.18132 1.03032006,7.51697 1.61719006,9.63476 5.48624,19.79776 23.1372199,34.50317 43.6249999,36.34375 6.83959,0.61443 400.813114,0.63709 407.703124,0.0234 7.26842,-0.64735 12.37189,-2.0339 18.40234,-5.00195 12.79927,-6.2995 22.45276,-18.21072 26.41406,-32.58985 l 1.44922,-5.25586 V 275.27162 155.1427 l -1.17578,-4.61328 c -4.62849,-18.15438 -17.30261,-31.48014 -35.21484,-37.0293 l -4.61719,-1.43164 -27.01758,-0.17969 -27.01953,-0.17968 -28.80078,-25.205081 -28.79883,-25.203125 h -97.04492 z m 173.77148,51.521486 22.95508,18.36914 22.95508,18.36719 21.99414,0.18164 c 21.3873,0.17568 22.09316,0.214 25.67187,1.40625 12.98215,4.325 21.48464,12.31913 26.17969,24.61719 l 1.16016,3.03711 0.14648,87.53321 c 0.16536,98.09071 0.41907,91.27971 -3.69336,99.49609 -1.62335,3.24335 -3.19572,5.34934 -6.40039,8.57422 -6.38249,6.42272 -12.74524,9.8028 -21.77539,11.56836 -5.4848,1.07237 -326.983184,1.04405 -332.365234,-0.0293 -14.87287,-2.96612 -27.03105,-13.88595 -30.48047,-27.37305 -1.02056,-3.99042 -1.04492,-6.01112 -1.04492,-90.39648 0,-84.18501 0.026,-86.41358 1.03711,-90.36719 1.68424,-6.58534 4.27919,-10.96013 9.70898,-16.37109 5.15257,-5.13469 9.75746,-7.94737 16.85547,-10.29688 3.56839,-1.18118 4.34944,-1.22455 25.759764,-1.41211 l 22.08203,-0.19336 22.86915,-18.33789 22.86914,-18.33594 76.75781,-0.0195 z m -76.9043,61.69141 c -16.89202,0.0161 -34.53268,4.97804 -48.91211,13.91406 -15.22372,9.46071 -27.30301,22.94191 -35.05859,39.12305 -6.76151,14.10715 -9.60816,27.82449 -9.0293,43.51563 0.42982,11.65111 2.26577,20.78808 6.17969,30.75586 13.14688,33.48189 44.64966,56.73129 80.10938,59.12304 5.70618,0.38488 7.98514,0.34865 16.27539,-0.25976 15.42552,-1.13205 32.78874,-7.85954 46.57031,-18.04492 5.6497,-4.17545 15.96859,-14.74642 20.08789,-20.57813 19.92093,-28.20209 22.8093,-65.13745 7.48633,-95.75586 -9.0797,-18.14308 -23.66729,-32.79379 -41.50586,-41.68945 -11.61465,-5.79194 -21.96305,-8.6896 -35.02149,-9.80469 -2.37086,-0.20245 -4.76849,-0.30112 -7.18164,-0.29883 z m 1.58008,15.75977 c 26.04024,0.50283 51.161,14.04704 65.36328,38.00976 7.91355,13.3521 11.1183,26.14138 10.58789,42.25 -0.31137,9.4565 -1.02311,13.57599 -3.78711,21.90039 -8.96562,27.002 -32.33569,47.16349 -60.19336,51.92969 -5.10322,0.87312 -15.93573,1.43701 -19.71484,1.02539 -17.19104,-1.87249 -31.38619,-7.85012 -44.21094,-18.61718 -12.79352,-10.74086 -22.07266,-26.60811 -25.81054,-44.13868 -1.34602,-6.31269 -1.35121,-23.07945 -0.01,-29.4414 3.26142,-15.46761 10.41629,-28.91481 21.13867,-39.72852 5.703,-5.75157 10.39543,-9.43254 16.39844,-12.86719 12.7062,-7.26993 26.59816,-10.58565 40.23828,-10.32226 z m -2.43554,27.76367 c -6.06504,-0.0673 -10.61837,0.6162 -15.4668,2.26562 -25.49226,8.6724 -39.31731,35.75949 -31.32813,61.38477 5.55871,17.82955 21.18236,31.159 39.91016,34.05078 4.63198,0.71523 14.07455,0.21936 18.74023,-0.98242 19.06627,-4.91107 33.08839,-19.9184 36.76368,-39.34766 0.92739,-4.9026 0.35038,-16.76989 -1.05079,-21.59961 -2.45323,-8.45606 -6.52012,-15.33263 -12.74609,-21.55859 -9.13999,-9.14 -19.25533,-13.59299 -32.125,-14.13867 -0.93338,-0.0396 -1.83083,-0.0646 -2.69726,-0.0742 z" />
</svg>
