<svg width="16" height="16" viewBox="0 0 16 16" fill="none" xmlns="http://www.w3.org/2000/svg">
<path d="M12 9C12 11.2091 10.2091 13 8 13C5.79086 13 4 11.2091 4 9C4 8.13283 4.27594 7.33012 4.74481 6.67487L5.55861 7.25615C5.20696 7.74759 5 8.34962 5 9C5 10.6569 6.34315 12 8 12C9.65685 12 11 10.6569 11 9C11 7.34315 9.65685 6 8 6V7L6 5.5L8 4V5C10.2091 5 12 6.79086 12 9Z" fill="#707172"/>
<path d="M0 3.5C0 3.22386 0.223858 3 0.5 3H4V1.5C4 1.22386 4.22386 1 4.5 1H11.5C11.7761 1 12 1.22386 12 1.5V3H15.5C15.7761 3 16 3.22386 16 3.5V14.5C16 14.7761 15.7761 15 15.5 15H0.5C0.223858 15 0 14.7761 0 14.5V3.5ZM15 14V4H11V2H5V4H1V14H15Z" fill="#707172"/>
<path d="M8 11C9.10457 11 10 10.1046 10 9C10 7.89543 9.10457 7 8 7C6.89543 7 6 7.89543 6 9C6 10.1046 6.89543 11 8 11ZM8 10C7.44772 10 7 9.55228 7 9C7 8.44772 7.44772 8 8 8C8.55228 8 9 8.44772 9 9C9 9.55228 8.55228 10 8 10Z" fill="#707172"/>
</svg>
