<?xml version="1.0" encoding="UTF-8" standalone="no"?>
<svg
   width="500"
   height="452"
   viewBox="0 0 500 452"
   fill="none"
   version="1.1"
   id="svg4470"
   sodipodi:docname="Endo.svg"
   inkscape:version="1.1.1 (3bf5ae0d25, 2021-09-20)"
   xmlns:inkscape="http://www.inkscape.org/namespaces/inkscape"
   xmlns:sodipodi="http://sodipodi.sourceforge.net/DTD/sodipodi-0.dtd"
   xmlns="http://www.w3.org/2000/svg"
   xmlns:svg="http://www.w3.org/2000/svg">
  <defs
     id="defs4474" />
  <sodipodi:namedview
     id="namedview4472"
     pagecolor="#ffffff"
     bordercolor="#111111"
     borderopacity="1"
     inkscape:pageshadow="0"
     inkscape:pageopacity="0"
     inkscape:pagecheckerboard="1"
     showgrid="false"
     inkscape:zoom="0.92560278"
     inkscape:cx="-3.7813197"
     inkscape:cy="312.76916"
     inkscape:window-width="1920"
     inkscape:window-height="1017"
     inkscape:window-x="1072"
     inkscape:window-y="979"
     inkscape:window-maximized="1"
     inkscape:current-layer="svg4470" />
  <path
     id="path4570"
     style="fill:#000000;stroke-width:0.628651"
     d="m 67.041015,0.81039392 c -5.74973,-0.028 -11.91669,0.55337598 -16.42969,1.66992198 C 35.993405,6.0968889 22.668745,14.827546 13.796875,26.60141 4.9862048,38.29405 0.53272477,51.501996 0.49414477,66.052581 0.46334477,77.66829 2.6857348,86.785242 8.0468748,97.031092 17.405375,114.91646 35.154295,127.74501 55.214845,131.12094 c 29.43494,4.95352 59.733115,-11.65114 71.105465,-38.968748 4.04921,-9.72663 4.68832,-13.277433 4.69532,-26.099611 0.006,-10.88416 -0.10531,-11.992112 -1.71485,-17.287109 C 121.6385,23.558453 101.99585,5.9898949 76.494145,1.5350029 73.790305,1.0626699 70.490855,0.82719492 67.041015,0.81039392 Z m 365.273435,0.03125 C 418.89429,1.1639199 405.63769,5.5109189 394.67188,13.831878 c -4.50794,3.420668 -11.94365,11.058987 -14.77735,15.179688 -15.86868,23.075898 -15.08233,55.060386 1.89453,77.113274 10.0395,13.04129 24.51085,21.83922 41.08203,24.97461 7.32438,1.38583 19.58151,0.88083 27.32422,-1.12695 12.07431,-3.13102 21.71344,-8.76933 30.72852,-17.97266 8.7664,-8.94944 13.75747,-17.921278 17.03125,-30.611321 2.02128,-7.834996 2.07543,-21.976769 0.11328,-29.794922 -3.12588,-12.455083 -8.40244,-21.943913 -17.14453,-30.833984 -3.2847,-3.340304 -7.77804,-7.283035 -9.98438,-8.759766 C 459.31777,4.2213109 445.73462,0.51936792 432.31445,0.84164392 Z m 1.77539,24.18750008 c 15.99057,0 30.1417,8.821309 37.09571,23.125 3.22861,6.640939 4.25641,11.895494 3.92969,20.099609 -0.44724,11.229754 -4.01064,19.442819 -11.8379,27.291019 -4.71758,4.730188 -10.38434,8.287108 -16.30078,10.232418 -5.35797,1.76169 -18.1001,2.2063 -23.25976,0.81055 -7.00479,-1.89488 -13.76037,-5.80922 -18.85742,-10.927738 -8.21697,-8.25158 -12.13868,-17.716613 -12.13868,-29.292968 0,-11.576356 3.92171,-21.03943 12.13868,-29.291015 7.83913,-7.872159 17.97072,-12.046875 29.23046,-12.046875 z m -368.076165,0.02148 c 11.77657,0.02139 20.53332,3.6717 28.99219,12.085938 4.40523,4.381993 5.896675,6.383494 7.974605,10.708984 4.30421,8.95978 5.43638,17.550519 3.54101,26.878906 -3.10722,15.29265 -15.333085,27.968328 -30.738275,31.871098 -4.65349,1.17894 -15.06331,1.16007 -19.99609,-0.0352 -11.12215,-2.69493 -21.77477,-11.375668 -26.86524,-21.892578 -5.87947,-12.146956 -5.85375,-24.720414 0.0781,-36.845703 2.1093,-4.3116 3.6601,-6.378431 8.02734,-10.703125 8.4996,-8.416806 17.32131,-12.08955 28.98633,-12.06836 z M 249.90625,72.499843 c -19.4368,-0.04212 -38.96941,5.99308 -56.30469,17.498049 -7.70485,5.11351 -20.89277,18.235038 -26.16406,26.033208 -17.7017,26.18732 -22.24375,57.68634 -12.64844,87.69726 11.46302,35.85246 42.53498,62.34954 80.01758,68.23633 6.3199,0.99257 22.54185,1.1294 29.0293,0.24414 11.25163,-1.53536 21.41729,-4.8092 32.44726,-10.45117 25.46597,-13.02616 44.50801,-37.1614 51.24414,-64.94532 5.2839,-21.79407 2.92612,-46.09663 -6.43945,-66.36718 -9.20833,-19.93022 -26.16902,-37.328878 -45.92969,-47.113278 -12.9298,-6.402139 -22.48881,-9.103369 -36.93359,-10.439461 -2.76602,-0.255848 -5.54167,-0.386561 -8.31836,-0.392578 z m 1.07031,34.896487 c 4.5602,0.0677 9.12628,0.43126 12.11914,1.06836 11.87378,2.5276 22.67271,8.05404 31.19727,15.9668 10.07758,9.35432 16.08433,19.34436 19.51562,32.46093 1.67902,6.41829 2.25416,19.17971 1.16993,25.94727 -4.44755,27.76079 -25.3555,49.27293 -52.98243,54.51367 -9.9172,1.88126 -23.74005,0.84269 -33.47656,-2.51562 -23.88098,-8.23703 -41.24781,-30.4592 -43.65429,-55.85743 -3.21688,-33.95092 20.16041,-64.61798 54.02734,-70.875 2.96941,-0.5486 7.52379,-0.77666 12.08398,-0.70898 z m -1.33008,24.91406 c -4.80242,0.0141 -9.51169,0.52636 -12.26171,1.53321 -17.21731,6.30368 -28.0596,21.39834 -28.0293,39.02343 0.022,12.78146 5.3843,23.89623 15.40039,31.91992 4.48278,3.59106 11.27124,6.84299 16.77148,8.03711 5.26031,1.14202 11.76534,1.14995 17.16797,0.0195 19.26372,-4.03059 33.22377,-22.2891 32.20313,-42.11915 -0.87471,-16.995 -12.29729,-31.84298 -28.43164,-36.95507 -3.12323,-0.98956 -8.01789,-1.47312 -12.82032,-1.45899 z m 0.31446,187.81445 c -18.07085,-0.0103 -33.4789,6.42656 -46.28906,19.33399 -11.05579,11.13972 -17.15381,24.02454 -18.85743,39.84766 -1.30707,12.14003 0.80019,23.41007 6.60938,35.33398 9.50823,19.51654 28.28056,33.09302 49.95508,36.12891 6.71476,0.94051 17.79953,0.25382 24.875,-1.54102 7.01812,-1.7803 17.07314,-6.447 22.30273,-10.34961 9.24729,-6.90084 17.97307,-17.79913 22.00586,-27.48633 4.01647,-9.64801 4.64867,-13.19034 4.63867,-25.98437 -0.008,-10.78231 -0.13168,-12.04166 -1.69726,-17.28711 -8.30033,-27.8101 -31.76521,-46.58055 -59.89258,-47.9082 -1.22841,-0.058 -2.44567,-0.0872 -3.65039,-0.0879 z m -0.38086,24.22071 c 12.28704,-0.0932 20.9651,3.44759 29.61914,12.08398 4.40345,4.39447 5.89276,6.40272 7.97656,10.74805 1.4843,3.09519 3.0102,7.58071 3.62696,10.66211 4.23519,21.15987 -9.24045,42.43698 -30.28907,47.82031 -5.79752,1.48275 -15.2153,1.5992 -20.36328,0.25195 -1.90167,-0.49767 -5.86183,-2.07959 -8.80078,-3.51367 -10.71129,-5.22661 -19.26398,-16.306 -21.75977,-28.18945 -2.86256,-13.62983 1.56001,-28.3529 11.42579,-38.0332 7.91595,-7.76713 17.52293,-11.74628 28.56445,-11.83008 z" />
</svg>
