<?xml version="1.0" encoding="UTF-8" standalone="no"?>
<svg
   width="500"
   height="500"
   viewBox="0 0 500 500"
   fill="none"
   version="1.1"
   id="svg4611"
   sodipodi:docname="endo.svg"
   inkscape:version="1.1.1 (3bf5ae0d25, 2021-09-20)"
   xmlns:inkscape="http://www.inkscape.org/namespaces/inkscape"
   xmlns:sodipodi="http://sodipodi.sourceforge.net/DTD/sodipodi-0.dtd"
   xmlns="http://www.w3.org/2000/svg"
   xmlns:svg="http://www.w3.org/2000/svg">
  <defs
     id="defs4615" />
  <sodipodi:namedview
     id="namedview4613"
     pagecolor="#ffffff"
     bordercolor="#111111"
     borderopacity="1"
     inkscape:pageshadow="0"
     inkscape:pageopacity="0"
     inkscape:pagecheckerboard="1"
     showgrid="false"
     inkscape:zoom="0.79535398"
     inkscape:cx="32.689847"
     inkscape:cy="138.93185"
     inkscape:window-width="1920"
     inkscape:window-height="1017"
     inkscape:window-x="1072"
     inkscape:window-y="979"
     inkscape:window-maximized="1"
     inkscape:current-layer="svg4611" />
  <path
     id="path4601"
     d="M 66.59425,48.765631 C 37.21479,48.472633 10.220068,67.978113 2.2641722,97.669928 c -9.42922,35.190402 11.4542308,71.361012 46.6445308,80.791012 35.1904,9.429 71.361017,-11.45453 80.791017,-46.64453 C 139.12872,96.626012 118.24519,60.454607 83.055188,51.025397 77.556687,49.552081 72.034891,48.81989 66.59425,48.765631 Z m 368.82813,0.01758 c -11.67062,-0.261477 -23.55785,2.572682 -34.40626,8.835938 -31.55799,18.22036 -42.37039,58.574211 -24.15039,90.132811 18.221,31.55849 58.57382,42.37038 90.13282,24.15038 31.559,-18.221 42.37039,-58.5742 24.15039,-90.132801 C 479.19206,61.059173 457.70263,49.282394 435.42238,48.783209 Z M 250.13136,120.60352 c -25.7515,0 -51.50289,9.82486 -71.15039,29.47265 -39.295,39.295 -39.295,103.00578 0,142.30078 39.295,39.296 103.00578,39.296 142.30078,0 39.296,-39.295 39.296,-103.00578 0,-142.30078 -19.6475,-19.64779 -45.39889,-29.47265 -71.15039,-29.47265 z m 0.002,35.21875 c 16.7385,0 33.47705,6.38525 46.24805,19.15625 25.542,25.542 25.542,66.95309 0,92.49609 -25.542,25.542 -66.95409,25.542 -92.49609,0 -25.542,-25.543 -25.542,-66.95409 0,-92.49609 12.771,-12.771 29.50954,-19.15625 46.24804,-19.15625 z m -0.002,24.16601 c -10.55388,0 -21.1062,4.02613 -29.1582,12.07813 -16.105,16.105 -16.105,42.21531 0,58.32031 16.104,16.104 42.21531,16.104 58.32031,0 16.105,-16.105 16.105,-42.21531 0,-58.32031 -8.0525,-8.052 -18.60824,-12.07813 -29.16211,-12.07813 z m 0.002,188.04688 c -36.441,0 -65.98242,29.54142 -65.98242,65.98242 0,36.441 29.54142,65.98242 65.98242,65.98242 36.441,0 65.98047,-29.54142 65.98047,-65.98242 0,-36.441 -29.53947,-65.98242 -65.98047,-65.98242 z"
     style="fill:#000000" />
</svg>
