<?xml version="1.0" encoding="UTF-8" standalone="no"?>
<svg
   width="500"
   height="500"
   viewBox="0 0 500 500"
   fill="none"
   version="1.1"
   id="svg838"
   sodipodi:docname="zoom-in.svg"
   inkscape:version="1.1.1 (3bf5ae0d25, 2021-09-20)"
   xmlns:inkscape="http://www.inkscape.org/namespaces/inkscape"
   xmlns:sodipodi="http://sodipodi.sourceforge.net/DTD/sodipodi-0.dtd"
   xmlns="http://www.w3.org/2000/svg"
   xmlns:svg="http://www.w3.org/2000/svg">
  <defs
     id="defs842" />
  <sodipodi:namedview
     id="namedview840"
     pagecolor="#ffffff"
     bordercolor="#111111"
     borderopacity="1"
     inkscape:pageshadow="0"
     inkscape:pageopacity="0"
     inkscape:pagecheckerboard="1"
     showgrid="false"
     inkscape:zoom="1.5557809"
     inkscape:cx="249.39244"
     inkscape:cy="246.50001"
     inkscape:window-width="1920"
     inkscape:window-height="1017"
     inkscape:window-x="1072"
     inkscape:window-y="979"
     inkscape:window-maximized="1"
     inkscape:current-layer="svg838" />
  <path
     id="path961"
     style="fill:#000000;stroke-width:0.642764"
     d="M 181.21781,4.3109243 C 170.5185,4.1953733 159.71925,5.0404954 148.9307,6.8792844 81.97073,18.291869 26.49076,67.73573 7.6142893,132.82265 -11.08028,197.28239 7.5560893,266.31387 56.09672,312.41249 c 26.99866,25.64039 59.73867,41.52684 97.65429,47.38477 13.34897,2.06241 37.27578,2.06272 50.70899,0 21.8792,-3.35964 45.36595,-11.30133 61.6543,-20.84766 l 3.97851,-2.33203 80.83789,72.77344 c 44.4613,40.02534 82.53883,74.27755 84.61719,76.11718 5.94172,5.25926 13.04798,8.62629 20.6543,9.78711 18.77707,2.86561 37.59602,-9.80461 42.37695,-28.53125 1.14343,-4.47875 1.27561,-12.97918 0.27734,-17.83203 -1.09107,-5.304 -5.24457,-13.2481 -9.0664,-17.33789 -1.87464,-2.00608 -38.40765,-35.09244 -81.1836,-73.52539 -42.77594,-38.43295 -78.75018,-70.81707 -79.94336,-71.96679 l -2.16992,-2.0918 4.17578,-6.6582 c 17.72675,-28.26404 26.83789,-60.30927 26.83789,-94.39454 0,-35.96293 -9.91424,-69.0151 -29.52929,-98.451173 C 320.32553,73.022886 315.06607,66.577714 305.45804,56.916394 272.05065,23.323698 227.5815,4.8116474 181.21781,4.3109243 Z M 177.9307,53.152722 c 6.18125,-0.06127 12.33147,0.14635 16.33008,0.640625 43.54013,5.382074 80.7269,31.27946 100.54492,70.023443 29.97544,58.60157 11.38849,130.31488 -43.30664,167.0918 -16.20047,10.89317 -33.87245,17.68223 -53.71875,20.63671 -9.00038,1.33986 -26.23501,1.59912 -34.64844,0.51954 -13.31656,-1.70875 -27.70476,-5.92793 -39.6914,-11.63672 C 81.9457,280.66572 54.18028,241.09889 49.63969,195.2621 42.8101,126.31812 92.36039,63.749304 161.41703,54.117566 c 4.12081,-0.574754 10.33242,-0.903576 16.51367,-0.964844 z m 1.20899,30.175785 c -5.93174,0 -9.68114,1.55223 -13.86719,5.73828 -5.89234,5.89234 -5.73633,4.75914 -5.73633,41.914063 v 31.9961 l -32.62109,0.1875 c -32.48276,0.18749 -32.63372,0.1943 -35.83399,1.66601 -4.05968,1.86693 -7.66346,5.32375 -9.84961,9.44922 -1.45659,2.74872 -1.70312,4.00491 -1.70312,8.67773 0,4.66975 0.24856,5.93697 1.70898,8.71875 2.0397,3.88516 6.00614,7.62528 10.08594,9.51172 2.89262,1.3375 3.83336,1.37918 35.5918,1.5625 l 32.62109,0.1875 v 31.9961 c 0,37.15574 -0.15592,36.0195 5.74023,41.92187 2.24519,2.24758 4.66568,3.97111 6.47461,4.60938 1.58907,0.5607 4.94071,1.04241 7.44727,1.07031 3.85391,0.0429 5.16241,-0.2521 8.47656,-1.9082 4.2194,-2.10846 6.99608,-4.84071 9.29688,-9.14649 1.44336,-2.70114 1.45083,-2.86934 1.63281,-35.6289 l 0.18359,-32.91407 32.59766,-0.1875 c 31.73587,-0.18325 32.67779,-0.22504 35.57031,-1.5625 4.26734,-1.97315 7.97063,-5.58377 10.01758,-9.76758 2.53156,-5.17432 2.53156,-11.75145 0,-16.92578 -2.04695,-4.18381 -5.75024,-7.79443 -10.01758,-9.76757 -2.89252,-1.33746 -3.83444,-1.37926 -35.57031,-1.5625 l -32.59766,-0.1875 -0.18359,-32.91407 -0.18164,-32.914063 -1.90625,-3.44336 c -3.77747,-6.81991 -9.73467,-10.37695 -17.37695,-10.37695 z" />
</svg>
