<?xml version="1.0" encoding="UTF-8" standalone="no"?>
<svg
   width="500"
   height="500"
   viewBox="0 0 500 500"
   fill="none"
   version="1.1"
   id="svg547"
   sodipodi:docname="equipment-control.svg"
   inkscape:version="1.1.1 (3bf5ae0d25, 2021-09-20)"
   xmlns:inkscape="http://www.inkscape.org/namespaces/inkscape"
   xmlns:sodipodi="http://sodipodi.sourceforge.net/DTD/sodipodi-0.dtd"
   xmlns="http://www.w3.org/2000/svg"
   xmlns:svg="http://www.w3.org/2000/svg">
  <defs
     id="defs551">
    <linearGradient
       id="linearGradient1690"
       inkscape:swatch="solid">
      <stop
         style="stop-color:#000000;stop-opacity:1;"
         offset="0"
         id="stop1688" />
    </linearGradient>
  </defs>
  <sodipodi:namedview
     id="namedview549"
     pagecolor="#505050"
     bordercolor="#eeeeee"
     borderopacity="1"
     inkscape:pageshadow="0"
     inkscape:pageopacity="0"
     inkscape:pagecheckerboard="0"
     showgrid="false"
     inkscape:zoom="0.5"
     inkscape:cx="384"
     inkscape:cy="353"
     inkscape:window-width="1920"
     inkscape:window-height="1017"
     inkscape:window-x="1072"
     inkscape:window-y="979"
     inkscape:window-maximized="1"
     inkscape:current-layer="svg547"
     height="500px">
    <inkscape:grid
       type="xygrid"
       id="grid918" />
  </sodipodi:namedview>
  <g
     inkscape:groupmode="layer"
     id="layer1"
     inkscape:label="Layer 1"
     style="display:inline" />
  <path
     id="path789-7-5"
     style="fill:#000000;fill-opacity:1;stroke:none;stroke-width:9.79271;stroke-miterlimit:4;stroke-dasharray:none;stroke-opacity:1"
     d="m 250,2 a 42,42 0 0 0 -42,42 42,42 0 0 0 18,34.365234 V 109 H 0 V 498 H 500 V 109 H 274 V 78.365234 A 42,42 0 0 0 292,44 42,42 0 0 0 250,2 Z M 91.427734,199.14258 h 39.999996 v 37.20508 c -6.04174,-2.97244 -12.82903,-4.64904 -20,-4.64844 -7.17114,8e-5 -13.958336,1.6772 -19.999996,4.65039 z m 117.703126,0 h 40 v 83.03906 c -6.04156,-2.97322 -12.82898,-4.65039 -20,-4.65039 -7.17102,0 -13.95844,1.67717 -20,4.65039 z m 162.70312,0 a 45,45 0 0 1 45,45 45,45 0 0 1 -45,45 45,45 0 0 1 -45,-45 45,45 0 0 1 45,-45 z m -260.40625,42.05664 a 35.923544,35.923544 0 0 1 5.31641,0.39648 c 0.1244,0.0183 0.24517,0.0449 0.36914,0.0645 a 35.923544,35.923544 0 0 1 4.57227,1.03906 c 0.29652,0.0876 0.58567,0.1863 0.8789,0.28125 a 35.923544,35.923544 0 0 1 3.78125,1.47265 c 0.4113,0.18701 0.81404,0.38216 1.2168,0.58399 a 35.923544,35.923544 0 0 1 3.14062,1.7832 c 0.23418,0.14854 0.49417,0.25835 0.72461,0.41211 v 0.0508 a 35.923544,35.923544 0 0 1 15.92579,29.8418 35.923544,35.923544 0 0 1 -15.92579,29.78711 v 0.24219 c -5.71456,3.81326 -12.58791,6.03578 -20,6.03515 -7.41221,-8e-5 -14.285786,-2.22313 -19.999996,-6.03711 v -0.24023 A 35.923544,35.923544 0 0 1 75.503906,277.125 35.923544,35.923544 0 0 1 91.427734,247.33594 v -0.0996 c 0.173819,-0.11601 0.370928,-0.1975 0.546875,-0.31055 a 35.923544,35.923544 0 0 1 0.289063,-0.16406 c 1.336215,-0.84124 2.718109,-1.61254 4.166016,-2.27539 a 35.923544,35.923544 0 0 1 0.773437,-0.30078 c 1.302476,-0.56024 2.620655,-1.08633 3.998045,-1.49219 a 35.923544,35.923544 0 0 1 1.61719,-0.36914 c 1.11839,-0.2742 2.22739,-0.56894 3.38476,-0.73633 a 35.923544,35.923544 0 0 1 5.22461,-0.38867 z m 117.70313,45.83203 a 35.923544,35.923544 0 0 1 5.31445,0.39648 c 0.12695,0.0187 0.25045,0.0445 0.37696,0.0645 a 35.923544,35.923544 0 0 1 4.60156,1.04883 c 0.27401,0.0813 0.54129,0.17217 0.8125,0.25976 a 35.923544,35.923544 0 0 1 3.84961,1.5 c 0.38708,0.1766 0.76502,0.36299 1.14453,0.55274 a 35.923544,35.923544 0 0 1 3.23047,1.83398 c 0.21617,0.1377 0.45693,0.2387 0.66992,0.38086 v 0.0469 a 35.923544,35.923544 0 0 1 15.92578,29.8418 35.923544,35.923544 0 0 1 -15.92578,29.78711 v 0.24024 c -5.71399,3.81343 -12.58819,6.0371 -20,6.0371 -7.41181,0 -14.28601,-2.22367 -20,-6.0371 v -0.24024 a 35.923544,35.923544 0 0 1 -15.92383,-29.78711 35.923544,35.923544 0 0 1 15.92383,-29.78906 v -0.0996 c 0.17382,-0.11601 0.37093,-0.1975 0.54687,-0.31055 a 35.923544,35.923544 0 0 1 0.28907,-0.16406 c 1.3362,-0.84125 2.7181,-1.61253 4.16601,-2.27539 a 35.923544,35.923544 0 0 1 0.77344,-0.30078 c 1.30248,-0.56025 2.62064,-1.08633 3.99805,-1.49219 a 35.923544,35.923544 0 0 1 1.61718,-0.36914 c 1.1184,-0.2742 2.22738,-0.56894 3.38477,-0.73633 a 35.923544,35.923544 0 0 1 5.22461,-0.38867 z M 91.427734,318.03906 c 6.041524,2.97304 12.829096,4.65031 19.999996,4.65039 7.17072,5.8e-4 13.9584,-1.67614 20,-4.64843 V 429.14258 H 91.427734 Z m 280.406246,21.10352 a 45,45 0 0 1 45,45 45,45 0 0 1 -45,45 45,45 0 0 1 -45,-45 45,45 0 0 1 45,-45 z m -162.70312,24.72851 c 6.04156,2.97299 12.82898,4.65039 20,4.65039 7.17102,0 13.95844,-1.6774 20,-4.65039 v 65.27149 h -40 z" />
</svg>
