<svg width="16" height="16" viewBox="0 0 16 16" fill="none" xmlns="http://www.w3.org/2000/svg">
<path d="M4 7.4999L5.5 9.00234L0.5 9.00212C0.223858 9.00212 -1.20706e-08 9.22598 0 9.50212C1.20706e-08 9.77827 0.223858 10.0021 0.5 10.0021L5.5 10.0023L4 11.4999L4.7501 12.25L7.5 9.50234L4.7499 6.75L4 7.4999Z" fill="#707172"/>
<path d="M5 2H13V3H5V2Z" fill="#707172"/>
<path d="M5 4H13V5H5V4Z" fill="#707172"/>
<path d="M13 7H6.5L5.5 6H13V7ZM7.5 8H13V9H8.5L7.5 8ZM13 11H7.5L8.5 10H13V11ZM13 13V12H6.5L5.5 13H13Z" fill="#707172"/>
<path d="M14.9997 14V1H3V7H2V0.5C2 0.223858 2.22386 0 2.5 0H15.4997C15.7759 0 15.9997 0.223858 15.9997 0.5V14.5C15.9997 14.7761 15.7759 15 15.4997 15H2.5C2.22386 15 2 14.7761 2 14.5V10H3V14H14.9997Z" fill="#707172"/>
</svg>
