<?xml version="1.0" encoding="UTF-8" standalone="no"?>
<svg
   version="1.0"
   width="700.000000pt"
   height="232.000000pt"
   viewBox="0 0 700.000000 232.000000"
   preserveAspectRatio="xMidYMid meet"
   id="svg1079"
   sodipodi:docname="IQOR.svg"
   inkscape:version="1.1.1 (3bf5ae0d25, 2021-09-20)"
   xmlns:inkscape="http://www.inkscape.org/namespaces/inkscape"
   xmlns:sodipodi="http://sodipodi.sourceforge.net/DTD/sodipodi-0.dtd"
   xmlns="http://www.w3.org/2000/svg"
   xmlns:svg="http://www.w3.org/2000/svg">
  <defs
     id="defs1083" />
  <sodipodi:namedview
     id="namedview1081"
     pagecolor="#ffffff"
     bordercolor="#111111"
     borderopacity="1"
     inkscape:pageshadow="0"
     inkscape:pageopacity="0"
     inkscape:pagecheckerboard="1"
     inkscape:document-units="pt"
     showgrid="false"
     inkscape:zoom="1.3092857"
     inkscape:cx="466.28478"
     inkscape:cy="154.66448"
     inkscape:window-width="1920"
     inkscape:window-height="1017"
     inkscape:window-x="1072"
     inkscape:window-y="979"
     inkscape:window-maximized="1"
     inkscape:current-layer="g1077" />
  <metadata
     id="metadata1063">
Created by potrace 1.12, written by Peter Selinger 2001-2015
</metadata>
  <g
     transform="translate(0.000000,232.000000) scale(0.100000,-0.100000)"
     fill="#000000"
     stroke="none"
     id="g1077">
    <path
       id="path1065"
       style="stroke-width:0.133333"
       d="M 792.43359 0 C 759.53359 0 726.53385 0.66666667 719.86719 2 C 703.46719 5.2 690.26719 14.40026 683.86719 26.933594 C 678.00052 38.40026 677.06706 44.667318 676.40039 77.333984 C 675.86706 108.13398 675.86693 108.79935 678.93359 114.66602 C 680.66693 117.99935 683.99987 121.99961 686.5332 123.59961 C 690.66654 126.39961 692.66732 126.66602 707.33398 126.66602 C 722.00065 126.66602 724 126.39961 728 123.59961 C 737.06667 117.59961 737.86602 114.26732 738.66602 85.333984 C 739.46602 55.600651 740.40026 52.666016 750.93359 46.666016 C 756.53359 43.332682 757.19987 43.333594 792.5332 42.933594 C 833.99987 42.40026 837.33333 43.067578 844 52.267578 C 849.6 60.000911 851.06706 68.666146 850.40039 90.132812 C 849.73372 111.46615 848.80065 114.26758 839.33398 122.26758 C 836.00065 125.06758 825.33294 132.66732 815.59961 139.33398 C 805.59961 146.13398 796.79974 153.33385 795.06641 155.86719 C 791.86641 160.66719 791.19922 166.93372 793.19922 172.40039 C 795.33255 177.86706 878.53398 299.06628 883.33398 303.59961 C 888.00065 307.99961 895.06654 310.13411 900.5332 308.80078 C 905.3332 307.60078 927.6 292.53359 930 288.93359 C 932.93333 284.40026 934.00091 276.93424 932.26758 272.26758 C 931.46758 270.00091 917.46693 248.53372 900.93359 224.40039 C 884.53359 200.40039 870.13359 179.06589 868.93359 177.19922 L 866.66602 173.73242 L 874.26758 168.5332 C 894.80091 154.5332 902.39948 145.73242 906.13281 131.73242 C 908.93281 121.06576 908.80052 50.267318 905.86719 39.333984 C 900.53385 18.800651 887.33372 6.8 864.40039 2 C 858.13372 0.66666667 825.33359 0 792.43359 0 z M 223.09961 0.1171875 C 195.43294 0.2671875 167.99987 0.93333333 162.5332 2 C 146.1332 5.2 132.9332 14.40026 126.5332 26.933594 C 119.3332 40.933594 119.46641 38.533333 119.06641 146 C 118.39974 258.13333 118.79948 263.20091 126.13281 278.26758 C 133.33281 293.06758 143.86615 300.79935 162.13281 304.66602 C 175.33281 307.46602 225.19935 307.46602 230.66602 304.66602 C 238.26602 300.66602 240 296.93346 240 283.4668 C 240 264.13346 234.80091 258.66602 216.26758 258.66602 C 201.20091 258.66602 192.13385 254.26745 187.86719 244.80078 C 185.60052 239.60078 185.33398 234.26654 185.33398 150.5332 L 185.33398 61.732422 L 188.40039 55.867188 C 190.66706 51.600521 193.33333 49.199349 198 46.666016 C 204.26667 43.466016 205.73333 43.333984 226 43.333984 C 246.26667 43.333984 247.59974 43.466016 253.06641 46.666016 C 256.66641 48.666016 260.26706 52.266667 262.40039 56 L 266 62 L 266.40039 116 L 266.66602 170 L 256 177.19922 C 241.06667 187.33255 236.66706 195.46615 240.40039 206.13281 C 241.33372 208.93281 256.39909 232.00065 273.73242 257.33398 C 300.93242 297.06732 306.13359 303.73372 310.93359 306.40039 C 319.73359 311.20039 325.86732 310.00078 339.33398 300.80078 C 352.53398 291.86745 355.06576 288.39987 355.73242 278.5332 L 356.26758 271.19922 L 344.13281 253.19922 L 332 235.33398 L 332 142 C 332 63.466667 331.73333 47.333594 330 40.933594 C 324 18.00026 309.73307 5.3339844 285.06641 1.3339844 C 278.66641 0.33398438 250.76628 -0.0328125 223.09961 0.1171875 z M 26.400391 0.12109375 C 18.225391 0.15859375 16.2 0.8335937 12 2.9335938 C 7.6 5.2002603 5.2002603 7.6 2.9335938 12 C 0.1335937 17.466667 -0.13242188 19.466927 0.26757812 34.933594 C 0.66757813 53.60026 1.7326819 56.267578 10.666016 62.267578 C 14.799349 65.067578 16.532552 65.333984 35.199219 65.333984 C 52.932552 65.333984 55.865755 65.066016 59.732422 62.666016 C 67.999089 57.599349 69.333984 53.599219 69.333984 33.199219 C 69.333984 16.532552 69.067057 14.666016 66.400391 10.666016 C 60.133724 1.4660152 57.866927 0.66757814 36.933594 0.26757812 C 32.533594 0.16757814 29.125391 0.10859375 26.400391 0.12109375 z M 498.66602 0.40039062 C 452.53268 0.13372396 438.93281 0.53333333 432.13281 2 C 410.13281 6.9333333 396.6668 19.333464 391.4668 39.466797 C 388.40013 51.466797 388.26732 255.33307 391.33398 267.06641 C 396.80065 287.86641 409.86719 300.13411 431.86719 304.80078 C 444.53385 307.46745 546.13411 307.46745 558.80078 304.80078 C 580.80078 300.13411 593.33294 288.39974 599.59961 267.06641 C 601.59961 260.13307 601.86706 248.6668 602.40039 163.4668 C 602.80039 63.60013 602.13346 45.733464 597.4668 33.466797 C 592.00013 19.066797 581.06732 8.9324219 565.33398 3.7324219 C 557.06732 0.79908854 554.39935 0.80039063 498.66602 0.40039062 z M 497.33398 43.066406 C 514.26732 43.333073 517.33424 43.734245 522.26758 46.267578 C 528.66758 49.734245 532.39987 54.533333 534.5332 62 C 535.46654 65.6 536 93.867448 536 150.80078 C 536 244.00078 536.00065 244.26719 527.33398 251.86719 C 520.53398 257.73385 514.26615 258.93372 492.13281 258.40039 C 469.59948 257.86706 464.66693 256.26628 458.93359 247.59961 L 455.33398 242.13281 L 454.93359 153.4668 C 454.53359 56.00013 454.39987 57.866146 462.5332 50.132812 C 468.79987 44.132812 475.73398 42.666406 497.33398 43.066406 z M 35.466797 90.666016 C 22.666797 90.666016 19.732682 91.066276 14.666016 93.599609 C 11.332682 95.332943 7.3329427 98.665883 5.5996094 101.19922 L 2.6660156 105.86719 L 2.9335938 199.86719 C 3.3335935 291.60052 3.4666667 294.13294 6 297.59961 C 7.4666667 299.59961 11.200911 302.53281 14.267578 304.13281 C 19.334245 306.53281 21.866927 306.80039 36.933594 306.40039 C 52.40026 306.00039 54.39987 305.73411 58.533203 302.80078 C 60.933203 301.06745 64.133464 297.19948 65.466797 294.13281 C 67.866797 288.93281 68 283.59987 68 198.5332 L 68 108.40039 L 64.933594 102.66602 C 60.00026 93.199341 53.60013 90.666016 35.466797 90.666016 z M 707.33398 149.33398 C 692.26732 149.33398 689.46628 149.73333 685.59961 152 C 678.26628 156.53333 676 163.46628 676 181.59961 L 676 197.33398 L 659.06641 197.33398 C 638.79974 197.33398 634.80039 198.93411 630.40039 208.80078 C 628.13372 214.00078 627.86758 217.06667 628.26758 230 C 628.66758 246.4 629.73385 249.19922 637.86719 255.19922 C 641.06719 257.59922 643.86602 258.00039 658.66602 258.40039 L 675.73242 258.93359 L 676.26758 276 C 676.66758 294.93333 677.73268 297.59961 686.66602 303.59961 C 690.66602 306.39961 692.66732 306.66602 707.33398 306.66602 C 722.00065 306.66602 724 306.39961 728 303.59961 C 736.93333 297.59961 738.00039 294.93333 738.40039 276 L 738.93359 258.93359 L 756 258.40039 C 770.8 258.00039 773.60078 257.59922 776.80078 255.19922 C 784.93411 249.19922 786.00039 246.4 786.40039 230 C 786.80039 217.06667 786.53424 214.00078 784.26758 208.80078 C 779.86758 198.93411 775.86719 197.33398 755.86719 197.33398 L 738.93359 197.33398 L 738.40039 180.26758 C 737.60039 152.53424 734.40065 149.33398 707.33398 149.33398 z "
       transform="matrix(7.5,0,0,-7.5,0,2320)" />
  </g>
</svg>
