<?xml version="1.0" encoding="UTF-8" standalone="no"?>
<svg
   width="610"
   height="610"
   viewBox="0 0 610 610"
   fill="none"
   version="1.1"
   id="svg874"
   sodipodi:docname="light-70.svg"
   inkscape:version="1.1.1 (3bf5ae0d25, 2021-09-20)"
   xmlns:inkscape="http://www.inkscape.org/namespaces/inkscape"
   xmlns:sodipodi="http://sodipodi.sourceforge.net/DTD/sodipodi-0.dtd"
   xmlns="http://www.w3.org/2000/svg"
   xmlns:svg="http://www.w3.org/2000/svg">
  <defs
     id="defs878" />
  <sodipodi:namedview
     id="namedview876"
     pagecolor="#ffffff"
     bordercolor="#111111"
     borderopacity="1"
     inkscape:pageshadow="0"
     inkscape:pageopacity="0"
     inkscape:pagecheckerboard="1"
     showgrid="false"
     inkscape:zoom="1.3970856"
     inkscape:cx="253.38462"
     inkscape:cy="274.5"
     inkscape:window-width="1920"
     inkscape:window-height="1017"
     inkscape:window-x="1072"
     inkscape:window-y="979"
     inkscape:window-maximized="1"
     inkscape:current-layer="svg874"
     height="610px" />
  <path
     id="path1054"
     style="fill:#000000;stroke-width:0.715776"
     d="m 149.23114,31.316266 -3.57422,1.410157 c -9.84639,3.881081 -18.46399,9.258359 -24.28906,15.158203 -4.19705,4.250911 -10.06641,12.103145 -10.06641,13.466797 0,0.487829 1.60975,2.936687 3.57813,5.441406 1.96838,2.504721 3.58008,4.823165 3.58008,5.154297 0,0.331132 -2.81901,2.513387 -6.26368,4.847656 C 95.75213,87.937906 75.79765,105.92028 62.56317,121.52134 27.9039,162.37841 7.06024,211.55825 1.75653,264.994 c -1.20047998,12.09511 -1.02847998,37.9405 0.33594,50.5293 5.89505,54.39061 27.51795,103.35761 64.05078,145.04688 1.80681,2.06184 3.4887,3.75281 3.73633,3.75781 0.49424,0.01 19.58984,-17.66543 19.58984,-18.13281 0,-0.15916 -2.93666,-3.79335 -6.52734,-8.07422 -30.71615,-36.62038 -48.66977,-78.6479 -53.64453,-125.58399 -1.57801,-14.88827 -1.08411,-42.68534 0.99805,-56.15429 6.97033,-45.08931 24.85365,-84.29985 53.89257,-118.16211 7.58255,-8.84202 22.40614,-22.99945 31.4707,-30.05861 7.55805,-5.88593 19.08903,-13.88085 20.02149,-13.88085 0.57912,0 17.75087,22.52687 18.33789,24.05664 0.29848,0.77782 2.38095,0.99609 9.5293,0.99609 h 9.14453 l 20.66211,22.30274 c 11.36381,12.26656 20.82864,22.5534 21.0332,22.85938 0.4191,0.62693 39.66843,5.84213 41.48047,5.51172 0.8051,-0.14679 -8.28182,-11.47822 -29.33399,-36.58204 l -30.5,-36.371092 -1.20117,-7.464844 -1.20117,-7.466797 -22.20117,-25.402344 z m 161.70703,36.373047 c -0.2329,0.256949 -10.81717,31.065556 -23.51953,68.464847 -12.70235,37.39928 -23.30177,68.22162 -23.55469,68.49414 -0.25291,0.27252 -32.18352,-3.51268 -70.95703,-8.41211 -38.7735,-4.89943 -70.76332,-8.81913 -71.08789,-8.71094 -1.14981,0.38327 -58.95798,134.72036 -58.16992,135.17774 0.42321,0.24562 26.61901,8.75468 58.21289,18.91015 56.242,18.0783 57.42264,18.49571 56.49609,19.95313 -4.10674,6.45965 -70.6426,117.01802 -70.91211,117.83008 -0.2316,0.69782 17.18237,16.30783 52.26563,46.85547 28.93622,25.19531 52.89515,45.81054 53.24414,45.81054 0.34898,0 21.45312,-24.31842 46.89648,-54.04101 25.44336,-29.72259 46.83008,-54.63026 47.52735,-55.34961 1.22025,-1.25888 3.17088,0.89425 52.01367,57.4414 27.9097,32.31212 51.09288,58.66892 51.51953,58.57032 0.42665,-0.0986 27.56713,-17.04006 60.31055,-37.64844 l 59.5332,-37.4707 -15.01758,-29.45508 c -8.25955,-16.2004 -23.84526,-46.6883 -34.63476,-67.75 -10.7895,-21.0617 -19.4142,-38.50075 -19.16602,-38.75391 0.24818,-0.25315 33.30592,-11.94774 73.46094,-25.98828 40.15502,-14.04053 73.28838,-25.80528 73.63086,-26.14453 0.55487,-0.54964 -12.83407,-113.74813 -13.53711,-114.45117 -0.15331,-0.15332 -12.93142,0.091 -28.39649,0.54492 -88.59255,2.60027 -129.63999,3.66078 -129.94726,3.35352 -0.19065,-0.19066 2.32667,-29.18599 5.59375,-64.4336 3.26709,-35.24762 5.78853,-64.238814 5.60351,-64.42383 -0.56315,-0.563153 -136.95394,-8.874197 -137.4082,-8.373047 z m 6.36328,59.412107 c 0.38018,-0.35161 105.34101,5.70416 105.82227,6.10547 0.0556,0.0464 -1.95215,21.98781 -4.46094,48.75782 -2.50878,26.77002 -4.56722,49.24777 -4.57422,49.95117 -0.0123,1.18295 0.66995,1.24859 9.11133,0.87109 14.36519,-0.64241 113.40276,-3.33162 113.64648,-3.08594 0.12039,0.12139 2.49995,18.90114 5.28907,41.73438 2.78912,22.83325 5.23724,42.50594 5.43945,43.7168 l 0.36719,2.20117 -57.26953,19.93555 c -31.49911,10.964 -57.27149,20.23339 -57.27149,20.5996 0,0.36622 11.91638,23.86629 26.48242,52.22266 14.56604,28.35636 26.4768,51.75628 26.4668,51.99805 -0.01,0.24176 -19.73902,12.76543 -43.8418,27.83203 -24.10279,15.0666 -44.84731,28.04925 -46.09961,28.84961 l -2.27734,1.45508 -9.89062,-11.33789 c -5.4402,-6.2357 -23.23908,-26.70956 -39.55274,-45.49805 -16.31366,-18.78848 -29.87678,-33.91669 -30.14062,-33.61719 -0.26383,0.29949 -16.51562,19.22731 -36.11524,42.06055 -19.59962,22.83325 -36.01089,41.9247 -36.46875,42.42578 -0.65619,0.71814 -9.49122,-6.60847 -41.72265,-34.59961 l -40.89063,-35.50976 11.14063,-18.36915 c 6.1272,-10.10238 18.50014,-30.47978 27.49414,-45.2832 8.994,-14.80342 16.53201,-27.38387 16.75195,-27.95703 0.31567,-0.82263 -9.02352,-4.04735 -44.3457,-15.31445 -24.61069,-7.85034 -44.75472,-14.48951 -44.76172,-14.75196 -0.0122,-0.43576 44.00792,-101.79423 44.68554,-102.89062 0.16165,-0.26157 25.03845,2.63815 55.28125,6.44336 30.2428,3.80521 55.04584,6.87205 55.11915,6.81445 0.0733,-0.0576 8.22262,-23.77361 18.10937,-52.70117 9.88674,-28.92756 18.201,-52.80375 18.47656,-53.0586 z m 27.27539,113.29297 c -20.02302,-0.42539 -44.09947,10.01292 -62.71484,28.4629 -7.34119,7.27596 -11.03604,11.93196 -15.93555,20.08398 -6.63144,11.0337 -10.01058,22.15294 -10.01758,32.95703 -0.006,9.17086 2.36814,16.55557 7.20118,22.4043 1.23666,1.49655 2.394,2.57474 2.57226,2.39648 0.17826,-0.17827 -0.18154,-2.02484 -0.79883,-4.10351 -1.57568,-5.30586 -1.45222,-16.0614 0.26563,-23.20313 10.93482,-45.45995 71.42735,-82.70796 106.27539,-65.43945 2.32835,1.15378 4.33529,1.99675 4.45898,1.87304 0.73834,-0.73833 -9.33134,-9.48453 -12.98632,-11.27929 -5.42106,-2.66199 -11.64598,-4.01055 -18.32032,-4.15235 z m 3.19336,32.92383 c -14.15966,0.21283 -28.46646,6.88103 -41.48047,19.375 -16.44896,15.79166 -23.10392,35.56483 -16.64648,49.46289 1.38925,2.99003 5.55127,6.80084 32.03711,29.34571 16.74184,14.25074 32.31789,27.58023 34.61328,29.62109 2.29539,2.04086 5.5252,4.19001 7.17773,4.77539 4.46366,1.58116 12.35447,1.44463 18.13868,-0.31445 22.6913,-6.90084 40.34136,-32.78213 32.61523,-47.82617 -4.35014,-8.47044 -44.3424,-75.97796 -46.11914,-77.84961 -3.65929,-3.85477 -9.92346,-6.1978 -17.50586,-6.54688 -0.94223,-0.0434 -1.8861,-0.0572 -2.83008,-0.043 z m 46.25782,81.60157 c 7.5272,-0.0759 13.30642,3.49989 15.02148,9.86914 3.20095,11.8874 -9.13961,29.20614 -24.88086,34.91992 -10.04,3.64432 -19.9382,1.3091 -23.38477,-5.51758 -6.07076,-12.02449 7.5255,-32.48177 25.22071,-37.94727 2.81201,-0.86854 5.51437,-1.29892 8.02344,-1.32421 z" />
</svg>
