<?xml version="1.0" encoding="UTF-8" standalone="no"?>
<svg
   width="646"
   height="533"
   viewBox="0 0 646 533"
   fill="none"
   version="1.1"
   id="svg1656"
   sodipodi:docname="Light-50.svg"
   inkscape:version="1.1.1 (3bf5ae0d25, 2021-09-20)"
   xmlns:inkscape="http://www.inkscape.org/namespaces/inkscape"
   xmlns:sodipodi="http://sodipodi.sourceforge.net/DTD/sodipodi-0.dtd"
   xmlns="http://www.w3.org/2000/svg"
   xmlns:svg="http://www.w3.org/2000/svg">
  <defs
     id="defs1660" />
  <sodipodi:namedview
     id="namedview1658"
     pagecolor="#ffffff"
     bordercolor="#111111"
     borderopacity="1"
     inkscape:pageshadow="0"
     inkscape:pageopacity="0"
     inkscape:pagecheckerboard="1"
     showgrid="false"
     inkscape:zoom="1.3489681"
     inkscape:cx="322.83936"
     inkscape:cy="266.5"
     inkscape:window-width="1920"
     inkscape:window-height="1017"
     inkscape:window-x="1072"
     inkscape:window-y="979"
     inkscape:window-maximized="1"
     inkscape:current-layer="svg1656" />
  <path
     id="path1756"
     style="fill:#000000;stroke-width:0.741307"
     d="M 149.71161,0.89212836 145.8659,2.4057994 c -6.71848,2.645401 -14.9348,7.238921 -19.44336,10.8710906 -4.44308,3.57943 -11.52072,11.52706 -13.86718,15.57032 l -1.29493,2.23242 4.15235,5.30859 c 2.28445,2.91963 4.03544,5.39432 3.89062,5.5 -0.14483,0.10568 -3.59859,2.47349 -7.67578,5.26172 -11.692163,7.99581 -20.611833,15.43822 -32.875003,27.43359 -21.68485,21.21132 -37.20441,42.45086 -50.54492,69.17579 -46.63865,93.43082 -31.8154001,206.70696 37.29687,285.02148 2.44234,2.76752 4.71102,4.9357 5.04102,4.81836 0.33,-0.11736 4.9093,-4.1914 10.17578,-9.05469 l 9.57422,-8.84375 -5.18359,-5.98242 c -31.08336,-35.88162 -49.45173,-78.10261 -55.4961,-127.55859 -1.15899,-9.48305 -1.15164,-37.8091 0.0117,-47.44336 5.5156,-45.67677 21.69448,-85.23164 48.9707,-119.72266 9.70393,-12.27069 29.013163,-30.99801 41.699223,-40.44336 10.44032,-7.77329 15.87525,-11.29356 16.43164,-10.64062 2.08843,2.45089 16.98192,22.57388 17.27735,23.34375 0.31948,0.83254 2.32369,1.05468 9.5332,1.05468 h 9.13086 l 46.86719,52.89063 46.86719,52.89062 8.3496,-3.4082 8.34766,-3.41016 2.15625,-5.62695 2.15822,-5.62891 -45.375,-54.60156 C 217.08599,91.38283 196.49206,66.06009 196.27606,65.14213 c -0.21602,-0.91796 -0.81198,-4.33786 -1.32227,-7.59961 L 194.02606,51.61283 171.86786,26.2515 Z M 377.40301,52.50346 c -0.2736,0.32499 -15.29249,37.78736 -33.375,83.24804 -18.08252,45.46067 -33.13678,83.0027 -33.45312,83.42774 -0.31633,0.42503 -41.9358,17.58681 -92.48828,38.13672 -50.55248,20.54993 -91.80455,37.54895 -91.67188,37.77539 0.13268,0.22644 16.49553,35.93924 36.36133,79.36132 19.8658,43.42208 36.35015,79.20033 36.63281,79.50782 0.38034,0.41375 164.74071,-35.68036 171.30469,-37.61914 0.65998,-0.19493 31.54538,23.42964 75.98437,58.12304 60.99967,47.62228 75.07602,58.29698 75.97461,57.61328 1.30064,-0.98961 119.84296,-104.57872 121.82422,-106.45703 1.29784,-1.23041 -0.79963,-4.29452 -52.33593,-76.44922 l -53.68946,-75.16601 4.74024,-90.7168 c 2.60676,-49.89374 4.62525,-90.82982 4.48437,-90.9707 C 546.92467,91.5466 377.8187,52.00965 377.40301,52.50346 Z m 5.10742,57.10742 c 2.69234,0.30699 126.27457,29.78823 126.71485,30.22851 0.23071,0.23071 -1.16884,31.05962 -3.11133,68.50977 l -3.5332,68.0918 39.8125,55.86328 c 21.89668,30.72439 39.91908,56.36303 40.04882,56.97461 0.14706,0.69319 -17.13279,16.30615 -45.88476,41.45898 -25.36679,22.19139 -46.45556,40.44425 -46.86328,40.56055 -0.40772,0.1163 -25.26117,-18.99143 -55.22852,-42.46094 -29.96735,-23.46951 -55.20346,-43.15754 -56.08203,-43.75 -1.45196,-0.97911 -7.35915,0.21165 -64.86523,13.08008 -34.79684,7.78667 -63.86028,14.22715 -64.58594,14.31054 -1.06588,0.12252 -6.58631,-11.36794 -28.72656,-59.80273 -15.07345,-32.97519 -27.40625,-60.20131 -27.40625,-60.50195 0,-0.30064 31.0455,-13.19189 68.98828,-28.64649 l 68.98633,-28.09961 25.09179,-62.99609 c 22.61316,-56.77474 25.24428,-62.97997 26.64453,-62.82031 z m 35.27735,117.05859 c -35.77464,0.0758 -76.06756,32.36382 -85.38867,68.42578 -1.53076,5.92234 -1.77483,8.29102 -1.49805,14.49219 0.38769,8.68636 2.00787,13.62816 6.54687,19.9668 1.66297,2.32231 3.19057,4.05553 3.39454,3.85156 0.20397,-0.20396 -0.23789,-2.14361 -0.98047,-4.31055 -2.08965,-6.0979 -1.74432,-17.62418 0.7832,-26.125 7.09991,-23.87921 27.86767,-46.89015 53.25781,-59.01172 18.85076,-8.99958 39.23926,-10.57847 52.15625,-4.03906 1.94193,0.98314 3.6933,1.62506 3.89258,1.42578 0.76567,-0.76567 -7.0222,-7.7648 -10.9707,-9.85937 -6.88601,-3.65285 -12.09216,-4.83571 -21.19336,-4.81641 z m 5.05078,32.77344 c -8.29302,0.21784 -17.66826,2.85115 -26.45313,7.85742 -25.57957,14.57715 -40.47877,42.77264 -32.03515,60.61914 1.63428,3.45424 4.2786,5.97413 22.77929,21.69922 11.51243,9.78526 27.12448,23.08455 34.69141,29.55469 13.94542,11.9241 15.14109,12.73069 20.42969,13.7832 6.30838,1.25546 16.33025,-0.93966 23.7207,-5.19531 9.70106,-5.58617 16.90246,-13.19255 21.71875,-22.94531 2.55144,-5.16655 2.74414,-6.03257 2.74414,-12.23243 v -6.67187 l -22.50781,-38.54883 c -12.37918,-21.20139 -23.68356,-39.7775 -25.12305,-41.28125 -4.4593,-4.65837 -11.67182,-6.85651 -19.96484,-6.63867 z m 47.12109,81.62891 c 3.79332,0.0695 7.17974,1.14548 9.69727,3.41992 3.79355,3.42725 4.70359,5.92732 4.36133,11.98437 -0.36454,6.45148 -3.0316,12.03493 -8.66602,18.13867 -5.18101,5.61257 -11.49496,9.77881 -17.74414,11.70899 -8.10483,2.50333 -15.10264,1.54489 -19.50195,-2.66992 -4.57168,-4.37994 -4.88737,-12.98936 -0.78125,-21.33008 6.21398,-12.62239 21.2548,-21.46059 32.63476,-21.25195 z" />
</svg>
