<?xml version="1.0" encoding="UTF-8" standalone="no"?>
<svg
   width="200"
   height="200"
   viewBox="0 0 200 200"
   fill="none"
   version="1.1"
   id="svg842"
   sodipodi:docname="media-file.svg"
   inkscape:version="1.1.1 (3bf5ae0d25, 2021-09-20)"
   xmlns:inkscape="http://www.inkscape.org/namespaces/inkscape"
   xmlns:sodipodi="http://sodipodi.sourceforge.net/DTD/sodipodi-0.dtd"
   xmlns="http://www.w3.org/2000/svg"
   xmlns:svg="http://www.w3.org/2000/svg">
  <defs
     id="defs846" />
  <sodipodi:namedview
     id="namedview844"
     pagecolor="#ffffff"
     bordercolor="#111111"
     borderopacity="1"
     inkscape:pageshadow="0"
     inkscape:pageopacity="0"
     inkscape:pagecheckerboard="1"
     showgrid="false"
     inkscape:zoom="2.0576807"
     inkscape:cx="147.73915"
     inkscape:cy="67.30879"
     inkscape:window-width="1920"
     inkscape:window-height="1017"
     inkscape:window-x="1072"
     inkscape:window-y="979"
     inkscape:window-maximized="1"
     inkscape:current-layer="svg842" />
  <path
     id="path836"
     style="fill:#000000;stroke-width:2.39998"
     d="M 5.0015255,2e-6 C 2.2401065,2e-6 5.0000003e-7,2.235421 5.0000003e-7,4.996839 V 155.00035 c 0,2.75998 2.24010599999997,4.99683 5.00152499999997,4.99683 H 20.001408 V 19.996721 H 160.00187 V 4.996839 C 160.00187,2.235421 157.76273,2e-6 155.00036,2e-6 Z M 44.99965,39.998126 c -2.76142,0 -4.996838,2.240102 -4.996838,5.001522 V 194.99378 c 0,2.76238 2.235418,5.00622 4.996838,5.00622 H 194.99846 C 197.76084,200 200,197.75616 200,194.99378 V 44.999648 c 0,-2.76142 -2.23916,-5.001522 -5.00154,-5.001522 z M 59.99953,59.999528 H 179.99858 V 179.9939 H 59.99953 Z m 20.00141,20.00141 v 80.000922 l 80.00093,-40.00281 z" />
</svg>
