<svg width="16" height="16" viewBox="0 0 16 16" fill="none" xmlns="http://www.w3.org/2000/svg">
<path d="M16 4.5V15.5C16 15.7761 15.7761 16 15.5 16H0.5C0.223858 16 0 15.7761 0 15.5V0.5C0 0.223858 0.223858 0 0.5 0H11.5L16 4.5ZM1 15H15V5L11 1H1V15Z" fill="#707172"/>
<path d="M10.5 7C10.7761 7 11 6.77614 11 6.5V3.5C11 3.22386 10.7761 3 10.5 3H3.5C3.22386 3 3 3.22386 3 3.5V6.5C3 6.77614 3.22386 7 3.5 7H10.5ZM10 4V6H4V4H10Z" fill="#707172"/>
<path d="M8 13C9.10457 13 10 12.1046 10 11C10 9.89543 9.10457 9 8 9C6.89543 9 6 9.89543 6 11C6 12.1046 6.89543 13 8 13ZM8 12C7.44772 12 7 11.5523 7 11C7 10.4477 7.44772 10 8 10C8.55228 10 9 10.4477 9 11C9 11.5523 8.55228 12 8 12Z" fill="#707172"/>
</svg>
