<svg width="16" height="16" viewBox="0 0 16 16" fill="none" xmlns="http://www.w3.org/2000/svg">
<path d="M10 11C10 12.1046 9.10457 13 8 13C6.89543 13 6 12.1046 6 11C6 9.89543 6.89543 9 8 9C9.10457 9 10 9.89543 10 11Z" fill="#707172"/>
<path d="M16 4.5V15.5C16 15.7761 15.7761 16 15.5 16H0.5C0.223858 16 0 15.7761 0 15.5V0.5C0 0.223858 0.223858 0 0.5 0H11.5L16 4.5ZM1 15H15V5L11 1H1V15Z" fill="#707172"/>
<path d="M11 6.5C11 6.77614 10.7761 7 10.5 7H3.5C3.22386 7 3 6.77614 3 6.5V3.5C3 3.22386 3.22386 3 3.5 3H10.5C10.7761 3 11 3.22386 11 3.5V6.5Z" fill="#707172"/>
</svg>
