<?xml version="1.0" encoding="UTF-8" standalone="no"?>
<svg
   width="400"
   height="400"
   viewBox="0 0 400 400"
   fill="none"
   version="1.1"
   id="svg846"
   sodipodi:docname="pip-1.svg"
   inkscape:version="1.1.1 (3bf5ae0d25, 2021-09-20)"
   xmlns:inkscape="http://www.inkscape.org/namespaces/inkscape"
   xmlns:sodipodi="http://sodipodi.sourceforge.net/DTD/sodipodi-0.dtd"
   xmlns="http://www.w3.org/2000/svg"
   xmlns:svg="http://www.w3.org/2000/svg">
  <defs
     id="defs850" />
  <sodipodi:namedview
     id="namedview848"
     pagecolor="#ffffff"
     bordercolor="#111111"
     borderopacity="1"
     inkscape:pageshadow="0"
     inkscape:pageopacity="0"
     inkscape:pagecheckerboard="1"
     showgrid="false"
     inkscape:zoom="2.5566667"
     inkscape:cx="296.47979"
     inkscape:cy="302.15124"
     inkscape:window-width="1920"
     inkscape:window-height="1017"
     inkscape:window-x="1072"
     inkscape:window-y="979"
     inkscape:window-maximized="1"
     inkscape:current-layer="svg846" />
  <path
     id="path969"
     style="fill:#000000;stroke-width:0.391134"
     d="M 0.12890625 50.195312 L 0.12890625 200 L 0.12890625 349.80469 L 199.99805 349.80469 L 399.87109 349.80469 L 399.87109 200 L 399.87109 50.195312 L 199.99805 50.195312 L 0.12890625 50.195312 z M 25.943359 76.009766 L 199.99805 76.009766 L 374.05273 76.009766 L 374.05273 138.00586 L 374.05273 200 L 287.02734 200 L 199.99805 200 L 199.99805 261.99414 L 199.99805 323.99023 L 112.97266 323.99023 L 25.943359 323.99023 L 25.943359 200 L 25.943359 76.009766 z M 121.97266 146.41406 C 121.43656 146.41406 112.72191 149.51727 102.60938 153.30859 L 84.222656 160.20117 L 84.222656 165.82422 C 84.222656 168.91686 84.33365 171.44727 84.46875 171.44727 C 84.64947 171.44727 106.21786 163.58713 109.94141 162.16406 C 110.33073 162.01527 110.42969 170.82849 110.42969 205.43359 L 110.42969 248.89258 L 116.68945 248.89258 L 122.94727 248.89258 L 122.94727 197.65234 L 122.94727 146.41406 L 121.97266 146.41406 z " />
</svg>
