<?xml version="1.0" encoding="UTF-8" standalone="no"?>
<svg
   width="400"
   height="400"
   viewBox="0 0 400 400"
   fill="none"
   version="1.1"
   id="svg425"
   sodipodi:docname="pip.svg"
   inkscape:version="1.1.1 (3bf5ae0d25, 2021-09-20)"
   xmlns:inkscape="http://www.inkscape.org/namespaces/inkscape"
   xmlns:sodipodi="http://sodipodi.sourceforge.net/DTD/sodipodi-0.dtd"
   xmlns="http://www.w3.org/2000/svg"
   xmlns:svg="http://www.w3.org/2000/svg">
  <defs
     id="defs429" />
  <sodipodi:namedview
     id="namedview427"
     pagecolor="#505050"
     bordercolor="#eeeeee"
     borderopacity="1"
     inkscape:pageshadow="0"
     inkscape:pageopacity="0"
     inkscape:pagecheckerboard="0"
     showgrid="false"
     inkscape:zoom="2.3966667"
     inkscape:cx="200.27816"
     inkscape:cy="150"
     inkscape:window-width="1920"
     inkscape:window-height="1017"
     inkscape:window-x="1072"
     inkscape:window-y="979"
     inkscape:window-maximized="1"
     inkscape:current-layer="svg425" />
  <path
     id="path419"
     d="M 0.13867094,50.208982 V 200 349.79102 H 200 399.86133 V 200 50.208982 H 200 Z M 26.007811,75.660154 200.10352,75.76367 374.20117,75.869139 374.30664,137.93554 374.41211,200 h -86.99609 -86.9961 l -0.10547,62.06445 -0.10547,62.06641 -87.0996,0.10547 -87.101569,0.10547 V 200 Z M 121.21875,146.13281 83.953124,160.125 v 11.8125 l 26.226566,-9.63281 V 249 h 13.07812 V 146.13281 Z m 104.65039,79.73633 h 74.27148 74.27149 L 374.30664,275 l -0.10547,49.13086 -73.88672,0.10547 c -40.63741,0.058 -74.01238,-0.0202 -74.16601,-0.17383 -0.15362,-0.15363 -0.2793,-22.31004 -0.2793,-49.23633 z m 73.13477,22.24024 c -5.086,-10e-6 -9.15222,1.45237 -12.19922,4.35937 -3.024,2.906 -4.53516,6.71478 -4.53516,11.42578 h 6.50391 c 0,-3.282 0.89087,-5.83506 2.67187,-7.66406 1.805,-1.851 4.3246,-2.77734 7.5586,-2.77735 2.695,0 4.85075,0.85541 6.46875,2.56641 1.617,1.71 2.42578,3.90222 2.42578,6.57422 0,1.992 -0.50372,3.92578 -1.51172,5.80078 -0.985,1.851 -2.78906,4.26519 -5.41406,7.24219 l -17.71875,19.6875 V 300 h 33.53906 v -5.30859 h -25.69922 l 13.71094,-14.8711 c 6.422,-6.961 9.63281,-12.961 9.63281,-18 0,-4.148 -1.38244,-7.46522 -4.14844,-9.94922 -2.766,-2.508 -6.52715,-3.76172 -11.28515,-3.76171 z"
     style="fill:#000000" />
</svg>
