<?xml version="1.0" encoding="UTF-8" standalone="no"?>
<svg
   width="400"
   height="400"
   viewBox="0 0 400 400"
   fill="none"
   version="1.1"
   id="svg2162"
   sodipodi:docname="quad-1-1.svg"
   inkscape:version="1.1.1 (3bf5ae0d25, 2021-09-20)"
   xmlns:inkscape="http://www.inkscape.org/namespaces/inkscape"
   xmlns:sodipodi="http://sodipodi.sourceforge.net/DTD/sodipodi-0.dtd"
   xmlns="http://www.w3.org/2000/svg"
   xmlns:svg="http://www.w3.org/2000/svg">
  <defs
     id="defs2166" />
  <sodipodi:namedview
     id="namedview2164"
     pagecolor="#ffffff"
     bordercolor="#111111"
     borderopacity="1"
     inkscape:pageshadow="0"
     inkscape:pageopacity="0"
     inkscape:pagecheckerboard="1"
     showgrid="false"
     inkscape:zoom="1.1983333"
     inkscape:cx="95.132128"
     inkscape:cy="222.39221"
     inkscape:window-width="1920"
     inkscape:window-height="1017"
     inkscape:window-x="1072"
     inkscape:window-y="979"
     inkscape:window-maximized="1"
     inkscape:current-layer="svg2162" />
  <path
     id="path3003"
     style="fill:#000000;stroke-width:0.417246"
     d="M 0.140625 50.208984 L 0.140625 200 L 0.140625 349.79102 L 200.00195 349.79102 L 399.85938 349.79102 L 399.85938 200 L 399.85938 50.208984 L 200.00195 50.208984 L 0.140625 50.208984 z M 187.06641 75.974609 L 187.06641 131.51953 L 187.06641 187.06445 L 25.896484 187.06445 L 26.087891 132.1875 C 26.232081 90.55951 26.395154 77.192736 26.771484 76.816406 C 27.150134 76.437756 46.184685 76.278084 107.16602 76.146484 L 187.06641 75.974609 z M 111.19141 105.70312 C 110.99673 105.70312 106.63109 107.27935 101.49023 109.20703 L 92.140625 112.71289 L 92.015625 115.51758 C 91.902085 118.07524 91.960571 118.29861 92.644531 118.03125 C 96.029881 116.70792 104.60623 113.63086 104.9082 113.63086 C 105.12978 113.63086 105.28711 122.53911 105.28711 135.11914 L 105.28711 156.60547 L 108.41602 156.60547 L 111.54492 156.60547 L 111.54492 131.1543 C 111.54492 117.15569 111.38609 105.70312 111.19141 105.70312 z " />
</svg>
