<?xml version="1.0" encoding="UTF-8" standalone="no"?>
<svg
   width="400"
   height="300"
   viewBox="0 0 400 300"
   fill="none"
   version="1.1"
   id="svg446"
   sodipodi:docname="Quad-2.svg"
   inkscape:version="1.1.1 (3bf5ae0d25, 2021-09-20)"
   xmlns:inkscape="http://www.inkscape.org/namespaces/inkscape"
   xmlns:sodipodi="http://sodipodi.sourceforge.net/DTD/sodipodi-0.dtd"
   xmlns="http://www.w3.org/2000/svg"
   xmlns:svg="http://www.w3.org/2000/svg">
  <defs
     id="defs450" />
  <sodipodi:namedview
     id="namedview448"
     pagecolor="#505050"
     bordercolor="#eeeeee"
     borderopacity="1"
     inkscape:pageshadow="0"
     inkscape:pageopacity="0"
     inkscape:pagecheckerboard="0"
     showgrid="false"
     inkscape:zoom="2.3966667"
     inkscape:cx="200.06954"
     inkscape:cy="150"
     inkscape:window-width="1920"
     inkscape:window-height="1017"
     inkscape:window-x="1072"
     inkscape:window-y="979"
     inkscape:window-maximized="1"
     inkscape:current-layer="svg446" />
  <path
     id="path438"
     style="fill:#000000"
     d="M 0.13867188 0.20898438 L 0.13867188 150 L 0.13867188 299.79102 L 200 299.79102 L 399.86133 299.79102 L 399.86133 150 L 399.86133 0.20898438 L 200 0.20898438 L 0.13867188 0.20898438 z M 268.01172 25.658203 L 321.10547 25.763672 L 374.20117 25.869141 L 374.30664 58.519531 L 374.41406 91.167969 L 321.21289 91.167969 L 268.01172 91.167969 L 268.01172 58.412109 L 268.01172 25.658203 z M 26.007812 25.660156 L 134.07422 25.660156 L 242.14258 25.660156 L 242.14258 150 L 242.14258 274.33984 L 134.07422 274.33984 L 26.007812 274.33984 L 26.007812 150 L 26.007812 25.660156 z M 320.00391 32.109375 C 314.91791 32.109375 310.85169 33.56245 307.80469 36.46875 C 304.78069 39.37495 303.26953 43.183631 303.26953 47.894531 L 309.77344 47.894531 C 309.77344 44.613331 310.66431 42.058569 312.44531 40.230469 C 314.25031 38.378869 316.76991 37.453125 320.00391 37.453125 C 322.69891 37.453125 324.85466 38.308631 326.47266 40.019531 C 328.08966 41.730531 328.89844 43.92185 328.89844 46.59375 C 328.89844 48.58585 328.39472 50.519531 327.38672 52.394531 C 326.40172 54.246131 324.59766 56.660219 321.97266 59.636719 L 304.25391 79.324219 L 304.25391 84 L 337.79297 84 L 337.79297 78.691406 L 312.09375 78.691406 L 325.80469 63.820312 C 332.22669 56.859412 335.4375 50.859412 335.4375 45.820312 C 335.4375 41.671912 334.05506 38.355494 331.28906 35.871094 C 328.52306 33.363294 324.76191 32.109375 320.00391 32.109375 z M 142.21875 96.132812 L 104.95312 110.125 L 104.95312 121.9375 L 131.17969 112.30469 L 131.17969 199 L 144.25781 199 L 144.25781 96.132812 L 142.21875 96.132812 z M 268.01172 117.03711 L 321.21094 117.03711 L 374.4082 117.03711 L 374.4082 150 L 374.4082 182.96289 L 321.21094 182.96289 L 268.01172 182.96289 L 268.01172 150 L 268.01172 117.03711 z M 319.51172 123.10938 C 314.94072 123.10937 311.16841 124.45734 308.19141 127.15234 C 305.23841 129.82434 303.76172 133.18819 303.76172 137.24219 L 310.26562 137.24219 C 310.26563 134.59419 311.09772 132.47291 312.76172 130.87891 C 314.44872 129.26191 316.69872 128.45312 319.51172 128.45312 C 325.48772 128.45312 328.47656 131.45312 328.47656 137.45312 C 328.47656 140.12512 327.59784 142.24641 325.83984 143.81641 C 324.08184 145.38741 321.66766 146.19519 318.59766 146.24219 L 313.71094 146.24219 L 313.71094 151.55078 L 318.59766 151.55078 C 322.04266 151.59778 324.67981 152.41772 326.50781 154.01172 C 328.33581 155.60472 329.25 157.89119 329.25 160.86719 C 329.25 163.93819 328.41791 166.29259 326.75391 167.93359 C 325.08991 169.57359 322.68787 170.39453 319.54688 170.39453 C 316.59387 170.39453 314.23847 169.58575 312.48047 167.96875 C 310.72347 166.35175 309.84375 164.195 309.84375 161.5 L 303.30469 161.5 C 303.30469 165.766 304.80469 169.19878 307.80469 171.80078 C 310.82769 174.40178 314.74187 175.70312 319.54688 175.70312 C 324.35187 175.70312 328.25391 174.35516 331.25391 171.66016 C 334.25391 168.96516 335.75391 165.31956 335.75391 160.72656 C 335.75391 157.74956 334.97959 155.22997 333.43359 153.16797 C 331.90959 151.10497 329.74169 149.62928 326.92969 148.73828 C 329.41369 147.70728 331.37078 146.1485 332.80078 144.0625 C 334.25378 141.9775 334.98047 139.81975 334.98047 137.59375 C 334.98047 133.04675 333.60919 129.49641 330.86719 126.94141 C 328.12519 124.38741 324.33972 123.10938 319.51172 123.10938 z M 268.01172 208.83203 L 321.21289 208.83203 L 374.41406 208.83203 L 374.30664 241.48047 L 374.20117 274.13086 L 321.10547 274.23633 L 268.01172 274.3418 L 268.01172 241.58789 L 268.01172 208.83203 z M 324.78516 215.8125 L 301.86328 251.28516 L 301.86328 255.11719 L 325.17188 255.11719 L 325.17188 267 L 331.71094 267 L 331.71094 255.11719 L 338.8125 255.11719 L 338.8125 249.80859 L 331.71094 249.80859 L 331.71094 215.8125 L 324.78516 215.8125 z M 325.17188 224.70703 L 325.17188 249.80859 L 309.24609 249.80859 L 324.39844 226.11328 L 325.17188 224.70703 z " />
</svg>
