<?xml version="1.0" encoding="UTF-8" standalone="no"?>
<svg
   width="400"
   height="400"
   viewBox="0 0 400 400"
   fill="none"
   version="1.1"
   id="svg4773"
   sodipodi:docname="quad-1-3.svg"
   inkscape:version="1.1.1 (3bf5ae0d25, 2021-09-20)"
   xmlns:inkscape="http://www.inkscape.org/namespaces/inkscape"
   xmlns:sodipodi="http://sodipodi.sourceforge.net/DTD/sodipodi-0.dtd"
   xmlns="http://www.w3.org/2000/svg"
   xmlns:svg="http://www.w3.org/2000/svg">
  <defs
     id="defs4777" />
  <sodipodi:namedview
     id="namedview4775"
     pagecolor="#ffffff"
     bordercolor="#111111"
     borderopacity="1"
     inkscape:pageshadow="0"
     inkscape:pageopacity="0"
     inkscape:pagecheckerboard="1"
     showgrid="false"
     inkscape:zoom="1.6946993"
     inkscape:cx="100.90286"
     inkscape:cy="197.97023"
     inkscape:window-width="1920"
     inkscape:window-height="1017"
     inkscape:window-x="1072"
     inkscape:window-y="979"
     inkscape:window-maximized="1"
     inkscape:current-layer="svg4773" />
  <path
     id="path5516"
     style="fill:#000000;stroke-width:0.417246"
     d="M 0.140625 50.208984 L 0.140625 200 L 0.140625 349.79102 L 200 349.79102 L 399.85938 349.79102 L 399.85938 200 L 399.85938 50.208984 L 200 50.208984 L 0.140625 50.208984 z M 25.591797 212.93555 L 106.33008 212.93555 L 187.06641 212.93555 L 187.06641 268.63672 L 187.06641 324.33984 L 106.60742 324.33984 C 62.355024 324.33984 26.024094 324.21355 25.871094 324.06055 C 25.718094 323.90757 25.591797 298.84267 25.591797 268.35938 L 25.591797 212.93555 z M 105.04492 242.33008 C 97.456124 242.48441 91.119581 247.26722 90.050781 254.13672 L 89.775391 255.91016 L 92.941406 255.91016 C 96.051006 255.91016 96.107422 255.89126 96.107422 254.85352 C 96.107422 251.68753 99.258694 248.34011 102.9668 247.57031 C 107.1317 246.7057 111.60069 248.08959 113.24609 250.75195 C 114.23849 252.35754 114.76312 256.49303 114.29102 259.00977 C 114.13532 259.83982 113.40452 261.20249 112.66992 262.03906 C 110.71752 264.26274 108.28971 265.18114 103.72461 265.41992 L 99.859375 265.62109 L 99.859375 268.06836 L 99.859375 270.51367 L 103.77148 270.51367 C 106.22558 270.51367 108.36211 270.7534 109.50391 271.15625 C 113.10131 272.42551 115.27501 275.63485 115.28711 279.69336 C 115.30611 286.10351 112.04493 289.421 105.70312 289.4375 C 100.92024 289.4499 98.058016 287.91461 96.478516 284.49219 C 96.054816 283.57425 95.704219 282.30686 95.699219 281.67578 L 95.6875 280.5293 L 92.501953 280.5293 L 89.316406 280.5293 L 89.578125 282.44336 C 90.300925 287.71736 94.0186 291.91324 99.5625 293.71289 C 100.7407 294.09529 102.90394 294.24692 106.11914 294.16992 C 110.36114 294.06829 111.1912 293.92243 113.2793 292.91211 C 123.3215 288.05321 124.44389 273.97754 115.18359 269.0332 L 112.79883 267.75977 L 114.98828 266.32031 C 117.42138 264.72015 119.63216 261.74405 120.34766 259.10547 C 120.97146 256.80505 120.55565 252.68647 119.43945 250.0918 C 118.40115 247.67819 115.60513 244.92009 113.05273 243.79102 C 112.08173 243.36151 109.97218 242.80432 108.36328 242.55469 C 107.23988 242.38038 106.12912 242.30803 105.04492 242.33008 z " />
</svg>
