<?xml version="1.0" encoding="UTF-8" standalone="no"?>
<svg
   width="400"
   height="400"
   viewBox="0 0 400 400"
   fill="none"
   version="1.1"
   id="svg4251"
   sodipodi:docname="quad-1-2.svg"
   inkscape:version="1.1.1 (3bf5ae0d25, 2021-09-20)"
   xmlns:inkscape="http://www.inkscape.org/namespaces/inkscape"
   xmlns:sodipodi="http://sodipodi.sourceforge.net/DTD/sodipodi-0.dtd"
   xmlns="http://www.w3.org/2000/svg"
   xmlns:svg="http://www.w3.org/2000/svg">
  <defs
     id="defs4255" />
  <sodipodi:namedview
     id="namedview4253"
     pagecolor="#ffffff"
     bordercolor="#111111"
     borderopacity="1"
     inkscape:pageshadow="0"
     inkscape:pageopacity="0"
     inkscape:pagecheckerboard="1"
     showgrid="false"
     inkscape:zoom="0.59916667"
     inkscape:cx="425.5911"
     inkscape:cy="17.524339"
     inkscape:window-width="1920"
     inkscape:window-height="1017"
     inkscape:window-x="1072"
     inkscape:window-y="979"
     inkscape:window-maximized="1"
     inkscape:current-layer="svg4251" />
  <path
     id="path4488"
     style="fill:#000000;stroke-width:0.417246"
     d="M 0.139645,50.20898 V 200 349.79102 H 200.00097 399.86036 V 200 50.20898 H 200.00097 Z M 212.93457,75.660152 h 80.52929 80.52735 v 55.703128 55.70117 h -80.52735 -80.52929 v -55.70117 z m 79.90625,29.808598 c -2.62581,0.007 -5.26324,0.3507 -6.99023,1.02539 -4.88752,1.90938 -8.61497,6.7259 -9.31445,12.03906 l -0.28711,2.18945 h 3.125 3.125 l 0.24414,-2.0625 c 0.65046,-5.4921 4.99215,-8.74093 11.03516,-8.25586 5.14324,0.41285 8.03339,3.73784 8.02539,9.23633 -0.007,5.29018 -1.17078,7.02049 -15.19336,22.57032 l -9.40821,10.43164 -0.006,1.98242 -0.006,1.98047 h 16.68945 16.68945 v -2.29297 -2.29492 h -12.72461 c -6.99931,0 -12.72656,-0.16088 -12.72656,-0.35547 0,-0.19458 3.43248,-4.08901 7.62695,-8.65625 8.83845,-9.62395 11.44174,-12.93137 13.57227,-17.24219 1.45293,-2.93978 1.54106,-3.34961 1.53906,-7.10547 -0.002,-3.52313 -0.13307,-4.23385 -1.13086,-6.12891 -1.40312,-2.66486 -3.93269,-4.87003 -6.9707,-6.07617 -1.6749,-0.66495 -4.28825,-0.99188 -6.91406,-0.98437 z" />
</svg>
