<?xml version="1.0" encoding="UTF-8" standalone="no"?>
<svg
   width="400"
   height="400"
   viewBox="0 0 400 400"
   fill="none"
   version="1.1"
   id="svg446"
   sodipodi:docname="quad-2.svg"
   inkscape:version="1.1.1 (3bf5ae0d25, 2021-09-20)"
   xmlns:inkscape="http://www.inkscape.org/namespaces/inkscape"
   xmlns:sodipodi="http://sodipodi.sourceforge.net/DTD/sodipodi-0.dtd"
   xmlns="http://www.w3.org/2000/svg"
   xmlns:svg="http://www.w3.org/2000/svg">
  <defs
     id="defs450" />
  <sodipodi:namedview
     id="namedview448"
     pagecolor="#505050"
     bordercolor="#eeeeee"
     borderopacity="1"
     inkscape:pageshadow="0"
     inkscape:pageopacity="0"
     inkscape:pagecheckerboard="0"
     showgrid="false"
     inkscape:zoom="2.3966667"
     inkscape:cx="200.27816"
     inkscape:cy="150"
     inkscape:window-width="1920"
     inkscape:window-height="1017"
     inkscape:window-x="1072"
     inkscape:window-y="979"
     inkscape:window-maximized="1"
     inkscape:current-layer="svg446" />
  <path
     id="path438"
     style="fill:#000000"
     d="M 0.13867094,50.208982 V 200 349.79102 H 200 399.86133 V 200 50.208982 H 200 Z M 268.01172,75.658201 l 53.09375,0.105469 53.0957,0.105469 0.10547,32.650391 0.10742,32.64844 h -53.20117 -53.20117 v -32.75586 z m -242.003909,0.002 H 134.07422 242.14258 V 200 324.33984 H 134.07422 26.007811 V 200 Z M 320.00391,82.10942 c -5.086,0 -9.15222,1.453075 -12.19922,4.359375 -3.024,2.9062 -4.53516,6.714881 -4.53516,11.425781 h 6.50391 c 0,-3.2812 0.89087,-5.835962 2.67187,-7.664062 1.805,-1.8516 4.3246,-2.777344 7.5586,-2.777344 2.695,0 4.85075,0.855506 6.46875,2.566406 1.617,1.711 2.42578,3.902319 2.42578,6.574219 0,1.9921 -0.50372,3.925785 -1.51172,5.800785 -0.985,1.8516 -2.78906,4.26568 -5.41406,7.24218 l -17.71875,19.6875 V 134 h 33.53906 v -5.3086 h -25.69922 l 13.71094,-14.87109 c 6.422,-6.9609 9.63281,-12.9609 9.63281,-18 0,-4.1484 -1.38244,-7.464818 -4.14844,-9.949218 -2.766,-2.5078 -6.52715,-3.761719 -11.28515,-3.761719 z M 142.21875,146.13281 104.95312,160.125 v 11.8125 l 26.22657,-9.63281 V 249 h 13.07812 V 146.13281 Z m 125.79297,20.9043 h 53.19922 53.19726 V 200 232.96289 H 321.21094 268.01172 V 200 Z m 51.5,6.07227 c -4.571,-10e-6 -8.34331,1.34796 -11.32031,4.04296 -2.953,2.672 -4.42969,6.03585 -4.42969,10.08985 h 6.5039 c 10e-6,-2.648 0.8321,-4.76928 2.4961,-6.36328 1.687,-1.617 3.937,-2.42579 6.75,-2.42579 5.976,0 8.96484,3 8.96484,9 0,2.672 -0.87872,4.79329 -2.63672,6.36329 -1.758,1.571 -4.17218,2.37878 -7.24218,2.42578 h -4.88672 v 5.30859 h 4.88672 c 3.445,0.047 6.08215,0.86694 7.91015,2.46094 1.828,1.593 2.74219,3.87947 2.74219,6.85547 0,3.071 -0.83209,5.4254 -2.49609,7.0664 -1.664,1.64 -4.06604,2.46094 -7.20703,2.46094 -2.95301,0 -5.30841,-0.80878 -7.06641,-2.42578 -1.757,-1.617 -2.63672,-3.77375 -2.63672,-6.46875 h -6.53906 c 0,4.266 1.5,7.69878 4.5,10.30078 3.023,2.601 6.93718,3.90234 11.74219,3.90234 4.80499,0 8.70703,-1.34796 11.70703,-4.04296 3,-2.695 4.5,-6.3406 4.5,-10.9336 0,-2.977 -0.77432,-5.49659 -2.32032,-7.55859 -1.524,-2.063 -3.6919,-3.53869 -6.5039,-4.42969 2.484,-1.031 4.44109,-2.58978 5.87109,-4.67578 1.453,-2.085 2.17969,-4.24275 2.17969,-6.46875 0,-4.547 -1.37128,-8.09734 -4.11328,-10.65234 -2.742,-2.554 -6.52747,-3.83203 -11.35547,-3.83203 z m -51.5,85.72265 h 53.20117 53.20117 l -0.10742,32.64844 -0.10547,32.65039 -53.0957,0.10547 -53.09375,0.10547 v -32.75391 z m 56.77344,6.98047 -22.92188,35.47266 v 3.83203 h 23.3086 V 317 h 6.53906 v -11.88281 h 7.10156 v -5.3086 h -7.10156 V 265.8125 Z m 0.38672,8.89453 v 25.10156 h -15.92579 l 15.15235,-23.69531 z" />
</svg>
