<?xml version="1.0" encoding="UTF-8" standalone="no"?>
<svg
   width="400"
   height="400"
   viewBox="0 0 400 400"
   fill="none"
   version="1.1"
   id="svg1262"
   sodipodi:docname="quad-1.svg"
   inkscape:version="1.1.1 (3bf5ae0d25, 2021-09-20)"
   xmlns:inkscape="http://www.inkscape.org/namespaces/inkscape"
   xmlns:sodipodi="http://sodipodi.sourceforge.net/DTD/sodipodi-0.dtd"
   xmlns="http://www.w3.org/2000/svg"
   xmlns:svg="http://www.w3.org/2000/svg">
  <defs
     id="defs1266" />
  <sodipodi:namedview
     id="namedview1264"
     pagecolor="#505050"
     bordercolor="#eeeeee"
     borderopacity="1"
     inkscape:pageshadow="0"
     inkscape:pageopacity="0"
     inkscape:pagecheckerboard="0"
     showgrid="false"
     inkscape:zoom="2.3966667"
     inkscape:cx="200.27816"
     inkscape:cy="183.37969"
     inkscape:window-width="1920"
     inkscape:window-height="1017"
     inkscape:window-x="1072"
     inkscape:window-y="979"
     inkscape:window-maximized="1"
     inkscape:current-layer="svg1262" />
  <path
     id="path1252"
     style="fill:#000000"
     d="M 0.13867023,50.20898 V 200 349.79102 H 200 399.86133 V 200 50.20898 H 200 Z M 26.007811,75.6582 l 80.632809,0.10547 80.63282,0.10547 0.10547,55.59765 0.10742,55.59766 H 106.74609 26.007811 v -55.70313 z m 187.134769,0.21094 h 80.5293 80.52929 l 0.10547,55.59765 0.10547,55.59766 h -80.74023 -80.74024 l 0.10547,-55.59766 z m 79.86133,29.24023 c -5.086,0 -9.15222,1.45308 -12.19922,4.35938 -3.024,2.9062 -4.53516,6.71488 -4.53516,11.42578 h 6.50391 c 0,-3.2812 0.89087,-5.83596 2.67187,-7.66406 1.805,-1.8516 4.3246,-2.77735 7.5586,-2.77735 2.695,0 4.85075,0.85551 6.46875,2.56641 1.617,1.711 2.42578,3.90232 2.42578,6.57422 0,1.9921 -0.50372,3.92578 -1.51172,5.80078 -0.985,1.8516 -2.78906,4.26569 -5.41406,7.24219 l -17.71875,19.6875 V 157 h 33.53906 v -5.30859 h -25.69922 l 13.71094,-14.8711 c 6.422,-6.9609 9.63281,-12.9609 9.63281,-18 0,-4.1484 -1.38244,-7.46482 -4.14844,-9.94922 -2.766,-2.5078 -6.52715,-3.76172 -11.28515,-3.76172 z m -182.39453,0.45703 -18.632819,6.9961 v 5.90625 l 13.113279,-4.81641 V 157 h 6.53907 V 105.5664 Z M 26.007811,212.93555 h 80.738279 80.74024 l -0.10742,55.59765 -0.10547,55.59766 -80.63282,0.10547 -80.632809,0.10547 v -55.70313 z m 186.927739,0 h 80.73828 80.73828 l -0.10547,55.59765 -0.10547,55.59766 -80.35547,0.10547 c -44.19447,0.058 -80.47923,-0.0203 -80.63281,-0.17383 -0.15357,-0.15357 -0.27734,-25.21982 -0.27734,-55.70312 z m -107.42383,29.17383 c -4.571,-10e-6 -8.343715,1.34796 -11.320315,4.04296 -2.9531,2.672 -4.429687,6.03585 -4.429687,10.08985 h 6.503906 c 0,-2.648 0.832094,-4.76928 2.496094,-6.36328 1.687302,-1.617 3.937002,-2.42578 6.750002,-2.42579 5.976,0 8.96484,3 8.96484,9 0,2.672 -0.87872,4.79329 -2.63672,6.36329 -1.758,1.571 -4.17218,2.37878 -7.24218,2.42578 h -4.886723 v 5.30859 h 4.886723 c 3.445,0.047 6.08215,0.86694 7.91015,2.46094 1.828,1.593 2.74219,3.87947 2.74219,6.85547 0,3.071 -0.83209,5.4254 -2.49609,7.0664 -1.664,1.64 -4.06603,2.46094 -7.20703,2.46094 -2.95301,0 -5.30891,-0.80878 -7.066412,-2.42578 -1.7578,-1.617 -2.636719,-3.77375 -2.636719,-6.46875 h -6.539062 c 0,4.266 1.5,7.69878 4.5,10.30078 3.023399,2.601 6.937193,3.90234 11.742193,3.90234 4.80499,0 8.70703,-1.34796 11.70703,-4.04296 3,-2.695 4.5,-6.3406 4.5,-10.9336 0,-2.977 -0.77432,-5.49659 -2.32032,-7.55859 -1.524,-2.063 -3.6919,-3.53869 -6.5039,-4.42969 2.484,-1.031 4.44109,-2.58978 5.87109,-4.67578 1.453,-2.085 2.17969,-4.24275 2.17969,-6.46875 0,-4.547 -1.37128,-8.09734 -4.11328,-10.65234 -2.742,-2.554 -6.52747,-3.83203 -11.35547,-3.83203 z m 192.27344,0.70312 -22.92188,35.47266 v 3.83203 h 23.3086 V 294 h 6.53906 v -11.88281 h 7.10156 v -5.3086 h -7.10156 V 242.8125 Z m 0.38672,8.89453 v 25.10156 h -15.92579 l 15.15235,-23.69531 z" />
</svg>
