<?xml version="1.0" encoding="UTF-8" standalone="no"?>
<svg
   width="400"
   height="400"
   viewBox="0 0 400 400"
   fill="none"
   version="1.1"
   id="svg969"
   sodipodi:docname="single-3.svg"
   inkscape:version="1.1.1 (3bf5ae0d25, 2021-09-20)"
   xmlns:inkscape="http://www.inkscape.org/namespaces/inkscape"
   xmlns:sodipodi="http://sodipodi.sourceforge.net/DTD/sodipodi-0.dtd"
   xmlns="http://www.w3.org/2000/svg"
   xmlns:svg="http://www.w3.org/2000/svg">
  <defs
     id="defs973" />
  <sodipodi:namedview
     id="namedview971"
     pagecolor="#505050"
     bordercolor="#eeeeee"
     borderopacity="1"
     inkscape:pageshadow="0"
     inkscape:pageopacity="0"
     inkscape:pagecheckerboard="0"
     showgrid="false"
     inkscape:zoom="2.3966667"
     inkscape:cx="200.27816"
     inkscape:cy="150"
     inkscape:window-width="1920"
     inkscape:window-height="1017"
     inkscape:window-x="1072"
     inkscape:window-y="979"
     inkscape:window-maximized="1"
     inkscape:current-layer="svg969" />
  <path
     id="path965"
     d="M 0.13867094,50.208982 V 200 349.79102 H 200 399.86133 V 200 50.208982 H 200 Z M 26.007811,75.660154 200.10352,75.76367 374.20117,75.869139 V 200 324.13086 l -174.09765,0.10547 -174.095709,0.10351 V 200 Z M 199.02344,146.21875 c -9.14,0 -16.68763,2.69503 -22.64063,8.08594 -5.906,5.343 -8.85937,12.07069 -8.85937,20.17969 h 13.00781 c 0,-5.296 1.66419,-9.53957 4.99219,-12.72657 3.375,-3.235 7.875,-4.85156 13.5,-4.85156 11.954,0 17.92968,6 17.92968,18 0,5.344 -1.75843,9.58556 -5.27343,12.72656 -3.516,3.14 -8.34338,4.75856 -14.48438,4.85157 h -9.77343 v 10.61718 h 9.77343 c 6.891,0.093 12.16332,1.73488 15.82031,4.92188 3.65601,3.188 5.48438,7.75794 5.48438,13.71094 0,6.14099 -1.66419,10.85181 -4.99219,14.13281 -3.328,3.281 -8.13306,4.92187 -14.41406,4.92187 -5.906,0 -10.61681,-1.61756 -14.13281,-4.85156 -3.516,-3.235 -5.27344,-7.5465 -5.27344,-12.9375 h -13.07812 c 0,8.531 3,15.39756 9,20.60156 6.04699,5.203 13.87437,7.80469 23.48437,7.80469 9.609,0 17.41406,-2.69494 23.41406,-8.08594 6,-5.39 9,-12.67918 9,-21.86719 0,-5.953 -1.54662,-10.99218 -4.64062,-15.11718 -3.047,-4.125 -7.38281,-7.07838 -13.00781,-8.85938 4.96899,-2.063 8.88218,-5.17956 11.74218,-9.35156 2.906,-4.172 4.35938,-8.4845 4.35938,-12.9375 0,-9.094 -2.74156,-16.19569 -8.22656,-21.30469 -5.48401,-5.1096 -13.05394,-7.66406 -22.71094,-7.66406 z"
     style="fill:#000000" />
</svg>
