<?xml version="1.0" encoding="UTF-8" standalone="no"?>
<svg
   width="400"
   height="300"
   viewBox="0 0 400 300"
   fill="none"
   version="1.1"
   id="svg23"
   sodipodi:docname="Single-4.svg"
   inkscape:version="1.1.1 (3bf5ae0d25, 2021-09-20)"
   xmlns:inkscape="http://www.inkscape.org/namespaces/inkscape"
   xmlns:sodipodi="http://sodipodi.sourceforge.net/DTD/sodipodi-0.dtd"
   xmlns="http://www.w3.org/2000/svg"
   xmlns:svg="http://www.w3.org/2000/svg">
  <defs
     id="defs27" />
  <sodipodi:namedview
     id="namedview25"
     pagecolor="#505050"
     bordercolor="#eeeeee"
     borderopacity="1"
     inkscape:pageshadow="0"
     inkscape:pageopacity="0"
     inkscape:pagecheckerboard="0"
     showgrid="false"
     inkscape:zoom="2.5566667"
     inkscape:cx="200.06519"
     inkscape:cy="150"
     inkscape:window-width="1920"
     inkscape:window-height="1017"
     inkscape:window-x="1072"
     inkscape:window-y="979"
     inkscape:window-maximized="1"
     inkscape:current-layer="svg23" />
  <path
     id="path19"
     d="M 0.13085938 0.1953125 L 0.13085938 150 L 0.13085938 299.80469 L 200 299.80469 L 399.86914 299.80469 L 399.86914 150 L 399.86914 0.1953125 L 200 0.1953125 L 0.13085938 0.1953125 z M 25.945312 26.009766 L 200.19531 26.009766 L 374.44531 26.009766 L 374.44531 150 L 374.44531 273.99023 L 200.19531 273.99023 L 25.945312 273.99023 L 25.945312 150 L 25.945312 26.009766 z M 209.57031 97.625 L 163.72656 168.57031 L 163.72656 176.23438 L 210.34375 176.23438 L 210.34375 200 L 223.42188 200 L 223.42188 176.23438 L 237.625 176.23438 L 237.625 165.61719 L 223.42188 165.61719 L 223.42188 97.625 L 209.57031 97.625 z M 210.34375 115.41406 L 210.34375 165.61719 L 178.49219 165.61719 L 208.79688 118.22656 L 210.34375 115.41406 z "
     style="fill:#000000" />
</svg>
