<?xml version="1.0" encoding="UTF-8" standalone="no"?>
<svg
   width="400"
   height="300"
   viewBox="0 0 400 300"
   fill="none"
   version="1.1"
   id="svg969"
   sodipodi:docname="Single-3.svg"
   inkscape:version="1.1.1 (3bf5ae0d25, 2021-09-20)"
   xmlns:inkscape="http://www.inkscape.org/namespaces/inkscape"
   xmlns:sodipodi="http://sodipodi.sourceforge.net/DTD/sodipodi-0.dtd"
   xmlns="http://www.w3.org/2000/svg"
   xmlns:svg="http://www.w3.org/2000/svg">
  <defs
     id="defs973" />
  <sodipodi:namedview
     id="namedview971"
     pagecolor="#505050"
     bordercolor="#eeeeee"
     borderopacity="1"
     inkscape:pageshadow="0"
     inkscape:pageopacity="0"
     inkscape:pagecheckerboard="0"
     showgrid="false"
     inkscape:zoom="2.3966667"
     inkscape:cx="200.06954"
     inkscape:cy="150"
     inkscape:window-width="1920"
     inkscape:window-height="1017"
     inkscape:window-x="1072"
     inkscape:window-y="979"
     inkscape:window-maximized="1"
     inkscape:current-layer="svg969" />
  <path
     id="path965"
     d="M 0.13867188 0.20898438 L 0.13867188 150 L 0.13867188 299.79102 L 200 299.79102 L 399.86133 299.79102 L 399.86133 150 L 399.86133 0.20898438 L 200 0.20898438 L 0.13867188 0.20898438 z M 26.007812 25.660156 L 200.10352 25.763672 L 374.20117 25.869141 L 374.20117 150 L 374.20117 274.13086 L 200.10352 274.23633 L 26.007812 274.33984 L 26.007812 150 L 26.007812 25.660156 z M 199.02344 96.21875 C 189.88344 96.21875 182.33581 98.913787 176.38281 104.30469 C 170.47681 109.64769 167.52344 116.37538 167.52344 124.48438 L 180.53125 124.48438 C 180.53125 119.18838 182.19544 114.94481 185.52344 111.75781 C 188.89844 108.52281 193.39844 106.90625 199.02344 106.90625 C 210.97744 106.90625 216.95312 112.90625 216.95312 124.90625 C 216.95312 130.25025 215.19469 134.49181 211.67969 137.63281 C 208.16369 140.77281 203.33631 142.39137 197.19531 142.48438 L 187.42188 142.48438 L 187.42188 153.10156 L 197.19531 153.10156 C 204.08631 153.19456 209.35863 154.83644 213.01562 158.02344 C 216.67163 161.21144 218.5 165.78138 218.5 171.73438 C 218.5 177.87537 216.83581 182.58619 213.50781 185.86719 C 210.17981 189.14819 205.37475 190.78906 199.09375 190.78906 C 193.18775 190.78906 188.47694 189.1715 184.96094 185.9375 C 181.44494 182.7025 179.6875 178.391 179.6875 173 L 166.60938 173 C 166.60938 181.531 169.60938 188.39756 175.60938 193.60156 C 181.65637 198.80456 189.48375 201.40625 199.09375 201.40625 C 208.70275 201.40625 216.50781 198.71131 222.50781 193.32031 C 228.50781 187.93031 231.50781 180.64113 231.50781 171.45312 C 231.50781 165.50012 229.96119 160.46094 226.86719 156.33594 C 223.82019 152.21094 219.48438 149.25756 213.85938 147.47656 C 218.82837 145.41356 222.74156 142.297 225.60156 138.125 C 228.50756 133.953 229.96094 129.6405 229.96094 125.1875 C 229.96094 116.0935 227.21938 108.99181 221.73438 103.88281 C 216.25037 98.773212 208.68044 96.21875 199.02344 96.21875 z "
     style="fill:#000000" />
</svg>
