<svg xmlns="http://www.w3.org/2000/svg" xmlns:xlink="http://www.w3.org/1999/xlink" width="0" height="0" style="display:none;"><symbol id="icn-back-down"></symbol><symbol id="icn-back-up"></symbol><symbol id="icn-brightness-down"></symbol><symbol id="icn-brightness-up"></symbol><symbol viewBox="0 0 16 16" id="icn-camera-ccw">
<path d="M12 9C12 11.2091 10.2091 13 8 13C5.79086 13 4 11.2091 4 9C4 8.13283 4.27594 7.33012 4.74481 6.67487L5.55861 7.25615C5.20696 7.74759 5 8.34962 5 9C5 10.6569 6.34315 12 8 12C9.65685 12 11 10.6569 11 9C11 7.34315 9.65685 6 8 6V7L6 5.5L8 4V5C10.2091 5 12 6.79086 12 9Z" fill="#707172"></path>
<path d="M0 3.5C0 3.22386 0.223858 3 0.5 3H4V1.5C4 1.22386 4.22386 1 4.5 1H11.5C11.7761 1 12 1.22386 12 1.5V3H15.5C15.7761 3 16 3.22386 16 3.5V14.5C16 14.7761 15.7761 15 15.5 15H0.5C0.223858 15 0 14.7761 0 14.5V3.5ZM15 14V4H11V2H5V4H1V14H15Z" fill="#707172"></path>
<path d="M8 11C9.10457 11 10 10.1046 10 9C10 7.89543 9.10457 7 8 7C6.89543 7 6 7.89543 6 9C6 10.1046 6.89543 11 8 11ZM8 10C7.44772 10 7 9.55228 7 9C7 8.44772 7.44772 8 8 8C8.55228 8 9 8.44772 9 9C9 9.55228 8.55228 10 8 10Z" fill="#707172"></path>
</symbol><symbol viewBox="0 0 16 16" id="icn-camera-cw">
<path d="M0 3.5C0 3.22386 0.223858 3 0.5 3H4V1.5C4 1.22386 4.22386 1 4.5 1H11.5C11.7761 1 12 1.22386 12 1.5V3H15.5C15.7761 3 16 3.22386 16 3.5V14.5C16 14.7761 15.7761 15 15.5 15H0.5C0.223858 15 0 14.7761 0 14.5V3.5ZM15 14V4H11V2H5V4H1V14H15Z" fill="#707172"></path>
<path d="M8 11C9.10457 11 10 10.1046 10 9C10 7.89543 9.10457 7 8 7C6.89543 7 6 7.89543 6 9C6 10.1046 6.89543 11 8 11ZM8 10C7.44772 10 7 9.55228 7 9C7 8.44772 7.44772 8 8 8C8.55228 8 9 8.44772 9 9C9 9.55228 8.55228 10 8 10Z" fill="#707172"></path>
<path d="M12 9C12 11.2091 10.2091 13 8 13C5.79086 13 4 11.2091 4 9C4 6.79086 5.79086 5 8 5V4L10 5.5L8 7V6C6.34315 6 5 7.34315 5 9C5 10.6569 6.34315 12 8 12C9.65685 12 11 10.6569 11 9C11 8.34962 10.793 7.74759 10.4414 7.25615L11.2552 6.67487C11.7241 7.33012 12 8.13283 12 9Z" fill="#707172"></path>
</symbol><symbol id="icn-camera-onoff"></symbol><symbol viewBox="0 0 16 16" id="icn-checklist">
<path d="M5 7V8H4V7H5ZM3 6V9H6V6H3Z" fill="#707172"></path>
<path d="M5 10H6L5 13H4L3 11.5H4L4.33333 12L5 10Z" fill="#707172"></path>
<path d="M5 2H6L5 5H4L3 3.5H4L4.33333 4L5 2Z" fill="#707172"></path>
<path d="M8 3H13V4H8V3Z" fill="#707172"></path>
<path d="M8 7H13V8H8V7Z" fill="#707172"></path>
<path d="M8 11H12V12H8V11Z" fill="#707172"></path>
<path d="M0 0.5C0 0.223858 0.223858 0 0.5 0H15.5C15.7761 0 16 0.223858 16 0.5V14.5C16 14.7761 15.7761 15 15.5 15H0.5C0.223858 15 0 14.7761 0 14.5V0.5ZM15 1H1V14H15V1Z" fill="#707172"></path>
</symbol><symbol viewBox="0 0 16 16" id="icn-color-temp">
<path d="M5 14H11V16H5V14Z" fill="#C4C4C4"></path>
<path d="M8 0C4.68629 0 2 2.68629 2 6C2 8.22085 3.2066 10.1599 5 11.1973V13H11V11.1973C12.7934 10.1599 14 8.22085 14 6C14 2.68629 11.3137 0 8 0ZM6 10.584C4.2341 9.8124 3 8.05032 3 6C3 3.23858 5.23858 1 8 1C10.7614 1 13 3.23858 13 6C13 8.05032 11.7659 9.8124 10 10.584V12H6V10.584Z" fill="#C4C4C4"></path>
<path d="M4 6C4 3.79086 5.79086 2 8 2C10.2091 2 12 3.79086 12 6C12 7.86384 10.7252 9.42994 9 9.87398V11H7V9.87398C5.27477 9.42994 4 7.86384 4 6Z" fill="#C4C4C4"></path>
</symbol><symbol id="icn-connect-45"></symbol><symbol id="icn-connect"></symbol><symbol id="icn-disconnect-45"></symbol><symbol id="icn-disconnect"></symbol><symbol id="icn-endo"></symbol><symbol id="icn-equipment-control"></symbol><symbol viewBox="0 0 16 16" id="icn-export">
<path d="M4 7.4999L5.5 9.00234L0.5 9.00212C0.223858 9.00212 -1.20706e-08 9.22598 0 9.50212C1.20706e-08 9.77827 0.223858 10.0021 0.5 10.0021L5.5 10.0023L4 11.4999L4.7501 12.25L7.5 9.50234L4.7499 6.75L4 7.4999Z" fill="#707172"></path>
<path d="M5 2H13V3H5V2Z" fill="#707172"></path>
<path d="M5 4H13V5H5V4Z" fill="#707172"></path>
<path d="M13 7H6.5L5.5 6H13V7ZM7.5 8H13V9H8.5L7.5 8ZM13 11H7.5L8.5 10H13V11ZM13 13V12H6.5L5.5 13H13Z" fill="#707172"></path>
<path d="M14.9997 14V1H3V7H2V0.5C2 0.223858 2.22386 0 2.5 0H15.4997C15.7759 0 15.9997 0.223858 15.9997 0.5V14.5C15.9997 14.7761 15.7759 15 15.4997 15H2.5C2.22386 15 2 14.7761 2 14.5V10H3V14H14.9997Z" fill="#707172"></path>
</symbol><symbol id="icn-flex"></symbol><symbol id="icn-generate"></symbol><symbol id="icn-indicator"></symbol><symbol id="icn-iqor"></symbol><symbol id="icn-kidndy-down"></symbol><symbol id="icn-kindey-up"></symbol><symbol id="icn-leg-down"></symbol><symbol id="icn-leg-l-down"></symbol><symbol id="icn-leg-l-up"></symbol><symbol id="icn-leg-r-down"></symbol><symbol id="icn-leg-r-up"></symbol><symbol id="icn-leg-up"></symbol><symbol id="icn-level"></symbol><symbol id="icn-light-50"></symbol><symbol id="icn-light-70"></symbol><symbol id="icn-lock"></symbol><symbol id="icn-media-file"></symbol><symbol id="icn-normal-function"></symbol><symbol id="icn-onoff"></symbol><symbol id="icn-pacs"></symbol><symbol id="icn-pip-1"></symbol><symbol id="icn-pip-2"></symbol><symbol id="icn-pip-notext"></symbol><symbol id="icn-pip"></symbol><symbol id="icn-quad-1-1"></symbol><symbol id="icn-quad-1-2"></symbol><symbol id="icn-quad-1-3"></symbol><symbol id="icn-quad-1-4"></symbol><symbol id="icn-quad-1-notext"></symbol><symbol id="icn-quad-1"></symbol><symbol id="icn-quad-2-1"></symbol><symbol id="icn-quad-2-2"></symbol><symbol id="icn-quad-2-3"></symbol><symbol id="icn-quad-2-4"></symbol><symbol id="icn-quad-2-notext"></symbol><symbol id="icn-quad-2"></symbol><symbol id="icn-reflex"></symbol><symbol id="icn-report"></symbol><symbol id="icn-rev-trend"></symbol><symbol id="icn-reverse-function"></symbol><symbol viewBox="0 0 16 16" id="icn-save-2">
<path d="M16 4.5V15.5C16 15.7761 15.7761 16 15.5 16H0.5C0.223858 16 0 15.7761 0 15.5V0.5C0 0.223858 0.223858 0 0.5 0H11.5L16 4.5ZM1 15H15V5L11 1H1V15Z" fill="#707172"></path>
<path d="M10.5 7C10.7761 7 11 6.77614 11 6.5V3.5C11 3.22386 10.7761 3 10.5 3H3.5C3.22386 3 3 3.22386 3 3.5V6.5C3 6.77614 3.22386 7 3.5 7H10.5ZM10 4V6H4V4H10Z" fill="#707172"></path>
<path d="M8 13C9.10457 13 10 12.1046 10 11C10 9.89543 9.10457 9 8 9C6.89543 9 6 9.89543 6 11C6 12.1046 6.89543 13 8 13ZM8 12C7.44772 12 7 11.5523 7 11C7 10.4477 7.44772 10 8 10C8.55228 10 9 10.4477 9 11C9 11.5523 8.55228 12 8 12Z" fill="#707172"></path>
</symbol><symbol viewBox="0 0 16 16" id="icn-save">
<path d="M10 11C10 12.1046 9.10457 13 8 13C6.89543 13 6 12.1046 6 11C6 9.89543 6.89543 9 8 9C9.10457 9 10 9.89543 10 11Z" fill="#707172"></path>
<path d="M16 4.5V15.5C16 15.7761 15.7761 16 15.5 16H0.5C0.223858 16 0 15.7761 0 15.5V0.5C0 0.223858 0.223858 0 0.5 0H11.5L16 4.5ZM1 15H15V5L11 1H1V15Z" fill="#707172"></path>
<path d="M11 6.5C11 6.77614 10.7761 7 10.5 7H3.5C3.22386 7 3 6.77614 3 6.5V3.5C3 3.22386 3.22386 3 3.5 3H10.5C10.7761 3 11 3.22386 11 3.5V6.5Z" fill="#707172"></path>
</symbol><symbol id="icn-single-1"></symbol><symbol id="icn-single-2"></symbol><symbol id="icn-single-3"></symbol><symbol id="icn-single-4"></symbol><symbol id="icn-slide-foot"></symbol><symbol id="icn-slide-head"></symbol><symbol viewBox="0 0 17 16" id="icn-sync">
<path d="M7.5 14H13.5V16H7.5V14Z" fill="#C4C4C4"></path>
<path d="M2.67071 7H1.62602C2.01496 5.48885 3.26477 4.32331 4.82148 4.05731C5.04202 4.01963 5.26872 4 5.5 4C5.63745 4 5.77328 4.00693 5.90716 4.02047C6.2534 4.05547 6.58659 4.13463 6.90103 4.25223C8.11371 4.70577 9.04737 5.73103 9.37398 7H10L8.75 8L7.5 7H8.32929C8.03749 6.17442 7.39457 5.5147 6.57996 5.20026C6.27423 5.08225 5.94431 5.01288 5.59969 5.00163C5.56659 5.00054 5.53336 5 5.5 5C5.17157 5 4.85546 5.05278 4.5597 5.15031C3.67918 5.44069 2.97899 6.12778 2.67071 7Z" fill="#C4C4C4"></path>
<path d="M10.5 0C8.27754 0 6.3373 1.20835 5.30043 3.00391C5.36663 3.00131 5.43316 3 5.5 3C5.81972 3 6.13244 3.03001 6.43548 3.08736C7.34287 1.82336 8.82528 1 10.5 1C13.2614 1 15.5 3.23858 15.5 6C15.5 8.05032 14.2659 9.8124 12.5 10.584V12H8.5C8.19226 12.2312 7.857 12.4278 7.5 12.5838V13H13.5V11.1973C15.2934 10.1599 16.5 8.22085 16.5 6C16.5 2.68629 13.8137 0 10.5 0ZM10.5 8C10.5 5.93458 9.24766 4.16166 7.46089 3.39916C8.19451 2.54271 9.28388 2 10.5 2C12.7091 2 14.5 3.79086 14.5 6C14.5 7.86384 13.2252 9.42994 11.5 9.87398V11H9.5C10.1277 10.1643 10.5 9.12561 10.5 8Z" fill="#C4C4C4"></path>
<path d="M5.5 12C3.63616 12 2.07006 10.7252 1.62602 9H1L2.25 8L3.5 9H2.67071C3.08254 10.1652 4.19378 11 5.5 11C5.95976 11 6.39536 10.8966 6.78481 10.7117C7.10536 10.5596 7.39464 10.3523 7.64039 10.1021C7.87417 9.86406 8.06856 9.58723 8.213 9.28214C8.25636 9.19054 8.29522 9.0964 8.32929 9H9.37398C9.30694 9.26047 9.21432 9.51067 9.09897 9.74777C8.94001 10.0745 8.73788 10.3763 8.5 10.6458C8.21404 10.9698 7.87641 11.2471 7.5 11.4649C6.91165 11.8052 6.22857 12 5.5 12Z" fill="#C4C4C4"></path>
</symbol><symbol id="icn-table-down"></symbol><symbol id="icn-table-up"></symbol><symbol id="icn-table"></symbol><symbol id="icn-tilt-l"></symbol><symbol id="icn-tilt-r"></symbol><symbol id="icn-trend"></symbol><symbol id="icn-unlock"></symbol><symbol id="icn-video-control"></symbol><symbol id="icn-zoom-in"></symbol><symbol id="icn-zoom-out"></symbol></svg>