<?xml version="1.0" standalone="no"?>
<!DOCTYPE svg PUBLIC "-//W3C//DTD SVG 1.1//EN" "http://www.w3.org/Graphics/SVG/1.1/DTD/svg11.dtd" >
<svg xmlns="http://www.w3.org/2000/svg">
<defs>
  <font id="iqor-icon" horiz-adv-x="3436.241610738255">
    <font-face font-family="iqor-icon"
      units-per-em="1024" ascent="1024"
      descent="0" />
    <missing-glyph horiz-adv-x="0" />
    <glyph glyph-name="Back-Down"
      unicode="&#x41;"
      horiz-adv-x="1024" d="M210.91328 164.962304C239.8556160000001 110.323712 219.02336 42.56768 164.38272 13.625344C109.7426944 -15.316992 41.9862528 5.5152640000001 13.04424448 60.155904C-15.89774336 114.794496 4.93457408 182.550528 59.5744768 211.4932736C114.2142976 240.4352000000001 181.970944 219.602944 210.91328 164.962304zM995.026944 232.6982656C995.026944 232.6982656 1015.754752 339.4134016000001 1022.88384 377.3474816000001C1030.0129279999999 415.28137728 1001.326592 407.45783296 984.270848 381.9616256C976.119808 369.7778688 958.640128 340.8498688 945.38752 312.2329600000001L535.0912 386.13393408C520.421376 388.0640512 451.702784 359.4960896 421.59104 345.9840000000001C391.479296 332.4719104 408.778752 239.3847808 408.778752 239.3847808L584.76544 239.384576L941.985792 240.7002112L995.026944 232.6982656zM235.767808 227.4271232C200.7427072 146.7985920000001 269.6663040000001 87.740416 269.6663040000001 87.740416L556.283904 239.5570176L534.8024320000001 385.82208512L498.85184 374.3750144L461.955072 361.5563776C381.0734080000001 332.3252736 258.820096 280.4963328 235.767808 227.4271232z" />
    <glyph glyph-name="Back-Up"
      unicode="&#x42;"
      horiz-adv-x="1024" d="M98.37056 284.5386752000001C152.6994944 284.5386752000001 196.7413248 328.5807104000001 196.7413248 382.90944C196.7413248 437.2379648000001 152.6994944 481.28 98.37056 481.28C44.0418304 481.28 0 437.2379648000001 0 382.90944C0 328.5807104000001 44.0418304 284.5386752000001 98.37056 284.5386752000001zM466.173952 126.5131520000001C466.173952 126.5131520000001 415.504384 166.019072 370.173952 209.870848C297.48224 280.1932288000001 257.97632 281.3782016 210.569216 268.736512C175.4079232 256.4894720000001 153.2819456 209.870848 153.2819456 209.870848L339.7509120000001 10.438656L636.65152 11.1472640000001L942.125056 9.259008L994.076672 0.882688C994.076672 0.882688 1015.43936 105.529344 1022.799872 142.7312640000001C1030.160384 179.9331840000001 1001.9471360000002 172.52352 984.967168 147.638272C976.87552 135.776256 959.512576 107.628544 946.24768 79.706112L466.173952 126.5131520000001z" />
    <glyph glyph-name="Equipment-Control"
      unicode="&#x43;"
      horiz-adv-x="1024" d="M512 1015.808A86.016 86.016 0 0 1 425.9840000000001 929.792A86.016 86.016 0 0 1 462.848 859.412000768L462.848 796.672L0 796.672L0 0L1024 0L1024 796.672L561.152 796.672L561.152 859.412000768A86.016 86.016 0 0 1 598.016 929.792A86.016 86.016 0 0 1 512 1015.808zM187.243999232 612.05999616L269.16399104 612.05999616L269.16399104 535.8639923200001C256.79050752 541.95154944 242.8901376 545.38522624 228.20399104 545.38399744C213.51749632 545.3838336 199.617318912 541.9490918399999 187.243999232 535.85999872L187.243999232 612.05999616zM428.3000012800001 612.05999616L510.22000128 612.05999616L510.22000128 441.99600128C497.8468864 448.08515584 483.94625024 451.52 469.26000128 451.52C454.57375232 451.52 440.67311616 448.08515584 428.3000012800001 441.99600128L428.3000012800001 612.05999616zM761.51599104 612.05999616A92.16 92.16 0 0 0 853.67599104 519.89999616A92.16 92.16 0 0 0 761.51599104 427.7399961599999A92.16 92.16 0 0 0 669.35599104 519.89999616A92.16 92.16 0 0 0 761.51599104 612.05999616zM228.20399104 525.92799744A73.571418112 73.571418112 0 0 0 239.09199872 525.1160064000001C239.34676992 525.078528 239.59410688 525.0240512 239.84799744 524.98399232A73.571418112 73.571418112 0 0 0 249.2120064 522.85599744C249.81927936 522.67661312 250.41145856 522.47445504 251.0119936 522.27999744A73.571418112 73.571418112 0 0 0 258.7559936 519.26401024C259.598336 518.88101376 260.42314752 518.48134656 261.248 518.0679987199999A73.571418112 73.571418112 0 0 0 267.67998976 514.4160051199999C268.1595904 514.1117952 268.6920499200001 513.88690432 269.16399104 513.57200384L269.16399104 513.4680063999999A73.571418112 73.571418112 0 0 0 301.7800089600001 452.352A73.571418112 73.571418112 0 0 0 269.16399104 391.34799872L269.16399104 390.8519936C257.4605721600001 383.0424371200001 243.38395136 378.4907161599999 228.20399104 378.4920063999999C213.02378496 378.49217024 198.946701312 383.04497664 187.243999232 390.8560076800001L187.243999232 391.34799872A73.571418112 73.571418112 0 0 0 154.631999488 452.352A73.571418112 73.571418112 0 0 0 187.243999232 513.3599948799999L187.243999232 513.56399616C187.599980544 513.80158464 188.003659776 513.96847616 188.363999232 514.20000256A73.571418112 73.571418112 0 0 0 188.956000256 514.5359974400001C191.692568576 516.25885696 194.522687488 517.8384793600001 197.488001024 519.1959961599999A73.571418112 73.571418112 0 0 0 199.072 519.8119936C201.739470848 520.95936512 204.43910144 522.03679744 207.25999616 522.86799872A73.571418112 73.571418112 0 0 0 210.57200128 523.62399744C212.862464 524.18555904 215.133696 524.78918656 217.50398976 525.1320012799999A73.571418112 73.571418112 0 0 0 228.20399104 525.92799744zM469.26000128 432.064A73.571418112 73.571418112 0 0 0 480.14399488 431.25200896C480.40398848 431.2137523199999 480.65691648 431.16095488 480.91600896 431.1199948800001A73.571418112 73.571418112 0 0 0 490.34000384 428.9719910399999C490.90117632 428.80548864 491.4485657600001 428.61938688 492.0040038400001 428.4400025600001A73.571418112 73.571418112 0 0 0 499.88800512 425.3680025600001C500.68074496 425.00632576 501.45476608 424.62459904 502.23200256 424.23599104A73.571418112 73.571418112 0 0 0 508.84800512 420.48C509.29072128 420.1979904 509.78379776 419.9911424 510.22000128 419.6999987200001L510.22000128 419.60400896A73.571418112 73.571418112 0 0 0 542.83599872 358.4880025600001A73.571418112 73.571418112 0 0 0 510.22000128 297.4840012799999L510.22000128 296.99198976C498.51774976 289.1820851199999 484.43938816 284.62800896 469.26000128 284.62800896C454.0806144 284.62800896 440.0022528 289.1820851199999 428.3000012800001 296.99198976L428.3000012800001 297.4840012799999A73.571418112 73.571418112 0 0 0 395.68799744 358.4880025600001A73.571418112 73.571418112 0 0 0 428.3000012800001 419.4959974399999L428.3000012800001 419.6999987200001C428.65598464 419.9375872 429.05966592 420.10447872 429.41999104 420.33600512A73.571418112 73.571418112 0 0 0 430.0120064 420.6720000000001C432.748544 422.39488 435.5786752 423.9744614399999 438.54399488 425.33199872A73.571418112 73.571418112 0 0 0 440.128 425.94799616C442.7954790400001 427.09538816 445.49507072 428.1728000000001 448.3160064000001 429.0040012799999A73.571418112 73.571418112 0 0 0 451.62799104 429.76C453.91847424 430.3215616 456.18966528 430.9251891200001 458.56 431.26800384A73.571418112 73.571418112 0 0 0 469.26000128 432.064zM187.243999232 368.5600051199999C199.617040384 362.4712192000001 213.51798784 359.03617024 228.20399104 359.0360063999999C242.8896256 359.0348185600001 256.79079424 362.46874112 269.16399104 368.55599104L269.16399104 141.01999616L187.243999232 141.01999616L187.243999232 368.5600051199999zM761.51599104 325.33999616A92.16 92.16 0 0 0 853.67599104 233.17999616A92.16 92.16 0 0 0 761.51599104 141.01999616A92.16 92.16 0 0 0 669.35599104 233.17999616A92.16 92.16 0 0 0 761.51599104 325.33999616zM428.3000012800001 274.69600768C440.67311616 268.60732416 454.57375232 265.17200896 469.26000128 265.17200896C483.94625024 265.17200896 497.8468864 268.60732416 510.22000128 274.69600768L510.22000128 141.01999616L428.3000012800001 141.01999616L428.3000012800001 274.69600768z" />
    <glyph glyph-name="flex"
      unicode="&#x44;"
      horiz-adv-x="1024" d="M227.20512 87.7015040000001C211.605504 25.94816 148.8887808 -11.464704 87.1251968 4.139008C25.3616128 19.74272 -12.0607744 82.45248 3.5397632 144.2058240000001C19.1403008 205.959168 81.8563072 243.369984 143.620096 227.7666816000001C205.38368 212.16256 242.806784 149.4528 227.20512 87.7015040000001zM635.97568 294.5001472L303.753216 101.197824C303.753216 101.197824 222.128128 238.9551104 300.17536 294.5001472C339.2 322.2728704000001 387.403776 343.9345664 452.407296 366.9997568000001L614.283264 419.8400000000001L935.03488 150.016C948.938752 163.186688 963.196928 174.09024 982.48704 182.556672C998.2504960000002 189.474816 1036.562432 204.281856 1019.877376 168.210432C1003.19232 132.141056 946.00192 61.280256 946.00192 61.280256L920.840192 87.7015040000001L635.97568 294.5001472z" />
    <glyph glyph-name="Kidndy-Down"
      unicode="&#x45;"
      horiz-adv-x="1024" d="M111.587999744 305.152C49.959378944 305.152 0 255.201765376 0 193.584001024C0 131.966029824 49.959378944 82.01601024 111.587999744 82.01601024C173.216825344 82.01601024 223.17600768 131.966029824 223.17600768 193.584001024C223.17600768 255.201765376 173.216825344 305.152 111.587999744 305.152zM0 41.44400384L0 0.87199744L235.30799104 0.87199744L235.30799104 41.44400384L0 41.44400384zM275.87999744 41.44400384L275.87999744 0.87199744L1024 0.87199744L1024 41.44400384L275.87999744 41.44400384zM396.7320064000001 261.067999232C344.96038912 261.453643776 297.80207616 255.576754176 274.29199872 236.771999744C205.89903872 182.067257344 239.01599744 97.84799232 239.01599744 97.84799232L411.09999616 97.84799232L411.08000768 97.65599232L586.4079974399999 97.65599232L942.29200896 98.96400896L995.136 90.99599872C995.136 90.99599872 1015.78553344 197.290604544 1022.88799744 235.075999744C1029.99046144 272.861599744 1001.41430784 265.068429312 984.42000384 239.672000512C976.32016384 227.565043712 958.96922112 198.858528768 945.77600512 170.420000768L611.2399974399999 236.592001024L611.21599488 236.771999744C611.21599488 236.771999744 495.56873216 260.331769856 396.7320064000001 261.067999232z" />
    <glyph glyph-name="Kindey-Up"
      unicode="&#x46;"
      horiz-adv-x="1024" d="M614.28400128 481.28L452.40799232 428.4400005120001C387.40447232 405.3748101120001 339.2006348800001 383.712722944 300.17599488 355.9399997440001C222.12876288 300.394962944 303.75200768 162.6360012800001 303.75200768 162.6360012800001L635.9760076800001 355.9399997440001L920.84000768 149.1400089600001L945.99999488 122.72001024C945.99999488 122.72001024 1003.19094784 193.5826329600001 1019.87600384 229.65200896C1036.56105984 265.7234329600001 998.25350656 250.9141401600001 982.48800256 243.9959961600001C963.19789056 235.5295641600001 948.9398784000002 224.626688 935.0360064 211.456L614.28400128 481.28zM114.780000256 292.7479992320001C63.405893632 292.525570048 16.7029536768 257.7483776000001 3.5399999488 205.6440012800001C-12.0605376512 143.89065728 25.360416768 81.18370304 87.124000768 65.57999104C148.887584768 49.97627904 211.6043776 87.38666496 227.2039936 149.1400089600001C242.8056576 210.89130496 205.3835776 273.6038707200001 143.619999744 289.208000512C133.969408 291.646015488 124.29372416 292.789190656 114.780000256 292.7479992320001zM483.59999488 123.7039923200001L483.59999488 83.136L576.9119948800001 83.136L576.9119948800001 42.5639936L275.87999744 42.5639936L275.87999744 1.99200768L1024 1.99200768L1024 42.5639936L722.9680025600001 42.5639936L722.9680025600001 83.136C753.66752256 83.2711680000001 815.3051545600001 83.459584 816.2800025600001 83.136L816.2800025600001 123.7039923200001L483.59999488 123.7039923200001zM0 42.5639936L0 1.99200768L235.30799104 1.99200768L235.30799104 42.5639936L0 42.5639936z" />
    <glyph glyph-name="Leg-Down"
      unicode="&#x47;"
      horiz-adv-x="1024" d="M115.0144927536232 377.3072463842319C51.4936950724638 377.3072463693914 0 325.8135507478262 0 262.2927530666667C0 198.7718010434783 51.4936950724638 147.2782543768116 115.0144927536232 147.2782543768116C178.5351420289855 147.2782543768116 230.0289855072464 198.7718010434783 230.0289855072464 262.2927530666667C230.0289855072464 325.8135507478262 178.5351420289855 377.3072463693914 115.0144927536232 377.3072463842319zM408.9130444057971 331.8608703072464C355.5518404637681 332.2584464695653 306.9449201159421 326.1999994434783 282.7130434782609 306.8144921971015C212.2202898550725 250.4202892985508 246.3565171014493 163.6028920579711 246.3565171014493 163.6028920579711L596.6724674782608 163.6028920579711L879.8927471304348 30.7594165797102L925.599996289855 0.0202870724638C925.599996289855 0.0202870724638 991.735347942029 89.9483084057972 1015.0231856231886 122.0202852173914C1038.3110233043478 154.0907779710146 1008.250983884058 159.4383137391305 981.2173987246376 143.2724702608696C968.328340405797 135.5657572173913 939.4994754782608 116.4729952463769 914.6637653333333 95.7970995942029L630.1275417971015 306.5768114086957L630.0318794202899 306.4376809739131L629.9826086956522 306.8144921971015C629.9826086956522 306.8144921971015 510.7844377971015 331.1018577623189 408.9130444057971 331.8608703072464z" />
    <glyph glyph-name="Leg-L-down"
      unicode="&#x48;"
      horiz-adv-x="1024" d="M103.0649350649351 423.3480511168832A103.0649350649351 103.0649350649351 0 0 1 0 320.283116051948A103.0649350649351 103.0649350649351 0 0 1 103.0649350649351 217.218180987013A103.0649350649351 103.0649350649351 0 0 1 206.1298701298702 320.283116051948A103.0649350649351 103.0649350649351 0 0 1 103.0649350649351 423.3480511168832zM888.1973992727272 381.6753205194805C880.4548953766233 381.3445153246754 869.8950217142857 373.7324450909091 861.9896087272728 362.0415567792208C854.4519048311689 350.8932554805195 838.2964164155844 324.4545728831169 825.981819012987 298.2441491948053L565.8779195844156 351.0389560519481L565.8597402597403 351.2129828571429C565.8597402597403 351.2129828571429 316.5090909090909 410.7142848831169 253.3402597402598 360.1792199480519C190.1714285714286 309.644155012987 220.7610348051948 231.8467524155845 220.7610348051948 231.8467524155845L511.1896037402598 232.3870121558442L783.1558383376623 104.8233824415585L824.1142823896104 77.2779287272728C824.1142823896104 77.2779287272728 883.3784286753247 157.862779012987 904.2467507532468 186.6026023896104C925.115072831169 215.3410958961039 898.1794842597402 220.1330302337663 873.9532534025974 205.6467549090909C862.4046478961039 198.7407393246753 836.5696598441558 181.631640935065 814.3142832207793 163.1038902857143L720.7999966753246 232.3792191168831L822.4363586493506 232.2519505454546L871.2077897142858 224.6467557402598C871.2077897142858 224.6467557402598 890.7655646753246 322.7449982337663 897.498697142857 357.6181826493507C900.8652633766234 375.054109922078 895.939903168831 382.0061257142858 888.1973992727272 381.6753205194805zM936.072723948052 371.4441508571429L936.072723948052 235.2986963116884L1018.638961038961 235.2986963116884L1018.638961038961 249.9792257662338L954.11947387013 249.9792257662338L954.11947387013 371.4441508571429L936.072723948052 371.4441508571429z" />
    <glyph glyph-name="Leg-L-up"
      unicode="&#x49;"
      horiz-adv-x="1024" d="M721.1698644189017 581.9667943805875C711.1637889144317 581.94397707247 707.14687100894 564.7484397037038 712.0919540229886 546.3167300332057C715.5209808429119 533.5359545542784 724.7625873818647 504.5022118416348 736.3090701404853 478.4699870651341L529.86972853129 319.4278416347383C467.3447331800767 330.3533723627076 299.4848204342274 355.1183742528736 249.1340996168583 314.8377975989784C187.0140485312899 265.1417567305237 217.0957813537676 188.6360096040869 217.0957813537676 188.6360096040869L568.234993614304 189.2899048786718L568.2298801532567 189.3384369859515L571.0472533333334 189.3358867943807L571.0523667943806 189.3307733333334L571.0574671775224 189.3358867943807L808.7816042911878 189.0370435759898L856.7432925670499 181.5581032950192C856.7432925670499 181.5581032950192 875.9763535121328 278.0276524137932 882.5976970625799 312.3218439846744C889.2190406130268 346.6147277650064 863.2264811238826 339.664095632184 847.6781592848022 316.6692144061303C840.2656024521074 305.7073140229886 824.3783405363985 279.7075224521073 812.2682000510856 253.9335863090677L654.9348634482759 285.8671767049809L783.0676826564496 433.3307749680715L820.130270651341 464.6768836168583C820.130270651341 464.6768836168583 759.8263090676884 542.3932145287357 738.2477650063857 569.8569604413793C731.5044699872286 578.439372669221 725.7180722349937 581.97716588442 721.1698644189017 581.9667943805875zM101.3537675606641 376.9578486845467A101.3537675606641 101.3537675606641 0 0 1 0 275.6040811238826A101.3537675606641 101.3537675606641 0 0 1 101.3537675606641 174.2503135632184A101.3537675606641 101.3537675606641 0 0 1 202.7075351213283 275.6040811238826A101.3537675606641 101.3537675606641 0 0 1 101.3537675606641 376.9578486845467zM937.532563780332 322.2068965517242L937.532563780332 188.3218390804598L1018.727969348659 188.3218390804598L1018.727969348659 202.7586174201788L955.2796869476374 202.7586174201788L955.2796869476374 322.2068965517242L937.532563780332 322.2068965517242z" />
    <glyph glyph-name="Leg-R-down"
      unicode="&#x4A;"
      horiz-adv-x="1024" d="M101.6133162612036 417.3854025096031A101.6133162612036 101.6133162612036 0 0 1 0 315.7720862483995A101.6133162612036 101.6133162612036 0 0 1 101.6133162612036 214.1587699871959A101.6133162612036 101.6133162612036 0 0 1 203.2266325224072 315.7720862483995A101.6133162612036 101.6133162612036 0 0 1 101.6133162612036 417.3854025096031zM875.6875767477592 376.2996117797695C868.0541222023046 375.9734658130602 857.6429791549295 368.4686078361076 849.8489100128041 356.9423799231754C842.4173709603073 345.9510969526248 826.4894246350832 319.8847901664533 814.3482722663251 294.0435273751601L557.9078080409731 346.0947454033291L557.8898847631242 346.2663211267606C557.8898847631242 346.2663211267606 312.0512163892446 404.9295766453265 249.7720870678617 355.1062731882202C187.4929577464789 305.2829697311139 217.6517244558259 228.5813051984635 217.6517244558259 228.5813051984635L503.99232 229.1139556466069L772.1254744174136 103.3469967733675L812.5070389756721 76.1895071959027C812.5070389756721 76.1895071959027 870.9364789756722 155.6393595902689 891.5108810243278 183.9743967221511C912.0852830729834 212.3081227144686 885.5290689884763 217.0325650192061 861.6440526504481 202.7503217413573C850.2581035595391 195.9415739820743 824.7869885787451 179.073448809219 802.8450679641486 160.8066523943662L710.6453273239437 229.1062723687581L810.8527479641484 228.98079631242L858.9372574647888 221.4827169270167C858.9372574647888 221.4827169270167 878.2195708066581 318.1992940332907 884.8578704225351 352.581306837388C888.1770202304738 369.7716576696543 883.3210312932138 376.6257577464789 875.6875767477592 376.2996117797695zM922.7964148527528 366.2125430985916L922.7964148527528 231.9846301664533L940.5889851984634 231.9846301664533L940.5889851984634 286.2842558770806L972.1178009731113 286.2842558770806L1001.2496831754162 231.9846301664533L1020.2407137516004 231.9846301664533L1020.2407137516004 233.0909041741358L988.7119110883484 290.0640221254802C996.7636191549296 293.1360221254801 1003.0318496286812 297.7763941613316 1007.5185692189502 303.98464C1012.0656012291934 310.1915746991038 1014.3405857106274 317.4750336491677 1014.3405857106274 325.8335483738797C1014.3405857106274 338.985589346991 1010.2543405889884 349.00383631242 1002.079385403329 355.8873190268886C993.9673649167734 362.7708017413572 982.350511037132 366.2125430985916 967.2317476056338 366.2125430985916L922.7964148527528 366.2125430985916zM940.5889851984634 351.646608553137L967.6927049423816 351.646608553137C977.034574340589 351.5849849935979 984.1638957234316 349.3418743149808 989.0806690909092 344.916778284251C994.0590660179256 340.4916822535211 996.5480153649168 334.1304395390525 996.5480153649168 325.8335483738797C996.5480153649168 318.2118940845071 993.9354911139563 312.1283638412292 988.7119110883484 307.5800206914213C983.5486434827144 303.0316775416133 976.5734596670934 300.758004199744 967.7848911651728 300.758004199744L940.5889851984634 300.758004199744L940.5889851984634 351.646608553137z" />
    <glyph glyph-name="Leg-R-up"
      unicode="&#x4B;"
      horiz-adv-x="1024" d="M711.1788461460957 573.904282115869C701.3113938539043 573.8817851067002 697.3501259445844 556.9244688765743 702.2267002518892 538.748110347607C705.6082216624684 526.1443985088162 714.7217958690176 497.5130154559194 726.1083147607052 471.8413096624685L522.5289640302267 315.0025188916877C460.8701839798488 325.7766883627204 295.3357863979849 350.1985982871537 245.6826196473552 310.4760648866499C184.4231738035265 261.468508211587 214.0881571788413 186.0226643828716 214.0881571788413 186.0226643828716L560.3627204030226 186.6675006549119L560.3576777833753 186.7153604030227L563.1360193450881 186.7128455415618L563.1410619647355 186.7078029219144L563.1460916876574 186.7128455415618L797.5768213602015 186.4181424685139L844.8740529974812 179.0428147103275C844.8740529974812 179.0428147103275 863.8419506297229 274.1758839294711 870.3702730478589 307.9949670528967C876.8998851385389 341.8127605037784 851.2674240806045 334.9584217632243 835.9345072040303 312.282109420655C828.6246432241813 301.4720741561713 812.9574819143576 275.832481209068 801.0151141561712 250.4156147103275L645.8614585390428 281.9068002015113L772.2191379345088 427.3274518891688L808.7682643828715 458.2392945491184C808.7682643828715 458.2392945491184 749.2997481108312 534.8789637481109 728.0201511335013 561.962216656927C721.3702770780857 570.4257329652393 715.6640435264483 573.9145080289048 711.1788461460957 573.904282115869zM99.9496221662469 371.7355107304786A99.9496221662468 99.9496221662468 0 0 1 0 271.7858885642318A99.9496221662468 99.9496221662468 0 0 1 99.9496221662469 171.8362663979849A99.9496221662468 99.9496221662468 0 0 1 199.8992443324937 271.7858885642318A99.9496221662468 99.9496221662468 0 0 1 99.9496221662469 371.7355107304786zM924.4534005037784 317.743073047859L924.4534005037784 185.7128463476071L941.9546567254408 185.7128463476071L941.9546567254408 239.1234224685139L972.9672576322419 239.1234224685139L1001.6221694710327 185.7128463476071L1020.3022637783374 185.7128463476071L1020.3022637783374 186.8010075566751L989.289675768262 242.8413162720403C997.209554861461 245.8642958186399 1003.3751568765744 250.4286919899245 1007.7884163224182 256.5340018136021C1012.2610007052896 262.6393116372796 1014.4987373299746 269.8035200000001 1014.4987373299746 278.0251824685139C1014.4987373299746 290.9619006549119 1010.479395465995 300.816120906801 1002.4382871536524 307.5869017632242C994.4590831234256 314.3576826196474 983.0324296221664 317.743073047859 968.1612026196474 317.743073047859L924.4534005037784 317.743073047859zM941.9546567254408 303.4156106801008L968.6146127959698 303.4156106801008C977.803529672544 303.354996070529 984.8161241309824 301.1486113853905 989.6523961712846 296.7959665491184C994.5492828211586 292.4433217128464 996.9974811083122 286.1862432241814 996.9974811083122 278.0251824685139C996.9974811083122 270.5296185390428 994.427731183879 264.5444030226701 989.289675768262 260.0705289672544C984.2109452896724 255.5979445843829 977.3499647355164 253.3601950629723 968.705289672544 253.3601950629723L941.9546567254408 253.3601950629723L941.9546567254408 303.4156106801008z" />
    <glyph glyph-name="Leg-Up"
      unicode="&#x4C;"
      horiz-adv-x="1024" d="M899.1656112101912 508.7388535031847C886.6895082802547 508.7104045346242 881.6804035668791 487.2707456815286 887.8471337579618 464.2898083057325C892.1224968152866 448.3545420636943 903.6450731210192 412.1549908789809 918.0414043312102 379.6974520254777L660.6528733757962 181.4012738853503C582.6982970700637 195.0230991082802 373.4030838216561 225.9014603821656 310.6242038216561 175.6783368152866C233.171974522293 113.7165533757962 270.6783388535032 18.328018343949 270.6783388535032 18.328018343949L708.484076433121 19.1433049681528L707.9745222929937 24.041400254777L711.9968203821657 19.1942603821656L976.3407571974521 323.4171923566879L1022.5509584713376 362.4999997961784C1022.5509584713376 362.4999997961784 947.3630573248408 459.3979091974522 920.4585987261148 493.6401274292994C912.0509554140128 504.3408101910828 904.8365492993632 508.7517848527083 899.1656112101912 508.7388535031847zM126.3694267515924 253.1305661146497C56.5774675159236 253.1305661146497 0 196.5529355414013 0 126.7611393630573C0 56.9693431847133 56.5774675159236 0.3917126114649 126.3694267515924 0.3917126114649C196.1612229299363 0.3917126114649 252.7388535031847 56.9693431847133 252.7388535031847 126.7611393630573C252.7388535031847 196.5529355414013 196.1612229299363 253.1305661146497 126.3694267515924 253.1305661146497z" />
    <glyph glyph-name="Level"
      unicode="&#x4D;"
      horiz-adv-x="1024" d="M637.2515840000001 58.222592C664.1602560000001 96.526336 677.613568 155.070464 677.613568 233.8590720000001V321.1325440000001C676.8865280000001 397.2528128 663.068672 453.4951936 636.16 489.8588672C609.251328 526.46496256 567.312384 544.768 510.34112 544.768C452.886528 544.768 410.70592 525.8589184 383.797248 488.0406528C356.886528 450.2224896 343.433216 392.4043776000001 343.433216 314.587136V224.768C344.40192 150.34368 358.4634880000001 94.3431680000001 385.613824 56.768512C412.766208 19.43552 454.58432 0.768 511.06816 0.768C568.281088 0.768 610.340864 19.918848 637.2515840000001 58.222592zM586.3424 450.2224896C602.3413760000001 424.283136 610.340864 382.828544 610.340864 325.859328V215.676928C609.613824 160.403456 601.12896 119.9185920000001 584.8883199999999 94.222336C568.887296 68.52608 544.280576 55.676928 511.06816 55.676928C477.372416 55.676928 452.159488 69.25312 435.433472 96.403456C418.947072 123.7975040000001 410.70592 166.1009920000001 410.70592 223.31392V330.950656C411.191296 384.7680000000001 419.311616 424.6468608 435.0689280000001 450.5862144C450.82624 476.525568 475.918336 489.4953472 510.34112 489.4953472C545.0076160000001 489.4953472 570.3413760000001 476.4043264000001 586.3424 450.2224896zM150.8073472 172.754944L301.615104 259.823616L150.8073472 346.8916736000001V285.888512H0V233.7566720000001H150.8073472V172.754944zM873.1934719999999 172.754944L722.3848959999999 259.823616L873.1934719999999 346.8916736000001V285.888512H1024V233.7566720000001H873.1934719999999V172.754944z" />
    <glyph glyph-name="Lock"
      unicode="&#x4E;"
      horiz-adv-x="569.344" d="M501.897216 879.2786944C513.6752640000001 850.8352512 519.74144 820.3503616 519.74144 789.563392V575.0333439999999H528.5867519999999C550.57408 575.0333439999999 568.397824 557.2095999999999 568.397824 535.222272V39.8090239999999C568.397824 17.8237439999999 550.57408 0 528.5867519999999 0H39.8098432C17.82358016 0 0 17.8237439999999 0 39.8090239999999V535.222272C0 557.2095999999999 17.82358016 575.0333439999999 39.8098432 575.0333439999999H50.868224V789.563392C50.868224 820.3503616 56.9329664 850.8352512 68.7126528 879.2786944C80.494592 907.7219328 97.7645568 933.5658496 119.533568 955.3352704C141.3023744 977.1046912 167.1469056 994.3730176 195.5897344 1006.15442432C224.032768 1017.9362816 254.519296 1024 285.304832 1024C316.090368 1024 346.5768960000001 1017.9362816 375.01952 1006.15442432C403.462144 994.3730176 429.3058560000001 977.1046912 451.076096 955.3352704C472.844288 933.5658496 490.115072 907.7219328 501.897216 879.2786944zM117.2180992 789.563392V575.0333439999999H453.390336V789.563392H453.666816C453.666816 811.6736 449.312768 833.5669248 440.85248 853.9940864C432.390144 874.4206336 419.989504 892.9810431999999 404.35712 908.6150656C388.72064 924.2488832 370.161664 936.650752 349.734912 945.1118592C329.3061120000001 953.5729664 307.41504 957.9276288 285.304832 957.9276288C263.1946240000001 957.9276288 241.301504 953.5729664 220.874752 945.1118592C200.4471808 936.650752 181.8875904 924.2488832 166.2527488 908.6150656C150.6199552 892.9810431999999 138.2180864 874.4206336 129.7559552 853.993472C121.295872 833.5669248 116.9416192 811.6736 116.9416192 789.563392H117.2180992zM362.713088 418.0049919999999H207.896576V373.77024H256.55296V196.8373760000001H207.896576V152.6046720000001H362.713088V196.8373760000001H311.8448640000001V373.77024H362.713088V418.0049919999999z" />
    <glyph glyph-name="Normal-Function"
      unicode="&#x4F;"
      horiz-adv-x="1024" d="M111.587999744 532.48C49.959378944 532.48 0 482.529765376 0 420.912001024C0 359.294232576 49.959378944 309.34401024 111.587999744 309.34401024C173.216825344 309.34401024 223.17600768 359.294234624 223.17600768 420.912001024C223.17600768 482.529765376 173.216825344 532.48 111.587999744 532.48zM396.7320064000001 488.395999232C344.96038912 488.781643776 297.80207616 482.904754176 274.29199872 464.099999744C205.89903872 409.395257344 239.01599744 325.17599232 239.01599744 325.17599232L411.09999616 325.17599232L411.08000768 324.98399232L586.4079974399999 324.98399232L942.29200896 326.2920089600001L995.136 318.32399872C995.136 318.32399872 1015.78553344 424.6186045440001 1022.88799744 462.403999744C1029.99046144 500.189599744 1001.41430784 492.396429312 984.42000384 467.000000512C976.32016384 454.893043712 958.96922112 426.186528768 945.77600512 397.748000768L611.2399974399999 463.920001024L611.21599488 464.099999744C611.21599488 464.099999744 495.56873216 487.659769856 396.7320064000001 488.395999232zM0 268.77200384L0 228.19999744L235.30799104 228.19999744L235.30799104 268.77200384L0 268.77200384zM275.87999744 268.77200384L275.87999744 228.19999744L1024 228.19999744L1024 268.77200384L275.87999744 268.77200384zM451.14400768 187.63200512L451.14400768 41.57599744L357.83200768 41.57599744L357.83200768 1.00399104L690.50800128 1.00399104L690.50800128 41.57599744L597.1999948800001 41.57599744L597.1999948800001 187.63200512L451.14400768 187.63200512z" />
    <glyph glyph-name="Onoff"
      unicode="&#x50;"
      horiz-adv-x="1024" d="M393.5375360000001 279.973888C393.5375360000001 171.3008640000001 305.440768 83.2040960000001 196.7685632 83.2040960000001C88.0963584 83.2040960000001 0 171.3008640000001 0 279.973888C0 388.6456832 88.0963584 476.7420416000001 196.7685632 476.7420416000001C305.440768 476.7420416000001 393.5375360000001 388.6456832 393.5375360000001 279.973888zM59.8884352 279.973888C59.8884352 204.3760640000001 121.1717632 143.09376 196.7685632 143.09376C272.3655680000001 143.09376 333.647872 204.3760640000001 333.647872 279.973888C333.647872 355.5702784 272.3655680000001 416.8536064 196.7685632 416.8536064C121.1717632 416.8536064 59.8884352 355.5702784 59.8884352 279.973888zM1024 279.973888C1024 171.3008640000001 935.903232 83.2040960000001 827.2322560000001 83.2040960000001C718.559232 83.2040960000001 630.4624640000001 171.3008640000001 630.4624640000001 279.973888C630.4624640000001 388.6456832 718.559232 476.7420416000001 827.2322560000001 476.7420416000001C935.903232 476.7420416000001 1024 388.6456832 1024 279.973888zM690.352128 279.973888C690.352128 204.3760640000001 751.6344320000001 143.09376 827.2322560000001 143.09376C902.828032 143.09376 964.112384 204.3760640000001 964.112384 279.973888C964.112384 355.5702784 902.828032 416.8536064 827.2322560000001 416.8536064C751.6344320000001 416.8536064 690.352128 355.5702784 690.352128 279.973888zM168.65792 279.973888A28.109824 28.109824 0 0 1 224.877568 279.973888A28.109824 28.109824 0 0 1 168.65792 279.973888M799.122432 528.946176A28.109824 28.109824 0 0 1 855.3420800000001 528.946176A28.109824 28.109824 0 0 1 799.122432 528.946176M643.8031360000001 557.056L687.2917630267834 531.9883953492345L381.6076769375402 1.6712233193094L338.1190499107569 26.7388279700751L643.8031360000001 557.056z" />
    <glyph glyph-name="Pip-Notext"
      unicode="&#x51;"
      horiz-adv-x="1024" d="M0.3560448 384V767.4659288576H512H1023.6439552V384V0.5340672H512H0.3560448zM512.804608 225.1126528L513.0751488000001 384H735.7844736000001H958.4937984L958.2232576000002 542.88734976L957.9527168 701.77469184L512.2670336 702.0429977599999L66.58135808 702.31130368V383.9987456V65.6861951999999L289.5577088 65.9557631999999L512.5340672 66.2253056zM958.224128 192L958.4955648 317.7746944H768.3604224H578.2253056V192.445056C578.2253056 123.5137536000001 578.547072 66.7936768000001 578.9403392 66.400384C579.333632 66.0071168000001 664.7722752 65.8068480000001 768.8040448 65.955328L957.9527168 66.2253056z" />
    <glyph glyph-name="PIP"
      unicode="&#x52;"
      horiz-adv-x="1024" d="M0.3550000128 767.4649999872L0.3550000128 384L0.3550000128 0.5349888L512 0.5349888L1023.6450048 0.5349888L1023.6450048 384L1023.6450048 767.4649999872L512 767.4649999872L0.3550000128 767.4649999872zM66.57999872 702.31000064L512.2650112 702.04499968L957.9549952 701.77499904L958.2249984 542.88499968L958.4950016 384L735.7850112 384L513.0749952 384L512.804992 225.115008L512.5349888 66.2249984L289.5600128000001 65.9549952L66.57999872 65.6849920000001L66.57999872 384L66.57999872 702.31000064zM310.32 521.90000128L214.92 486.08L214.92 455.84L282.0600064 480.4999936L282.0600064 258.56L315.5399936 258.56L315.5399936 521.90000128L310.32 521.90000128zM578.2249984 317.7750016L768.3599872000001 317.7750016L958.4950016 317.7750016L958.2249984 192L957.9549952 66.2249984L768.8049920000001 65.9549952C664.7732224 65.8065152 579.3332991999999 66.0067328 578.9400064 66.4C578.5467392 66.7932928 578.2249984 123.5137024 578.2249984 192.4450048L578.2249984 317.7750016zM765.4500096 260.8399872C752.4298496 260.8400128 742.0203264 257.12192 734.2200064 249.68C726.4785664 242.24064 722.6099968 232.4901632 722.6099968 220.4300032L739.2600064 220.4300032C739.2600064 228.8319232 741.5406336 235.3677568 746.0999936000001 240.0499968000001C750.7207936000001 244.7885568000001 757.1709695999999 247.1599872000001 765.4500096 247.1600128C772.3492096 247.1600128 777.8679296 244.9701632 782.0100096000001 240.5900032C786.1495295999999 236.2124032 788.2200064 230.60032 788.2200064 223.76C788.2200064 218.66048 786.9304832 213.7100032 784.3500032000001 208.9100032C781.8284032 204.1714432 777.2100096 197.9911168 770.4900096000001 190.3699968L725.1300096000001 139.9699968L725.1300096000001 128L810.9900032 128L810.9900032 141.5899904L745.2 141.5899904L780.3000064 179.6600063999999C796.7403264000001 197.4801664 804.96 212.8401664000001 804.96 225.7400064C804.96 236.3588864 801.4209536000001 244.8509696 794.3399936000001 251.2100095999999C787.2590336 257.6304896 777.6304896 260.8400128 765.4500096 260.8399872z" />
    <glyph glyph-name="Quad-1-Notext"
      unicode="&#x53;"
      horiz-adv-x="1024" d="M0.3350000128 767.5L0.3350000128 384L0.3350000128 0.4999936L512 0.4999936L1023.6649984 0.4999936L1023.6649984 384L1023.6649984 767.5L512 767.5L0.3350000128 767.5zM66.41999872 701.41499904L272.6899968 701.41499904L478.955008 701.41499904L478.955008 559.23000064L478.955008 417.044992L272.6899968 417.044992L66.41999872 417.044992L66.41999872 559.23000064L66.41999872 701.41499904zM545.044992 701.41499904L751.8099967999999 701.41499904L958.5799936 701.41499904L958.5799936 559.23000064L958.5799936 417.044992L751.8099967999999 417.044992L545.044992 417.044992L545.044992 559.23000064L545.044992 701.41499904zM66.41999872 350.955008L272.6899968 350.955008L478.955008 350.955008L478.955008 208.7699968L478.955008 66.5850111999999L272.6899968 66.5850111999999L66.41999872 66.5850111999999L66.41999872 208.7699968L66.41999872 350.955008zM545.044992 350.955008L751.8099967999999 350.955008L958.5799936 350.955008L958.5799936 208.7699968L958.5799936 66.5850111999999L751.8099967999999 66.5850111999999L545.044992 66.5850111999999L545.044992 208.7699968L545.044992 350.955008z" />
    <glyph glyph-name="Quad-1"
      unicode="&#x54;"
      horiz-adv-x="1024" d="M0.3549976064 767.465008384V384V0.5349888H512H1023.6450048V384V767.465008384H512zM66.57999616 702.315008L272.9999872 702.04500736L479.4200064 701.77500672L479.6900096 559.44500736L479.9650048 417.115008H273.2699904H66.57999616V559.715008zM545.6450048 701.77500672H751.8000128H957.9549952L958.2249984 559.44500736L958.4950016000003 417.115008H751.8000128000001H545.1049984000001L545.3750016000001 559.44500736zM750.0900096 626.92000768C737.0698496 626.92000768 726.6603264 623.20013568 718.8600064 615.76000768C711.1185664 608.32013568 707.2499968 598.56991232 707.2499968 586.51000832H723.9000064C723.9000064 594.90988032 726.1806336 601.45007104 730.7399936 606.13000704C735.3607936000001 610.87010304 741.8109696 613.24000768 750.0900096 613.24000768C756.9892096000001 613.24000768 762.5079296000001 611.04991232 766.6500096000001 606.67000832C770.7895296000002 602.2898483199999 772.8600064 596.68007168 772.8600064 589.84000768C772.8600064 584.74023168 771.5704832 579.79000832 768.9900031999999 574.99000832C766.4684031999999 570.24991232 761.8500095999999 564.06984704 755.1300095999999 556.45000704L709.7700096000001 506.0499968V494.08H795.6300032V507.6699904H729.84L764.9400064 545.74000896C781.3803264000001 563.55991296 789.6 578.9199129599999 789.6 591.82000896C789.6 602.4399129599999 786.0609536000001 610.92994304 778.9799936000001 617.29000704C771.8990335999999 623.70997504 762.2704896 626.92000768 750.0900096 626.92000768zM283.1600128000001 625.75000832L235.4599961600001 607.84000768V592.72000768L269.0299904 605.05000704V494.08H285.7700096V625.75000832zM66.57999616 350.884992H273.2699904000001H479.9650048L479.6900096000001 208.5550079999999L479.4200064000001 66.2249983999999L272.9999872000001 65.9549951999999L66.5799961600001 65.6849919999997V208.2850047999997zM545.115008 350.884992H751.8050048H958.4950016L958.2249983999998 208.5550079999999L957.9549951999998 66.2249983999999L752.2449919999999 65.9549951999999C639.1071487999999 65.8065151999998 546.2181631999999 66.0069631999999 545.8249983999999 66.3999999999999C545.4318591999998 66.7931391999998 545.1150079999999 130.9627391999999 545.1150079999999 208.9999871999999zM270.1100032000001 276.1999872C258.4082432 276.2000128 248.7500928000001 272.7492096 241.1299968 265.8500096C233.5700608 259.0096896 229.78999808 250.3982335999999 229.78999808 240.0199935999999H246.43999744C246.43999744 246.7988736 248.57015808 252.2293504 252.82999808 256.3099904C257.1494912 260.4495103999999 262.9087232000001 262.5199872 270.1100032 262.5200128C285.4085632 262.5200128 293.0599936 254.8400128 293.0599936 239.4800128C293.0599936 232.6396927999999 290.8104704 227.2091903999999 286.3099904 223.1899904C281.8095104 219.1682304 275.6292096 217.1003135999999 267.7700096 216.9799936H255.25999872V203.3900031999999H267.7700096C276.5892096 203.2696831999999 283.3403136 201.1706367999999 288.0199936 197.0899967999999C292.6996736 193.0119168 295.04 187.1585535999999 295.04 179.5399935999999C295.04 171.6782335999999 292.9098496 165.6509696 288.6500096 161.4500095999999C284.3901696 157.2516096000001 278.2409728 155.1500032 270.2000128 155.1500032C262.6403072 155.1500032 256.6092032 157.2204800000001 252.10999808 161.36C247.61003008 165.49952 245.35999744 171.0208 245.35999744 177.92H228.61999872C228.61999872 166.99904 232.45999872 158.2111232 240.13999872 151.5500032C247.87990016 144.8914432 257.8992128 141.5600128 270.2000128 141.5600128C282.5007872 141.5600128 292.4900096 145.0107903999999 300.1700096 151.9099904C307.8500096 158.8091903999999 311.6900096 168.1419263999999 311.6900096 179.9000064C311.6900096 187.5211264 309.7077504 193.9712768 305.7499904 199.2499968C301.8485504 204.5312768 296.2987264 208.3090432 289.1000064 210.5900032C295.4590464 213.2293632 300.4691968 217.21984 304.1299968 222.56C307.8496768 227.8976 309.7100032 233.42144 309.7100032 239.12C309.7100032 250.76032 306.1995264 259.8491904 299.1800064 266.3899904C292.1604864 272.9282304 282.4696832 276.1999872 270.1100032 276.1999872zM762.3300096 274.3999999999999L703.6499968 183.5899903999999V173.7799935999999H763.3200128000001V143.36H780.0600064000001V173.7799936H798.2400000000001V187.3700096H780.0600064000001V274.4zM763.3200128000001 251.6300031999999V187.3700095999999H722.5499904000001L761.3400064000001 248.0300031999999z" />
    <glyph glyph-name="Quad-2-Notext"
      unicode="&#x55;"
      horiz-adv-x="1024" d="M0.35604096 384.0000256V767.465941248H512H1023.6439552V384.0000256V0.5340672H512H0.35604096zM619.8831616 384.0000256V702.30877952H343.232256H66.58135552V384.0000256V65.6912384H343.232256H619.8831616zM958.2262528000002 149.8081024000001L958.4998144000002 233.390848H822.3041280000001H686.1084672000001V149.5369728000001V65.6831232000001L822.0305920000001 65.9542272000001L957.9527168 66.2253312000003zM958.486784 384.0000256000001V468.3838976000001H822.2976256000001H686.1084672000001V384.0000256000001V299.6161536000001H822.2976256000001H958.486784zM958.2262528 618.19195136L957.9527168 701.77470464L822.0305920000001 702.04581888L686.1084672000001 702.31693312V618.46306816V534.6091980799999H822.3041280000001H958.4998144000002z" />
    <glyph glyph-name="Quad-2"
      unicode="&#x56;"
      horiz-adv-x="1024" d="M0.3550000128 767.4649999872L0.3550000128 384L0.3550000128 0.5349888L512 0.5349888L1023.6450048 0.5349888L1023.6450048 384L1023.6450048 767.4649999872L512 767.4649999872L0.3550000128 767.4649999872zM686.1100032 702.31500032L822.0300032000001 702.04499968L957.9549952 701.77499904L958.2249984 618.19000064L958.4999936 534.60999936L822.3049984 534.60999936L686.1100032 534.60999936L686.1100032 618.46500096L686.1100032 702.31500032zM66.57999872 702.31000064L343.2300032 702.31000064L619.8850048 702.31000064L619.8850048 384L619.8850048 65.6900096000001L343.2300032 65.6900096000001L66.57999872 65.6900096000001L66.57999872 384L66.57999872 702.31000064zM819.2100096 685.8C806.1898496 685.8 795.7803264 682.0801280000001 787.9800064 674.64C780.2385664 667.200128 776.3699968 657.44990464 776.3699968 645.39000064L793.0200064 645.39000064C793.0200064 653.78987264 795.3006336 660.3300633599999 799.8599936 665.0099993599999C804.4807936000001 669.7500953599999 810.9309696 672.12 819.2100096 672.12C826.1092096000001 672.12 831.6279296000001 669.92990464 835.7700096000001 665.55000064C839.9095295999999 661.16984064 841.9800064 655.560064 841.9800064 648.72C841.9800064 643.620224 840.6904832 638.67000064 838.1100032 633.87000064C835.5884032 629.12990464 830.9700096 622.9498393599999 824.2500096000001 615.32999936L778.8900096000001 564.92999936L778.8900096000001 552.96L864.7500032 552.96L864.7500032 566.55000064L798.96 566.55000064L834.0600064 604.62000128C850.5003264000001 622.43990528 858.72 637.79990528 858.72 650.70000128C858.72 661.3199052800001 855.1809536000001 669.80993536 848.0999936000001 676.16999936C841.0190336 682.58996736 831.3904896 685.8 819.2100096 685.8zM364.08 521.90000128L268.6799872000001 486.08L268.6799872000001 455.84L335.8200064 480.4999936L335.8200064 258.56L369.2999936000001 258.56L369.2999936000001 521.90000128L364.08 521.90000128zM686.1100032 468.3849984L822.3000064 468.3849984L958.484992 468.3849984L958.484992 384L958.484992 299.6150016000001L822.3000064 299.6150016000001L686.1100032 299.6150016000001L686.1100032 384L686.1100032 468.3849984zM817.9500032000001 452.8399872C806.2482432 452.8400128 796.5911296 449.3892096 788.9700096 442.4900096C781.4103296 435.6496896 777.6300032 427.0382336 777.6300032 416.6599936L794.2799872 416.6599936C794.2800128 423.4388736 796.4101631999999 428.8693504 800.6700032000001 432.9499904C804.9887232 437.0895104 810.7487232 439.1600128 817.9500032000001 439.1600128C833.2485632 439.1600128 840.8999936 431.4800128 840.8999936 416.1200128C840.8999936 409.2796928 838.6504704 403.8491904 834.1499904 399.8299904000001C829.6495104 395.8082304 823.4692096 393.7403136 815.6100096 393.6199936L803.1000064 393.6199936L803.1000064 380.0300032L815.6100096 380.0300032C824.4292096 379.9096832 831.1803136 377.8106368 835.8599936 373.7299968C840.5396736 369.6519168000001 842.88 363.7985536 842.88 356.1799936C842.88 348.3182336 840.7498496000001 342.2909696000001 836.4900096000001 338.0900096C832.2301696 333.8916096 826.0809472 331.7900032 818.0400128 331.7900032C810.4803072 331.7900032 804.4504832 333.86048 799.9500032000001 338C795.4520832000001 342.13952 793.2 347.6608 793.2 354.56L776.4600064 354.56C776.4600064 343.63904 780.3000064 334.8511232 787.9800064 328.1900032C795.7188864000001 321.5314432 805.7391872000001 318.2000128 818.0400128 318.2000128C830.3407872 318.2000128 840.3300096 321.6507904 848.0100096000001 328.5499904C855.6900096 335.4491904 859.5300096000001 344.7819264 859.5300096000001 356.5400064C859.5300096000001 364.1611264 857.5477503999999 370.6112768 853.5899903999999 375.8899968C849.6885503999999 381.1712768 844.1387264 384.9490432 836.9400064 387.2300032C843.2990464 389.8693632 848.3091968000001 393.85984 851.9699968 399.2C855.6896768 404.5376 857.5500032000001 410.06144 857.5500032000001 415.76C857.5500032000001 427.40032 854.0395264 436.4891904 847.0200064 443.0299904C840.0004864 449.5682304 830.3096832 452.8399872 817.9500032000001 452.8399872zM686.1100032 233.3900032L822.3049984 233.3900032L958.4999936 233.3900032L958.2249984 149.8099968L957.9549952 66.2249984L822.0300032000001 65.9549952L686.1100032 65.6849920000001L686.1100032 149.5350016L686.1100032 233.3900032zM831.4500096 215.52L772.7699968 124.7099904000001L772.7699968 114.8999936L832.4400128 114.8999936L832.4400128 84.48L849.1800064 84.48L849.1800064 114.8999936L867.36 114.8999936L867.36 128.4900096L849.1800064 128.4900096L849.1800064 215.52L831.4500096 215.52zM832.4400128 192.7500031999999L832.4400128 128.4900096L791.6699904 128.4900096L830.4600064 189.1500032L832.4400128 192.7500031999999z" />
    <glyph glyph-name="Reflex"
      unicode="&#x57;"
      horiz-adv-x="1024" d="M119.875999744 663.552C53.669279744 663.552 0 609.882515456 0 543.6760002560001C0 477.469280256 53.669279744 423.7959987200001 119.875999744 423.7959987200001C186.082924544 423.7959987200001 239.75600128 477.469280256 239.75600128 543.6760002560001C239.75600128 609.882515456 186.082924544 663.552 119.875999744 663.552zM939.30399744 510.595999744C928.03008512 510.182144 918.42271232 491.340576768 917.81599232 468.404000768C917.35519232 450.90977792 918.14262784 410.6196172800001 922.98000384 373.2600012800001L485.01600256 147.9719936C445.50363136 212.0766464 401.6358400000001 282.8866150400001 384.34799616 309.1519897600001C328.45807616 394.0682137600001 308.22610944 390.2680064000001 252.07199744 390.2680064000001C203.404146688 384.0277504000001 164.272001024 347.8400000000001 164.272001024 347.8400000000001L414.03199488 89.7679974399999L414.23998976 89.70000384L499.21200128 0.36399104L651.0599987200001 98.7000012799999L965.2519936000002 298.3640064000001L1024 324.06800384C1024 324.06800384 976.8226816 445.37593856 959.8119936 488.344000512C953.4329856 504.4572549120001 946.06835712 510.8443136 939.30399744 510.595999744z" />
    <glyph glyph-name="Rev-trend"
      unicode="&#x58;"
      horiz-adv-x="1024" d="M224.137216 369.869824C202.69056 309.788672 136.6437888 278.4849920000001 76.616704 299.95008C16.58984448 321.4155776 -14.68612608 387.5217408 6.759936 447.6024832C28.20608 507.68328704 94.2528512 538.9873152 154.279936 517.52200192C214.306816 496.0567296 245.581824 429.9505664 224.137216 369.869824zM617.12384 276.826112C617.12384 276.826112 374.60992 423.6957696 288.9543680000001 394.1769216C203.2992256 364.6580736 206.24384 271.007744 206.24384 271.007744L373.854208 211.070976L373.768192 210.886656L544.5386239999999 149.819392L891.629568 27.142144L940.324864 0.9666560000001C940.324864 0.9666560000001 997.435392 97.419264 1017.505792 131.7888C1037.574144 166.158336 1007.026176 168.5135360000001 981.635072 149.669888C969.531392 140.685312 942.641152 118.738944 919.894016 95.604736L617.08288 276.641792L617.12384 276.826112z" />
    <glyph glyph-name="Reverse-Function"
      unicode="&#x59;"
      horiz-adv-x="1024" d="M912.41199616 532.48C850.78358016 532.48 800.82399232 482.529765376 800.82399232 420.912001024C800.82399232 359.294234624 850.78358016 309.34401024 912.41199616 309.34401024C974.04041216 309.34401024 1024 359.294232576 1024 420.912001024C1024 482.529765376 974.04041216 532.48 912.41199616 532.48zM11.312 488.395999232C2.93103104 488.795615232 -2.4393549824 481.296799744 1.112 462.403999744C8.2147506176 424.6186045440001 28.864 318.32399872 28.864 318.32399872L81.707999232 326.2920089600001L437.5920025600001 324.98399232L612.91999232 324.98399232L612.9000038400001 325.17599232L784.98400256 325.17599232C784.98400256 325.17599232 818.1009612800001 409.395257344 749.70800128 464.099999744C681.3150412800001 518.8047423488 412.78400512 464.099999744 412.78400512 464.099999744L412.76000256 463.920001024L78.223998976 397.748000768C65.031809024 426.186528768 47.680864256 454.893043712 39.580000256 467.000000512C31.083360256 479.698214912 19.69296896 487.996383232 11.312 488.395999232zM0 268.77200384L0 228.19999744L748.1200025600001 228.19999744L748.1200025600001 268.77200384L0 268.77200384zM788.6920089600001 268.77200384L788.6920089600001 228.19999744L1024 228.19999744L1024 268.77200384L788.6920089600001 268.77200384zM451.14400768 187.63200512L451.14400768 41.57599744L357.83200768 41.57599744L357.83200768 1.00399104L690.50800128 1.00399104L690.50800128 41.57599744L597.1999948800001 41.57599744L597.1999948800001 187.63200512L451.14400768 187.63200512z" />
    <glyph glyph-name="Single-1"
      unicode="&#x5A;"
      horiz-adv-x="1024" d="M507.3408 256H540.8204800000001V519.340032H535.60064L440.19968 483.52V453.27872L507.3408 477.9392V256zM0.35604864 384V767.4659318528H512H1023.6439552V384V0.5340672H512H0.35604864zM957.9527168 384V701.77469184L512.2670336 702.0429977599999L66.58136064 702.31130368V384V65.688704L512.2670336 65.956992L957.9527168 66.2253056z" />
    <glyph glyph-name="Single-2"
      unicode="&#x5B;"
      horiz-adv-x="1024" d="M0.3550000128 767.4649999872L0.3550000128 384L0.3550000128 0.5349888L512 0.5349888L1023.6450048 0.5349888L1023.6450048 384L1023.6450048 767.4649999872L512 767.4649999872L0.3550000128 767.4649999872zM66.57999872 702.31000064L512.2650112 702.04499968L957.9549952 701.77499904L957.9549952 384L957.9549952 66.2249984L512.2650112 65.9549952L66.57999872 65.6900096000001L66.57999872 384L66.57999872 702.31000064zM512.0199936 521.6800000000001C485.9796736 521.6800000000001 465.1606528 514.24128 449.5600128 499.36C434.0796928 484.48128 426.3399936 464.9803264 426.3399936 440.8600064L459.6400128 440.8600064C459.6400128 457.6587264 464.1987072 470.7406336 473.3199872 480.0999936C482.5590528 489.5796736 495.4593536 494.32 512.0199936 494.32C525.8183936 494.32 536.8609536 489.9403264 545.1399936 481.1800064C553.4215935999999 472.4196864 557.5600128 461.20064 557.5600128 447.52C557.5600128 437.32096 554.9809664 427.4200064 549.8200064 417.8200064C544.7819264 408.3403264 535.5399936 395.9796736 522.0999936000001 380.7399936L431.3799936000001 279.9399936L431.3799936000001 256L603.1000064 256L603.1000064 283.1800064L471.52 283.1800064L541.7200128 359.3200128C574.6006272000001 394.9603072000001 591.04 425.6803072 591.04 451.4800128C591.04 472.7203328 583.9593728 489.6993536 569.7999872 502.4199936C555.6406272 515.25942272 536.3783936 521.6800000000001 512.0199936 521.6800000000001z" />
    <glyph glyph-name="Single-3"
      unicode="&#x5C;"
      horiz-adv-x="1024" d="M0.3550000128 767.4649999872L0.3550000128 384L0.3550000128 0.5349888L512 0.5349888L1023.6450048 0.5349888L1023.6450048 384L1023.6450048 767.4649999872L512 767.4649999872L0.3550000128 767.4649999872zM66.57999872 702.31000064L512.2650112 702.04499968L957.9549952 701.77499904L957.9549952 384L957.9549952 66.2249984L512.2650112 65.9549952L66.57999872 65.6900096000001L66.57999872 384L66.57999872 702.31000064zM509.5000064 521.6800000000001C486.1016064 521.6800000000001 466.7796736 514.78070528 451.5399936 500.9799936C436.4206336000001 487.3019136 428.8600064 470.0790272 428.8600064 449.3199872L462.16 449.3199872C462.16 462.8777472 466.4203264 473.7412864 474.9400064 481.9000064C483.5800064 490.1816064 495.1000064 494.32 509.5000064 494.32C540.1022464 494.32 555.3999872 478.96 555.3999872 448.24C555.3999872 434.5593600000001 550.8984064 423.7009664000001 541.9000063999999 415.6600064C532.8990464 407.6216064 520.5409536 403.4780928 504.8199936 403.2399872000001L479.8000128 403.2399872000001L479.8000128 376.0600064L504.8199936 376.0600064C522.4609536 375.8219264 535.9580928 371.6187136 545.3199872 363.4599936C554.6793728 355.2987136 559.36 343.5996672 559.36 328.3599872000001C559.36 312.6390528 555.0996736000001 300.5793536000001 546.5799936000001 292.1799936C538.0603136 283.7806336 525.75936 279.5800064 509.68 279.5800064C494.56064 279.5800064 482.5009664 283.72096 473.5000064 292C464.4990464 300.2816000000001 460 311.3190400000001 460 325.12L426.5200128 325.12C426.5200128 303.28064 434.2000128 285.7022464 449.5600128 272.3800064C465.0403072 259.0603264 485.0784 252.4 509.68 252.4C534.27904 252.4 554.2599936 259.2990464 569.6199936 273.1000064C584.9799936000001 286.8984064 592.6599936 305.5587072 592.6599936 329.0800128C592.6599936 344.3196928 588.7006464 357.2199936 580.7800064 367.7799936C572.9796864 378.3399936 561.8800128 385.9006464 547.4800127999999 390.4600064C560.2006272 395.7412864000001 570.2183936 403.71968 577.5399936 414.4C584.9793536000001 425.08032 588.7000064 436.12032 588.7000064 447.52C588.7000064 470.80064 581.6816128 488.9809664 567.6400128 502.0600064C553.6009472000001 515.14057728 534.2219264 521.6800000000001 509.5000064 521.6800000000001z" />
    <glyph glyph-name="Single-4"
      unicode="&#x5D;"
      horiz-adv-x="1024" d="M0.3350000128 767.5L0.3350000128 384L0.3350000128 0.4999936L512 0.4999936L1023.6649984 0.4999936L1023.6649984 384L1023.6649984 767.5L512 767.5L0.3350000128 767.5zM66.41999872 701.41499904L512.4999936 701.41499904L958.5799936 701.41499904L958.5799936 384L958.5799936 66.5850111999999L512.4999936 66.5850111999999L66.41999872 66.5850111999999L66.41999872 384L66.41999872 701.41499904zM536.4999936 518.0799999999999L419.1399936000001 336.4600064L419.1399936000001 316.8399872L538.48 316.8399872L538.48 256L571.9600128 256L571.9600128 316.8399872L608.32 316.8399872L608.32 344.0199936L571.9600128 344.0199936L571.9600128 518.0799999999999L536.4999936 518.0799999999999zM538.48 472.5400064L538.48 344.0199936L456.9400064 344.0199936L534.5200128 465.3400064L538.48 472.5400064z" />
    <glyph glyph-name="Slide-Foot"
      unicode="&#x5E;"
      horiz-adv-x="1024" d="M921.35600128 534.528L921.35600128 493.027999744L818.7120025600001 493.027999744L818.7120025600001 457.564000256L921.35600128 457.564000256L921.35600128 416.064L1024 475.296L921.35600128 534.528zM111.587999744 360.888000512C49.959378944 360.888000512 0 310.93417984 0 249.31600384C0 187.69782784 49.959378944 137.74800896 111.587999744 137.74800896C173.216825344 137.74800896 223.17600768 187.69782784 223.17600768 249.31600384C223.17600768 310.93417984 173.216825344 360.888000512 111.587999744 360.888000512zM396.7320064000001 316.8C344.96038912 317.1856384 297.80207616 311.30861568 274.29199872 292.50400256C205.89903872 237.7978265600001 239.01599744 153.58400512 239.01599744 153.58400512L411.09999616 153.58400512L411.08000768 153.38799104L586.4079974399999 153.38799104L942.29200896 154.69600768L995.136 146.72799744C995.136 146.72799744 1015.78553344 253.02444032 1022.88799744 290.8079923200001C1029.99046144 328.59359232 1001.41430784 320.8032051200001 984.42000384 295.40800512C976.32016384 283.3002291200001 958.96922112 254.59451904 945.77600512 226.15599104L611.2399974399999 292.3240038400001L611.21599488 292.50400256C611.21599488 292.50400256 495.56873216 316.06378496 396.7320064000001 316.8zM93.312 82.5720012800001L93.312 42.00400896C62.6137088 41.86884096 0.973692928 41.67837696 0 42.00400896L0 1.4320025600001L332.68000768 1.4320025600001L332.68000768 42.00400896L239.36800768 42.00400896L239.36800768 82.5720012800001L93.312 82.5720012800001z" />
    <glyph glyph-name="Slide-Head"
      unicode="&#x5F;"
      horiz-adv-x="1024" d="M102.644000768 534.528L0 475.296L102.644000768 416.064L102.644000768 457.564000256L205.28799744 457.564000256L205.28799744 493.027999744L102.644000768 493.027999744L102.644000768 534.528zM111.587999744 360.888000512C49.959378944 360.888000512 0 310.93417984 0 249.31600384C0 187.69782784 49.959378944 137.74800896 111.587999744 137.74800896C173.216825344 137.74800896 223.17600768 187.69782784 223.17600768 249.31600384C223.17600768 310.93417984 173.216825344 360.888000512 111.587999744 360.888000512zM396.7320064000001 316.8C344.96038912 317.1856384 297.80207616 311.30861568 274.29199872 292.50400256C205.89903872 237.7978265600001 239.01599744 153.58400512 239.01599744 153.58400512L411.09999616 153.58400512L411.08000768 153.38799104L586.4079974399999 153.38799104L942.29200896 154.69600768L995.136 146.72799744C995.136 146.72799744 1015.78553344 253.02444032 1022.88799744 290.8079923200001C1029.99046144 328.59359232 1001.41430784 320.8032051200001 984.42000384 295.40800512C976.32016384 283.3002291200001 958.96922112 254.59451904 945.77600512 226.15599104L611.2399974399999 292.3240038400001L611.21599488 292.50400256C611.21599488 292.50400256 495.56873216 316.06378496 396.7320064000001 316.8zM784.63199232 82.5720012800001L784.63199232 42.00400896C753.93452032 41.86884096 692.2948403199999 41.67837696 691.31999232 42.00400896L691.31999232 1.4320025600001L1024 1.4320025600001L1024 42.00400896L930.688 42.00400896L930.688 82.5720012800001L784.63199232 82.5720012800001z" />
    <glyph glyph-name="Table-Down"
      unicode="&#x60;"
      horiz-adv-x="1024" d="M111.587999744 346.112C49.959378944 346.112 0 296.161765376 0 234.544001024C0 172.926232576 49.959378944 122.97601024 111.587999744 122.97601024C173.216825344 122.97601024 223.17600768 172.926234624 223.17600768 234.544001024C223.17600768 296.161765376 173.216825344 346.112 111.587999744 346.112zM396.7320064000001 302.027999232C344.96038912 302.413643776 297.80207616 296.5367541760001 274.29199872 277.731999744C205.89903872 223.027257344 239.01599744 138.80799232 239.01599744 138.80799232L411.09999616 138.80799232L411.08000768 138.61599232L586.4079974399999 138.61599232L942.29200896 139.92400896L995.136 131.95599872C995.136 131.95599872 1015.78553344 238.2506045440001 1022.88799744 276.0359997440001C1029.99046144 313.8215997440001 1001.41430784 306.028429312 984.42000384 280.632000512C976.32016384 268.525043712 958.96922112 239.818528768 945.77600512 211.380000768L611.2399974399999 277.552001024L611.21599488 277.731999744C611.21599488 277.731999744 495.56873216 301.2917698560001 396.7320064000001 302.027999232zM438.9720064 82.40400384L438.9720064 41.83199744C408.2745344 41.69682944 346.6328064 41.50841344 345.6600064000001 41.83199744L345.6600064000001 1.25999104L678.3399936000001 1.25999104L678.3399936000001 41.83199744L585.0279936000001 41.83199744L585.0279936000001 82.40400384L438.9720064 82.40400384z" />
    <glyph glyph-name="Table-UP"
      unicode="&#x61;"
      horiz-adv-x="1024" d="M111.587999744 532.48C49.959378944 532.48 0 482.529765376 0 420.912001024C0 359.294232576 49.959378944 309.34401024 111.587999744 309.34401024C173.216825344 309.34401024 223.17600768 359.294234624 223.17600768 420.912001024C223.17600768 482.529765376 173.216825344 532.48 111.587999744 532.48zM396.7320064000001 488.395999232C344.96038912 488.781643776 297.80207616 482.904754176 274.29199872 464.099999744C205.89903872 409.395257344 239.01599744 325.17599232 239.01599744 325.17599232L411.09999616 325.17599232L411.08000768 324.98399232L586.4079974399999 324.98399232L942.29200896 326.2920089600001L995.136 318.32399872C995.136 318.32399872 1015.78553344 424.6186045440001 1022.88799744 462.403999744C1029.99046144 500.189599744 1001.41430784 492.396429312 984.42000384 467.000000512C976.32016384 454.893043712 958.96922112 426.186528768 945.77600512 397.748000768L611.2399974399999 463.920001024L611.21599488 464.099999744C611.21599488 464.099999744 495.56873216 487.659769856 396.7320064000001 488.395999232zM438.9720064 268.77200384L438.9720064 122.72001024L585.0279936000001 122.72001024L585.0279936000001 268.77200384L438.9720064 268.77200384zM438.9720064 82.14800384L438.9720064 41.57599744C408.2745344 41.44082944 346.6328064 41.25241344 345.6600064000001 41.57599744L345.6600064000001 1.00399104L678.3399936000001 1.00399104L678.3399936000001 41.57599744L585.0279936000001 41.57599744L585.0279936000001 82.14800384L438.9720064 82.14800384z" />
    <glyph glyph-name="Tilt-L"
      unicode="&#x62;"
      horiz-adv-x="1024" d="M655.5377934065934 450.1053890109891C701.3837362637362 370.6970021978022 674.1768439560439 269.1589626373627 594.7684571428571 223.3130197802198C515.3600703296703 177.4670769230769 413.8220307692308 204.6739692307692 367.9738373626374 284.0823560439561C322.1278945054945 363.4907428571429 349.3347868131869 465.0287824175824 428.7431736263736 510.8747252747253C508.1515604395604 556.7211182417583 609.6918505494506 529.5137758241758 655.5377934065934 450.1053890109891zM23.1142681318681 88.1720263736264L25.8813186813187 83.3783560439561C70.9634250549451 5.2932923076922 170.8099516483517 -21.4589890109891 248.8950153846154 23.621767032967L493.703032967033 164.9630241758242C430.1790241758242 170.6906725274726 370.3391648351649 206.1998417582418 336.0227868131868 265.6346021978022C301.7086593406593 325.0693626373627 300.8782065934066 394.6473494505495 327.68 452.5247296703297L82.870407032967 311.1834725274726C4.7858384175824 266.1027164835165 -21.9679507692308 166.2548395604396 23.1142681318681 88.1720263736264zM1000.3984879120878 646.0159437362637L997.6303120879122 650.8087138461539C952.549556043956 728.893259956044 852.7016791208791 755.6470491428571 774.6166153846153 710.5648527472528L529.8085978021978 569.2244958241758C593.3326065934066 563.4954971428572 653.1747164835165 527.9874531868132 687.488843956044 468.5531428571429C721.8029714285715 409.1183824175825 722.6334241758242 339.5403956043956 695.8316307692307 281.6630153846154L940.6418989010988 423.002021978022C1018.7269626373626 468.0850285714286 1045.479243956044 567.9313301098902 1000.3984879120878 646.0159437362637z" />
    <glyph glyph-name="Tilt-R"
      unicode="&#x63;"
      horiz-adv-x="1024" d="M656.0531692307692 284.0823560439561C610.2072263736263 204.6739692307692 508.6691868131869 177.4670769230769 429.2608 223.3130197802198C349.8524131868132 269.1589626373627 322.6455208791209 370.6970021978022 368.4914637362638 450.1053890109891C414.3374065934066 529.5137758241758 515.8754461538462 556.7211182417583 595.2838329670329 510.8747252747253C674.6922197802198 465.0287824175824 701.8991120879122 363.4907428571429 656.0531692307692 284.0823560439561zM26.3978197802198 650.8087138461539L23.6307692307692 646.0159437362637C-21.4514271648352 567.9313301098902 5.302362021978 468.0850285714286 83.3869081318681 423.002021978022L328.1953758241759 281.6630153846154C301.395832967033 339.5403956043956 302.2262857142857 409.1183824175825 336.5404131868133 468.5531428571429C370.8545406593406 527.9874531868132 430.6966505494505 563.4957221978023 494.2206593406593 569.2244958241758L249.4103912087912 710.5648527472528C171.3264527472528 755.6470716483517 71.4799261538462 728.8932824615384 26.3978197802198 650.8087138461539zM998.1479384615384 83.3783560439561L1000.9138637362638 88.1720263736264C1045.9968703296704 166.2548395604396 1019.2423384615386 266.1027164835165 941.1572747252748 311.1834725274726L696.3492571428571 452.5247296703297C723.1510505494506 394.6473494505495 722.3205978021978 325.0693626373627 688.0042197802197 265.6346021978022C653.6900923076923 206.1998417582418 593.850232967033 170.6906725274726 530.3262241758242 164.9630241758242L775.1342417582418 23.621767032967C853.2193054945054 -21.4589890109891 953.064931868132 5.2932923076922 998.1479384615384 83.3783560439561z" />
    <glyph glyph-name="Trend"
      unicode="&#x64;"
      horiz-adv-x="1024" d="M968.9479987200002 602.0799999999999C958.89637376 602.91497940992 948.33311744 587.2416256 945.31999744 566.976C943.02214144 551.5183104 939.37580032 515.718412288 939.63999232 482.087999488L584.73598976 392.72800256L584.62799872 392.8920064C584.62799872 392.8920064 299.0101504 322.704896 257.7880064000001 238.272C216.5679104 153.837056 287.37200128 87.37200128 287.37200128 87.37200128L454.29999616 166.34400768L454.37200384 166.144L624.448 246.60400128L969.07999232 411.2L1024 427.719999488C1024 427.719999488 995.21523712 540.272248832 984.75200512 580.171999232C980.82828288 595.1343218687999 974.9789696 601.57901236224 968.9479987200002 602.0799999999999zM120.536000512 241.44400384C103.100864512 241.56463104 85.366188032 237.86655744 68.551999488 229.91200256C8.7684634624 201.6291225599999 -16.7546497024 130.26240512 11.5440001024 70.5120051199999C39.842609152 10.7616051199999 111.244218368 -14.74689024 171.028000768 13.5360102399999C230.81179136 41.81889024 256.33927168 113.1836415999999 228.04000768 172.9319936C207.70019328 215.87759104 165.092458496 241.13569792 120.536000512 241.44400384z" />
    <glyph glyph-name="Unlock"
      unicode="&#x65;"
      horiz-adv-x="569.344" d="M26.034671616 2.75755008C17.984463872 5.6156979199999 7.947789312 15.1512473600001 4.154483712 23.54526208L0.96926208 30.59367936V287.5949875199999V544.5962956799999L4.69422592 552.18163712C8.732756992 560.405504 14.527998976 566.2316544 23.368833024 570.9557555199999L29.005766656 573.9678719999999L241.66981632 574.31775232L454.3338496 574.66763264L453.8695065599999 693.80667392C453.3625651199999 823.876636672 453.70054656 817.91064064 445.434368 842.712909824C425.74964736 901.776027648 373.90190592 945.80835328 312.27011072 955.804286976C235.88048896 968.193755136 159.484225536 925.41156352 129.760823296 853.598416896C124.444030976 840.752756736 119.615174656 822.10306048 118.543497216 810.2755532799999C118.077761536 805.1355238399999 117.380048896 798.3767347200001 116.993038336 795.25599232L116.289366016 789.58194688H83.661899776C53.477758976 789.58194688 51.034535936 789.7568460800001 51.035559936 791.91832576C51.036174336 793.20332288 51.659831296 800.86329344 52.421462016 808.94048256C62.433110016 915.115532288 137.348540416 998.480994304 241.44429056 1019.2840071168C259.8257664 1022.9574501376 293.30753536 1024.20469559296 312.77697024 1021.9412537344C342.1178470399999 1018.5301962752 376.7187660799999 1007.1720445952 401.58580736 992.788729856C462.1263257599999 957.77154048 502.9916262399999 899.72883456 516.4557516799999 829.634093056C518.6809241599999 818.0497408 518.9292032 806.45414912 519.3213951999999 695.793152L519.7508198399998 574.63539712H526.7982950399999C543.7802086399998 574.63539712 556.81335296 566.80185856 563.9499571199999 552.30543872L568.37474304 543.31748352V288.2906521599999C568.37474304 45.9425996799999 568.2549350400001 32.92063744 565.96631552 26.36081152C562.9112319999999 17.6043622399999 555.2103424 8.81729536 546.8490752 4.5471948799999L540.33823744 1.22210304L286.00707072 0.98840576C62.913122304 0.78338048 30.983051264 1.00069376 26.034671616 2.75755008zM363.4412339200001 174.78141952V196.81011712H338.07486976H312.7085056V284.92484608V373.03957504H338.07486976H363.44123392V395.7357977599999V418.4320204799998H286.00707072H208.572928V395.7357977599999V373.03957504H232.60420096H256.6354944V284.92484608V196.81011712H232.60420096H208.572928V174.78141952V152.7527424H286.00707072H363.44123392z" />
    <glyph glyph-name="Video-Control"
      unicode="&#x66;"
      horiz-adv-x="1024" d="M5.5049230336 836.2230769664001V478.66126336V121.1034009600001H139.951958016H274.39900672V148.3373568V175.5752448000001H167.768041472H61.13709056V478.66126336V781.74727168H492.29826048H923.455488V514.0135116800001V246.2757683200001H951.27156736H979.08764672V541.2513996800001V836.2230769664001H492.29826048zM100.544534528 742.3398359040001V478.6573107200001V214.97079808L216.71153664 215.2678195200001L332.87852032 215.5648409600001L354.7504230400001 250.0458496000001L376.62232576 284.5268582400002H630.3331942400001H884.0480358400001V343.0578585600001C884.0480358400001 375.2498995200002 883.8199910400001 401.5888384000001 883.5411353600002 401.5888384000001C883.2622592000002 401.5888384000001 868.5450035200001 395.8637363200002 850.8342681600002 388.8688537600002L818.6343014400002 376.1528217600001L807.0073139200002 387.5342745600001C778.8486656 415.1044300800001 742.52836864 434.98924032 698.0240384 447.2058060800001C610.1354496 471.3314304 508.33055744 458.0086784 440.1391616 413.4574080000001C425.91090688 404.1617203200001 408.81793024 390.0962816000001 401.6702668800001 381.7999974400001L396.63691776 375.9548006400001L370.57912832 386.2828851200001C356.24742912 391.9643238400001 341.26241792 397.8592870400001 337.2782592 399.3830400000001C333.29410048 400.9067929600002 330.03118592 402.4595251200002 330.03118592 402.8323225600002C330.03118592 404.6405632000001 360.9356288 433.3960192000001 370.76922368 440.7388774400001C417.54832896 475.6694630400001 478.1869670399999 498.8312780800001 547.9304191999998 508.4059238400001C569.89038592 511.4206822400001 622.1446348799999 512.5910937600001 645.5956070399999 510.5919385600001C739.6020223999999 502.5780940800001 824.0878796799999 466.7749376000001 875.0664089599999 413.3465292800001L884.0480358399999 403.9292928000001V573.1345612800001V742.3398359040001H492.29826048zM603.92296448 406.1073817600001C648.49917952 406.7335168000001 693.038592 394.6511155200001 724.93717504 372.7589580800001C736.0454041600001 365.1353395200001 751.40220928 350.7470131200001 749.9376025600001 349.3386444800001C749.4331392 348.8535552000001 731.24864 341.4783180800001 709.52429568 332.9475993600001L670.02576896 317.4356992000001L663.8835712 322.93634048C655.91017472 330.0777984000001 643.83379456 335.9703244800001 630.8005068800001 339.0778982400001C621.84544256 341.2132044800001 617.9901644800001 341.4899916800001 603.5625984000001 341.0223308800001C589.57805568 340.5690675200001 585.19719936 339.9697612800001 577.46126848 337.4542438400001C567.49934592 334.2148812800001 556.4768051199999 328.05076992 549.5105331199999 321.8235392000001C546.53437952 319.1631052800001 544.4636467199999 318.1665075200001 542.8020428799999 318.5999872C535.07954688 320.6146457600001 464.52783104 349.07992064 464.50593792 350.19008C464.4916019199999 350.92719616 468.1040486399999 354.88882688 472.5331763199999 358.98953728C499.7460172799999 384.18444288 539.9779328 400.68360192 584.8509030399999 405.05399296C591.1836876799998 405.67076864 597.5549337599999 406.0179251200001 603.9229644799999 406.10738176zM884.9271808 245.1233792000002L639.13265152 244.8303308800003L393.33414912 244.5372825600002L346.60440064 170.3597465600003C320.90277888 129.5619072000003 290.79771136 81.7441996800003 279.7016473599999 64.0970547200003L259.52468992 32.0119603200003L265.512448 19.2325427200003L271.5001856 6.4570982400004L639.2276992 6.4056934400004L1006.9511577599998 6.3581798400004L1012.7251455999998 18.6900889600004C1015.9001599999998 25.4722662400003 1018.4950783999998 31.4811392000004 1018.4950783999998 32.0437043200004C1018.4950783999998 32.6062899200005 988.4428492799998 80.7787724800005 951.7111295999998 139.0944460800005zM458.1063270399999 189.9703910400002C479.8493696 189.8438246400002 495.5515904 183.9403827200001 508.6299136 170.9775257600002C517.64385792 162.0431667200002 521.2746752 154.0466073600002 521.2746752 143.1218176000001C521.2746752 132.2282598400001 517.64283392 124.2118963200002 508.6299136 115.2027852800002C500.4325888 107.0089216000001 491.11222272 101.7650995200002 478.88523264 98.4632320000002C469.11326208 95.8243635200001 450.55080448 95.2530944000001 441.29947648 97.30686976C420.32777216 101.9625472000001 404.35050496 112.9888768000002 397.02104064 127.86735104C394.87696896 132.21971968 394.35982848 135.1869440000001 394.35982848 143.1218176C394.35982848 152.1408 394.69623296 153.5950028799999 398.32788992 160.29302784C403.48086272 169.79685376 411.8047948800001 177.2152832000001 423.3362432 182.58075648C436.15997952 188.5475020800001 443.26494208 190.0567552000001 458.1063270399999 189.9703910400001zM820.8836607999999 189.9425382400002C835.7414911999999 189.9425382400002 844.6881587199999 187.9430348800003 857.17843968 181.8361241600002C867.54699264 176.7665664000002 876.7253504 167.9231385600002 881.28385024 158.6058854400002C886.0096102399999 148.9467801600001 886.0096102399999 137.3006028800002 881.28385024 127.6414976000002C874.85714432 114.5057689600002 859.75851008 103.1917568000001 842.32390656 98.4433254400002C834.5442713599999 96.3245056000002 814.7666534399999 95.3516236800002 807.2805580799999 96.7206502400002C793.1974655999999 99.2961331200002 779.3862860799999 105.7541324800002 771.2115302399999 113.5869337600002C752.11175936 131.8877184000002 752.3393331199999 154.6421452800003 771.8055526399999 172.6644224000003C784.6116147199998 184.5205811200002 800.0189235199998 189.9425382400002 820.8836607999999 189.9425382400002z" />
  </font>
</defs>
</svg>
