<svg xmlns="http://www.w3.org/2000/svg" xmlns:xlink="http://www.w3.org/1999/xlink" width="0" height="0" style="display:none;"><symbol viewBox="0 0 500 197" id="icn-back-down">
<path d="M102.985 116.452C117.117 143.131 106.945 176.215 80.265 190.347C53.5853 204.479 20.5011 194.307 6.36926 167.627C-7.76257 140.948 2.40946 107.864 29.0891 93.7318C55.7687 79.6 88.853 89.772 102.985 116.452Z" fill="#707172"></path>
<path d="M485.853 83.3778C485.853 83.3778 495.974 31.2708 499.455 12.7483C502.936 -5.77411 488.929 -1.95402 480.601 10.4953C476.621 16.4444 468.086 30.5694 461.615 44.5425L261.275 8.45804C254.112 7.5156 220.558 21.4648 205.855 28.0625C191.152 34.6602 199.599 80.1129 199.599 80.1129L285.53 80.113L459.954 79.4706L485.853 83.3778Z" fill="#707172"></path>
<path d="M115.121 85.9516C98.0189 125.321 131.673 154.158 131.673 154.158L271.623 80.0288L261.134 8.61031L243.58 14.1997L225.564 20.4588C186.071 34.7318 126.377 60.0389 115.121 85.9516Z" fill="#707172"></path>
</symbol><symbol viewBox="0 0 500 235" id="icn-back-up">
<path d="M48.0325 96.0651C74.5603 96.0651 96.0651 74.5602 96.0651 48.0325C96.0651 21.5049 74.5603 0 48.0325 0C21.5048 0 0 21.5049 0 48.0325C0 74.5602 21.5048 96.0651 48.0325 96.0651Z" fill="#707172"></path>
<path d="M227.624 173.226C227.624 173.226 202.883 153.936 180.749 132.524C145.255 98.1869 125.965 97.6083 102.817 103.781C85.6484 109.761 74.8447 132.524 74.8447 132.524L165.894 229.903L310.865 229.557L460.022 230.479L485.389 234.569C485.389 234.569 495.82 183.472 499.414 165.307C503.008 147.142 489.232 150.76 480.941 162.911C476.99 168.703 468.512 182.447 462.035 196.081L227.624 173.226Z" fill="#707172"></path>
</symbol><symbol id="icn-brightness-down"></symbol><symbol id="icn-brightness-up"></symbol><symbol id="icn-camera-ccw"></symbol><symbol id="icn-camera-cw"></symbol><symbol id="icn-camera-onoff"></symbol><symbol id="icn-color-temp"></symbol><symbol id="icn-dndo"></symbol><symbol id="icn-equipment-control"></symbol><symbol viewBox="0 0 500 205" id="icn-flex">
<path d="M110.94 162.177C103.323 192.33 72.6996 210.598 42.5416 202.979C12.3836 195.36 -5.88905 164.74 1.7284 134.587C9.34585 104.434 39.9689 86.167 70.127 93.7858C100.285 101.405 118.558 132.025 110.94 162.177Z" fill="#707172"></path>
<path d="M310.535 61.2011L148.317 155.587C148.317 155.587 108.461 88.3227 146.57 61.2011C165.625 47.6402 189.162 37.0632 220.902 25.8009L299.943 0L456.56 131.75C463.349 125.319 470.311 119.995 479.73 115.861C487.427 112.483 506.134 105.253 497.987 122.866C489.84 140.478 461.915 175.078 461.915 175.078L449.629 162.177L310.535 61.2011Z" fill="#707172"></path>
</symbol><symbol id="icn-iqor"></symbol><symbol id="icn-kidndy-down"></symbol><symbol id="icn-kindey-up"></symbol><symbol id="icn-leg-down"></symbol><symbol id="icn-leg-l-down"></symbol><symbol id="icn-leg-l-up"></symbol><symbol id="icn-leg-r-down"></symbol><symbol id="icn-leg-r-up"></symbol><symbol id="icn-leg-up"></symbol><symbol viewBox="0 0 500 266" id="icn-level">
<path fill-rule="evenodd" clip-rule="evenodd" d="M311.158 237.571C324.297 218.868 330.866 190.282 330.866 151.811V109.197C330.511 72.0289 323.764 44.5668 310.625 26.8111C297.486 8.93703 277.008 0 249.19 0C221.136 0 200.54 9.23295 187.401 27.6989C174.261 46.1648 167.692 74.3963 167.692 112.393V156.25C168.165 192.59 175.031 219.934 188.288 238.281C201.546 256.51 221.965 265.625 249.545 265.625C277.481 265.625 298.018 256.274 311.158 237.571ZM286.3 46.1648C294.112 58.8305 298.018 79.072 298.018 106.889V160.689C297.663 187.678 293.52 207.446 285.59 219.993C277.777 232.54 265.762 238.814 249.545 238.814C233.092 238.814 220.781 232.185 212.614 218.928C204.564 205.552 200.54 184.896 200.54 156.96V104.403C200.777 78.125 204.742 58.6529 212.436 45.9872C220.13 33.3215 232.382 26.9886 249.19 26.9886C266.117 26.9886 278.487 33.3807 286.3 46.1648Z" fill="#707172"></path>
<path d="M73.6364 181.647L147.273 139.133L73.6364 96.6193V126.406H0V151.861H73.6364V181.647Z" fill="#707172"></path>
<path d="M426.364 181.647L352.727 139.133L426.364 96.6193V126.406H500V151.861H426.364V181.647Z" fill="#707172"></path>
</symbol><symbol id="icn-light-50"></symbol><symbol id="icn-light-70"></symbol><symbol viewBox="0 0 278 500" id="icn-lock">
<path fill-rule="evenodd" clip-rule="evenodd" d="M245.067 70.6647C250.818 84.5531 253.78 99.4383 253.78 114.471V219.222H258.099C268.835 219.222 277.538 227.925 277.538 238.661V480.562C277.538 491.297 268.835 500 258.099 500H19.4384C8.70292 500 0 491.297 0 480.562V238.661C0 227.925 8.70292 219.222 19.4384 219.222H24.838V114.471C24.838 99.4383 27.7993 84.5531 33.5511 70.6647C39.304 56.7764 47.7366 44.1573 58.366 33.5277C68.9953 22.8981 81.6147 14.4663 95.5028 8.71366C109.391 2.9608 124.277 0 139.309 0C154.341 0 169.227 2.9608 183.115 8.71366C197.003 14.4663 209.622 22.8981 220.252 33.5277C230.881 44.1573 239.314 56.7764 245.067 70.6647ZM57.2354 114.471V219.222H221.382V114.471H221.517C221.517 103.675 219.391 92.9849 215.26 83.0107C211.128 73.0368 205.073 63.9741 197.44 56.3403C189.805 48.7066 180.743 42.651 170.769 38.5196C160.794 34.3882 150.105 32.2619 139.309 32.2619C128.513 32.2619 117.823 34.3882 107.849 38.5196C97.8746 42.651 88.8123 48.7066 81.1781 56.3403C73.5449 63.9741 67.4893 73.0368 63.3574 83.011C59.2265 92.9849 57.1004 103.675 57.1004 114.471H57.2354ZM177.106 295.896H101.512V317.495H125.27V403.888H101.512V425.486H177.106V403.888H152.268V317.495H177.106V295.896Z" fill="#707172"></path>
</symbol><symbol id="icn-normal-function"></symbol><symbol viewBox="0 0 500 272" id="icn-onoff">
<path d="M192.157 135.294C192.157 188.357 149.141 231.373 96.0784 231.373C43.0158 231.373 0 188.357 0 135.294C0 82.2316 43.0158 39.2158 96.0784 39.2158C149.141 39.2158 192.157 82.2316 192.157 135.294ZM29.2424 135.294C29.2424 172.207 59.1659 202.13 96.0784 202.13C132.991 202.13 162.914 172.207 162.914 135.294C162.914 98.3817 132.991 68.4582 96.0784 68.4582C59.1659 68.4582 29.2424 98.3817 29.2424 135.294Z" fill="#707172"></path>
<path d="M500 135.294C500 188.357 456.984 231.373 403.922 231.373C350.859 231.373 307.843 188.357 307.843 135.294C307.843 82.2316 350.859 39.2158 403.922 39.2158C456.984 39.2158 500 82.2316 500 135.294ZM337.086 135.294C337.086 172.207 367.009 202.13 403.922 202.13C440.834 202.13 470.758 172.207 470.758 135.294C470.758 98.3817 440.834 68.4582 403.922 68.4582C367.009 68.4582 337.086 98.3817 337.086 135.294Z" fill="#707172"></path>
<circle cx="96.078" cy="135.294" r="13.7255" fill="#707172"></circle>
<circle cx="403.922" cy="13.7255" r="13.7255" fill="#707172"></circle>
<rect x="314.357" width="24.5098" height="298.882" transform="rotate(29.9599 314.357 0)" fill="#707172"></rect>
</symbol><symbol id="icn-pacs"></symbol><symbol id="icn-pip-notext"></symbol><symbol id="icn-pip"></symbol><symbol id="icn-quad-1-notext"></symbol><symbol id="icn-quad-1"></symbol><symbol id="icn-quad-2-notext"></symbol><symbol id="icn-quad-2"></symbol><symbol id="icn-reflex"></symbol><symbol viewBox="0 0 500 256" id="icn-rev-trend">
<path d="M109.442 75.3995C98.97 104.736 66.7206 120.021 37.4105 109.54C8.10051 99.0588 -7.17096 66.7804 3.30075 37.4441C13.7725 8.10777 46.0219 -7.1774 75.332 3.30371C104.642 13.7848 119.913 46.0632 109.442 75.3995Z" fill="#707172"></path>
<path d="M301.33 120.831C301.33 120.831 182.915 49.1173 141.091 63.5308C99.2672 77.9443 100.705 123.672 100.705 123.672L182.546 152.938L182.504 153.028L265.888 182.846L435.366 242.747L459.143 255.528C459.143 255.528 487.029 208.432 496.829 191.65C506.628 174.868 491.712 173.718 479.314 182.919C473.404 187.306 460.274 198.022 449.167 209.318L301.31 120.921L301.33 120.831Z" fill="#707172"></path>
</symbol><symbol id="icn-reverse-function"></symbol><symbol id="icn-single-1"></symbol><symbol id="icn-single-2"></symbol><symbol id="icn-single-3"></symbol><symbol id="icn-single-4"></symbol><symbol id="icn-slide-foot"></symbol><symbol id="icn-slide-head"></symbol><symbol id="icn-sync"></symbol><symbol id="icn-table-down"></symbol><symbol id="icn-table-up"></symbol><symbol id="icn-table"></symbol><symbol viewBox="0 0 455 326" id="icn-tilt-l">
<path d="M291.279 126.002C311.65 161.286 299.561 206.403 264.277 226.774C228.993 247.145 183.876 235.056 163.504 199.772C143.133 164.488 155.222 119.371 190.506 99C225.79 78.6288 270.908 90.718 291.279 126.002Z" fill="#707172"></path>
<path d="M10.2705 286.822L11.5 288.952C31.5316 323.648 75.897 335.535 110.593 315.504L219.37 252.701C191.144 250.156 164.555 234.378 149.307 207.969C134.06 181.56 133.691 150.644 145.6 124.927L36.8223 187.73C2.12652 207.761 -9.76115 252.127 10.2705 286.822Z" fill="#707172"></path>
<path d="M444.513 38.9519L443.283 36.8223C423.252 2.12653 378.886 -9.76114 344.19 10.2705L235.413 73.0731C263.639 75.6187 290.229 91.3962 305.476 117.805C320.723 144.214 321.092 175.13 309.183 200.847L417.961 138.045C452.657 118.013 464.544 73.6477 444.513 38.9519Z" fill="#707172"></path>
</symbol><symbol viewBox="0 0 455 326" id="icn-tilt-r">
<path d="M291.508 199.772C271.137 235.056 226.02 247.145 190.736 226.774C155.452 206.403 143.363 161.286 163.734 126.002C184.105 90.718 229.222 78.6288 264.506 99C299.79 119.371 311.879 164.488 291.508 199.772Z" fill="#707172"></path>
<path d="M11.7295 36.8223L10.5 38.9519C-9.53164 73.6477 2.35603 118.013 37.0518 138.045L145.829 200.847C133.921 175.13 134.29 144.214 149.537 117.805C164.784 91.3962 191.374 75.6186 219.6 73.0731L110.822 10.2705C76.1265 -9.76115 31.7611 2.12652 11.7295 36.8223Z" fill="#707172"></path>
<path d="M443.513 288.952L444.742 286.822C464.774 252.127 452.886 207.761 418.19 187.73L309.413 124.927C321.322 150.644 320.953 181.56 305.705 207.969C290.458 234.378 263.869 250.156 235.643 252.701L344.42 315.504C379.116 335.535 423.481 323.648 443.513 288.952Z" fill="#707172"></path>
</symbol><symbol id="icn-trend"></symbol><symbol id="icn-unlock"></symbol><symbol id="icn-video-control"></symbol></svg>