<svg width="500" height="197" viewBox="0 0 500 197" fill="none" xmlns="http://www.w3.org/2000/svg">
<path d="M102.985 116.452C117.117 143.131 106.945 176.215 80.265 190.347C53.5853 204.479 20.5011 194.307 6.36926 167.627C-7.76257 140.948 2.40946 107.864 29.0891 93.7318C55.7687 79.6 88.853 89.772 102.985 116.452Z" fill="#707172"/>
<path d="M485.853 83.3778C485.853 83.3778 495.974 31.2708 499.455 12.7483C502.936 -5.77411 488.929 -1.95402 480.601 10.4953C476.621 16.4444 468.086 30.5694 461.615 44.5425L261.275 8.45804C254.112 7.5156 220.558 21.4648 205.855 28.0625C191.152 34.6602 199.599 80.1129 199.599 80.1129L285.53 80.113L459.954 79.4706L485.853 83.3778Z" fill="#707172"/>
<path d="M115.121 85.9516C98.0189 125.321 131.673 154.158 131.673 154.158L271.623 80.0288L261.134 8.61031L243.58 14.1997L225.564 20.4588C186.071 34.7318 126.377 60.0389 115.121 85.9516Z" fill="#707172"/>
</svg>
