<?xml version="1.0" encoding="UTF-8" standalone="no"?>
<svg
   width="500"
   height="500"
   viewBox="0 0 500 500"
   fill="none"
   version="1.1"
   id="svg1392"
   sodipodi:docname="back-up.svg"
   inkscape:version="1.1.1 (3bf5ae0d25, 2021-09-20)"
   xmlns:inkscape="http://www.inkscape.org/namespaces/inkscape"
   xmlns:sodipodi="http://sodipodi.sourceforge.net/DTD/sodipodi-0.dtd"
   xmlns="http://www.w3.org/2000/svg"
   xmlns:svg="http://www.w3.org/2000/svg">
  <defs
     id="defs1396" />
  <sodipodi:namedview
     id="namedview1394"
     pagecolor="#ffffff"
     bordercolor="#111111"
     borderopacity="1"
     inkscape:pageshadow="0"
     inkscape:pageopacity="0"
     inkscape:pagecheckerboard="1"
     showgrid="false"
     inkscape:zoom="2.444"
     inkscape:cx="250"
     inkscape:cy="117.63502"
     inkscape:window-width="1920"
     inkscape:window-height="1017"
     inkscape:window-x="1072"
     inkscape:window-y="979"
     inkscape:window-maximized="1"
     inkscape:current-layer="svg1392" />
  <path
     id="path1492"
     style="fill:#000000;stroke-width:0.409165"
     d="m 50.16094,133.10223 c -4.53583,-0.0624 -9.77447,0.26386 -12.57812,0.91797 -8.774071,2.04702 -16.338445,6.21316 -22.849607,12.58593 -6.2972754,6.16343 -10.3782814,12.93353 -12.6523444,20.98828 -5.340433,18.91586 1.211808,38.92117 16.6562504,50.85742 6.386003,4.93543 15.30562,8.71904 23.011721,9.75977 3.77626,0.50999 11.95691,0.20755 15.70117,-0.58008 14.4665,-3.04313 26.69602,-12.34187 33.23242,-25.26758 9.30662,-18.40379 5.83983,-40.5552 -8.63086,-55.1582 -7.03939,-7.10375 -14.94894,-11.36437 -25.16406,-13.55859 -1.53754,-0.33027 -4.00506,-0.5075 -6.72657,-0.54492 z m 71.99024,100.71093 c -10.98838,0.0306 -20.60231,2.44848 -26.89649,6.76563 -6.30798,4.32663 -13.7989,13.10146 -18.89648,22.13671 l -1.33203,2.36133 2.35742,2.54883 c 1.29671,1.40135 21.79613,23.3373 45.55469,48.74609 l 43.19726,46.19727 64.85352,-0.28711 c 39.46742,-0.17425 96.96301,-0.094 146.88867,0.20508 l 82.03906,0.49219 11.86524,1.94531 c 6.52619,1.06974 12.24006,1.96077 12.69726,1.98047 0.77704,0.0336 1.29464,-2.25279 7.94141,-35.04883 3.91097,-19.29726 7.19564,-36.48409 7.29883,-38.19141 0.71604,-11.8492 -10.12432,-10.20365 -19.11133,2.90039 -4.58836,6.69034 -11.84919,19.16406 -16.17969,27.79883 l -2.32226,4.63086 -2.11719,-0.24219 c -1.16502,-0.13262 -53.39642,-5.2232 -116.07031,-11.3125 -62.6739,-6.08929 -114.55285,-11.16847 -115.28516,-11.28711 -2.63407,-0.42675 -28.68599,-22.49053 -46.33594,-39.24218 -15.52586,-14.73566 -25.12537,-22.04221 -35.80273,-27.25196 -8.98591,-4.38445 -15.18109,-5.8712 -24.34375,-5.8457 z" />
</svg>
