<?xml version="1.0" encoding="UTF-8" standalone="no"?>
<svg
   width="232"
   height="232"
   viewBox="0 0 232 232"
   fill="none"
   version="1.1"
   id="svg2863"
   sodipodi:docname="connect.svg"
   inkscape:version="1.1.1 (3bf5ae0d25, 2021-09-20)"
   xmlns:inkscape="http://www.inkscape.org/namespaces/inkscape"
   xmlns:sodipodi="http://sodipodi.sourceforge.net/DTD/sodipodi-0.dtd"
   xmlns="http://www.w3.org/2000/svg"
   xmlns:svg="http://www.w3.org/2000/svg">
  <defs
     id="defs2867" />
  <sodipodi:namedview
     id="namedview2865"
     pagecolor="#ffffff"
     bordercolor="#111111"
     borderopacity="1"
     inkscape:pageshadow="0"
     inkscape:pageopacity="0"
     inkscape:pagecheckerboard="1"
     showgrid="false"
     inkscape:zoom="0.38739224"
     inkscape:cx="69.696801"
     inkscape:cy="127.77747"
     inkscape:window-width="1920"
     inkscape:window-height="1017"
     inkscape:window-x="1072"
     inkscape:window-y="979"
     inkscape:window-maximized="1"
     inkscape:current-layer="svg2863" />
  <path
     id="path2855"
     d="M 102,4 V 52.177734 C 102.9836,52.060034 103.9847,52 105,52 h 22 c 1.0153,0 2.0164,0.06003 3,0.177734 V 4 Z m 7,52 c -2.4299,0 -4.7788,0.347641 -7,0.994141 -1.3869,0.4038 -2.7241,0.922628 -4,1.548828 C 89.70807,62.612369 84,71.14 84,81 v 32 h 64 V 81 c 0,-9.86 -5.7081,-18.387631 -14,-22.457031 -1.2759,-0.6262 -2.6131,-1.145028 -4,-1.548828 C 127.7788,56.347641 125.4299,56 123,56 Z m -25,61 v 34 c 0,9.86 5.70807,18.38608 14,22.45508 3.3194,1.629 7.0529,2.54492 11,2.54492 h 14 c 3.9471,0 7.6806,-0.91592 11,-2.54492 8.2919,-4.069 14,-12.59508 14,-22.45508 v -34 z m 18,62.82227 V 228 h 28 V 179.82227 C 129.0164,179.93927 128.0153,180 127,180 h -22 c -1.0153,0 -2.0164,-0.0607 -3,-0.17773 z"
     style="fill:#000000" />
</svg>
