<?xml version="1.0" encoding="UTF-8" standalone="no"?>
<svg
   width="190"
   height="190"
   viewBox="0 0 190 190"
   fill="none"
   version="1.1"
   id="svg3088"
   sodipodi:docname="connect-45.svg"
   inkscape:version="1.1.1 (3bf5ae0d25, 2021-09-20)"
   xmlns:inkscape="http://www.inkscape.org/namespaces/inkscape"
   xmlns:sodipodi="http://sodipodi.sourceforge.net/DTD/sodipodi-0.dtd"
   xmlns="http://www.w3.org/2000/svg"
   xmlns:svg="http://www.w3.org/2000/svg">
  <defs
     id="defs3092" />
  <sodipodi:namedview
     id="namedview3090"
     pagecolor="#ffffff"
     bordercolor="#111111"
     borderopacity="1"
     inkscape:pageshadow="0"
     inkscape:pageopacity="0"
     inkscape:pagecheckerboard="1"
     showgrid="false"
     inkscape:zoom="3.7842105"
     inkscape:cx="95.132128"
     inkscape:cy="95"
     inkscape:window-width="1920"
     inkscape:window-height="1017"
     inkscape:window-x="1072"
     inkscape:window-y="979"
     inkscape:window-maximized="1"
     inkscape:current-layer="svg3088" />
  <path
     id="path3080"
     d="M 164.29688 5.9042969 L 130.22852 39.970703 C 131.00752 40.583003 131.75956 41.248797 132.47656 41.966797 L 148.0332 57.523438 C 148.7512 58.241337 149.41534 58.990831 150.02734 59.769531 L 184.0957 25.703125 L 164.29688 5.9042969 z M 114.45117 40.302734 C 108.16909 40.389375 101.91428 42.829728 97.121094 47.623047 L 74.494141 70.251953 L 119.74805 115.50586 L 142.37695 92.878906 C 149.34895 85.906906 151.34147 75.840409 148.35547 67.099609 C 147.89647 65.754609 147.31905 64.441881 146.62305 63.175781 C 145.51005 61.147981 144.09495 59.241638 142.37695 57.523438 L 132.47656 47.623047 C 130.75856 45.904847 128.85222 44.490353 126.82422 43.376953 C 125.55822 42.681653 124.24539 42.103931 122.90039 41.644531 C 120.16883 40.711469 117.30666 40.263352 114.45117 40.302734 z M 71.666016 73.080078 L 47.623047 97.121094 C 40.650947 104.09299 38.658731 114.15939 41.644531 122.90039 C 42.839831 126.39939 44.831947 129.68556 47.623047 132.47656 L 57.523438 142.37695 C 60.314437 145.16795 63.600509 147.16047 67.099609 148.35547 C 75.840409 151.34147 85.906806 149.34895 92.878906 142.37695 L 116.91992 118.33398 L 71.666016 73.080078 z M 39.970703 130.22852 L 5.9042969 164.29688 L 25.703125 184.0957 L 59.769531 150.02734 C 58.990931 149.41534 58.241338 148.7512 57.523438 148.0332 L 41.966797 132.47656 C 41.248897 131.75956 40.583003 131.00752 39.970703 130.22852 z "
     style="fill:#000000" />
</svg>
