<?xml version="1.0" encoding="UTF-8" standalone="no"?>
<svg
   width="191"
   height="191"
   viewBox="0 0 191 191"
   fill="none"
   version="1.1"
   id="svg3308"
   sodipodi:docname="disconnect-45.svg"
   inkscape:version="1.1.1 (3bf5ae0d25, 2021-09-20)"
   xmlns:inkscape="http://www.inkscape.org/namespaces/inkscape"
   xmlns:sodipodi="http://sodipodi.sourceforge.net/DTD/sodipodi-0.dtd"
   xmlns="http://www.w3.org/2000/svg"
   xmlns:svg="http://www.w3.org/2000/svg">
  <defs
     id="defs3312" />
  <sodipodi:namedview
     id="namedview3310"
     pagecolor="#ffffff"
     bordercolor="#111111"
     borderopacity="1"
     inkscape:pageshadow="0"
     inkscape:pageopacity="0"
     inkscape:pagecheckerboard="1"
     showgrid="false"
     inkscape:zoom="3.7643979"
     inkscape:cx="95.367177"
     inkscape:cy="95.5"
     inkscape:window-width="1920"
     inkscape:window-height="1017"
     inkscape:window-x="1072"
     inkscape:window-y="979"
     inkscape:window-maximized="1"
     inkscape:current-layer="svg3308" />
  <path
     id="path3300"
     d="M 165.48438 5.6777344 L 149.09375 22.066406 C 149.87275 22.678706 150.6238 23.3446 151.3418 24.0625 L 166.89844 39.619141 C 167.61644 40.337041 168.28058 41.086534 168.89258 41.865234 L 185.2832 25.476562 L 165.48438 5.6777344 z M 133.31641 22.398438 C 127.03432 22.485078 120.77958 24.925431 115.98633 29.71875 L 91.238281 54.46875 L 99.722656 62.953125 L 89.824219 72.853516 C 89.238444 73.439316 88.798747 74.115619 88.505859 74.837891 C 87.920084 76.282434 87.920084 77.908972 88.505859 79.353516 C 88.798747 80.075788 89.238444 80.752091 89.824219 81.337891 C 90.410019 81.923666 91.086314 82.363362 91.808594 82.65625 C 93.253153 83.242025 94.879684 83.242025 96.324219 82.65625 C 97.046486 82.363362 97.722819 81.923666 98.308594 81.337891 L 108.20703 71.439453 L 119.52148 82.751953 L 109.62109 92.652344 C 109.03534 93.238119 108.59756 93.914453 108.30469 94.636719 C 107.71894 96.08125 107.71894 97.707813 108.30469 99.152344 C 108.59756 99.874609 109.03534 100.55094 109.62109 101.13672 C 110.20709 101.72247 110.88503 102.1622 111.60742 102.45508 C 113.0522 103.04083 114.67852 103.04083 116.12305 102.45508 C 116.84531 102.1622 117.52167 101.72247 118.10742 101.13672 L 128.00781 91.238281 L 136.49219 99.722656 L 161.24023 74.974609 C 168.21223 68.002609 170.2057 57.936113 167.2207 49.195312 C 166.7607 47.850312 166.18328 46.537584 165.48828 45.271484 C 164.37428 43.243584 162.95823 41.337341 161.24023 39.619141 L 151.3418 29.71875 C 149.6238 28.00055 147.71645 26.586056 145.68945 25.472656 C 144.42245 24.777356 143.11063 24.199634 141.76562 23.740234 C 139.03406 22.807172 136.1719 22.359056 133.31641 22.398438 z M 54.46875 91.238281 L 29.71875 115.98633 C 22.74665 122.95833 20.754434 133.02463 23.740234 141.76562 C 24.199734 143.11063 24.777456 144.42245 25.472656 145.68945 C 26.586156 147.71645 28.00055 149.6228 29.71875 151.3418 L 39.619141 161.24023 C 41.337241 162.95823 43.243684 164.37428 45.271484 165.48828 C 46.537684 166.18328 47.850212 166.7607 49.195312 167.2207 C 57.936013 170.2057 68.002509 168.21223 74.974609 161.24023 L 99.722656 136.49219 L 54.46875 91.238281 z M 22.066406 149.09375 L 5.6777344 165.48438 L 25.476562 185.2832 L 41.865234 168.89258 C 41.086634 168.28058 40.337041 167.61644 39.619141 166.89844 L 24.0625 151.3418 C 23.3446 150.6238 22.678706 149.87275 22.066406 149.09375 z "
     style="fill:#000000" />
</svg>
