<svg width="500" height="205" viewBox="0 0 500 205" fill="none" xmlns="http://www.w3.org/2000/svg">
<path d="M110.94 162.177C103.323 192.33 72.6996 210.598 42.5416 202.979C12.3836 195.36 -5.88905 164.74 1.7284 134.587C9.34585 104.434 39.9689 86.167 70.127 93.7858C100.285 101.405 118.558 132.025 110.94 162.177Z" fill="#707172"/>
<path d="M310.535 61.2011L148.317 155.587C148.317 155.587 108.461 88.3227 146.57 61.2011C165.625 47.6402 189.162 37.0632 220.902 25.8009L299.943 0L456.56 131.75C463.349 125.319 470.311 119.995 479.73 115.861C487.427 112.483 506.134 105.253 497.987 122.866C489.84 140.478 461.915 175.078 461.915 175.078L449.629 162.177L310.535 61.2011Z" fill="#707172"/>
</svg>
