<?xml version="1.0" encoding="UTF-8" standalone="no"?>
<svg
   width="500"
   height="500"
   viewBox="0 0 500 500"
   fill="none"
   version="1.1"
   id="svg1759"
   sodipodi:docname="kidndy-down.svg"
   inkscape:version="1.1.1 (3bf5ae0d25, 2021-09-20)"
   xmlns:inkscape="http://www.inkscape.org/namespaces/inkscape"
   xmlns:sodipodi="http://sodipodi.sourceforge.net/DTD/sodipodi-0.dtd"
   xmlns="http://www.w3.org/2000/svg"
   xmlns:svg="http://www.w3.org/2000/svg">
  <defs
     id="defs1763" />
  <sodipodi:namedview
     id="namedview1761"
     pagecolor="#505050"
     bordercolor="#eeeeee"
     borderopacity="1"
     inkscape:pageshadow="0"
     inkscape:pageopacity="0"
     inkscape:pagecheckerboard="0"
     showgrid="false"
     inkscape:zoom="1.222"
     inkscape:cx="169.39444"
     inkscape:cy="83.878887"
     inkscape:window-width="1920"
     inkscape:window-height="1017"
     inkscape:window-x="1072"
     inkscape:window-y="979"
     inkscape:window-maximized="1"
     inkscape:current-layer="svg1759" />
  <path
     id="path1749"
     style="fill:#000000"
     d="m 54.486322,175.71289 c -30.092096,0 -54.486324,24.38976 -54.486324,54.47656 0,30.0869 24.394228,54.47657 54.486324,54.47656 30.0922,0 54.486338,-24.38966 54.486338,-54.47656 0,-30.0868 -24.394138,-54.47656 -54.486338,-54.47656 z M 193.7168,197.23828 c -25.27911,-0.18831 -48.30563,2.68127 -59.78516,11.86328 -33.395,26.7113 -17.22461,67.83399 -17.22461,67.83399 h 84.02539 l -0.01,0.0937 h 85.60937 l 173.77149,-0.63868 25.80273,3.89063 c 0,0 10.08278,-51.90167 13.55078,-70.35157 3.468,-18.45 -10.4852,-14.64474 -18.7832,-2.24414 -3.955,5.9116 -12.42714,19.92846 -18.86914,33.81446 l -163.34766,-32.31055 -0.0117,-0.0879 c 0,0 -56.46839,-11.5038 -104.72851,-11.86328 z M -2e-6,304.47656 v 19.81055 H 114.89648 v -19.81055 z m 134.707032,0 v 19.81055 H 500 v -19.81055 z" />
</svg>
