<?xml version="1.0" encoding="UTF-8" standalone="no"?>
<svg
   width="500"
   height="500"
   viewBox="0 0 500 500"
   fill="none"
   version="1.1"
   id="svg2671"
   sodipodi:docname="kindey-up.svg"
   inkscape:version="1.1.1 (3bf5ae0d25, 2021-09-20)"
   xmlns:inkscape="http://www.inkscape.org/namespaces/inkscape"
   xmlns:sodipodi="http://sodipodi.sourceforge.net/DTD/sodipodi-0.dtd"
   xmlns="http://www.w3.org/2000/svg"
   xmlns:svg="http://www.w3.org/2000/svg">
  <defs
     id="defs2675" />
  <sodipodi:namedview
     id="namedview2673"
     pagecolor="#505050"
     bordercolor="#eeeeee"
     borderopacity="1"
     inkscape:pageshadow="0"
     inkscape:pageopacity="0"
     inkscape:pagecheckerboard="0"
     showgrid="false"
     inkscape:zoom="2.444"
     inkscape:cx="250"
     inkscape:cy="117.63502"
     inkscape:window-width="1920"
     inkscape:window-height="1017"
     inkscape:window-x="1072"
     inkscape:window-y="979"
     inkscape:window-maximized="1"
     inkscape:current-layer="svg2671" />
  <path
     id="path2661"
     d="m 299.94336,132.98633 -79.04102,25.80078 c -31.74,11.2623 -55.27703,21.83949 -74.33203,35.40039 -38.109,27.1216 1.7461,94.38672 1.7461,94.38672 l 162.21875,-94.38672 139.09375,100.97656 12.28515,12.90039 c 0,0 27.92527,-34.60089 36.07227,-52.21289 8.147,-17.613 -10.55786,-10.3819 -18.25586,-7.0039 -9.419,4.134 -16.38092,9.45767 -23.16992,15.88867 z M 56.044922,225.04297 c -25.085013,0.10861 -47.8891829,17.08966 -54.3164064,42.53125 -7.61745,30.153 10.6545004,60.77163 40.8125004,68.39063 30.158,7.619 60.781434,-10.64779 68.398434,-40.80079 7.618,-30.152 -10.6545,-60.77337 -40.812497,-68.39257 -4.712203,-1.19044 -9.436658,-1.74863 -14.082031,-1.72852 z m 180.087888,82.54102 v 19.80859 h 45.5625 v 19.81055 H 134.70703 v 19.81054 H 500 V 347.20313 H 353.01172 v -19.81055 c 14.99,-0.066 45.0865,-0.158 45.5625,0 V 307.58399 Z M 0,347.20313 v 19.81054 h 114.89648 v -19.81054 z"
     style="fill:#000000" />
</svg>
