<?xml version="1.0" encoding="UTF-8" standalone="no"?>
<svg
   width="794"
   height="794"
   viewBox="0 0 794 794"
   fill="none"
   version="1.1"
   id="svg317"
   sodipodi:docname="leg-r-up.svg"
   inkscape:version="1.1.1 (3bf5ae0d25, 2021-09-20)"
   xmlns:inkscape="http://www.inkscape.org/namespaces/inkscape"
   xmlns:sodipodi="http://sodipodi.sourceforge.net/DTD/sodipodi-0.dtd"
   xmlns="http://www.w3.org/2000/svg"
   xmlns:svg="http://www.w3.org/2000/svg">
  <defs
     id="defs321" />
  <sodipodi:namedview
     id="namedview319"
     pagecolor="#505050"
     bordercolor="#eeeeee"
     borderopacity="1"
     inkscape:pageshadow="0"
     inkscape:pageopacity="0"
     inkscape:pagecheckerboard="0"
     showgrid="false"
     inkscape:zoom="1.5390428"
     inkscape:cx="396.35025"
     inkscape:cy="222.54092"
     inkscape:window-width="1920"
     inkscape:window-height="1017"
     inkscape:window-x="1072"
     inkscape:window-y="979"
     inkscape:window-maximized="1"
     inkscape:current-layer="svg317" />
  <path
     id="circle307"
     d="m 552.875,241.12012 c -7.65112,0.0175 -10.72266,13.16599 -6.94141,27.25977 2.622,9.7728 9.68858,31.97331 18.51758,51.87891 L 406.59765,441.87012 c -47.80964,-8.35419 -176.16346,-27.29071 -214.66406,3.50977 -47.5,38 -24.49805,96.5 -24.49805,96.5 l 268.49805,-0.5 -0.004,-0.0371 2.1543,0.002 0.004,0.004 0.004,-0.004 181.77539,0.22851 36.67383,5.71876 c 0,0 14.70753,-73.76529 19.76953,-99.98829 5.063,-26.222 -14.81217,-20.90721 -26.70117,-3.32421 -5.668,8.382 -17.81617,28.2627 -27.07617,47.9707 l -120.30479,-24.41803 97.97656,-112.75781 28.33985,-23.96875 c 0,0 -46.11133,-59.42568 -62.61133,-80.42578 -5.15625,-6.56253 -9.58081,-9.2677 -13.05859,-9.25977 z M 78.933593,397.87989 a 77.5,77.5 0 0 0 -77.5000005,77.5 77.5,77.5 0 0 0 77.5000005,77.5 77.5,77.5 0 0 0 77.499997,-77.5 77.5,77.5 0 0 0 -77.499997,-77.5 z m 639.312497,41.86523 v 102.375 h 13.57031 v -41.41406 h 24.04688 l 22.21876,41.41406 h 14.48437 v -0.84375 l -24.04687,-43.45313 c 6.14099,-2.34399 10.92174,-5.88318 14.34375,-10.61718 3.46799,-4.734 5.20312,-10.28906 5.20312,-16.66406 0,-10.03101 -3.11657,-17.67188 -9.35156,-22.92188 -6.187,-5.25 -15.04712,-7.875 -26.57813,-7.875 z m 13.57031,11.10938 h 20.67188 c 7.125,0.047 12.5625,1.75781 16.3125,5.13281 3.797,3.375 5.69531,8.22668 5.69531,14.55469 0,5.81199 -1.99256,10.45287 -5.97656,13.92187 -3.938,3.468 -9.25794,5.20313 -15.96094,5.20313 H 731.8164 Z"
     style="fill:#000000" />
</svg>
