<?xml version="1.0" encoding="UTF-8" standalone="no"?>
<svg
   width="690"
   height="690"
   viewBox="0 0 690 690"
   fill="none"
   version="1.1"
   id="svg2813"
   sodipodi:docname="leg-down.svg"
   inkscape:version="1.1.1 (3bf5ae0d25, 2021-09-20)"
   xmlns:inkscape="http://www.inkscape.org/namespaces/inkscape"
   xmlns:sodipodi="http://sodipodi.sourceforge.net/DTD/sodipodi-0.dtd"
   xmlns="http://www.w3.org/2000/svg"
   xmlns:svg="http://www.w3.org/2000/svg">
  <defs
     id="defs2817" />
  <sodipodi:namedview
     id="namedview2815"
     pagecolor="#505050"
     bordercolor="#eeeeee"
     borderopacity="1"
     inkscape:pageshadow="0"
     inkscape:pageopacity="0"
     inkscape:pagecheckerboard="0"
     showgrid="false"
     inkscape:zoom="1.7710145"
     inkscape:cx="345"
     inkscape:cy="127.32815"
     inkscape:window-width="1920"
     inkscape:window-height="1017"
     inkscape:window-x="1072"
     inkscape:window-y="979"
     inkscape:window-maximized="1"
     inkscape:current-layer="svg2813" />
  <path
     id="path2807"
     d="m 77.713083,217.88672 c -42.8021,0 -77.50000046,34.6979 -77.50000046,77.5 0,42.8022 34.69790046,77.5 77.50000046,77.5 42.801997,0 77.499997,-34.6978 77.499997,-77.5 0,-42.8021 -34.698,-77.5 -77.499997,-77.5 z m 198.037107,30.62304 c -35.95628,-0.26789 -68.70899,3.81446 -85.03711,16.87696 -47.5,38 -24.49805,96.5 -24.49805,96.5 h 236.05274 l 190.84179,89.51367 30.79883,20.71289 c 0,0 44.56386,-60.59603 60.25586,-82.20703 15.692,-21.61 -4.5633,-25.21332 -22.77929,-14.32032 -8.68501,5.193 -28.11071,18.05824 -44.84571,31.99024 l -191.72851,-142.0293 -0.0645,0.0937 -0.0332,-0.2539 c 0,0 -80.31908,-16.36551 -148.96289,-16.87696 z"
     style="fill:#000000" />
</svg>
