<?xml version="1.0" encoding="UTF-8" standalone="no"?>
<svg
   width="628"
   height="628"
   viewBox="0 0 628 628"
   fill="none"
   version="1.1"
   id="svg364"
   sodipodi:docname="leg-up.svg"
   inkscape:version="1.1.1 (3bf5ae0d25, 2021-09-20)"
   xmlns:inkscape="http://www.inkscape.org/namespaces/inkscape"
   xmlns:sodipodi="http://sodipodi.sourceforge.net/DTD/sodipodi-0.dtd"
   xmlns="http://www.w3.org/2000/svg"
   xmlns:svg="http://www.w3.org/2000/svg">
  <defs
     id="defs368" />
  <sodipodi:namedview
     id="namedview366"
     pagecolor="#505050"
     bordercolor="#eeeeee"
     borderopacity="1"
     inkscape:pageshadow="0"
     inkscape:pageopacity="0"
     inkscape:pagecheckerboard="0"
     showgrid="false"
     inkscape:zoom="0.97292995"
     inkscape:cx="447.1031"
     inkscape:cy="266.72013"
     inkscape:window-width="1920"
     inkscape:window-height="1017"
     inkscape:window-x="1072"
     inkscape:window-y="979"
     inkscape:window-maximized="1"
     inkscape:current-layer="svg364" />
  <path
     id="path358"
     d="m 551.88575,158.12012 c -7.65136,0.0175 -10.72335,13.16599 -6.94141,27.25977 2.62199,9.7728 9.68858,31.97331 18.51757,51.87891 L 405.61036,358.87012 c -47.80809,-8.35401 -176.16491,-27.29113 -214.66602,3.50977 -47.5,38 -24.49805,96.5 -24.49805,96.5 l 268.49805,-0.5 2.15429,-0.0312 v 0 l 162.11719,-186.57427 28.33984,-23.96875 c 0,0 -46.11132,-59.42567 -62.61132,-80.42578 -5.15625,-6.56253 -9.58071,-9.2677 -13.05859,-9.25977 z M 77.944337,314.87989 c -42.8021,0 -77.4999995,34.698 -77.4999995,77.5 0,42.802 34.6978995,77.5 77.4999995,77.5 42.802003,0 77.500003,-34.698 77.500003,-77.5 0,-42.802 -34.698,-77.5 -77.500003,-77.5 z"
     style="fill:#000000"
     sodipodi:nodetypes="scccsccccccsssssss" />
</svg>
