<?xml version="1.0" encoding="UTF-8" standalone="no"?>
<svg
   width="783"
   height="783"
   viewBox="0 0 783 783"
   fill="none"
   version="1.1"
   id="svg207"
   sodipodi:docname="leg-l-up.svg"
   inkscape:version="1.1.1 (3bf5ae0d25, 2021-09-20)"
   xmlns:inkscape="http://www.inkscape.org/namespaces/inkscape"
   xmlns:sodipodi="http://sodipodi.sourceforge.net/DTD/sodipodi-0.dtd"
   xmlns="http://www.w3.org/2000/svg"
   xmlns:svg="http://www.w3.org/2000/svg">
  <defs
     id="defs211" />
  <sodipodi:namedview
     id="namedview209"
     pagecolor="#505050"
     bordercolor="#eeeeee"
     borderopacity="1"
     inkscape:pageshadow="0"
     inkscape:pageopacity="0"
     inkscape:pagecheckerboard="0"
     showgrid="false"
     inkscape:zoom="1.5606641"
     inkscape:cx="390.85925"
     inkscape:cy="222.66162"
     inkscape:window-width="1920"
     inkscape:window-height="1017"
     inkscape:window-x="1072"
     inkscape:window-y="979"
     inkscape:window-maximized="1"
     inkscape:current-layer="svg207" />
  <path
     id="circle197"
     d="m 553.45704,235.62012 c -7.65113,0.0175 -10.72267,13.16599 -6.94142,27.25977 2.622,9.7728 9.68858,31.97341 18.51758,51.87891 L 407.17968,436.37012 c -47.80964,-8.35419 -176.16346,-27.29071 -214.66406,3.50977 -47.5,38 -24.49805,96.5 -24.49805,96.5 l 268.49805,-0.5 -0.004,-0.0371 2.1543,0.002 0.004,0.004 0.004,-0.004 181.77539,0.22851 36.67383,5.71876 c 0,0 14.70653,-73.76529 19.76953,-99.98829 5.063,-26.222 -14.81217,-20.90721 -26.70117,-3.32421 -5.668,8.382 -17.81617,28.2627 -27.07617,47.9707 L 502.81054,462.03223 600.7871,349.27442 629.12695,325.30567 c 0,0 -46.11133,-59.42567 -62.61133,-80.42578 -5.15625,-6.56253 -9.58081,-9.2677 -13.05858,-9.25977 z M 79.515625,392.37989 a 77.5,77.5 0 0 0 -77.5,77.5 77.5,77.5 0 0 0 77.5,77.5 77.5,77.5 0 0 0 77.499995,-77.5 77.5,77.5 0 0 0 -77.499995,-77.5 z m 639.382805,41.86523 v 102.375 h 62.08594 v -11.03906 h -48.51562 v -91.33594 z"
     style="fill:#000000" />
</svg>
