<?xml version="1.0" encoding="UTF-8" standalone="no"?>
<svg
   width="781"
   height="781"
   viewBox="0 0 781 781"
   fill="none"
   version="1.1"
   id="svg262"
   sodipodi:docname="leg-r-down.svg"
   inkscape:version="1.1.1 (3bf5ae0d25, 2021-09-20)"
   xmlns:inkscape="http://www.inkscape.org/namespaces/inkscape"
   xmlns:sodipodi="http://sodipodi.sourceforge.net/DTD/sodipodi-0.dtd"
   xmlns="http://www.w3.org/2000/svg"
   xmlns:svg="http://www.w3.org/2000/svg">
  <defs
     id="defs266" />
  <sodipodi:namedview
     id="namedview264"
     pagecolor="#505050"
     bordercolor="#eeeeee"
     borderopacity="1"
     inkscape:pageshadow="0"
     inkscape:pageopacity="0"
     inkscape:pagecheckerboard="0"
     showgrid="false"
     inkscape:zoom="1.5646607"
     inkscape:cx="391.13911"
     inkscape:cy="209.31056"
     inkscape:window-width="1920"
     inkscape:window-height="1017"
     inkscape:window-x="1072"
     inkscape:window-y="979"
     inkscape:window-maximized="1"
     inkscape:current-layer="svg262" />
  <path
     id="circle252"
     d="m 78.933595,260.38575 a 77.5,77.5 0 0 0 -77.5,77.5 77.5,77.5 0 0 0 77.5,77.5 77.5,77.5 0 0 0 77.500005,-77.5 77.5,77.5 0 0 0 -77.500005,-77.5 z m 590.382815,31.33594 c -5.82201,0.24875 -13.76253,5.97267 -19.70704,14.76367 -5.668,8.383 -17.81617,28.26365 -27.07617,47.97266 l -195.58593,-39.69922 -0.0137,-0.13086 c 0,0 -187.5,-44.74219 -235,-6.74219 -47.5,38 -24.49805,96.5 -24.49805,96.5 l 218.39062,-0.40625 204.5039,95.92187 30.79883,20.71289 c 0,0 44.56386,-60.59603 60.25586,-82.20703 15.692,-21.61 -4.5623,-25.21331 -22.77929,-14.32031 -8.68401,5.193 -28.11071,18.05824 -44.84571,31.99024 l -70.32031,-52.0918 76.42773,0.0957 36.67383,5.71875 c 0,0 14.70653,-73.76528 19.76953,-99.98828 2.5315,-13.111 -1.17214,-18.33859 -6.99413,-18.08984 z m 35.92968,7.69336 v 102.375 h 13.57032 v -41.41407 h 24.04687 l 22.21875,41.41407 h 14.48438 v -0.84375 l -24.04688,-43.45313 c 6.141,-2.343 10.92175,-5.88219 14.34375,-10.61719 3.468,-4.734 5.20313,-10.28906 5.20313,-16.66406 0,-10.031 -3.11657,-17.67187 -9.35157,-22.92187 -6.18699,-5.25 -15.04711,-7.875 -26.57812,-7.875 z m 13.57032,11.10937 h 20.67187 c 7.125,0.047 12.5625,1.75781 16.3125,5.13281 3.797,3.375 5.69531,8.22669 5.69531,14.55469 0,5.813 -1.99256,10.45288 -5.97656,13.92188 -3.93799,3.469 -9.25794,5.20312 -15.96094,5.20312 H 718.8164 Z"
     style="fill:#000000" />
</svg>
