<?xml version="1.0" encoding="UTF-8" standalone="no"?>
<svg
   width="770"
   height="770"
   viewBox="0 0 770 770"
   fill="none"
   version="1.1"
   id="svg51"
   sodipodi:docname="leg-l-down.svg"
   inkscape:version="1.1.1 (3bf5ae0d25, 2021-09-20)"
   xmlns:inkscape="http://www.inkscape.org/namespaces/inkscape"
   xmlns:sodipodi="http://sodipodi.sourceforge.net/DTD/sodipodi-0.dtd"
   xmlns="http://www.w3.org/2000/svg"
   xmlns:svg="http://www.w3.org/2000/svg">
  <defs
     id="defs55" />
  <sodipodi:namedview
     id="namedview53"
     pagecolor="#505050"
     bordercolor="#eeeeee"
     borderopacity="1"
     inkscape:pageshadow="0"
     inkscape:pageopacity="0"
     inkscape:pagecheckerboard="0"
     showgrid="false"
     inkscape:zoom="1.2020815"
     inkscape:cx="380.17388"
     inkscape:cy="206.72475"
     inkscape:window-width="1920"
     inkscape:window-height="1017"
     inkscape:window-x="1072"
     inkscape:window-y="979"
     inkscape:window-maximized="1"
     inkscape:current-layer="svg51" />
  <path
     id="circle41"
     d="m 79.515625,254.88574 a 77.5,77.5 0 0 0 -77.5,77.5 77.5,77.5 0 0 0 77.5,77.5 77.5,77.5 0 0 0 77.499995,-77.5 77.5,77.5 0 0 0 -77.499995,-77.5 z m 590.382805,31.33594 c -5.822,0.24875 -13.76253,5.97267 -19.70703,14.76368 -5.668,8.38299 -17.81617,28.26364 -27.07617,47.97265 l -195.58594,-39.69922 -0.0137,-0.13086 c 0,0 -187.5,-44.74219 -235,-6.74219 -47.5,38 -24.49805,96.5 -24.49805,96.5 l 218.38868,-0.40625 204.50585,95.92187 30.79883,20.71289 c 0,0 44.56386,-60.59602 60.25586,-82.20703 15.692,-21.61 -4.5623,-25.21331 -22.77929,-14.32031 -8.68401,5.193 -28.11071,18.05824 -44.8457,31.99024 l -70.31836,-52.09179 76.42578,0.0957 36.67383,5.71875 c 0,0 14.70653,-73.76528 19.76953,-99.98828 2.5315,-13.111 -1.17214,-18.33859 -6.99415,-18.08984 z m 36,7.69337 v 102.375 h 62.08594 v -11.03906 h -48.51562 v -91.33594 z"
     style="fill:#000000" />
</svg>
