<?xml version="1.0" encoding="UTF-8" standalone="no"?>
<svg
   width="500"
   height="500"
   viewBox="0 0 500 500"
   fill="none"
   version="1.1"
   id="svg3041"
   sodipodi:docname="level.svg"
   inkscape:version="1.1.1 (3bf5ae0d25, 2021-09-20)"
   xmlns:inkscape="http://www.inkscape.org/namespaces/inkscape"
   xmlns:sodipodi="http://sodipodi.sourceforge.net/DTD/sodipodi-0.dtd"
   xmlns="http://www.w3.org/2000/svg"
   xmlns:svg="http://www.w3.org/2000/svg">
  <defs
     id="defs3045" />
  <sodipodi:namedview
     id="namedview3043"
     pagecolor="#ffffff"
     bordercolor="#111111"
     borderopacity="1"
     inkscape:pageshadow="0"
     inkscape:pageopacity="0"
     inkscape:pagecheckerboard="1"
     showgrid="false"
     inkscape:zoom="2.444"
     inkscape:cx="250"
     inkscape:cy="219.92635"
     inkscape:window-width="1920"
     inkscape:window-height="1017"
     inkscape:window-x="1072"
     inkscape:window-y="979"
     inkscape:window-maximized="1"
     inkscape:current-layer="svg3041" />
  <path
     id="path3141"
     style="fill:#000000;stroke-width:0.409165"
     d="m 247.23242,117.51337 c -7.44886,0.13802 -14.86129,0.94845 -21.16797,2.41015 -17.35914,4.02335 -31.45545,13.83428 -40.67187,28.30664 -4.29364,6.74222 -8.82662,17.57697 -11.42383,27.31055 -2.47112,9.261 -3.91375,17.86164 -5.28711,31.50586 -0.73621,7.31458 -0.72832,77.42759 0.01,84.90039 2.68036,27.13726 8.15571,45.81724 17.6914,60.35352 11.86274,18.08364 28.54084,27.41801 53.5918,29.99804 3.33767,0.34374 16.1611,0.24507 20.28516,-0.15625 20.99468,-2.04297 37.60339,-10.48395 48.65429,-24.72851 11.86195,-15.29 18.55053,-36.74734 21.10742,-67.7168 0.67418,-8.16573 0.97328,-58.20799 0.42579,-71.20898 -1.64742,-39.12 -9.83376,-64.80453 -25.82422,-81.0293 -9.65136,-9.79279 -20.70259,-15.41754 -36.00586,-18.32422 -6.45109,-1.22531 -13.93591,-1.75912 -21.38477,-1.62109 z m 1.97656,26.72851 c 4.02787,0.003 8.05989,0.25372 10.53907,0.74805 19.94876,3.97766 31.30452,18.50455 36.04492,46.11719 2.03491,11.85315 2.08008,13.11784 2.08008,58.08203 0,45.54533 -0.0457,46.7365 -2.26367,59.50976 -4.85211,27.9425 -16.77689,43.15126 -36.56836,46.63672 -11.21962,1.97588 -22.52417,0.4341 -31.22266,-4.25781 -15.27429,-8.23885 -23.36779,-25.17532 -26.59375,-55.65234 -0.62682,-5.92156 -0.71561,-11.52729 -0.72461,-45.6211 -0.0101,-39.65403 0.11651,-43.7637 1.66016,-54.41992 4.4451,-30.68563 15.73048,-46.25639 36.54101,-50.41211 2.45617,-0.49048 6.47994,-0.73361 10.50781,-0.73047 z M 74.0586,214.4118 c -0.11229,0 -0.20508,6.62705 -0.20508,14.72852 v 14.73047 H 37.0293 0.20508 v 12.47851 12.48047 H 37.0293 73.85352 v 14.73047 c 0,8.10147 0.10237,14.72852 0.22656,14.72852 0.28371,0 71.87107,-41.29289 72.32226,-41.7168 C 146.67009,256.3204 74.75799,214.4118 74.0586,214.4118 Z m 351.89452,0 c -0.57262,0 -72.62432,41.88506 -72.41406,42.09571 0.13787,0.13814 16.3942,9.58702 36.12305,20.99609 19.72885,11.40907 36.007,20.75383 36.17578,20.76563 0.16878,0.0118 0.30859,-6.60752 0.30859,-14.70899 v -14.73047 h 36.82422 36.82422 V 256.3493 243.87079 H 462.9707 426.14648 v -14.73047 c 0,-8.10147 -0.0873,-14.72852 -0.19336,-14.72852 z" />
</svg>
