<svg width="278" height="500" viewBox="0 0 278 500" fill="none" xmlns="http://www.w3.org/2000/svg">
<path fill-rule="evenodd" clip-rule="evenodd" d="M245.067 70.6647C250.818 84.5531 253.78 99.4383 253.78 114.471V219.222H258.099C268.835 219.222 277.538 227.925 277.538 238.661V480.562C277.538 491.297 268.835 500 258.099 500H19.4384C8.70292 500 0 491.297 0 480.562V238.661C0 227.925 8.70292 219.222 19.4384 219.222H24.838V114.471C24.838 99.4383 27.7993 84.5531 33.5511 70.6647C39.304 56.7764 47.7366 44.1573 58.366 33.5277C68.9953 22.8981 81.6147 14.4663 95.5028 8.71366C109.391 2.9608 124.277 0 139.309 0C154.341 0 169.227 2.9608 183.115 8.71366C197.003 14.4663 209.622 22.8981 220.252 33.5277C230.881 44.1573 239.314 56.7764 245.067 70.6647ZM57.2354 114.471V219.222H221.382V114.471H221.517C221.517 103.675 219.391 92.9849 215.26 83.0107C211.128 73.0368 205.073 63.9741 197.44 56.3403C189.805 48.7066 180.743 42.651 170.769 38.5196C160.794 34.3882 150.105 32.2619 139.309 32.2619C128.513 32.2619 117.823 34.3882 107.849 38.5196C97.8746 42.651 88.8123 48.7066 81.1781 56.3403C73.5449 63.9741 67.4893 73.0368 63.3574 83.011C59.2265 92.9849 57.1004 103.675 57.1004 114.471H57.2354ZM177.106 295.896H101.512V317.495H125.27V403.888H101.512V425.486H177.106V403.888H152.268V317.495H177.106V295.896Z" fill="#707172"/>
</svg>
