<?xml version="1.0" encoding="UTF-8" standalone="no"?>
<svg
   width="500"
   height="500"
   viewBox="0 0 500 500"
   fill="none"
   version="1.1"
   id="svg3593"
   sodipodi:docname="lock.svg"
   inkscape:version="1.1.1 (3bf5ae0d25, 2021-09-20)"
   xmlns:inkscape="http://www.inkscape.org/namespaces/inkscape"
   xmlns:sodipodi="http://sodipodi.sourceforge.net/DTD/sodipodi-0.dtd"
   xmlns="http://www.w3.org/2000/svg"
   xmlns:svg="http://www.w3.org/2000/svg">
  <defs
     id="defs3597" />
  <sodipodi:namedview
     id="namedview3595"
     pagecolor="#ffffff"
     bordercolor="#111111"
     borderopacity="1"
     inkscape:pageshadow="0"
     inkscape:pageopacity="0"
     inkscape:pagecheckerboard="1"
     showgrid="false"
     inkscape:zoom="1.438"
     inkscape:cx="139.08206"
     inkscape:cy="250"
     inkscape:window-width="1920"
     inkscape:window-height="1017"
     inkscape:window-x="1072"
     inkscape:window-y="979"
     inkscape:window-maximized="1"
     inkscape:current-layer="svg3593" />
  <path
     style="fill:#000000;stroke-width:0.69541"
     d="m 125.47958,499.06998 c -4.79594,-1.46953 -9.70155,-5.66235 -12.2624,-10.48069 -1.2454,-2.34325 -1.30035,-7.09668 -1.47494,-127.57964 -0.20593,-142.10935 -0.75146,-129.22777 5.74803,-135.72727 4.1479,-4.14789 8.47298,-5.81687 15.07414,-5.81687 h 4.04624 v -57.6319 c 0,-55.36392 0.0575,-57.97057 1.46126,-66.237837 6.20089,-36.519558 29.54853,-67.609122 62.86419,-83.709531 28.67342,-13.8569631 62.03788,-15.1242067 91.53416,-3.4766355 14.99833,5.9225845 26.19764,13.3927685 38.54719,25.7118365 13.49397,13.460647 22.14826,27.292514 27.72166,44.306597 5.73086,17.494785 5.95373,20.69466 5.96041,85.5785 l 0.006,55.45897 h 3.35084 c 7.61127,0 14.98077,4.27911 18.40981,10.6897 l 1.5356,2.8708 0.18129,125.79051 0.1813,125.7905 -1.62985,3.56004 c -1.90752,4.16658 -5.04705,7.51133 -9.0704,9.66327 l -2.87514,1.53782 -123.78303,0.11796 c -68.08067,0.0649 -124.56739,-0.12238 -125.52606,-0.41613 z m 163.26972,-84.36803 0.19152,-10.95272 H 276.40577 263.87073 V 360.6338 317.51836 h 12.51738 12.51739 V 306.7395 295.96064 h -38.24757 -38.24756 v 10.77886 10.77886 h 11.82197 11.82198 v 43.11544 43.11543 h -11.82198 -11.82197 v 11.13251 11.1325 l 38.07371,-0.17979 38.07371,-0.17979 z m 43.80769,-254.52017 -0.204,-59.28373 -1.87225,-6.810823 c -7.84973,-28.555519 -29.12518,-50.597641 -56.49272,-58.528441 -8.67903,-2.515085 -14.12313,-3.245734 -24.0255,-3.224447 -22.8028,0.04902 -43.36058,8.929859 -59.17623,25.563776 -10.55357,11.099596 -17.20099,23.713945 -21.25836,40.34053 -1.02144,4.185765 -1.18985,11.616695 -1.42741,62.986255 l -0.26934,58.24061 h 82.46491 82.46491 z"
     id="path3693" />
</svg>
