<?xml version="1.0" encoding="UTF-8" standalone="no"?>
<svg
   width="500"
   height="500"
   viewBox="0 0 500 500"
   fill="none"
   version="1.1"
   id="svg942"
   sodipodi:docname="onoff.svg"
   inkscape:version="1.1.1 (3bf5ae0d25, 2021-09-20)"
   xmlns:inkscape="http://www.inkscape.org/namespaces/inkscape"
   xmlns:sodipodi="http://sodipodi.sourceforge.net/DTD/sodipodi-0.dtd"
   xmlns="http://www.w3.org/2000/svg"
   xmlns:svg="http://www.w3.org/2000/svg">
  <defs
     id="defs946" />
  <sodipodi:namedview
     id="namedview944"
     pagecolor="#ffffff"
     bordercolor="#111111"
     borderopacity="1"
     inkscape:pageshadow="0"
     inkscape:pageopacity="0"
     inkscape:pagecheckerboard="1"
     showgrid="false"
     inkscape:zoom="1.222"
     inkscape:cx="395.25368"
     inkscape:cy="248.36334"
     inkscape:window-width="1920"
     inkscape:window-height="1017"
     inkscape:window-x="1072"
     inkscape:window-y="979"
     inkscape:window-maximized="1"
     inkscape:current-layer="svg942" />
  <path
     id="path1042"
     style="fill:#000000;stroke-width:0.409165"
     d="m 314.54084,114.6816 -1.35937,2.32617 c -6.15955,10.53649 -147.19895,255.39217 -147.36524,255.8379 -0.15347,0.41136 2.78611,2.3121 10.11328,6.54101 5.68137,3.27903 10.36139,5.94904 10.40039,5.93164 0.19397,-0.0867 149.06761,-258.554 148.97461,-258.64258 -0.0595,-0.0567 -4.75546,-2.77877 -10.43554,-6.04883 z m 89.51172,0.0859 c -2.03353,0.0207 -4.09709,0.40085 -5.64062,1.13281 -2.67153,1.26688 -5.38594,3.91281 -6.6543,6.48633 -1.33861,2.71598 -1.32162,8.8042 0.0312,11.55078 1.63927,3.32803 4.91939,6.10479 8.66992,7.33789 0.5626,0.18497 2.42943,0.28062 4.14844,0.21289 7.43509,-0.29294 12.78845,-5.88421 12.81054,-13.37695 0.008,-2.6734 -0.17067,-3.45345 -1.33203,-5.8125 -1.46189,-2.96953 -3.52064,-5.01063 -6.57031,-6.51172 -1.42551,-0.70166 -3.42936,-1.04029 -5.46289,-1.01953 z M 94.950998,153.96867 c -9.92445,0.0575 -18.49419,1.40291 -27.68359,4.29883 -30.235322,9.52824 -54.786072,34.77038 -63.2968789,65.08008 -9.419238,33.5449 -0.195644,69.40681 24.1269519,93.8164 16.585067,16.64439 38.172677,26.53435 61.599607,28.22071 19.889562,1.43173 41.761062,-4.2051 58.306642,-15.02735 22.86303,-14.95443 38.25489,-38.28587 42.71875,-64.75195 6.28456,-37.26092 -10.01669,-74.77479 -41.60937,-95.75586 -15.10957,-10.03445 -31.66053,-15.29271 -49.820312,-15.82813 -1.47888,-0.0436 -2.92402,-0.0609 -4.3418,-0.0527 z m 312.117192,0.0332 c -2.02228,-0.0495 -4.08072,-0.0424 -6.18164,0.0195 -14.32388,0.42233 -25.92368,3.3016 -39.09571,9.70313 -25.95776,12.61531 -44.97718,36.72037 -51.33398,65.06055 -6.19439,27.61616 -0.041,55.75764 17.26758,78.96875 3.72429,4.99435 13.3201,14.59016 18.31445,18.31445 15.37098,11.46216 32.46266,17.8904 51.32812,19.30664 12.42497,0.93275 27.74044,-1.21574 39.40039,-5.52929 29.82712,-11.03449 52.23648,-35.74642 60.04493,-66.2129 2.30337,-8.98712 2.8497,-13.59334 2.8457,-23.98046 -0.003,-6.84445 -0.1935,-10.41188 -0.74219,-13.91016 -3.18254,-20.29109 -11.96053,-38.00407 -26.0332,-52.52735 -8.33556,-8.60246 -15.76821,-14.02999 -26.60547,-19.43359 -12.67652,-6.32069 -25.05306,-9.43244 -39.20898,-9.7793 z M 96.706858,182.80269 c 1.49093,0.0135 2.98754,0.0778 4.488282,0.19141 16.44594,1.24485 31.64438,8.34759 42.93164,20.06641 9.68225,10.05244 15.50039,21.41393 18.09961,35.33984 1.07339,5.75088 0.95322,17.85963 -0.23633,23.82617 -5.53115,27.74298 -26.64279,48.46723 -54.53906,53.53516 -4.20601,0.76411 -14.615062,1.07984 -18.777342,0.57031 -22.99043,-2.81435 -42.83165,-16.88073 -52.787114,-37.42382 -2.330307,-4.80859 -3.792038,-9.01281 -5.191406,-14.9336 -1.52041,-6.43293 -1.788634,-18.22603 -0.576172,-25.33008 1.580069,-9.25793 5.335976,-18.60969 10.621092,-26.44727 12.57952,-18.6548 33.60284,-29.59731 55.9668,-29.39453 z m 308.064452,0 c 7.76488,0.0614 15.46824,1.41626 22.48828,4.0586 21.66572,8.15496 37.45117,26.54537 42.4336,49.43359 0.78044,3.58517 0.90606,5.40827 0.91406,13.35743 0.008,8.05468 -0.10625,9.73138 -0.91211,13.40039 -4.65197,21.18017 -17.8657,38.02532 -36.98438,47.14843 -7.07291,3.37507 -13.65607,5.22588 -21.81836,6.13672 -14.01096,1.56351 -29.61061,-1.92728 -41.52539,-9.29297 -16.45775,-10.17414 -27.37873,-25.86865 -31.18554,-44.81836 -1.19177,-5.93243 -1.30641,-18.02376 -0.22657,-23.82617 4.54463,-24.42003 21.07179,-43.93192 43.95899,-51.89844 7.26669,-2.52937 15.09254,-3.76061 22.85742,-3.69922 z M 96.124828,236.3027 c -1.9438,0.0302 -3.90494,0.40499 -5.42383,1.11718 -5.11942,2.40047 -7.94922,6.75456 -7.94922,12.23243 0,2.68399 0.18307,3.48033 1.33984,5.83007 1.57531,3.1999 4.13344,5.63733 7.1836,6.84571 2.9301,1.16081 7.85592,0.97596 10.703122,-0.40235 4.62734,-2.24006 7.26004,-6.35899 7.4961,-11.72265 0.12926,-2.93717 0.0139,-3.63464 -0.96875,-5.82422 -1.30113,-2.89929 -4.17919,-5.80584 -7.0586,-7.12696 -1.451752,-0.66608 -3.378462,-0.97939 -5.322262,-0.94921 z" />
</svg>
