<?xml version="1.0" encoding="UTF-8" standalone="no"?>
<svg
   width="500"
   height="500"
   viewBox="0 0 500 500"
   fill="none"
   version="1.1"
   id="svg1672"
   sodipodi:docname="rev-trend.svg"
   inkscape:version="1.1.1 (3bf5ae0d25, 2021-09-20)"
   xmlns:inkscape="http://www.inkscape.org/namespaces/inkscape"
   xmlns:sodipodi="http://sodipodi.sourceforge.net/DTD/sodipodi-0.dtd"
   xmlns="http://www.w3.org/2000/svg"
   xmlns:svg="http://www.w3.org/2000/svg">
  <defs
     id="defs1676" />
  <sodipodi:namedview
     id="namedview1674"
     pagecolor="#ffffff"
     bordercolor="#111111"
     borderopacity="1"
     inkscape:pageshadow="0"
     inkscape:pageopacity="0"
     inkscape:pagecheckerboard="1"
     showgrid="false"
     inkscape:zoom="0.611"
     inkscape:cx="-135.84288"
     inkscape:cy="279.05074"
     inkscape:window-width="1920"
     inkscape:window-height="1017"
     inkscape:window-x="1072"
     inkscape:window-y="979"
     inkscape:window-maximized="1"
     inkscape:current-layer="svg1672" />
  <path
     id="path1772"
     style="fill:#000000;stroke-width:0.818331"
     d="m 56.311138,122.97945 c -7.977919,0 -10.970833,0.35662 -15.957032,1.9043 -17.905881,5.55786 -31.4175313,18.76867 -37.3886713,36.55664 -1.930074,5.74967 -2.20065605,7.84233 -2.21679705,17.18555 -0.0165,9.54961 0.215415,11.30886 2.25976505,17.18554 3.108117,8.93459 6.375716,14.37559 12.5898443,20.96289 8.292796,8.7908 19.864305,15.19067 30.748047,17.00781 12.037691,2.00981 23.321525,0.26877 34.90625,-5.38867 6.378715,-3.11507 8.924778,-4.96554 14.339844,-10.41211 11.043652,-11.10788 16.288312,-23.61981 16.324212,-38.94726 0.0245,-10.44503 -1.09563,-15.36412 -5.68554,-24.95899 -6.498123,-13.58378 -18.392033,-23.9809 -32.853516,-28.7207 -6.366248,-2.08656 -8.43894,-2.375 -17.066406,-2.375 z m 98.773432,61.17188 c -2.94866,-0.0425 -5.63217,0.14031 -8.03516,0.55078 -11.91933,2.03602 -25.75741,10.85188 -33.42187,21.29297 -6.3243,8.61542 -11.36224,22.40738 -12.33398,33.76367 l -0.51172,5.9707 40.77539,14.50391 c 22.42687,7.97766 58.82099,20.97614 80.875,28.88476 22.05401,7.90863 78.76485,28.02308 126.02344,44.69922 81.65094,28.81216 86.51345,30.63869 97.78906,36.73633 6.52618,3.52925 12.05704,6.43939 12.28906,6.4668 0.73306,0.0866 38.73055,-64.82056 39.97852,-68.29102 3.10992,-8.64835 -3.92941,-11.5828 -14.65821,-6.10938 -4.31024,2.19893 -15.77342,11.47746 -26.20117,21.20704 l -8.64062,8.0625 -77.28321,-46.23243 C 287.07653,235.01756 276.11472,228.71501 251.89121,216.74117 209.42628,195.75046 175.7252,184.44874 155.08457,184.15133 Z" />
</svg>
