<?xml version="1.0" encoding="UTF-8" standalone="no"?>
<svg
   width="500"
   height="260"
   viewBox="0 0 500 260"
   fill="none"
   version="1.1"
   id="svg166"
   sodipodi:docname="Reverse-Function.svg"
   inkscape:version="1.1.1 (3bf5ae0d25, 2021-09-20)"
   xmlns:inkscape="http://www.inkscape.org/namespaces/inkscape"
   xmlns:sodipodi="http://sodipodi.sourceforge.net/DTD/sodipodi-0.dtd"
   xmlns="http://www.w3.org/2000/svg"
   xmlns:svg="http://www.w3.org/2000/svg">
  <defs
     id="defs170" />
  <sodipodi:namedview
     id="namedview168"
     pagecolor="#505050"
     bordercolor="#eeeeee"
     borderopacity="1"
     inkscape:pageshadow="0"
     inkscape:pageopacity="0"
     inkscape:pagecheckerboard="0"
     showgrid="false"
     inkscape:zoom="2.444"
     inkscape:cx="250.20458"
     inkscape:cy="129.90998"
     inkscape:window-width="1920"
     inkscape:window-height="1017"
     inkscape:window-x="1072"
     inkscape:window-y="979"
     inkscape:window-maximized="1"
     inkscape:current-layer="svg166" />
  <path
     id="path154"
     d="M 445.51367 0 C 415.42167 0 391.02734 24.389763 391.02734 54.476562 C 391.02734 84.563362 415.42167 108.95312 445.51367 108.95312 C 475.60567 108.95312 500 84.563363 500 54.476562 C 500 24.389763 475.60567 -4.7369516e-15 445.51367 0 z M 5.5234375 21.525391 C 1.4311675 21.330266 -1.1910913 24.991797 0.54296875 34.216797 C 4.0111087 52.666697 14.09375 104.56836 14.09375 104.56836 L 39.896484 100.67773 L 213.66797 101.31641 L 299.27734 101.31641 L 299.26758 101.22266 L 383.29297 101.22266 C 383.29297 101.22266 399.46336 60.099972 366.06836 33.388672 C 332.67336 6.6773719 201.55469 33.388672 201.55469 33.388672 L 201.54297 33.476562 L 38.195312 65.787109 C 31.753813 51.901109 23.281672 37.884256 19.326172 31.972656 C 15.177422 25.772356 9.6157075 21.720516 5.5234375 21.525391 z M 0 128.76367 L 0 148.57422 L 365.29297 148.57422 L 365.29297 128.76367 L 0 128.76367 z M 385.10352 128.76367 L 385.10352 148.57422 L 500 148.57422 L 500 128.76367 L 385.10352 128.76367 z M 220.28516 168.38281 L 220.28516 239.69922 L 174.72266 239.69922 L 174.72266 259.50977 L 337.16211 259.50977 L 337.16211 239.69922 L 291.60156 239.69922 L 291.60156 168.38281 L 220.28516 168.38281 z "
     style="fill:#000000" />
</svg>
