<?xml version="1.0" encoding="UTF-8" standalone="no"?>
<svg
   width="500"
   height="500"
   viewBox="0 0 500 500"
   fill="none"
   version="1.1"
   id="svg27"
   sodipodi:docname="trend.svg"
   inkscape:version="1.1.1 (3bf5ae0d25, 2021-09-20)"
   xmlns:inkscape="http://www.inkscape.org/namespaces/inkscape"
   xmlns:sodipodi="http://sodipodi.sourceforge.net/DTD/sodipodi-0.dtd"
   xmlns="http://www.w3.org/2000/svg"
   xmlns:svg="http://www.w3.org/2000/svg">
  <defs
     id="defs31" />
  <sodipodi:namedview
     id="namedview29"
     pagecolor="#505050"
     bordercolor="#eeeeee"
     borderopacity="1"
     inkscape:pageshadow="0"
     inkscape:pageopacity="0"
     inkscape:pagecheckerboard="0"
     showgrid="false"
     inkscape:zoom="2.6088435"
     inkscape:cx="249.91917"
     inkscape:cy="147"
     inkscape:window-width="1920"
     inkscape:window-height="1017"
     inkscape:window-x="1072"
     inkscape:window-y="979"
     inkscape:window-maximized="1"
     inkscape:current-layer="svg27" />
  <path
     id="path21"
     d="m 473.11886,103.50375 c -4.90802,-0.4077 -10.06586,7.2453 -11.53711,17.14063 -1.122,7.5477 -2.90244,25.02811 -2.77344,41.44921 l -173.29297,43.63282 -0.0527,-0.0801 c 0,0 -139.46184,34.27105 -159.58984,75.49805 -20.127,41.228 14.44531,73.68164 14.44531,73.68164 l 81.50781,-38.56055 0.0352,0.0977 83.04492,-39.28711 168.27727,-80.36916 26.81641,-8.06641 c 0,0 -14.05506,-54.95715 -19.16406,-74.43945 -1.91588,-7.30583 -4.77199,-10.45265 -7.7168,-10.69727 z M 58.855193,279.59555 c -8.51325,-0.0589 -17.17276,1.7468 -25.382813,5.63086 -29.1911801,13.81 -41.6536377,48.65703 -27.8359376,77.83203 13.8176806,29.175 48.6817476,41.63032 77.8730476,27.82031 29.1913,-13.81 41.65589,-48.65607 27.83789,-77.83007 -9.93155,-20.96953 -30.736104,-33.30259 -52.492187,-33.45313 z"
     style="fill:#000000" />
</svg>
