<svg width="200" height="200" viewBox="0 0 200 200" fill="none" xmlns="http://www.w3.org/2000/svg">
<path d="M123.148 79.6296H132.407V98.1482H141.666L127.777 116.667L113.889 98.1482H123.148V79.6296Z" fill="#707172"/>
<path fill-rule="evenodd" clip-rule="evenodd" d="M58.333 98.1473L62.9626 93.5178V79.6296H76.8514L81.4812 75L86.111 79.6296H99.9997V93.5178L104.629 98.1473L99.9997 102.777V116.667H86.1106L81.4812 121.296L76.8517 116.667H62.9626V102.777L58.333 98.1473ZM81.4812 107.407C86.5949 107.407 90.7404 103.262 90.7404 98.1482C90.7404 93.0344 86.5949 88.8889 81.4812 88.8889C76.3674 88.8889 72.2219 93.0344 72.2219 98.1482C72.2219 103.262 76.3674 107.407 81.4812 107.407Z" fill="#707172"/>
</svg>
