<svg width="200" height="200" viewBox="0 0 200 200" fill="none" xmlns="http://www.w3.org/2000/svg">
<path fill-rule="evenodd" clip-rule="evenodd" d="M141.666 79.1667V129.167C141.666 133.769 137.935 137.5 133.333 137.5H66.6663C62.064 137.5 58.333 133.769 58.333 129.167V79.1667C58.333 74.5643 62.064 70.8333 66.6663 70.8333H74.9997L83.333 62.5H116.666L125 70.8333H133.333C137.935 70.8333 141.666 74.5643 141.666 79.1667ZM99.9997 120.833C109.204 120.833 116.666 113.371 116.666 104.167C116.666 94.9619 109.204 87.5 99.9997 87.5C90.7949 87.5 83.333 94.9619 83.333 104.167C83.333 113.371 90.7949 120.833 99.9997 120.833Z" fill="#707172"/>
</svg>
