<svg width="200" height="200" viewBox="0 0 200 200" fill="none" xmlns="http://www.w3.org/2000/svg">
<path d="M141.666 100C141.666 109.64 138.324 118.982 132.208 126.433C126.093 133.885 117.583 138.986 108.128 140.866C98.6739 142.747 88.8597 141.291 80.3582 136.747C71.8566 132.203 65.1937 124.851 61.5047 115.945C57.8157 107.039 57.3289 97.1298 60.1272 87.905C62.9255 78.6803 68.8357 70.7113 76.8509 65.3557C84.8661 60.0001 94.4903 57.5893 104.084 58.5342C113.677 59.4791 122.646 63.7211 129.462 70.5374L137.5 62.5002V83.3336H116.666L123.57 76.43C118.117 70.9769 110.942 67.5833 103.267 66.8274C95.5922 66.0715 87.8928 68.0001 81.4807 72.2846C75.0685 76.569 70.3403 82.9443 68.1017 90.3241C65.863 97.7038 66.2525 105.632 69.2037 112.756C72.1549 119.881 77.4852 125.762 84.2865 129.398C91.0877 133.033 98.939 134.198 106.503 132.693C114.066 131.189 120.874 127.108 125.767 121.147C130.659 115.185 133.333 107.712 133.333 100H141.666Z" fill="#707172"/>
<path d="M116.666 100C116.666 109.205 109.204 116.667 99.9997 116.667C90.7949 116.667 83.333 109.205 83.333 100C83.333 90.7955 90.7949 83.3336 99.9997 83.3336C109.204 83.3336 116.666 90.7955 116.666 100Z" fill="#707172"/>
</svg>
