<svg width="200" height="200" viewBox="0 0 200 200" fill="none" xmlns="http://www.w3.org/2000/svg">
<path d="M141.666 100C141.666 90.3604 138.324 81.0188 132.208 73.5672C126.093 66.1155 117.583 61.0148 108.128 59.1342C98.6739 57.2535 88.8597 58.7093 80.3582 63.2535C71.8566 67.7977 65.1937 75.1491 61.5047 84.0551C57.8157 92.9611 57.3289 102.871 60.1272 112.095C62.9255 121.32 68.8357 129.289 76.8509 134.645C84.8661 140 94.4903 142.411 104.084 141.466C113.677 140.521 122.646 136.279 129.462 129.463L137.5 137.5V116.667H116.666L123.57 123.57C118.117 129.024 110.942 132.417 103.267 133.173C95.5922 133.929 87.8928 132 81.4807 127.716C75.0685 123.431 70.3403 117.056 68.1017 109.676C65.863 102.297 66.2525 94.3689 69.2037 87.2441C72.1549 80.1193 77.4852 74.2382 84.2865 70.6029C91.0877 66.9675 98.939 65.8029 106.503 67.3074C114.066 68.8119 120.874 72.8925 125.767 78.8538C130.659 84.8151 133.333 92.2884 133.333 100H141.666Z" fill="#707172"/>
<path d="M116.666 100C116.666 109.205 109.204 116.667 99.9997 116.667C90.7949 116.667 83.333 109.205 83.333 100C83.333 90.7955 90.7949 83.3336 99.9997 83.3336C109.204 83.3336 116.666 90.7955 116.666 100Z" fill="#707172"/>
</svg>
