<svg width="200" height="200" viewBox="0 0 200 200" fill="none" xmlns="http://www.w3.org/2000/svg">
<path d="M74.9997 83.3333C74.9997 87.9357 71.2687 91.6667 66.6663 91.6667C62.064 91.6667 58.333 87.9357 58.333 83.3333C58.333 78.731 62.064 75 66.6663 75C71.2687 75 74.9997 78.731 74.9997 83.3333Z" fill="#707172"/>
<path d="M141.666 83.3333C141.666 87.9357 137.935 91.6667 133.333 91.6667C128.731 91.6667 125 87.9357 125 83.3333C125 78.731 128.731 75 133.333 75C137.935 75 141.666 78.731 141.666 83.3333Z" fill="#707172"/>
<path d="M108.333 133.333C108.333 137.936 104.602 141.667 99.9997 141.667C95.3973 141.667 91.6663 137.936 91.6663 133.333C91.6663 128.731 95.3973 125 99.9997 125C104.602 125 108.333 128.731 108.333 133.333Z" fill="#707172"/>
<path fill-rule="evenodd" clip-rule="evenodd" d="M99.9997 116.667C109.204 116.667 116.666 109.205 116.666 100C116.666 90.7953 109.204 83.3333 99.9997 83.3333C90.7949 83.3333 83.333 90.7953 83.333 100C83.333 109.205 90.7949 116.667 99.9997 116.667ZM99.9997 108.333C104.602 108.333 108.333 104.602 108.333 100C108.333 95.3976 104.602 91.6667 99.9997 91.6667C95.3973 91.6667 91.6663 95.3976 91.6663 100C91.6663 104.602 95.3973 108.333 99.9997 108.333Z" fill="#707172"/>
</svg>
